<?xml version="1.0" encoding="UTF-8"?>
<svg width="404px" height="398px" viewBox="0 0 404 398" version="1.1" xmlns="http://www.w3.org/2000/svg" xmlns:xlink="http://www.w3.org/1999/xlink">
    <!-- Generator: Sketch 47.1 (45422) - http://www.bohemiancoding.com/sketch -->
    <title>Group 16</title>
    <desc>Created with Sketch.</desc>
    <defs>
        <rect id="path-1" x="18.377724" y="15.9518072" width="311.622276" height="315.048193" rx="5"></rect>
        <linearGradient x1="50%" y1="0%" x2="50%" y2="76.9258788%" id="linearGradient-2">
            <stop stop-color="#A0C911" offset="0%"></stop>
            <stop stop-color="#6AA528" offset="100%"></stop>
        </linearGradient>
        <rect id="path-3" x="0" y="0" width="311.622276" height="315.048193" rx="5"></rect>
        <linearGradient x1="50%" y1="100%" x2="50%" y2="0%" id="linearGradient-4">
            <stop stop-color="#36B9FF" offset="0%"></stop>
            <stop stop-color="#366FFF" offset="100%"></stop>
        </linearGradient>
        <rect id="path-5" x="0" y="0" width="215" height="284" rx="5"></rect>
        <filter x="-11.6%" y="-8.1%" width="123.3%" height="117.6%" filterUnits="objectBoundingBox" id="filter-6">
            <feOffset dx="0" dy="2" in="SourceAlpha" result="shadowOffsetOuter1"></feOffset>
            <feGaussianBlur stdDeviation="8" in="shadowOffsetOuter1" result="shadowBlurOuter1"></feGaussianBlur>
            <feComposite in="shadowBlurOuter1" in2="SourceAlpha" operator="out" result="shadowBlurOuter1"></feComposite>
            <feColorMatrix values="0 0 0 0 0   0 0 0 0 0   0 0 0 0 0  0 0 0 0.32311481 0" type="matrix" in="shadowBlurOuter1"></feColorMatrix>
        </filter>
        <filter x="0.0%" y="0.0%" width="100.0%" height="100.0%" filterUnits="objectBoundingBox" id="filter-7">
            <feGaussianBlur stdDeviation="0" in="SourceGraphic"></feGaussianBlur>
        </filter>
    </defs>
    <g id="Page-1" stroke="none" stroke-width="1" fill="none" fill-rule="evenodd">
        <g id="1280" transform="translate(-1211.000000, -187.000000)">
            <g id="1_screen">
                <g id="BG">
                    <g id="Group-16" transform="translate(1227.000000, 187.000000)">
                        <g id="network_page" transform="translate(58.000000, 0.000000)">
                            <g id="Rectangle-30-Copy">
                                <use fill="#02579E" fill-rule="evenodd" xlink:href="#path-1"></use>
                                <rect stroke-opacity="0.259114583" stroke="#EFF1F5" stroke-width="2" x="19.377724" y="16.9518072" width="309.622276" height="313.048193" rx="5"></rect>
                            </g>
                            <g id="Rectangle-30">
                                <use fill="url(#linearGradient-2)" fill-rule="evenodd" xlink:href="#path-3"></use>
                                <rect stroke-opacity="0.551488904" stroke="#FFFFFF" stroke-width="2" x="1" y="1" width="309.622276" height="313.048193" rx="5"></rect>
                            </g>
                            <rect id="Rectangle-31" fill="#FFFFFF" opacity="0.487601902" x="1.59806295" y="19.939759" width="310.024213" height="1.59518072"></rect>
                            <ellipse id="Oval-14" fill="#FFFFFF" opacity="0.487601902" cx="9.98789346" cy="9.96987952" rx="3.59564165" ry="3.58915663"></ellipse>
                            <ellipse id="Oval-14-Copy" fill="#FFFFFF" opacity="0.487601902" cx="23.5714286" cy="9.96987952" rx="3.59564165" ry="3.58915663"></ellipse>
                            <ellipse id="Oval-14-Copy-2" fill="#FFFFFF" opacity="0.487601902" cx="36.3559322" cy="9.96987952" rx="3.59564165" ry="3.58915663"></ellipse>
                            <path d="M238.032349,36.5971084 L240.662349,36.5971084 C241.029017,36.5971084 241.37568,36.6304414 241.702349,36.6971084 C242.029017,36.7637754 242.314014,36.8787743 242.557349,37.0421084 C242.800683,37.2054426 242.994015,37.4254404 243.137349,37.7021084 C243.280683,37.9787765 243.352349,38.3271063 243.352349,38.7471084 C243.352349,39.1604438 243.285683,39.507107 243.152349,39.7871084 C243.019015,40.0671098 242.835683,40.2904409 242.602349,40.4571084 C242.369014,40.6237759 242.09235,40.7421081 241.772349,40.8121084 C241.452347,40.8821088 241.105684,40.9171084 240.732349,40.9171084 L239.592349,40.9171084 L239.592349,43.6771084 L238.032349,43.6771084 L238.032349,36.5971084 Z M239.592349,39.5971084 L240.632349,39.5971084 C240.772349,39.5971084 240.907348,39.5837752 241.037349,39.5571084 C241.167349,39.5304416 241.284015,39.4854421 241.387349,39.4221084 C241.490683,39.3587748 241.574015,39.272109 241.637349,39.1621084 C241.700682,39.0521079 241.732349,38.9137759 241.732349,38.7471084 C241.732349,38.5671075 241.690682,38.422109 241.607349,38.3121084 C241.524015,38.2021079 241.417349,38.1171087 241.287349,38.0571084 C241.157348,37.9971081 241.012349,37.9587752 240.852349,37.9421084 C240.692348,37.9254417 240.539016,37.9171084 240.392349,37.9171084 L239.592349,37.9171084 L239.592349,39.5971084 Z M246.662349,36.5971084 L247.952349,36.5971084 L251.032349,43.6771084 L249.272349,43.6771084 L248.662349,42.1771084 L245.912349,42.1771084 L245.322349,43.6771084 L243.602349,43.6771084 L246.662349,36.5971084 Z M247.262349,38.6571084 L246.402349,40.8571084 L248.132349,40.8571084 L247.262349,38.6571084 Z M251.722349,36.5971084 L253.282349,36.5971084 L253.282349,43.6771084 L251.722349,43.6771084 L251.722349,36.5971084 Z M254.702349,36.5971084 L257.042349,36.5971084 C257.609018,36.5971084 258.147346,36.6604411 258.657349,36.7871084 C259.167351,36.9137757 259.612347,37.1187737 259.992349,37.4021084 C260.372351,37.6854432 260.674014,38.0537728 260.897349,38.5071084 C261.120683,38.960444 261.232349,39.5104385 261.232349,40.1571084 C261.232349,40.7304446 261.124016,41.2354396 260.907349,41.6721084 C260.690681,42.1087773 260.399017,42.4754403 260.032349,42.7721084 C259.66568,43.0687766 259.242351,43.2937743 258.762349,43.4471084 C258.282346,43.6004425 257.779018,43.6771084 257.252349,43.6771084 L254.702349,43.6771084 L254.702349,36.5971084 Z M256.262349,42.2371084 L257.072349,42.2371084 C257.43235,42.2371084 257.767347,42.2004421 258.077349,42.1271084 C258.38735,42.0537747 258.655681,41.9321093 258.882349,41.7621084 C259.109016,41.5921076 259.287348,41.3687765 259.417349,41.0921084 C259.547349,40.8154404 259.612349,40.4771104 259.612349,40.0771084 C259.612349,39.73044 259.547349,39.4287764 259.417349,39.1721084 C259.287348,38.9154405 259.11235,38.7037759 258.892349,38.5371084 C258.672348,38.3704409 258.414017,38.2454422 258.117349,38.1621084 C257.820681,38.0787747 257.509017,38.0371084 257.182349,38.0371084 L256.262349,38.0371084 L256.262349,42.2371084 Z M240.362349,50.5971084 L241.652349,50.5971084 L244.732349,57.6771084 L242.972349,57.6771084 L242.362349,56.1771084 L239.612349,56.1771084 L239.022349,57.6771084 L237.302349,57.6771084 L240.362349,50.5971084 Z M240.962349,52.6571084 L240.102349,54.8571084 L241.832349,54.8571084 L240.962349,52.6571084 Z M250.072349,52.4371084 C249.919015,52.2504408 249.730683,52.1071089 249.507349,52.0071084 C249.284014,51.9071079 249.025683,51.8571084 248.732349,51.8571084 C248.439014,51.8571084 248.16735,51.9137745 247.917349,52.0271084 C247.667347,52.1404423 247.450683,52.2987741 247.267349,52.5021084 C247.084014,52.7054428 246.940683,52.947107 246.837349,53.2271084 C246.734015,53.5071098 246.682349,53.8104401 246.682349,54.1371084 C246.682349,54.4704434 246.734015,54.7754404 246.837349,55.0521084 C246.940683,55.3287765 247.082348,55.5687741 247.262349,55.7721084 C247.44235,55.9754428 247.654014,56.1337745 247.897349,56.2471084 C248.140683,56.3604423 248.402347,56.4171084 248.682349,56.4171084 C249.00235,56.4171084 249.285681,56.3504424 249.532349,56.2171084 C249.779017,56.0837744 249.982348,55.8971096 250.142349,55.6571084 L251.442349,56.6271084 C251.142347,57.0471105 250.762351,57.3571074 250.302349,57.5571084 C249.842346,57.7571094 249.369018,57.8571084 248.882349,57.8571084 C248.329013,57.8571084 247.819018,57.7704426 247.352349,57.5971084 C246.88568,57.4237742 246.48235,57.1754434 246.142349,56.8521084 C245.802347,56.5287735 245.53735,56.1371107 245.347349,55.6771084 C245.157348,55.2171061 245.062349,54.7037779 245.062349,54.1371084 C245.062349,53.5704389 245.157348,53.0571107 245.347349,52.5971084 C245.53735,52.1371061 245.802347,51.7454434 246.142349,51.4221084 C246.48235,51.0987735 246.88568,50.8504426 247.352349,50.6771084 C247.819018,50.5037742 248.329013,50.4171084 248.882349,50.4171084 C249.08235,50.4171084 249.290681,50.4354416 249.507349,50.4721084 C249.724016,50.5087753 249.937348,50.567108 250.147349,50.6471084 C250.35735,50.7271088 250.559014,50.8337744 250.752349,50.9671084 C250.945683,51.1004424 251.119015,51.2637741 251.272349,51.4571084 L250.072349,52.4371084 Z M256.922349,52.4371084 C256.769015,52.2504408 256.580683,52.1071089 256.357349,52.0071084 C256.134014,51.9071079 255.875683,51.8571084 255.582349,51.8571084 C255.289014,51.8571084 255.01735,51.9137745 254.767349,52.0271084 C254.517347,52.1404423 254.300683,52.2987741 254.117349,52.5021084 C253.934014,52.7054428 253.790683,52.947107 253.687349,53.2271084 C253.584015,53.5071098 253.532349,53.8104401 253.532349,54.1371084 C253.532349,54.4704434 253.584015,54.7754404 253.687349,55.0521084 C253.790683,55.3287765 253.932348,55.5687741 254.112349,55.7721084 C254.29235,55.9754428 254.504014,56.1337745 254.747349,56.2471084 C254.990683,56.3604423 255.252347,56.4171084 255.532349,56.4171084 C255.85235,56.4171084 256.135681,56.3504424 256.382349,56.2171084 C256.629017,56.0837744 256.832348,55.8971096 256.992349,55.6571084 L258.292349,56.6271084 C257.992347,57.0471105 257.612351,57.3571074 257.152349,57.5571084 C256.692346,57.7571094 256.219018,57.8571084 255.732349,57.8571084 C255.179013,57.8571084 254.669018,57.7704426 254.202349,57.5971084 C253.73568,57.4237742 253.33235,57.1754434 252.992349,56.8521084 C252.652347,56.5287735 252.38735,56.1371107 252.197349,55.6771084 C252.007348,55.2171061 251.912349,54.7037779 251.912349,54.1371084 C251.912349,53.5704389 252.007348,53.0571107 252.197349,52.5971084 C252.38735,52.1371061 252.652347,51.7454434 252.992349,51.4221084 C253.33235,51.0987735 253.73568,50.8504426 254.202349,50.6771084 C254.669018,50.5037742 255.179013,50.4171084 255.732349,50.4171084 C255.93235,50.4171084 256.140681,50.4354416 256.357349,50.4721084 C256.574016,50.5087753 256.787348,50.567108 256.997349,50.6471084 C257.20735,50.7271088 257.409014,50.8337744 257.602349,50.9671084 C257.795683,51.1004424 257.969015,51.2637741 258.122349,51.4571084 L256.922349,52.4371084 Z M259.202349,50.5971084 L264.012349,50.5971084 L264.012349,52.0371084 L260.762349,52.0371084 L260.762349,53.3571084 L263.832349,53.3571084 L263.832349,54.7971084 L260.762349,54.7971084 L260.762349,56.2371084 L264.192349,56.2371084 L264.192349,57.6771084 L259.202349,57.6771084 L259.202349,50.5971084 Z M268.942349,52.3271084 C268.815681,52.1671076 268.644016,52.0487755 268.427349,51.9721084 C268.210681,51.8954414 268.005683,51.8571084 267.812349,51.8571084 C267.699015,51.8571084 267.582349,51.8704416 267.462349,51.8971084 C267.342348,51.9237752 267.229016,51.9654415 267.122349,52.0221084 C267.015681,52.0787754 266.929016,52.1537746 266.862349,52.2471084 C266.795682,52.3404422 266.762349,52.4537744 266.762349,52.5871084 C266.762349,52.8004428 266.842348,52.9637745 267.002349,53.0771084 C267.162349,53.1904423 267.364014,53.287108 267.607349,53.3671084 C267.850683,53.4471088 268.112347,53.527108 268.392349,53.6071084 C268.67235,53.6871088 268.934014,53.800441 269.177349,53.9471084 C269.420683,54.0937758 269.622348,54.2904405 269.782349,54.5371084 C269.942349,54.7837763 270.022349,55.113773 270.022349,55.5271084 C270.022349,55.9204437 269.949016,56.2637736 269.802349,56.5571084 C269.655681,56.8504432 269.45735,57.0937741 269.207349,57.2871084 C268.957347,57.4804427 268.66735,57.6237746 268.337349,57.7171084 C268.007347,57.8104422 267.659017,57.8571084 267.292349,57.8571084 C266.832346,57.8571084 266.405684,57.7871091 266.012349,57.6471084 C265.619013,57.5071077 265.25235,57.2804433 264.912349,56.9671084 L266.022349,55.7471084 C266.182349,55.9604428 266.384014,56.1254412 266.627349,56.2421084 C266.870683,56.3587757 267.122347,56.4171084 267.382349,56.4171084 C267.509016,56.4171084 267.637348,56.4021086 267.767349,56.3721084 C267.897349,56.3421083 268.014015,56.2971087 268.117349,56.2371084 C268.220683,56.1771081 268.304015,56.1004422 268.367349,56.0071084 C268.430682,55.9137746 268.462349,55.8037757 268.462349,55.6771084 C268.462349,55.463774 268.380683,55.2954424 268.217349,55.1721084 C268.054015,55.0487745 267.849017,54.9437755 267.602349,54.8571084 C267.355681,54.7704413 267.089017,54.6837755 266.802349,54.5971084 C266.515681,54.5104413 266.249017,54.3937758 266.002349,54.2471084 C265.755681,54.100441 265.550683,53.9071096 265.387349,53.6671084 C265.224015,53.4271072 265.142349,53.1104437 265.142349,52.7171084 C265.142349,52.3371065 265.217348,52.0037765 265.367349,51.7171084 C265.517349,51.4304403 265.717347,51.1904427 265.967349,50.9971084 C266.21735,50.8037741 266.50568,50.6587756 266.832349,50.5621084 C267.159017,50.4654413 267.49568,50.4171084 267.842349,50.4171084 C268.242351,50.4171084 268.629013,50.4737745 269.002349,50.5871084 C269.375684,50.7004423 269.712347,50.8904404 270.012349,51.1571084 L268.942349,52.3271084 Z M274.682349,52.3271084 C274.555681,52.1671076 274.384016,52.0487755 274.167349,51.9721084 C273.950681,51.8954414 273.745683,51.8571084 273.552349,51.8571084 C273.439015,51.8571084 273.322349,51.8704416 273.202349,51.8971084 C273.082348,51.9237752 272.969016,51.9654415 272.862349,52.0221084 C272.755681,52.0787754 272.669016,52.1537746 272.602349,52.2471084 C272.535682,52.3404422 272.502349,52.4537744 272.502349,52.5871084 C272.502349,52.8004428 272.582348,52.9637745 272.742349,53.0771084 C272.902349,53.1904423 273.104014,53.287108 273.347349,53.3671084 C273.590683,53.4471088 273.852347,53.527108 274.132349,53.6071084 C274.41235,53.6871088 274.674014,53.800441 274.917349,53.9471084 C275.160683,54.0937758 275.362348,54.2904405 275.522349,54.5371084 C275.682349,54.7837763 275.762349,55.113773 275.762349,55.5271084 C275.762349,55.9204437 275.689016,56.2637736 275.542349,56.5571084 C275.395681,56.8504432 275.19735,57.0937741 274.947349,57.2871084 C274.697347,57.4804427 274.40735,57.6237746 274.077349,57.7171084 C273.747347,57.8104422 273.399017,57.8571084 273.032349,57.8571084 C272.572346,57.8571084 272.145684,57.7871091 271.752349,57.6471084 C271.359013,57.5071077 270.99235,57.2804433 270.652349,56.9671084 L271.762349,55.7471084 C271.922349,55.9604428 272.124014,56.1254412 272.367349,56.2421084 C272.610683,56.3587757 272.862347,56.4171084 273.122349,56.4171084 C273.249016,56.4171084 273.377348,56.4021086 273.507349,56.3721084 C273.637349,56.3421083 273.754015,56.2971087 273.857349,56.2371084 C273.960683,56.1771081 274.044015,56.1004422 274.107349,56.0071084 C274.170682,55.9137746 274.202349,55.8037757 274.202349,55.6771084 C274.202349,55.463774 274.120683,55.2954424 273.957349,55.1721084 C273.794015,55.0487745 273.589017,54.9437755 273.342349,54.8571084 C273.095681,54.7704413 272.829017,54.6837755 272.542349,54.5971084 C272.255681,54.5104413 271.989017,54.3937758 271.742349,54.2471084 C271.495681,54.100441 271.290683,53.9071096 271.127349,53.6671084 C270.964015,53.4271072 270.882349,53.1104437 270.882349,52.7171084 C270.882349,52.3371065 270.957348,52.0037765 271.107349,51.7171084 C271.257349,51.4304403 271.457347,51.1904427 271.707349,50.9971084 C271.95735,50.8037741 272.24568,50.6587756 272.572349,50.5621084 C272.899017,50.4654413 273.23568,50.4171084 273.582349,50.4171084 C273.982351,50.4171084 274.369013,50.4737745 274.742349,50.5871084 C275.115684,50.7004423 275.452347,50.8904404 275.752349,51.1571084 L274.682349,52.3271084 Z" id="Paid-access" fill="#FFFFFF" opacity="0.42017663"></path>
                            <g id="Group-8" opacity="0.769587862" transform="translate(16.779661, 79.759036)" fill="#FFFFFF">
                                <rect id="Rectangle-2" opacity="0.396342844" x="0.0950521274" y="0.537830032" width="278.385228" height="151.668069" rx="4"></rect>
                            </g>
                            <rect id="Rectangle-3-Copy" fill="#FFFFFF" opacity="0.239526721" x="16.779661" y="244.062651" width="278.062954" height="7.97590361" rx="3.98795181"></rect>
                            <rect id="Rectangle-3-Copy-4" fill="#FFFFFF" opacity="0.239526721" x="16.779661" y="294.310843" width="265.27845" height="7.97590361" rx="3.98795181"></rect>
                            <rect id="Rectangle-3-Copy-2" fill="#FFFFFF" opacity="0.239526721" x="16.779661" y="260.812048" width="264.479419" height="7.97590361" rx="3.98795181"></rect>
                            <rect id="Rectangle-3-Copy-3" fill="#FFFFFF" opacity="0.239526721" x="17.5786925" y="277.561446" width="240.508475" height="7.97590361" rx="3.98795181"></rect>
                            <g id="Group-3" opacity="0.63502038" transform="translate(131.825397, 114.107895)" fill="#FFFFFF">
                                <ellipse id="Oval-15" opacity="0.336560236" cx="41.9491525" cy="41.873494" rx="41.9491525" ry="41.873494"></ellipse>
                                <g id="3F" transform="translate(25.698580, 20.370889)">
                                    <path d="M15.0089143,30.7861702 L15.0089143,32.4146809 C15.0089143,33.1740426 15.6224,33.7870213 16.3803429,33.7870213 C17.1373714,33.7870213 17.7517714,33.1740426 17.7517714,32.4146809 L17.7517714,30.7770213 C18.592,30.2921277 19.1661714,29.3955319 19.1661714,28.3617021 C19.1661714,26.8246809 17.9163429,25.5712766 16.3803429,25.5712766 C14.8434286,25.5712766 13.5936,26.8246809 13.5936,28.3617021 C13.5936,29.377234 14.1421714,30.2921277 15.0089143,30.7861702 M29.1236571,36.7421277 C29.1236571,37.0714894 29.0468571,40.0082979 26.3826286,40.1180851 C22.4064,40.273617 6.59931429,40.136383 6.40274286,40.127234 C6.15862857,40.127234 4.01737143,40.0082979 3.60868571,36.1748936 L3.60868571,20.2740426 L29.1236571,20.2740426 L29.1236571,36.7421277 Z M16.3254857,3.63212766 C24.0283429,3.63212766 24.4699429,10.027234 24.4946286,10.7134043 L24.4946286,17.5293617 L8.15725714,17.5293617 L8.15634286,11.0885106 C8.16457143,10.7774468 8.42971429,3.63212766 16.3254857,3.63212766 Z M30.4950857,17.5293617 L27.2374857,17.5293617 L27.2365714,10.6768085 C27.1506286,7.29170213 24.7588571,0.887446809 16.3254857,0.887446809 C7.8912,0.887446809 5.50034286,7.5112766 5.4144,11.0519149 L5.4144,17.5293617 L2.23725714,17.5293617 C1.48022857,17.5293617 0.865828571,18.1423404 0.865828571,18.9017021 L0.865828571,36.2480851 C0.865828571,36.2938298 0.868571429,36.3395745 0.873142857,36.3853191 C1.40251429,41.6642553 4.7808,42.9725532 6.41371429,42.8719149 C6.82971429,42.8810638 13.2059429,42.9359574 18.8324571,42.9359574 C22.0498286,42.9359574 25.0230857,42.9176596 26.4941714,42.862766 C30.7428571,42.6889362 31.8665143,38.7823404 31.8665143,36.7421277 L31.8665143,18.9017021 C31.8665143,18.1423404 31.2521143,17.5293617 30.4950857,17.5293617 L30.4950857,17.5293617 Z"></path>
                                </g>
                            </g>
                            <rect id="Rectangle" fill="#FFFFFF" opacity="0.30102808" x="54.3341404" y="37.486747" width="84.6973366" height="7.97590361" rx="3.98795181"></rect>
                            <ellipse id="Oval-2" fill="#FFFFFF" opacity="0.201956522" cx="31.1622276" cy="49.8493976" rx="12.7845036" ry="12.3626506"></ellipse>
                            <rect id="Rectangle-Copy" fill="#FFFFFF" opacity="0.30102808" x="54.3341404" y="54.2361446" width="61.5254237" height="7.97590361" rx="3.98795181"></rect>
                        </g>
                        <g id="payment_page" transform="translate(0.000000, 96.000000)">
                            <g>
                                <g id="Rectangle-32">
                                    <use fill="black" fill-opacity="1" filter="url(#filter-6)" xlink:href="#path-5"></use>
                                    <use fill="url(#linearGradient-4)" fill-rule="evenodd" xlink:href="#path-5"></use>
                                    <rect stroke="#61B3FF" stroke-width="2" x="1" y="1" width="213" height="282" rx="5"></rect>
                                </g>
                                <rect id="Rectangle-43" fill="#9BD8FE" x="125" y="250" width="76.4444444" height="23.9325843" rx="11.9662921"></rect>
                                <path d="M148.429688,255.726562 L152.6875,255.726562 C153.755214,255.726562 154.623695,256.066403 155.292969,256.746094 C155.962243,257.425785 156.296875,258.302078 156.296875,259.375 C156.296875,260.427089 155.957035,261.290361 155.277344,261.964844 C154.597653,262.639326 153.729172,262.976562 152.671875,262.976562 L149.835938,262.976562 L149.835938,267 L148.429688,267 L148.429688,255.726562 Z M149.835938,256.976562 L149.835938,261.726562 L152.320312,261.726562 C153.1224,261.726562 153.744789,261.520835 154.1875,261.109375 C154.630211,260.697915 154.851562,260.119795 154.851562,259.375 C154.851562,258.598954 154.634117,258.00521 154.199219,257.59375 C153.764321,257.18229 153.138025,256.976562 152.320312,256.976562 L149.835938,256.976562 Z M165.609375,267 L165.4375,266.511719 C165.322916,266.186196 165.191407,265.8112 165.042969,265.386719 C164.894531,264.962237 164.763021,264.587241 164.648438,264.261719 L164.476562,263.773438 L159.992188,263.773438 L158.859375,267 L157.382812,267 L161.539062,255.726562 L162.929688,255.726562 L167.085938,267 L165.609375,267 Z M162.171875,257.546875 L161.992188,258.054688 C161.872395,258.393231 161.725261,258.812498 161.550781,259.3125 L161.027344,260.8125 C160.852864,261.312502 160.70573,261.731769 160.585938,262.070312 L160.40625,262.578125 L164.0625,262.578125 L162.296875,257.546875 L162.171875,257.546875 Z M173.265625,267 L173.265625,262.148438 L177.265625,255.726562 L175.664062,255.726562 L172.625,260.734375 L172.5,260.734375 L169.460938,255.726562 L167.859375,255.726562 L171.859375,262.148438 L171.859375,267 L173.265625,267 Z" id="PAY" fill="#FFFFFF" filter="url(#filter-7)"></path>
                                <rect id="Rectangle-37-Copy" fill="#FFFFFF" opacity="0.23212183" x="60.5185185" y="148.382022" width="144.12963" height="93.3370787" rx="5"></rect>
                                <rect id="Rectangle-39" fill="#FFFFFF" opacity="0.168478261" x="146.518519" y="170.719101" width="58.1296296" height="11.9662921"></rect>
                                <rect id="Rectangle-39-Copy" fill="#FFFFFF" opacity="0.137511322" x="175.981481" y="194.651685" width="29.462963" height="11.9662921"></rect>
                                <rect id="Rectangle-37" fill="#85C8FF" x="10.3518519" y="134.820225" width="144.12963" height="93.3370787" rx="5"></rect>
                                <rect id="Rectangle-38" fill="#FFFFFF" opacity="0.459975091" x="20.7037037" y="144.393258" width="86" height="10.3707865" rx="5.18539326"></rect>
                                <rect id="Rectangle-38-Copy" fill="#FFFFFF" opacity="0.459975091" x="20.7037037" y="165.932584" width="108.296296" height="10.3707865" rx="5.18539326"></rect>
                                <rect id="Rectangle-38-Copy-2" fill="#FFFFFF" opacity="0.46" x="20.7037037" y="205.022472" width="36.6296296" height="10.3707865" rx="5.18539326"></rect>
                                <rect id="Rectangle-38-Copy-3" fill="#FFFFFF" opacity="0.46" x="64.5" y="205.022472" width="36.6296296" height="10.3707865" rx="5.18539326"></rect>
                                <rect id="Rectangle-34" fill="#FFFFFF" opacity="0.220844656" x="10.3518519" y="46.2696629" width="194.296296" height="72.5955056" rx="5"></rect>
                                <rect id="Rectangle-35" fill="#FFFFFF" opacity="0.43" x="35.8333333" y="60.6292135" width="148.907407" height="7.97752809" rx="3.98876404"></rect>
                                <rect id="Rectangle-35-Copy" fill="#FFFFFF" opacity="0.43" x="35.8333333" y="79.7752809" width="121.833333" height="7.97752809" rx="3.98876404"></rect>
                                <rect id="Rectangle-35-Copy-2" fill="#FFFFFF" opacity="0.43" x="35.8333333" y="97.3258427" width="144.12963" height="7.97752809" rx="3.98876404"></rect>
                                <ellipse id="Oval-16" fill="#FFFFFF" opacity="0.43" cx="23.8888889" cy="23.1348315" rx="11.9444444" ry="11.9662921"></ellipse>
                                <rect id="Rectangle-33" fill="#FFFFFF" opacity="0.43" x="46.1851852" y="12.7640449" width="82.0185185" height="7.17977528" rx="3.58988764"></rect>
                                <rect id="Rectangle-33-Copy" fill="#FFFFFF" opacity="0.43" x="46.1851852" y="27.1235955" width="62.9074074" height="7.17977528" rx="3.58988764"></rect>
                                <ellipse id="Oval-17" fill="#FFFFFF" opacity="0.264436141" cx="124.62037" cy="210.207865" rx="8.36111111" ry="8.37640449"></ellipse>
                                <ellipse id="Oval-17-Copy" fill="#FFFFFF" opacity="0.440104167" cx="135.768519" cy="210.207865" rx="8.36111111" ry="8.37640449"></ellipse>
                                <ellipse id="Oval-18" fill="#FFFFFF" opacity="0.43" cx="23.8888889" cy="64.6179775" rx="3.18518519" ry="3.19101124"></ellipse>
                                <ellipse id="Oval-18-Copy" fill="#FFFFFF" opacity="0.43" cx="23.8888889" cy="82.9662921" rx="3.18518519" ry="3.19101124"></ellipse>
                                <ellipse id="Oval-18-Copy-2" fill="#FFFFFF" opacity="0.43" cx="23.8888889" cy="101.314607" rx="3.18518519" ry="3.19101124"></ellipse>
                            </g>
                        </g>
                    </g>
                </g>
            </g>
        </g>
    </g>
</svg>