<?xml version="1.0" encoding="UTF-8"?>
<!DOCTYPE svg PUBLIC "-//W3C//DTD SVG 1.1//EN" "http://www.w3.org/Graphics/SVG/1.1/DTD/svg11.dtd">
<!-- Creator: CorelDRAW 2018 (64-Bit) -->
<svg xmlns="http://www.w3.org/2000/svg" xml:space="preserve" width="52.6626mm" height="52.6626mm" version="1.1" style="shape-rendering:geometricPrecision; text-rendering:geometricPrecision; image-rendering:optimizeQuality; fill-rule:evenodd; clip-rule:evenodd"
viewBox="0 0 5266.26 5266.26"
 xmlns:xlink="http://www.w3.org/1999/xlink">
 <defs>
  <style type="text/css">
   <![CDATA[
    .str3 {stroke:#00A6FE;stroke-width:33.86;stroke-miterlimit:22.9256}
    .str0 {stroke:#4FBF20;stroke-width:33.86;stroke-miterlimit:22.9256}
    .str2 {stroke:#4FBF20;stroke-width:33.86;stroke-miterlimit:22.9256}
    .str8 {stroke:#6556E2;stroke-width:16.93;stroke-miterlimit:22.9256}
    .str9 {stroke:#6556E2;stroke-width:25.39;stroke-miterlimit:22.9256}
    .str5 {stroke:#F7595A;stroke-width:25.39;stroke-miterlimit:22.9256}
    .str7 {stroke:#FAADAD;stroke-width:7.62;stroke-miterlimit:22.9256}
    .str10 {stroke:#6556E2;stroke-width:25.39;stroke-linejoin:round;stroke-miterlimit:22.9256}
    .str6 {stroke:#F7595A;stroke-width:25.39;stroke-linejoin:round;stroke-miterlimit:22.9256}
    .str1 {stroke:#4FBF20;stroke-width:33.86;stroke-linecap:round;stroke-linejoin:round;stroke-miterlimit:22.9256}
    .str4 {stroke:#F7595A;stroke-width:25.39;stroke-linecap:round;stroke-linejoin:round;stroke-miterlimit:22.9256}
    .fil16 {fill:none}
    .fil17 {fill:none;fill-rule:nonzero}
    .fil11 {fill:#FFED00}
    .fil14 {fill:#F5B2B6}
    .fil9 {fill:#EF7F1A}
    .fil15 {fill:#E5097F}
    .fil8 {fill:#E31E24}
    .fil7 {fill:#AE4A84}
    .fil12 {fill:#7E71B1}
    .fil13 {fill:#00A0E3}
    .fil10 {fill:#393185}
    .fil4 {fill:#2FEB6B}
    .fil3 {fill:#52EB82}
    .fil21 {fill:#6556E2}
    .fil2 {fill:#71F099}
    .fil1 {fill:#88F0A9}
    .fil0 {fill:#9CF0B7}
    .fil6 {fill:#F1FFEB}
    .fil5 {fill:#F4F4F4}
    .fil19 {fill:#F7595A}
    .fil20 {fill:#FAADAD}
    .fil18 {fill:#00A6FE;fill-rule:nonzero}
    .fil22 {fill:#6556E2;fill-rule:nonzero}
   ]]>
  </style>
 </defs>
 <g id="Слой_x0020_1">
  <metadata id="CorelCorpID_0Corel-Layer"/>
  <circle class="fil0" cx="2633.13" cy="2641.6" r="2159"/>
  <ellipse class="fil1" cx="2633.13" cy="2641.61" rx="1735.66" ry="1735.67"/>
  <ellipse class="fil2" cx="2633.13" cy="2641.6" rx="1312.33" ry="1312.32"/>
  <circle class="fil3" cx="2624.66" cy="2641.6" r="888.99"/>
  <ellipse class="fil4" cx="2633.13" cy="2633.13" rx="465.66" ry="465.65"/>
  <circle class="fil5" cx="2556.71" cy="2443.17" r="32.71"/>
  <circle class="fil5" cx="2712.99" cy="2443.17" r="32.71"/>
  <circle class="fil6" cx="2929.46" cy="1168.4" r="524.94"/>
  <circle class="fil5" cx="2593.18" cy="2531.19" r="32.71"/>
  <circle class="fil5" transform="matrix(0.70055 0.852295 -0.852295 0.70055 2534.24 2590.13)" r="29.63"/>
  <circle class="fil5" transform="matrix(0.70055 0.852295 -0.852295 0.70055 2534.25 2673.48)" r="29.63"/>
  <circle class="fil5" transform="matrix(0.70055 0.852295 -0.852295 0.70055 2593.18 2732.42)" r="29.63"/>
  <circle class="fil5" transform="matrix(0.70055 0.852295 -0.852295 0.70055 2676.53 2732.42)" r="29.63"/>
  <circle class="fil5" transform="matrix(0.70055 0.852295 -0.852295 0.70055 2735.47 2673.48)" r="29.63"/>
  <circle class="fil5" transform="matrix(0.70055 0.852295 -0.852295 0.70055 2735.46 2590.13)" r="29.63"/>
  <circle class="fil5" transform="matrix(0.70055 0.852295 -0.852295 0.70055 2676.53 2531.19)" r="29.63"/>
  <circle class="fil5" cx="2446.22" cy="2553.67" r="32.71"/>
  <circle class="fil5" cx="2446.22" cy="2709.95" r="32.71"/>
  <circle class="fil5" cx="2556.72" cy="2820.44" r="32.71"/>
  <circle class="fil5" cx="2713" cy="2820.44" r="32.71"/>
  <circle class="fil5" cx="2823.49" cy="2709.94" r="32.71"/>
  <circle class="fil5" cx="2823.49" cy="2553.66" r="32.71"/>
 </g>
 <g id="Слой_x0020_2">
  <metadata id="CorelCorpID_1Corel-Layer"/>
  <ellipse class="fil7" cx="1667.93" cy="2328.33" rx="55.04" ry="55.03"/>
  <ellipse class="fil8" cx="1540.93" cy="1524" rx="55.04" ry="55.03"/>
  <ellipse class="fil9" cx="2074.33" cy="4165.6" rx="55.04" ry="55.03"/>
  <ellipse class="fil10" cx="3866.39" cy="2390.35" rx="55.04" ry="55.03"/>
  <ellipse class="fil11" cx="4301.06" cy="3784.6" rx="55.04" ry="55.03"/>
  <ellipse class="fil12" cx="3970.86" cy="1346.2" rx="55.04" ry="55.03"/>
  <ellipse class="fil13" cx="2698.12" cy="1810.63" rx="55.04" ry="55.03"/>
  <ellipse class="fil14" cx="3117.18" cy="3326.77" rx="55.04" ry="55.03"/>
  <ellipse class="fil15" cx="651.93" cy="4106.33" rx="55.04" ry="55.03"/>
  <ellipse class="fil11" cx="2116.66" cy="745.06" rx="55.04" ry="55.03"/>
  <ellipse class="fil10" cx="804.33" cy="2497.66" rx="55.04" ry="55.03"/>
  <ellipse class="fil10" cx="3776.13" cy="643.46" rx="55.04" ry="55.03"/>
  <circle class="fil6" cx="4580.46" cy="2667" r="524.94"/>
  <circle class="fil6" cx="1625.6" cy="3158.06" r="524.94"/>
  <circle class="fil6" cx="3242.73" cy="4191" r="524.94"/>
  <path class="fil16 str0" d="M2591.28 1138.04l186.03 0c14.3,-10.01 28.48,-20.44 42.11,-31.12 20.58,-16.13 39.88,-32.82 57.16,-49.36 -2.44,-14.74 -17.28,-61.68 -107.7,-86.7 -66.23,0 48.45,-26.62 48.45,-86.24 0,-2.4 -0.08,-4.73 -0.22,-7.01 -1.49,-24.79 -10.95,-42.3 -24.37,-54.02 -16.08,-14.04 -37.86,-19.79 -58.47,-19.79 -39.71,0 -89.76,24.17 -89.76,80.71 0,56.43 43.66,87.2 61.44,86.35 17.67,-0.74 -114.68,21.83 -114.68,91.26 -29.06,96.89 0,75.92 0,75.92l0.01 0z"/>
  <path class="fil16 str0" d="M2768.88 779.63c0,0 22.57,-37.16 72.62,-37.16 50.04,0 88.8,35.56 88.8,82.31 0,46.85 -19.38,71.12 -43.55,80.81 -24.17,9.58 56.93,16.33 62.79,60.63m-180.66 -186.59l0 0 0 0z"/>
  <path class="fil17 str1" d="M3162.84 962.41l5.91 -17.63 11.16 -35.79 35.47 10.94 -75.82 -151.71 -148.8 82.39 35.46 10.94 -20.04 64.27 -1.17 3.55 -2.79 8.4 0 0c-9.45,28.54 -14.93,45.13 -39.76,79.21 -24.84,34.09 -65.07,73.71 -111.93,110.45 -46.86,36.73 -100.34,70.56 -142.44,93.86 -42.1,23.3 -72.8,36.06 -89.15,42.47 -16.36,6.41 -18.35,6.48 6.79,2.6 25.16,-3.88 77.45,-11.72 137.18,-28.96 59.72,-17.24 126.87,-43.88 187.5,-77.49 60.62,-33.59 95.97,-57.21 129.79,-89.48 33.83,-32.27 67.43,-72.55 72.9,-85.18 5.81,-13.45 0,0 9.74,-22.84z"/>
  <path class="fil16 str2" d="M3076.05 1181.87c0,-59.39 49.21,-108.08 108.61,-108.08 59.39,0 106.47,48.69 106.47,108.08l0 0 0.95 285.92 -215.09 0 -0.94 -285.92 0 0z"/>
  <path class="fil16 str2" d="M2821.01 1332.7c0,-59.39 49.22,-108.08 108.61,-108.08 59.4,0 106.48,48.69 106.48,108.08l0 0 0.45 135.09 -215.09 0 -0.45 -135.09 0 0z"/>
  <path class="fil16 str2" d="M2572.45 1398.59c0,-59.4 49.21,-108.08 108.61,-108.08 59.39,0 106.48,48.68 106.48,108.08l0 0 0.22 69.2 -215.08 0 -0.23 -69.2 0 0z"/>
  <g>
   <path class="fil18" d="M1543.54 3130.65l-183.61 165.95 -22.7 -25.12 183.61 -165.95 22.7 25.12zm-11.06 86.74l1.94 -91.15 33.86 0.72 -1.94 91.15 -6.49 12.97 -27.37 -13.69zm33.86 0.72c-0.19,9.35 -7.94,16.76 -17.29,16.57 -9.35,-0.19 -16.76,-7.94 -16.57,-17.29l33.86 0.72zm277.43 -209.47l-283.92 222.44 -20.88 -26.66 283.92 -222.44 20.88 26.66zm20.66 74.78l-19.07 -76.32 32.86 -8.2 19.07 76.32 -32.86 8.2z"/>
  </g>
  <circle class="fil16 str3" cx="1551.35" cy="3100.77" r="25.83"/>
  <circle class="fil16 str3" cx="1855.52" cy="2977.93" r="25.83"/>
  <path class="fil16 str3" d="M1337.6 2859l586.4 0c25.37,0 46.06,20.69 46.06,46.06l0 399.22c0,25.37 -20.69,46.06 -46.06,46.06l-586.4 0c-25.36,0 -46.05,-20.69 -46.05,-46.06l0 -399.22c0,-25.37 20.69,-46.06 46.05,-46.06z"/>
  <path class="fil16 str3" d="M1240.79 3403.97l779.9 0 0 2.68c0,25.37 -20.69,46.06 -46.06,46.06l-687.78 0c-25.37,0 -46.06,-20.69 -46.06,-46.06l0 -2.68z"/>
  <path class="fil16 str3" d="M1385.16 2919.83l257.78 0c11.17,0 20.27,9.1 20.27,20.26l0 0.42c0,11.16 -9.1,20.27 -20.27,20.27l-257.78 0c-11.16,0 -20.26,-9.11 -20.26,-20.27l0 -0.42c0,-11.16 9.1,-20.26 20.26,-20.26z"/>
  <path class="fil16 str3" d="M1387.85 3012.63l212.94 0c11.16,0 20.26,9.1 20.26,20.26l0 0.43c0,11.16 -9.1,20.26 -20.26,20.26l-212.94 0c-11.16,0 -20.27,-9.1 -20.27,-20.26l0 -0.43c0,-11.16 9.11,-20.26 20.27,-20.26z"/>
  <path class="fil16 str3" d="M1771.71 3147.99l32.55 55.28 1.27 2.15c-17.97,10.56 -29.95,29.57 -29.95,51.26 0,0.63 0.01,1.25 0.03,1.88l-3.9 0 -65.12 0 32.56 -55.29 32.56 -55.28z"/>
  <ellipse class="fil16 str3" cx="1838.17" cy="3256.68" rx="62.59" ry="60.07"/>
  <path class="fil16 str4" d="M4644.55 2631.52l1.76 -0.55 257.95 -69.12c9.03,42.93 7.54,35.56 9.1,69.12 6.87,147.33 -119.56,267.05 -267.05,267.05 -22.73,0 -44.79,-2.84 -65.85,-8.19l0 -269.39 0 -124.97 -132.68 0 -31.62 0c46.18,-78.27 131.13,-130.92 228.43,-131.54l0 265.33 -0.04 2.26z"/>
  <path class="fil19 str5" d="M4690.82 2504.29l0 -267.06c70.82,0 138.75,28.14 188.83,78.22l-188.83 188.84z"/>
  <path class="fil19 str5" d="M4712.36 2553.26l188.83 -188.84c33.15,33.15 56.99,74.44 69.12,119.72l-257.95 69.12z"/>
  <rect class="fil16 str6" x="4231.23" y="2495.46" width="349.23" height="525.55"/>
  <polygon class="fil16 str6" points="4580.46,2620.44 4447.78,2495.47 4447.78,2620.44 "/>
  <path class="fil20 str7" d="M4293.46 2649.48l221.49 0c7.12,0 12.94,5.82 12.94,12.94l0 3.23c0,7.12 -5.82,12.94 -12.94,12.94l-221.49 0c-7.13,0 -12.94,-5.82 -12.94,-12.94l0 -3.23c0,-7.12 5.81,-12.94 12.94,-12.94z"/>
  <path class="fil20 str7" d="M4293.89 2706.83l221.48 0c7.13,0 12.94,5.81 12.94,12.94l0 3.22c0,7.13 -5.81,12.94 -12.94,12.94l-221.48 0c-7.13,0 -12.94,-5.81 -12.94,-12.94l0 -3.22c0,-7.13 5.81,-12.94 12.94,-12.94z"/>
  <path class="fil20 str7" d="M4292.17 2764.18l221.49 0c7.13,0 12.94,5.81 12.94,12.94l0 3.22c0,7.13 -5.81,12.94 -12.94,12.94l-221.49 0c-7.12,0 -12.94,-5.81 -12.94,-12.94l0 -3.22c0,-7.13 5.82,-12.94 12.94,-12.94z"/>
  <path class="fil20 str7" d="M4294.31 2819.82l221.49 0c7.13,0 12.94,5.81 12.94,12.94l0 3.22c0,7.13 -5.81,12.94 -12.94,12.94l-221.49 0c-7.12,0 -12.94,-5.81 -12.94,-12.94l0 -3.22c0,-7.13 5.82,-12.94 12.94,-12.94z"/>
  <path class="fil20 str7" d="M4294.74 2877.16l221.49 0c7.13,0 12.94,5.82 12.94,12.95l0 3.22c0,7.12 -5.81,12.94 -12.94,12.94l-221.49 0c-7.13,0 -12.94,-5.82 -12.94,-12.94l0 -3.22c0,-7.13 5.81,-12.95 12.94,-12.95z"/>
  <path class="fil20 str7" d="M4293.03 2934.51l221.49 0c7.12,0 12.94,5.82 12.94,12.95l0 3.22c0,7.12 -5.82,12.94 -12.94,12.94l-221.49 0c-7.13,0 -12.94,-5.82 -12.94,-12.94l0 -3.22c0,-7.13 5.81,-12.95 12.94,-12.95z"/>
  <g>
   <path class="fil21" d="M3506.01 4080.18c1.56,-19.89 6.1,-32.83 12.13,-50.01l-0.06 -0.02 0.32 -0.93 0.1 -0.1c3.03,-8.63 6.66,-17.26 10.57,-25.86l-0.05 -0.02c2.69,-5.94 6.86,-14.44 11.05,-22.99l0.93 -2.47 0.1 -0.19c1.31,-3.39 2.36,-6.11 2.2,-16.25 -0.28,-17.3 -7.38,-33.03 -18.72,-44.37 -11.08,-11.08 -26.32,-17.94 -43.29,-17.94 -17.1,0 -32.59,6.93 -43.79,18.13 -11.2,11.2 -18.13,26.68 -18.13,43.78 0,3.77 0.29,7.28 0.83,10.49l0.01 0c0.59,3.48 1.48,6.88 2.61,10.09l-0.04 0.01 0.05 0.11 1.1 2.77 0.1 0.2 1.16 2.8 0.03 -0.02c0.44,0.93 1.01,2.03 1.69,3.27l0.1 0.2c0.67,1.23 1.26,2.23 1.77,3.05l1.49 2.68c2.48,5.25 4.71,10.04 6.93,15.22 2.16,5.04 4.33,10.55 6.71,17.37l1.87 5.34c5.07,14.46 7.58,21.57 8.86,26.69l0 0.1c1.78,7.14 1.76,10.66 1.71,17.49l0 0 -0.01 2.72 0.1 0 0 1.87 49.56 0c0,-0.5 0,-1.01 0.01,-1.53l0 -1.68zm25.29 1.88c1.34,-17.07 5.53,-28.74 11.1,-44.61 5.57,-15.88 13.33,-31.73 21.1,-47.57 2.83,-7.82 5.38,-11.3 5.09,-28.94 -0.79,-48.21 -39.09,-87.3 -87.3,-87.3 -48.22,0 -87.31,39.09 -87.31,87.3 0,10.17 1.74,19.93 4.94,29.01l0.01 0.02c0.99,2.81 2.12,5.56 3.38,8.23 1.5,3.18 3.19,6.25 5.05,9.2 4.73,10.03 8.46,18.14 12.65,30.11 12.1,34.52 11.04,30.73 11.04,44.01l0 27.26 100.19 0c0.14,-5.28 -0.11,-10.92 0.06,-26.72z"/>
  </g>
  <g>
   <path class="fil22" d="M3436.95 4007.65c-1.77,-4.32 0.3,-9.27 4.62,-11.04 4.32,-1.77 9.27,0.3 11.04,4.62l-15.66 6.42zm19.41 47.3l-19.41 -47.3 15.66 -6.42 19.41 47.3 -15.66 6.42zm15.66 -6.42c1.77,4.32 -0.3,9.27 -4.62,11.04 -4.32,1.77 -9.27,-0.3 -11.04,-4.62l15.66 -6.42z"/>
  </g>
  <g>
   <path class="fil22" d="M3509.71 4000.15c1.77,-4.32 6.72,-6.39 11.04,-4.62 4.32,1.77 6.39,6.72 4.62,11.04l-15.66 -6.42zm-20.1 48.99l20.1 -48.99 15.66 6.42 -20.1 48.99 -15.66 -6.42zm15.66 6.42c-1.77,4.32 -6.72,6.39 -11.04,4.62 -4.32,-1.77 -6.39,-6.72 -4.62,-11.04l15.66 6.42z"/>
  </g>
  <line class="fil16 str8" x1="3482.23" y1="4041.27" x2="3481.07" y2= "3987.54" />
  <path class="fil21" d="M3446.92 4113.73l68.89 0c7.88,0 14.3,6.42 14.3,14.3l0 0.5c0,7.88 -6.42,14.3 -14.3,14.3l-68.89 0c-7.87,0 -14.3,-6.42 -14.3,-14.3l0 -0.5c0,-7.88 6.43,-14.3 14.3,-14.3z"/>
  <path class="fil21" d="M3448.09 4150.4l68.89 0c7.87,0 14.3,6.42 14.3,14.29l0 0.51c0,7.87 -6.43,14.3 -14.3,14.3l-68.89 0c-7.88,0 -14.3,-6.43 -14.3,-14.3l0 -0.51c0,-7.87 6.42,-14.29 14.3,-14.29z"/>
  <path class="fil21" d="M3474.36 4188.23l14.02 0c5.75,0 10.45,4.69 10.45,10.44l0 1.22c0,5.76 -4.7,10.45 -10.45,10.45l-14.02 0c-5.76,0 -10.45,-4.69 -10.45,-10.45l0 -1.22c0,-5.75 4.69,-10.44 10.45,-10.44z"/>
  <circle class="fil16 str9" cx="3292.39" cy="4206.18" r="104.35"/>
  <line class="fil16 str9" x1="3368.02" y1="4278.07" x2="3438.16" y2= "4333.78" />
  <path class="fil16 str9" d="M3463.58 4331.56l131.18 110.07c7.61,6.39 8.61,17.81 2.22,25.42l-0.91 1.09c-6.39,7.61 -17.81,8.61 -25.42,2.22l-131.18 -110.07c-7.62,-6.39 -8.62,-17.81 -2.23,-25.42l0.92 -1.09c6.39,-7.61 17.8,-8.61 25.42,-2.22z"/>
  <path class="fil16 str10" d="M2939.31 3917.77l233.42 0 0 134.7 143.01 0 0 17.5c-9.29,-2.1 -18.94,-3.29 -28.84,-3.46 -25.39,-0.44 -49.33,5.87 -70.11,17.27l-210.4 0c-7.69,0 -13.95,6.27 -13.95,13.95l0 3.47c0,7.68 6.26,13.95 13.95,13.95l171.56 0c-7.97,9.18 -14.76,19.4 -20.17,30.45l-150.93 0c-7.69,0 -13.95,6.26 -13.95,13.94l0 3.48c0,7.68 6.26,13.95 13.95,13.95l139.97 0c-2,9.05 -3.13,18.45 -3.29,28.09 -0.01,0.78 -0.01,1.57 -0.01,2.35l-138.52 0c-7.68,0 -13.95,6.27 -13.95,13.95l0 3.47c0,7.69 6.27,13.95 13.95,13.95l142.01 0c2.26,9.97 5.58,19.55 9.84,28.6l-149.54 0c-7.68,0 -13.95,6.27 -13.95,13.95l0 3.47c0,7.68 6.27,13.95 13.95,13.95l169.75 0c10.26,12.07 22.52,22.39 36.28,30.45l-205.57 0c-7.68,0 -13.95,6.26 -13.95,13.94l0 3.48c0,7.68 6.27,13.95 13.95,13.95l238.74 0c7.68,0 13.95,-6.27 13.95,-13.95l0 -0.22c7.03,1.21 14.25,1.9 21.62,2.03 11.57,0.2 22.85,-1.02 33.66,-3.47l0 139.3 -376.43 0 0 -566.49zm66.61 473.24l238.74 0c7.68,0 13.95,6.27 13.95,13.95l0 3.47c0,7.69 -6.27,13.95 -13.95,13.95l-238.74 0c-7.68,0 -13.94,-6.26 -13.94,-13.95l0 -3.47c0,-7.68 6.26,-13.95 13.94,-13.95zm166.81 -473.24l143.01 0 0 134.7 -143.01 -134.7z"/>
 </g>
</svg>
