<?xml version="1.0" encoding="UTF-8"?>
<!DOCTYPE svg PUBLIC "-//W3C//DTD SVG 1.1//EN" "http://www.w3.org/Graphics/SVG/1.1/DTD/svg11.dtd">
<!-- Creator: CorelDRAW 2018 (64-Bit) -->
<svg xmlns="http://www.w3.org/2000/svg" xml:space="preserve" width="52.6626mm" height="52.6626mm" version="1.1" style="shape-rendering:geometricPrecision; text-rendering:geometricPrecision; image-rendering:optimizeQuality; fill-rule:evenodd; clip-rule:evenodd"
viewBox="0 0 5266.26 5266.26"
 xmlns:xlink="http://www.w3.org/1999/xlink">
 <defs>
  <style type="text/css">
   <![CDATA[
    .str1 {stroke:black;stroke-width:25.39;stroke-miterlimit:22.9256}
    .str0 {stroke:#6556E2;stroke-width:25.39;stroke-miterlimit:22.9256}
    .str2 {stroke:#6556E2;stroke-width:25.39;stroke-miterlimit:22.9256}
    .str3 {stroke:#DF6C00;stroke-width:25.39;stroke-miterlimit:22.9256}
    .fil7 {fill:none}
    .fil16 {fill:#FFED00}
    .fil19 {fill:#F5B2B6}
    .fil14 {fill:#EF7F1A}
    .fil20 {fill:#E5097F}
    .fil13 {fill:#E31E24}
    .fil12 {fill:#AE4A84}
    .fil17 {fill:#7E71B1}
    .fil18 {fill:#00A0E3}
    .fil15 {fill:#393185}
    .fil4 {fill:#2FEB6B}
    .fil3 {fill:#52EB82}
    .fil9 {fill:#6556E2}
    .fil10 {fill:#6556E2}
    .fil2 {fill:#71F099}
    .fil1 {fill:#88F0A9}
    .fil0 {fill:#9CF0B7}
    .fil6 {fill:#F1FFEB}
    .fil5 {fill:#F4F4F4}
    .fil21 {fill:#F7595A}
    .fil11 {fill:black;fill-opacity:0.000000}
    .fil8 {fill:white;fill-opacity:0.000000}
   ]]>
  </style>
 </defs>
 <g id="Слой_x0020_1">
  <metadata id="CorelCorpID_0Corel-Layer"/>
  <circle class="fil0" cx="2633.13" cy="2641.6" r="2159"/>
  <ellipse class="fil1" cx="2633.13" cy="2641.61" rx="1735.66" ry="1735.67"/>
  <ellipse class="fil2" cx="2633.13" cy="2641.6" rx="1312.33" ry="1312.32"/>
  <circle class="fil3" cx="2624.66" cy="2641.6" r="888.99"/>
  <ellipse class="fil4" cx="2633.13" cy="2633.13" rx="465.66" ry="465.65"/>
  <circle class="fil5" cx="2556.71" cy="2443.17" r="32.71"/>
  <circle class="fil5" cx="2712.99" cy="2443.17" r="32.71"/>
  <circle class="fil6" cx="3346.69" cy="1077.18" r="524.48"/>
  <circle class="fil6" cx="1490.13" cy="1786.46" r="524.83"/>
  <circle class="fil6" cx="3515.04" cy="3613.43" r="524.16"/>
  <circle class="fil5" cx="2593.18" cy="2531.19" r="32.71"/>
  <circle class="fil5" transform="matrix(0.70055 0.852295 -0.852295 0.70055 2534.24 2590.13)" r="29.63"/>
  <circle class="fil5" transform="matrix(0.70055 0.852295 -0.852295 0.70055 2534.25 2673.48)" r="29.63"/>
  <circle class="fil5" transform="matrix(0.70055 0.852295 -0.852295 0.70055 2593.18 2732.42)" r="29.63"/>
  <circle class="fil5" transform="matrix(0.70055 0.852295 -0.852295 0.70055 2676.53 2732.42)" r="29.63"/>
  <circle class="fil5" transform="matrix(0.70055 0.852295 -0.852295 0.70055 2735.47 2673.48)" r="29.63"/>
  <circle class="fil5" transform="matrix(0.70055 0.852295 -0.852295 0.70055 2735.46 2590.13)" r="29.63"/>
  <circle class="fil5" transform="matrix(0.70055 0.852295 -0.852295 0.70055 2676.53 2531.19)" r="29.63"/>
  <circle class="fil5" cx="2446.22" cy="2553.67" r="32.71"/>
  <circle class="fil5" cx="2446.22" cy="2709.95" r="32.71"/>
  <circle class="fil5" cx="2556.72" cy="2820.44" r="32.71"/>
  <circle class="fil5" cx="2713" cy="2820.44" r="32.71"/>
  <circle class="fil5" cx="2823.49" cy="2709.94" r="32.71"/>
  <circle class="fil5" cx="2823.49" cy="2553.66" r="32.71"/>
  <circle class="fil6" cx="905.28" cy="3786.19" r="523.35"/>
  <path class="fil7 str0" d="M967.2 3561.04l-363.18 0c0,0 -50.74,8.77 -50.74,52.79l0 351.99c0,0 0,52.79 50.74,52.79l253.31 -0.01 126.84 105.58 0 -105.58 109.68 0c0,0 50.55,-8.95 50.55,-52.79l0 -299.38m-177.2 -105.39l0 0 0 0z"/>
  <g>
   <path class="fil8" d="M1047.6 3715.86l181.31 -181.12 -8.58 -43.27 -26.11 -25.74 -51.67 -17.35 -181.13 181.12m86.18 86.36l0 0 0 0z"/>
   <path id="1" class="fil7 str1" d="M1047.6 3715.86l181.31 -181.12 -8.58 -43.27 -26.11 -25.74 -51.67 -17.35 -181.13 181.12m86.18 86.36l0 0 0 0z"/>
  </g>
  <path class="fil7 str0" d="M1047.6 3715.86l181.31 -181.12 -8.58 -43.27 -26.11 -25.74 -51.67 -17.35 -181.13 181.12m86.18 86.36l0 0 0 0z"/>
  <g>
   <path class="fil8" d="M931.2 3673.52l-25.93 112.67 112.67 -26.12m-86.74 -86.55l0 0 0 0z"/>
   <path id="1" class="fil7 str1" d="M931.2 3673.52l-25.93 112.67 112.67 -26.12m-86.74 -86.55l0 0 0 0z"/>
  </g>
  <path class="fil7 str0" d="M931.2 3673.52l-25.93 112.67 112.67 -26.12m-86.74 -86.55l0 0 0 0z"/>
  <g>
   <path class="fil8" d="M1017.75 3659.53l154.81 -154.82m-154.81 154.82l0 0 0 0z"/>
   <path id="1" class="fil7 str1" d="M1017.75 3659.53l154.81 -154.82m-154.81 154.82l0 0 0 0z"/>
  </g>
  <path class="fil7 str0" d="M1017.75 3659.53l154.81 -154.82m-154.81 154.82l0 0 0 0z"/>
  <polygon class="fil9 str2" points="646.55,3709.52 646.55,3672.21 833.08,3672.21 833.08,3709.52 "/>
  <polygon class="fil10 str2" points="646.55,3802.79 646.55,3765.48 833.08,3765.48 833.08,3802.79 "/>
  <polygon class="fil9 str2" points="646.55,3896.05 646.55,3858.74 1000.96,3858.74 1000.96,3896.05 "/>
 </g>
 <g id="Слой_x0020_2">
  <metadata id="CorelCorpID_1Corel-Layer"/>
  <g>
   <polygon class="fil8" points="3084.43,1339.44 3084.43,814.92 3608.95,814.92 3608.95,1339.44 "/>
   <polygon id="1" class="fil7 str1" points="3084.43,1339.44 3084.43,814.92 3608.95,814.92 3608.95,1339.44 "/>
  </g>
  <g>
   <polygon class="fil11" points="3084.43,1339.44 3084.43,814.92 3608.95,814.92 3608.95,1339.44 "/>
   <polygon id="1" class="fil7 str1" points="3084.43,1339.44 3084.43,814.92 3608.95,814.92 3608.95,1339.44 "/>
  </g>
  <polygon class="fil7 str0" points="3084.43,1339.44 3084.43,814.92 3608.95,814.92 3608.95,1339.44 "/>
  <g>
   <path class="fil8" d="M3089.88 1230.15l513.62 0m-513.62 0l0 0 0 0z"/>
   <path id="1" class="fil7 str1" d="M3089.88 1230.15l513.62 0m-513.62 0l0 0 0 0z"/>
  </g>
  <g>
   <path class="fil11" d="M3089.88 1230.15l513.62 0m-513.62 0l0 0 0 0z"/>
   <path id="1" class="fil7 str1" d="M3089.88 1230.15l513.62 0m-513.62 0l0 0 0 0z"/>
  </g>
  <path class="fil7 str0" d="M3089.88 1230.15l513.62 0m-513.62 0l0 0 0 0z"/>
  <g>
   <path class="fil8" d="M3237.32 891.36c24.13,0 43.75,19.47 43.75,43.6 0,24.13 -19.62,43.75 -43.75,43.75 -24.14,0 -43.6,-19.62 -43.6,-43.75 0,-24.13 19.46,-43.6 43.6,-43.6z"/>
   <path id="1" class="fil7 str1" d="M3237.32 891.36c24.13,0 43.75,19.47 43.75,43.6 0,24.13 -19.62,43.75 -43.75,43.75 -24.14,0 -43.6,-19.62 -43.6,-43.75 0,-24.13 19.46,-43.6 43.6,-43.6z"/>
  </g>
  <g>
   <path class="fil11" d="M3237.32 891.36c24.13,0 43.75,19.47 43.75,43.6 0,24.13 -19.62,43.75 -43.75,43.75 -24.14,0 -43.6,-19.62 -43.6,-43.75 0,-24.13 19.46,-43.6 43.6,-43.6z"/>
   <path id="1" class="fil7 str1" d="M3237.32 891.36c24.13,0 43.75,19.47 43.75,43.6 0,24.13 -19.62,43.75 -43.75,43.75 -24.14,0 -43.6,-19.62 -43.6,-43.75 0,-24.13 19.46,-43.6 43.6,-43.6z"/>
  </g>
  <path class="fil7 str0" d="M3237.32 891.36c24.13,0 43.75,19.47 43.75,43.6 0,24.13 -19.62,43.75 -43.75,43.75 -24.14,0 -43.6,-19.62 -43.6,-43.75 0,-24.13 19.46,-43.6 43.6,-43.6z"/>
  <g>
   <path class="fil8" d="M3148.73 1387.24l505.37 0 0 -508.02m-505.37 508.02l0 0 0 0z"/>
   <path id="1" class="fil7 str1" d="M3148.73 1387.24l505.37 0 0 -508.02m-505.37 508.02l0 0 0 0z"/>
  </g>
  <g>
   <path class="fil11" d="M3148.73 1387.24l505.37 0 0 -508.02m-505.37 508.02l0 0 0 0z"/>
   <path id="1" class="fil7 str1" d="M3148.73 1387.24l505.37 0 0 -508.02m-505.37 508.02l0 0 0 0z"/>
  </g>
  <path class="fil7 str0" d="M3148.73 1387.24l505.37 0 0 -508.02m-505.37 508.02l0 0 0 0z"/>
  <g>
   <path class="fil8" d="M3193.72 1232.79l87.35 -139.34 65.54 79.4 112.1 -166.74 84.69 226.68m-349.68 0l0 0 0 0z"/>
   <path id="1" class="fil7 str1" d="M3193.72 1232.79l87.35 -139.34 65.54 79.4 112.1 -166.74 84.69 226.68m-349.68 0l0 0 0 0z"/>
  </g>
  <g>
   <path class="fil11" d="M3193.72 1232.79l87.35 -139.34 65.54 79.4 112.1 -166.74 84.69 226.68m-349.68 0l0 0 0 0z"/>
   <path id="1" class="fil7 str1" d="M3193.72 1232.79l87.35 -139.34 65.54 79.4 112.1 -166.74 84.69 226.68m-349.68 0l0 0 0 0z"/>
  </g>
  <path class="fil7 str0" d="M3193.72 1232.79l87.35 -139.34 65.54 79.4 112.1 -166.74 84.69 226.68m-349.68 0l0 0 0 0z"/>
  <g>
   <path class="fil8" d="M3191.51 3520.19l650.99 0c0,187.73 0,291.89 0,312.65 0,48.73 -39.4,87.98 -87.97,87.98 -47.5,0 -427.54,0 -475.04,0 -48.57,0 -87.98,-39.25 -87.98,-87.98 0,-41.7 0,-145.86 0,-312.65z"/>
   <path id="1" class="fil7 str1" d="M3191.51 3520.19l650.99 0c0,187.73 0,291.89 0,312.65 0,48.73 -39.4,87.98 -87.97,87.98 -47.5,0 -427.54,0 -475.04,0 -48.57,0 -87.98,-39.25 -87.98,-87.98 0,-41.7 0,-145.86 0,-312.65z"/>
  </g>
  <g>
   <path class="fil11" d="M3191.51 3520.19l650.99 0c0,187.73 0,291.89 0,312.65 0,48.73 -39.4,87.98 -87.97,87.98 -47.5,0 -427.54,0 -475.04,0 -48.57,0 -87.98,-39.25 -87.98,-87.98 0,-41.7 0,-145.86 0,-312.65z"/>
   <path id="1" class="fil7 str1" d="M3191.51 3520.19l650.99 0c0,187.73 0,291.89 0,312.65 0,48.73 -39.4,87.98 -87.97,87.98 -47.5,0 -427.54,0 -475.04,0 -48.57,0 -87.98,-39.25 -87.98,-87.98 0,-41.7 0,-145.86 0,-312.65z"/>
  </g>
  <path class="fil7 str3" d="M3191.51 3520.19l650.99 0c0,187.73 0,291.89 0,312.65 0,48.73 -39.4,87.98 -87.97,87.98 -47.5,0 -427.54,0 -475.04,0 -48.57,0 -87.98,-39.25 -87.98,-87.98 0,-41.7 0,-145.86 0,-312.65z"/>
  <g>
   <path class="fil8" d="M3191.51 3380.31c0,-38.89 31.5,-70.38 70.38,-70.38 51.02,0 459.21,0 510.24,0 38.88,0 70.37,31.49 70.37,70.38 0,5.98 0,36.07 0,89.91l-650.99 0c0,-47.86 0,-77.77 0,-89.91z"/>
   <path id="1" class="fil7 str1" d="M3191.51 3380.31c0,-38.89 31.5,-70.38 70.38,-70.38 51.02,0 459.21,0 510.24,0 38.88,0 70.37,31.49 70.37,70.38 0,5.98 0,36.07 0,89.91l-650.99 0c0,-47.86 0,-77.77 0,-89.91z"/>
  </g>
  <g>
   <path class="fil11" d="M3191.51 3380.31c0,-38.89 31.5,-70.38 70.38,-70.38 51.02,0 459.21,0 510.24,0 38.88,0 70.37,31.49 70.37,70.38 0,5.98 0,36.07 0,89.91l-650.99 0c0,-47.86 0,-77.77 0,-89.91z"/>
   <path id="1" class="fil7 str1" d="M3191.51 3380.31c0,-38.89 31.5,-70.38 70.38,-70.38 51.02,0 459.21,0 510.24,0 38.88,0 70.37,31.49 70.37,70.38 0,5.98 0,36.07 0,89.91l-650.99 0c0,-47.86 0,-77.77 0,-89.91z"/>
  </g>
  <path class="fil7 str3" d="M3191.51 3380.31c0,-38.89 31.5,-70.38 70.38,-70.38 51.02,0 459.21,0 510.24,0 38.88,0 70.37,31.49 70.37,70.38 0,5.98 0,36.07 0,89.91l-650.99 0c0,-47.86 0,-77.77 0,-89.91z"/>
  <g>
   <path class="fil8" d="M3286.52 3459.13l116.12 -131.6m-116.12 131.6l0 0 0 0z"/>
   <path id="1" class="fil7 str1" d="M3286.52 3459.13l116.12 -131.6m-116.12 131.6l0 0 0 0z"/>
  </g>
  <g>
   <path class="fil11" d="M3286.52 3459.13l116.12 -131.6m-116.12 131.6l0 0 0 0z"/>
   <path id="1" class="fil7 str1" d="M3286.52 3459.13l116.12 -131.6m-116.12 131.6l0 0 0 0z"/>
  </g>
  <path class="fil7 str3" d="M3286.52 3459.13l116.12 -131.6m-116.12 131.6l0 0 0 0z"/>
  <g>
   <path class="fil8" d="M3394.9 3459.13l113.31 -131.6m-113.31 131.6l0 0 0 0z"/>
   <path id="1" class="fil7 str1" d="M3394.9 3459.13l113.31 -131.6m-113.31 131.6l0 0 0 0z"/>
  </g>
  <g>
   <path class="fil11" d="M3394.9 3459.13l113.31 -131.6m-113.31 131.6l0 0 0 0z"/>
   <path id="1" class="fil7 str1" d="M3394.9 3459.13l113.31 -131.6m-113.31 131.6l0 0 0 0z"/>
  </g>
  <path class="fil7 str3" d="M3394.9 3459.13l113.31 -131.6m-113.31 131.6l0 0 0 0z"/>
  <g>
   <path class="fil8" d="M3517.01 3459.13l114.36 -131.6m-114.36 131.6l0 0 0 0z"/>
   <path id="1" class="fil7 str1" d="M3517.01 3459.13l114.36 -131.6m-114.36 131.6l0 0 0 0z"/>
  </g>
  <g>
   <path class="fil11" d="M3517.01 3459.13l114.36 -131.6m-114.36 131.6l0 0 0 0z"/>
   <path id="1" class="fil7 str1" d="M3517.01 3459.13l114.36 -131.6m-114.36 131.6l0 0 0 0z"/>
  </g>
  <path class="fil7 str3" d="M3517.01 3459.13l114.36 -131.6m-114.36 131.6l0 0 0 0z"/>
  <g>
   <path class="fil8" d="M3631.37 3459.49l114.37 -131.96m-114.37 131.96l0 0 0 0z"/>
   <path id="1" class="fil7 str1" d="M3631.37 3459.49l114.37 -131.96m-114.37 131.96l0 0 0 0z"/>
  </g>
  <g>
   <path class="fil11" d="M3631.37 3459.49l114.37 -131.96m-114.37 131.96l0 0 0 0z"/>
   <path id="1" class="fil7 str1" d="M3631.37 3459.49l114.37 -131.96m-114.37 131.96l0 0 0 0z"/>
  </g>
  <path class="fil7 str3" d="M3631.37 3459.49l114.37 -131.96m-114.37 131.96l0 0 0 0z"/>
  <g>
   <path class="fil8" d="M3733.95 3459.13l90.96 -96.41m-90.96 96.41l0 0 0 0z"/>
   <path id="1" class="fil7 str1" d="M3733.95 3459.13l90.96 -96.41m-90.96 96.41l0 0 0 0z"/>
  </g>
  <g>
   <path class="fil11" d="M3733.95 3459.13l90.96 -96.41m-90.96 96.41l0 0 0 0z"/>
   <path id="1" class="fil7 str1" d="M3733.95 3459.13l90.96 -96.41m-90.96 96.41l0 0 0 0z"/>
  </g>
  <path class="fil7 str3" d="M3733.95 3459.13l90.96 -96.41m-90.96 96.41l0 0 0 0z"/>
  <g>
   <path class="fil8" d="M3209.1 3441.89l96.77 -114.36m-96.77 114.36l0 0 0 0z"/>
   <path id="1" class="fil7 str1" d="M3209.1 3441.89l96.77 -114.36m-96.77 114.36l0 0 0 0z"/>
  </g>
  <g>
   <path class="fil11" d="M3209.1 3441.89l96.77 -114.36m-96.77 114.36l0 0 0 0z"/>
   <path id="1" class="fil7 str1" d="M3209.1 3441.89l96.77 -114.36m-96.77 114.36l0 0 0 0z"/>
  </g>
  <path class="fil7 str3" d="M3209.1 3441.89l96.77 -114.36m-96.77 114.36l0 0 0 0z"/>
  <g>
   <polygon class="fil8" points="3436.25,3624.88 3436.25,3806.45 3617.83,3715.66 "/>
   <polygon id="1" class="fil7 str1" points="3436.25,3624.88 3436.25,3806.45 3617.83,3715.66 "/>
  </g>
  <g>
   <polygon class="fil11" points="3436.25,3624.88 3436.25,3806.45 3617.83,3715.66 "/>
   <polygon id="1" class="fil7 str1" points="3436.25,3624.88 3436.25,3806.45 3617.83,3715.66 "/>
  </g>
  <polygon class="fil7 str3" points="3436.25,3624.88 3436.25,3806.45 3617.83,3715.66 "/>
  <ellipse class="fil12" cx="2178.34" cy="3872.98" rx="55.04" ry="55.03"/>
  <ellipse class="fil13" cx="1930.4" cy="2836.33" rx="55.04" ry="55.03"/>
  <ellipse class="fil14" cx="1100.66" cy="2556.93" rx="55.04" ry="55.03"/>
  <ellipse class="fil15" cx="3922.72" cy="2397.06" rx="55.04" ry="55.03"/>
  <ellipse class="fil16" cx="4131.73" cy="3179.23" rx="55.04" ry="55.03"/>
  <ellipse class="fil17" cx="4233.33" cy="1464.73" rx="55.04" ry="55.03"/>
  <ellipse class="fil18" cx="2336.8" cy="753.53" rx="55.04" ry="55.03"/>
  <ellipse class="fil19" cx="2675.46" cy="4563.53" rx="55.04" ry="55.03"/>
  <ellipse class="fil20" cx="956.73" cy="4618.57" rx="55.04" ry="55.03"/>
  <ellipse class="fil16" cx="2624.66" cy="1752.61" rx="55.04" ry="55.03"/>
  <path class="fil21" d="M1344.47 2036.61c0.39,12.38 0.39,0.14 0.39,12.38 0,43.35 -39.15,78.48 -87.45,78.48 -48.29,0 -87.45,-35.13 -87.45,-78.48 0,-43.34 48.36,-78.48 87.45,-78.48 39.09,0 49.09,7.13 65.62,26.43 0.79,0.91 3.85,4.57 4.54,5.56 1.63,2.35 -1.36,-2.52 0,0 -7.97,-92.14 -13.99,-186.57 -18,-234l0 0 0.55 -46.51 0.53 -44.99 269.97 -103.5 -1.08 91.5 -0.05 0.02 -0.21 4.02 2.22 21.35c5.18,50.02 11.81,150.53 15.64,200.58 3.84,50.06 4.59,63.54 4.38,63.3 1.54,11.53 0.16,1.17 1.45,14.31 4.23,43.14 -39.16,78.49 -87.45,78.49 -48.3,0 -87.45,-35.14 -87.45,-78.49 0,-43.34 39.15,-78.47 87.45,-78.47 33.43,0 54.5,5.75 69.21,30.49 -8.07,-93.13 -15.64,-180.56 -19.67,-228.24l-1.76 -21.14 0 0 -238.01 91.25 0 0 0.72 9.11c0.43,5.51 11.81,150.53 15.65,200.58 3.83,50.06 2.81,67.83 2.61,67.59l0.2 -3.14z"/>
  <path class="fil21" d="M1493.19 1584.23l0.13 -11.67 0.54 -44.98 269.97 -103.5 -1.08 91.49 -0.06 0.03 -0.2 4.02 2.21 21.34c5.19,50.03 11.81,150.54 15.65,200.59 3.83,50.05 4.58,63.54 4.37,63.29 1.54,11.54 0.16,1.18 1.45,14.32 4.23,43.14 -39.15,78.49 -87.45,78.49 -36.97,0 -68.58,-20.59 -81.38,-49.69l-3.46 -47.89c9.5,-34.12 43.88,-59.38 84.84,-59.38 33.44,0 54.5,5.75 69.21,30.49 -8.07,-93.13 -15.64,-180.56 -19.67,-228.24l-1.75 -21.14 0 0 -144.46 55.39 0.41 -34.86 -109.27 41.9z"/>
 </g>
</svg>
