<?xml version="1.0" encoding="UTF-8"?>
<!DOCTYPE svg PUBLIC "-//W3C//DTD SVG 1.1//EN" "http://www.w3.org/Graphics/SVG/1.1/DTD/svg11.dtd">
<!-- Creator: CorelDRAW 2018 (64-Bit) -->
<svg xmlns="http://www.w3.org/2000/svg" xml:space="preserve" width="52.6626mm" height="52.6626mm" version="1.1" style="shape-rendering:geometricPrecision; text-rendering:geometricPrecision; image-rendering:optimizeQuality; fill-rule:evenodd; clip-rule:evenodd"
viewBox="0 0 5266.26 5266.26"
 xmlns:xlink="http://www.w3.org/1999/xlink">
 <defs>
  <style type="text/css">
   <![CDATA[
    .str6 {stroke:black;stroke-width:25.39;stroke-miterlimit:22.9256;stroke-opacity:0.000000}
    .str0 {stroke:black;stroke-width:33.86;stroke-miterlimit:14.1589}
    .str1 {stroke:#F7595B;stroke-width:33.86;stroke-miterlimit:14.1589}
    .str3 {stroke:black;stroke-width:25.39;stroke-miterlimit:22.9256}
    .str5 {stroke:#4FBF20;stroke-width:25.39;stroke-miterlimit:22.9256}
    .str2 {stroke:#6556E2;stroke-width:25.39;stroke-miterlimit:22.9256}
    .str4 {stroke:#6556E2;stroke-width:25.39;stroke-miterlimit:22.9256}
    .str7 {stroke:#DF6C00;stroke-width:25.39;stroke-miterlimit:22.9256}
    .fil8 {fill:none}
    .fil17 {fill:#FFED00}
    .fil20 {fill:#F5B2B6}
    .fil15 {fill:#EF7F1A}
    .fil21 {fill:#E5097F}
    .fil14 {fill:#E31E24}
    .fil13 {fill:#AE4A84}
    .fil18 {fill:#7E71B1}
    .fil19 {fill:#00A0E3}
    .fil16 {fill:#393185}
    .fil4 {fill:#2FEB6B}
    .fil3 {fill:#52EB82}
    .fil10 {fill:#6556E2}
    .fil11 {fill:#6556E2}
    .fil2 {fill:#71F099}
    .fil1 {fill:#88F0A9}
    .fil0 {fill:#9CF0B7}
    .fil5 {fill:#F4F4F4}
    .fil9 {fill:white}
    .fil6 {fill:white}
    .fil12 {fill:black;fill-opacity:0.000000}
    .fil7 {fill:white;fill-opacity:0.000000}
   ]]>
  </style>
 </defs>
 <g id="Слой_x0020_1">
  <metadata id="CorelCorpID_0Corel-Layer"/>
  <circle class="fil0" cx="2633.13" cy="2641.6" r="2159"/>
  <ellipse class="fil1" cx="2633.13" cy="2641.61" rx="1735.66" ry="1735.67"/>
  <ellipse class="fil2" cx="2633.13" cy="2641.6" rx="1312.33" ry="1312.32"/>
  <circle class="fil3" cx="2624.66" cy="2641.6" r="888.99"/>
  <ellipse class="fil4" cx="2633.13" cy="2633.13" rx="465.66" ry="465.65"/>
  <circle class="fil5" cx="2556.71" cy="2443.17" r="32.71"/>
  <circle class="fil5" cx="2712.99" cy="2443.17" r="32.71"/>
  <ellipse class="fil5" cx="3258.75" cy="1022.11" rx="296.34" ry="296.33"/>
  <ellipse class="fil6" cx="1988.29" cy="1498.37" rx="296.34" ry="296.33"/>
  <ellipse class="fil6" cx="4781.2" cy="2423.02" rx="296.34" ry="296.33"/>
  <circle class="fil5" cx="2593.18" cy="2531.19" r="32.71"/>
  <circle class="fil5" transform="matrix(0.70055 0.852295 -0.852295 0.70055 2534.24 2590.13)" r="29.63"/>
  <circle class="fil5" transform="matrix(0.70055 0.852295 -0.852295 0.70055 2534.25 2673.48)" r="29.63"/>
  <circle class="fil5" transform="matrix(0.70055 0.852295 -0.852295 0.70055 2593.18 2732.42)" r="29.63"/>
  <circle class="fil5" transform="matrix(0.70055 0.852295 -0.852295 0.70055 2676.53 2732.42)" r="29.63"/>
  <circle class="fil5" transform="matrix(0.70055 0.852295 -0.852295 0.70055 2735.47 2673.48)" r="29.63"/>
  <circle class="fil5" transform="matrix(0.70055 0.852295 -0.852295 0.70055 2735.46 2590.13)" r="29.63"/>
  <circle class="fil5" transform="matrix(0.70055 0.852295 -0.852295 0.70055 2676.53 2531.19)" r="29.63"/>
  <circle class="fil5" cx="2446.22" cy="2553.67" r="32.71"/>
  <circle class="fil5" cx="2446.22" cy="2709.95" r="32.71"/>
  <circle class="fil5" cx="2556.72" cy="2820.44" r="32.71"/>
  <circle class="fil5" cx="2713" cy="2820.44" r="32.71"/>
  <circle class="fil5" cx="2823.49" cy="2709.94" r="32.71"/>
  <circle class="fil5" cx="2823.49" cy="2553.66" r="32.71"/>
  <ellipse class="fil6" cx="3327.4" cy="4157.13" rx="296.34" ry="296.33"/>
  <ellipse class="fil6" cx="678.26" cy="3559.18" rx="296.34" ry="296.33"/>
  <g id="_1776922664880">
   <g>
    <g>
     <g>
      <g>
       <g>
        <polygon class="fil7" points="1793.89,1442.86 1876.33,1442.86 1971.19,1347.18 2002.89,1347.18 2002.89,1672.29 1967.94,1672.3 1876.22,1579.87 1793.89,1579.87 "/>
        <polygon id="1" class="fil8 str0" points="1793.89,1442.86 1876.33,1442.86 1971.19,1347.18 2002.89,1347.18 2002.89,1672.29 1967.94,1672.3 1876.22,1579.87 1793.89,1579.87 "/>
       </g>
       <polygon class="fil8 str1" points="1793.89,1442.86 1876.33,1442.86 1971.19,1347.18 2002.89,1347.18 2002.89,1672.29 1967.94,1672.3 1876.22,1579.87 1793.89,1579.87 "/>
      </g>
     </g>
    </g>
    <g>
     <g>
      <g>
       <g>
        <path class="fil7" d="M2060.95 1416.85c0,0 81.28,21.83 81.28,83.95 0,62.23 -81.28,90.21 -81.28,90.21m0 -174.16l0 0 0 0z"/>
        <path id="1" class="fil8 str0" d="M2060.95 1416.85c0,0 81.28,21.83 81.28,83.95 0,62.23 -81.28,90.21 -81.28,90.21m0 -174.16l0 0 0 0z"/>
       </g>
       <path class="fil8 str1" d="M2060.95 1416.85c0,0 81.28,21.83 81.28,83.95 0,62.23 -81.28,90.21 -81.28,90.21m0 -174.16l0 0 0 0z"/>
      </g>
     </g>
    </g>
    <g id="_1776922665968">
     <g>
      <g>
       <g>
        <path class="fil7" d="M2060.95 1347.18c0,0 150.95,40.64 150.95,156.75 0,116.12 -150.95,168.37 -150.95,168.37m0 -325.12l0 0 0 0z"/>
        <path id="1" class="fil8 str0" d="M2060.95 1347.18c0,0 150.95,40.64 150.95,156.75 0,116.12 -150.95,168.37 -150.95,168.37m0 -325.12l0 0 0 0z"/>
       </g>
       <path class="fil8 str1" d="M2060.95 1347.18c0,0 150.95,40.64 150.95,156.75 0,116.12 -150.95,168.37 -150.95,168.37m0 -325.12l0 0 0 0z"/>
      </g>
     </g>
    </g>
    <g>
    </g>
    <g>
     <g id="_1776922666928">
      <path class="fil9 str0" d="M2060.95 1463.3c0,0 23.22,12.31 23.22,36.92 0,24.5 -23.22,32.74 -23.22,32.74l0 -69.66z"/>
     </g>
     <g id="_1776922664976">
      <g>
       <g>
        <path class="fil7" d="M2060.95 1463.3c0,0 23.22,12.31 23.22,36.92 0,24.5 -23.22,32.74 -23.22,32.74l0 -69.66z"/>
        <path id="1" class="fil8 str0" d="M2060.95 1463.3c0,0 23.22,12.31 23.22,36.92 0,24.5 -23.22,32.74 -23.22,32.74l0 -69.66z"/>
       </g>
       <path class="fil8 str1" d="M2060.95 1463.3c0,0 23.22,12.31 23.22,36.92 0,24.5 -23.22,32.74 -23.22,32.74l0 -69.66z"/>
      </g>
     </g>
    </g>
   </g>
  </g>
  <path class="fil8 str2" d="M713.32 3431.7l-205.64 0c0,0 -28.73,4.96 -28.73,29.89l0 199.3c0,0 0,29.89 28.73,29.89l143.43 0 71.82 59.78 0 -59.78 62.11 0c0,0 28.62,-5.07 28.62,-29.89l0 -169.52m-100.34 -59.67l0 0 0 0z"/>
  <g>
   <path class="fil7" d="M758.84 3519.36l102.67 -102.56 -4.86 -24.5 -14.79 -14.58 -29.25 -9.82 -102.56 102.56m48.79 48.9l0 0 0 0z"/>
   <path id="1" class="fil8 str3" d="M758.84 3519.36l102.67 -102.56 -4.86 -24.5 -14.79 -14.58 -29.25 -9.82 -102.56 102.56m48.79 48.9l0 0 0 0z"/>
  </g>
  <path class="fil8 str2" d="M758.84 3519.36l102.67 -102.56 -4.86 -24.5 -14.79 -14.58 -29.25 -9.82 -102.56 102.56m48.79 48.9l0 0 0 0z"/>
  <g>
   <path class="fil7" d="M692.94 3495.38l-14.68 63.8 63.79 -14.79m-49.11 -49.01l0 0 0 0z"/>
   <path id="1" class="fil8 str3" d="M692.94 3495.38l-14.68 63.8 63.79 -14.79m-49.11 -49.01l0 0 0 0z"/>
  </g>
  <path class="fil8 str2" d="M692.94 3495.38l-14.68 63.8 63.79 -14.79m-49.11 -49.01l0 0 0 0z"/>
  <g>
   <path class="fil7" d="M741.94 3487.46l87.67 -87.66m-87.67 87.66l0 0 0 0z"/>
   <path id="1" class="fil8 str3" d="M741.94 3487.46l87.67 -87.66m-87.67 87.66l0 0 0 0z"/>
  </g>
  <path class="fil8 str2" d="M741.94 3487.46l87.67 -87.66m-87.67 87.66l0 0 0 0z"/>
  <polygon class="fil10 str4" points="531.76,3515.77 531.76,3494.64 637.38,3494.64 637.38,3515.77 "/>
  <polygon class="fil11 str4" points="531.76,3568.58 531.76,3547.45 637.38,3547.45 637.38,3568.58 "/>
  <polygon class="fil10 str4" points="531.76,3621.39 531.76,3600.26 732.44,3600.26 732.44,3621.39 "/>
 </g>
 <g id="Слой_x0020_2">
  <metadata id="CorelCorpID_1Corel-Layer"/>
  <g>
   <path class="fil7" d="M3469.04 4267.86c0,-46.96 0,-73.14 0,-78.42 0,0 0,-63.35 -111.75,-94.26 -68.41,0 50.04,-27.5 50.04,-89.09 0,-61.81 -45.09,-83.48 -85.79,-83.48 -41.02,0 -92.71,24.97 -92.71,83.37 0,58.29 45.09,90.08 63.46,89.2 18.25,-0.77 -118.46,22.55 -118.46,94.26 -30.03,100.09 0,78.42 0,78.42 0,0 98.44,0 295.21,0z"/>
   <path id="1" class="fil8 str3" d="M3469.04 4267.86c0,-46.96 0,-73.14 0,-78.42 0,0 0,-63.35 -111.75,-94.26 -68.41,0 50.04,-27.5 50.04,-89.09 0,-61.81 -45.09,-83.48 -85.79,-83.48 -41.02,0 -92.71,24.97 -92.71,83.37 0,58.29 45.09,90.08 63.46,89.2 18.25,-0.77 -118.46,22.55 -118.46,94.26 -30.03,100.09 0,78.42 0,78.42 0,0 98.44,0 295.21,0z"/>
  </g>
  <g>
   <path class="fil12" d="M3469.04 4267.86c0,-46.96 0,-73.14 0,-78.42 0,0 0,-63.35 -111.75,-94.26 -68.41,0 50.04,-27.5 50.04,-89.09 0,-61.81 -45.09,-83.48 -85.79,-83.48 -41.02,0 -92.71,24.97 -92.71,83.37 0,58.29 45.09,90.08 63.46,89.2 18.25,-0.77 -118.46,22.55 -118.46,94.26 -30.03,100.09 0,78.42 0,78.42 0,0 98.44,0 295.21,0z"/>
   <path id="1" class="fil8 str3" d="M3469.04 4267.86c0,-46.96 0,-73.14 0,-78.42 0,0 0,-63.35 -111.75,-94.26 -68.41,0 50.04,-27.5 50.04,-89.09 0,-61.81 -45.09,-83.48 -85.79,-83.48 -41.02,0 -92.71,24.97 -92.71,83.37 0,58.29 45.09,90.08 63.46,89.2 18.25,-0.77 -118.46,22.55 -118.46,94.26 -30.03,100.09 0,78.42 0,78.42 0,0 98.44,0 295.21,0z"/>
  </g>
  <path class="fil8 str5" d="M3469.04 4267.86c0,-46.96 0,-73.14 0,-78.42 0,0 0,-63.35 -111.75,-94.26 -68.41,0 50.04,-27.5 50.04,-89.09 0,-61.81 -45.09,-83.48 -85.79,-83.48 -41.02,0 -92.71,24.97 -92.71,83.37 0,58.29 45.09,90.08 63.46,89.2 18.25,-0.77 -118.46,22.55 -118.46,94.26 -30.03,100.09 0,78.42 0,78.42 0,0 98.44,0 295.21,0z"/>
  <path class="fil9 str3" d="M3305.38 4126.2c-19.69,0 -30.69,0 -32.89,0 0,0 -25.19,1.76 -25.19,21.78 0,15.06 0,135.61 0,150.68 0,0 3.3,21.67 25.3,21.67 21.23,0 191.16,0 212.39,0 0,0 21.88,-1.87 22.76,-22.66 0.89,-20.9 0,-149.69 0,-149.69 0,0 -4.61,-21.78 -22.76,-21.78 -7.81,0 -47.19,0 -117.91,0l-65.34 -70.84 3.64 70.84z"/>
  <path class="fil12 str6" d="M3305.38 4126.2c-19.69,0 -30.69,0 -32.89,0 0,0 -25.19,1.76 -25.19,21.78 0,15.06 0,135.61 0,150.68 0,0 3.3,21.67 25.3,21.67 21.23,0 191.16,0 212.39,0 0,0 21.88,-1.87 22.76,-22.66 0.89,-20.9 0,-149.69 0,-149.69 0,0 -4.61,-21.78 -22.76,-21.78 -7.81,0 -47.19,0 -117.91,0l-65.34 -70.84 3.64 70.84z"/>
  <g>
   <path class="fil7" d="M3305.38 4126.2c-19.69,0 -30.69,0 -32.89,0 0,0 -25.19,1.76 -25.19,21.78 0,15.06 0,135.61 0,150.68 0,0 3.3,21.67 25.3,21.67 21.23,0 191.16,0 212.39,0 0,0 21.88,-1.87 22.76,-22.66 0.89,-20.9 0,-149.69 0,-149.69 0,0 -4.61,-21.78 -22.76,-21.78 -7.81,0 -47.19,0 -117.91,0l-65.34 -70.84 3.64 70.84z"/>
   <path id="1" class="fil8 str3" d="M3305.38 4126.2c-19.69,0 -30.69,0 -32.89,0 0,0 -25.19,1.76 -25.19,21.78 0,15.06 0,135.61 0,150.68 0,0 3.3,21.67 25.3,21.67 21.23,0 191.16,0 212.39,0 0,0 21.88,-1.87 22.76,-22.66 0.89,-20.9 0,-149.69 0,-149.69 0,0 -4.61,-21.78 -22.76,-21.78 -7.81,0 -47.19,0 -117.91,0l-65.34 -70.84 3.64 70.84z"/>
  </g>
  <g>
   <path class="fil12" d="M3305.38 4126.2c-19.69,0 -30.69,0 -32.89,0 0,0 -25.19,1.76 -25.19,21.78 0,15.06 0,135.61 0,150.68 0,0 3.3,21.67 25.3,21.67 21.23,0 191.16,0 212.39,0 0,0 21.88,-1.87 22.76,-22.66 0.89,-20.9 0,-149.69 0,-149.69 0,0 -4.61,-21.78 -22.76,-21.78 -7.81,0 -47.19,0 -117.91,0l-65.34 -70.84 3.64 70.84z"/>
   <path id="1" class="fil8 str3" d="M3305.38 4126.2c-19.69,0 -30.69,0 -32.89,0 0,0 -25.19,1.76 -25.19,21.78 0,15.06 0,135.61 0,150.68 0,0 3.3,21.67 25.3,21.67 21.23,0 191.16,0 212.39,0 0,0 21.88,-1.87 22.76,-22.66 0.89,-20.9 0,-149.69 0,-149.69 0,0 -4.61,-21.78 -22.76,-21.78 -7.81,0 -47.19,0 -117.91,0l-65.34 -70.84 3.64 70.84z"/>
  </g>
  <path class="fil8 str5" d="M3305.38 4126.2c-19.69,0 -30.69,0 -32.89,0 0,0 -25.19,1.76 -25.19,21.78 0,15.06 0,135.61 0,150.68 0,0 3.3,21.67 25.3,21.67 21.23,0 191.16,0 212.39,0 0,0 21.88,-1.87 22.76,-22.66 0.89,-20.9 0,-149.69 0,-149.69 0,0 -4.61,-21.78 -22.76,-21.78 -7.81,0 -47.19,0 -117.91,0l-65.34 -70.84 3.64 70.84z"/>
  <g>
   <polygon class="fil7" points="3110.57,1170.28 3110.57,873.93 3406.92,873.93 3406.92,1170.28 "/>
   <polygon id="1" class="fil8 str3" points="3110.57,1170.28 3110.57,873.93 3406.92,873.93 3406.92,1170.28 "/>
  </g>
  <g>
   <polygon class="fil12" points="3110.57,1170.28 3110.57,873.93 3406.92,873.93 3406.92,1170.28 "/>
   <polygon id="1" class="fil8 str3" points="3110.57,1170.28 3110.57,873.93 3406.92,873.93 3406.92,1170.28 "/>
  </g>
  <polygon class="fil8 str2" points="3110.57,1170.28 3110.57,873.93 3406.92,873.93 3406.92,1170.28 "/>
  <g>
   <path class="fil7" d="M3113.65 1108.53l290.2 0m-290.2 0l0 0 0 0z"/>
   <path id="1" class="fil8 str3" d="M3113.65 1108.53l290.2 0m-290.2 0l0 0 0 0z"/>
  </g>
  <g>
   <path class="fil12" d="M3113.65 1108.53l290.2 0m-290.2 0l0 0 0 0z"/>
   <path id="1" class="fil8 str3" d="M3113.65 1108.53l290.2 0m-290.2 0l0 0 0 0z"/>
  </g>
  <path class="fil8 str2" d="M3113.65 1108.53l290.2 0m-290.2 0l0 0 0 0z"/>
  <g>
   <path class="fil7" d="M3196.95 917.12c13.64,0 24.72,11 24.72,24.63 0,13.64 -11.08,24.72 -24.72,24.72 -13.63,0 -24.63,-11.08 -24.63,-24.72 0,-13.63 11,-24.63 24.63,-24.63z"/>
   <path id="1" class="fil8 str3" d="M3196.95 917.12c13.64,0 24.72,11 24.72,24.63 0,13.64 -11.08,24.72 -24.72,24.72 -13.63,0 -24.63,-11.08 -24.63,-24.72 0,-13.63 11,-24.63 24.63,-24.63z"/>
  </g>
  <g>
   <path class="fil12" d="M3196.95 917.12c13.64,0 24.72,11 24.72,24.63 0,13.64 -11.08,24.72 -24.72,24.72 -13.63,0 -24.63,-11.08 -24.63,-24.72 0,-13.63 11,-24.63 24.63,-24.63z"/>
   <path id="1" class="fil8 str3" d="M3196.95 917.12c13.64,0 24.72,11 24.72,24.63 0,13.64 -11.08,24.72 -24.72,24.72 -13.63,0 -24.63,-11.08 -24.63,-24.72 0,-13.63 11,-24.63 24.63,-24.63z"/>
  </g>
  <path class="fil8 str2" d="M3196.95 917.12c13.64,0 24.72,11 24.72,24.63 0,13.64 -11.08,24.72 -24.72,24.72 -13.63,0 -24.63,-11.08 -24.63,-24.72 0,-13.63 11,-24.63 24.63,-24.63z"/>
  <g>
   <path class="fil7" d="M3146.9 1197.29l285.53 0 0 -287.03m-285.53 287.03l0 0 0 0z"/>
   <path id="1" class="fil8 str3" d="M3146.9 1197.29l285.53 0 0 -287.03m-285.53 287.03l0 0 0 0z"/>
  </g>
  <g>
   <path class="fil12" d="M3146.9 1197.29l285.53 0 0 -287.03m-285.53 287.03l0 0 0 0z"/>
   <path id="1" class="fil8 str3" d="M3146.9 1197.29l285.53 0 0 -287.03m-285.53 287.03l0 0 0 0z"/>
  </g>
  <path class="fil8 str2" d="M3146.9 1197.29l285.53 0 0 -287.03m-285.53 287.03l0 0 0 0z"/>
  <g>
   <path class="fil7" d="M3172.32 1110.03l49.35 -78.73 37.03 44.86 63.34 -94.21 47.85 128.08m-197.57 0l0 0 0 0z"/>
   <path id="1" class="fil8 str3" d="M3172.32 1110.03l49.35 -78.73 37.03 44.86 63.34 -94.21 47.85 128.08m-197.57 0l0 0 0 0z"/>
  </g>
  <g>
   <path class="fil12" d="M3172.32 1110.03l49.35 -78.73 37.03 44.86 63.34 -94.21 47.85 128.08m-197.57 0l0 0 0 0z"/>
   <path id="1" class="fil8 str3" d="M3172.32 1110.03l49.35 -78.73 37.03 44.86 63.34 -94.21 47.85 128.08m-197.57 0l0 0 0 0z"/>
  </g>
  <path class="fil8 str2" d="M3172.32 1110.03l49.35 -78.73 37.03 44.86 63.34 -94.21 47.85 128.08m-197.57 0l0 0 0 0z"/>
  <g>
   <path class="fil7" d="M4598.29 2370.31l368.04 0c0,106.13 0,165.02 0,176.75 0,27.56 -22.28,49.74 -49.73,49.74 -26.86,0 -241.72,0 -268.57,0 -27.46,0 -49.74,-22.18 -49.74,-49.74 0,-23.57 0,-82.46 0,-176.75z"/>
   <path id="1" class="fil8 str3" d="M4598.29 2370.31l368.04 0c0,106.13 0,165.02 0,176.75 0,27.56 -22.28,49.74 -49.73,49.74 -26.86,0 -241.72,0 -268.57,0 -27.46,0 -49.74,-22.18 -49.74,-49.74 0,-23.57 0,-82.46 0,-176.75z"/>
  </g>
  <g>
   <path class="fil12" d="M4598.29 2370.31l368.04 0c0,106.13 0,165.02 0,176.75 0,27.56 -22.28,49.74 -49.73,49.74 -26.86,0 -241.72,0 -268.57,0 -27.46,0 -49.74,-22.18 -49.74,-49.74 0,-23.57 0,-82.46 0,-176.75z"/>
   <path id="1" class="fil8 str3" d="M4598.29 2370.31l368.04 0c0,106.13 0,165.02 0,176.75 0,27.56 -22.28,49.74 -49.73,49.74 -26.86,0 -241.72,0 -268.57,0 -27.46,0 -49.74,-22.18 -49.74,-49.74 0,-23.57 0,-82.46 0,-176.75z"/>
  </g>
  <path class="fil8 str7" d="M4598.29 2370.31l368.04 0c0,106.13 0,165.02 0,176.75 0,27.56 -22.28,49.74 -49.73,49.74 -26.86,0 -241.72,0 -268.57,0 -27.46,0 -49.74,-22.18 -49.74,-49.74 0,-23.57 0,-82.46 0,-176.75z"/>
  <g>
   <path class="fil7" d="M4598.29 2291.23c0,-21.99 17.81,-39.79 39.79,-39.79 28.85,0 259.62,0 288.46,0 21.99,0 39.79,17.8 39.79,39.79 0,3.38 0,20.39 0,50.83l-368.04 0c0,-27.06 0,-43.97 0,-50.83z"/>
   <path id="1" class="fil8 str3" d="M4598.29 2291.23c0,-21.99 17.81,-39.79 39.79,-39.79 28.85,0 259.62,0 288.46,0 21.99,0 39.79,17.8 39.79,39.79 0,3.38 0,20.39 0,50.83l-368.04 0c0,-27.06 0,-43.97 0,-50.83z"/>
  </g>
  <g>
   <path class="fil12" d="M4598.29 2291.23c0,-21.99 17.81,-39.79 39.79,-39.79 28.85,0 259.62,0 288.46,0 21.99,0 39.79,17.8 39.79,39.79 0,3.38 0,20.39 0,50.83l-368.04 0c0,-27.06 0,-43.97 0,-50.83z"/>
   <path id="1" class="fil8 str3" d="M4598.29 2291.23c0,-21.99 17.81,-39.79 39.79,-39.79 28.85,0 259.62,0 288.46,0 21.99,0 39.79,17.8 39.79,39.79 0,3.38 0,20.39 0,50.83l-368.04 0c0,-27.06 0,-43.97 0,-50.83z"/>
  </g>
  <path class="fil8 str7" d="M4598.29 2291.23c0,-21.99 17.81,-39.79 39.79,-39.79 28.85,0 259.62,0 288.46,0 21.99,0 39.79,17.8 39.79,39.79 0,3.38 0,20.39 0,50.83l-368.04 0c0,-27.06 0,-43.97 0,-50.83z"/>
  <g>
   <path class="fil7" d="M4652.01 2335.79l65.64 -74.4m-65.64 74.4l0 0 0 0z"/>
   <path id="1" class="fil8 str3" d="M4652.01 2335.79l65.64 -74.4m-65.64 74.4l0 0 0 0z"/>
  </g>
  <g>
   <path class="fil12" d="M4652.01 2335.79l65.64 -74.4m-65.64 74.4l0 0 0 0z"/>
   <path id="1" class="fil8 str3" d="M4652.01 2335.79l65.64 -74.4m-65.64 74.4l0 0 0 0z"/>
  </g>
  <path class="fil8 str7" d="M4652.01 2335.79l65.64 -74.4m-65.64 74.4l0 0 0 0z"/>
  <g>
   <path class="fil7" d="M4713.28 2335.79l64.06 -74.4m-64.06 74.4l0 0 0 0z"/>
   <path id="1" class="fil8 str3" d="M4713.28 2335.79l64.06 -74.4m-64.06 74.4l0 0 0 0z"/>
  </g>
  <g>
   <path class="fil12" d="M4713.28 2335.79l64.06 -74.4m-64.06 74.4l0 0 0 0z"/>
   <path id="1" class="fil8 str3" d="M4713.28 2335.79l64.06 -74.4m-64.06 74.4l0 0 0 0z"/>
  </g>
  <path class="fil8 str7" d="M4713.28 2335.79l64.06 -74.4m-64.06 74.4l0 0 0 0z"/>
  <g>
   <path class="fil7" d="M4782.31 2335.79l64.66 -74.4m-64.66 74.4l0 0 0 0z"/>
   <path id="1" class="fil8 str3" d="M4782.31 2335.79l64.66 -74.4m-64.66 74.4l0 0 0 0z"/>
  </g>
  <g>
   <path class="fil12" d="M4782.31 2335.79l64.66 -74.4m-64.66 74.4l0 0 0 0z"/>
   <path id="1" class="fil8 str3" d="M4782.31 2335.79l64.66 -74.4m-64.66 74.4l0 0 0 0z"/>
  </g>
  <path class="fil8 str7" d="M4782.31 2335.79l64.66 -74.4m-64.66 74.4l0 0 0 0z"/>
  <g>
   <path class="fil7" d="M4846.97 2335.99l64.65 -74.6m-64.65 74.6l0 0 0 0z"/>
   <path id="1" class="fil8 str3" d="M4846.97 2335.99l64.65 -74.6m-64.65 74.6l0 0 0 0z"/>
  </g>
  <g>
   <path class="fil12" d="M4846.97 2335.99l64.65 -74.6m-64.65 74.6l0 0 0 0z"/>
   <path id="1" class="fil8 str3" d="M4846.97 2335.99l64.65 -74.6m-64.65 74.6l0 0 0 0z"/>
  </g>
  <path class="fil8 str7" d="M4846.97 2335.99l64.65 -74.6m-64.65 74.6l0 0 0 0z"/>
  <g>
   <path class="fil7" d="M4904.96 2335.79l51.42 -54.51m-51.42 54.51l0 0 0 0z"/>
   <path id="1" class="fil8 str3" d="M4904.96 2335.79l51.42 -54.51m-51.42 54.51l0 0 0 0z"/>
  </g>
  <g>
   <path class="fil12" d="M4904.96 2335.79l51.42 -54.51m-51.42 54.51l0 0 0 0z"/>
   <path id="1" class="fil8 str3" d="M4904.96 2335.79l51.42 -54.51m-51.42 54.51l0 0 0 0z"/>
  </g>
  <path class="fil8 str7" d="M4904.96 2335.79l51.42 -54.51m-51.42 54.51l0 0 0 0z"/>
  <g>
   <path class="fil7" d="M4608.24 2326.04l54.71 -64.65m-54.71 64.65l0 0 0 0z"/>
   <path id="1" class="fil8 str3" d="M4608.24 2326.04l54.71 -64.65m-54.71 64.65l0 0 0 0z"/>
  </g>
  <g>
   <path class="fil12" d="M4608.24 2326.04l54.71 -64.65m-54.71 64.65l0 0 0 0z"/>
   <path id="1" class="fil8 str3" d="M4608.24 2326.04l54.71 -64.65m-54.71 64.65l0 0 0 0z"/>
  </g>
  <path class="fil8 str7" d="M4608.24 2326.04l54.71 -64.65m-54.71 64.65l0 0 0 0z"/>
  <g>
   <polygon class="fil7" points="4736.65,2429.49 4736.65,2532.15 4839.31,2480.82 "/>
   <polygon id="1" class="fil8 str3" points="4736.65,2429.49 4736.65,2532.15 4839.31,2480.82 "/>
  </g>
  <g>
   <polygon class="fil12" points="4736.65,2429.49 4736.65,2532.15 4839.31,2480.82 "/>
   <polygon id="1" class="fil8 str3" points="4736.65,2429.49 4736.65,2532.15 4839.31,2480.82 "/>
  </g>
  <polygon class="fil8 str7" points="4736.65,2429.49 4736.65,2532.15 4839.31,2480.82 "/>
  <ellipse class="fil13" cx="2178.34" cy="3872.98" rx="55.04" ry="55.03"/>
  <ellipse class="fil14" cx="1930.4" cy="2836.33" rx="55.04" ry="55.03"/>
  <ellipse class="fil15" cx="1100.66" cy="2556.93" rx="55.04" ry="55.03"/>
  <ellipse class="fil16" cx="3589.86" cy="1871.13" rx="55.04" ry="55.03"/>
  <ellipse class="fil17" cx="4131.73" cy="3179.23" rx="55.04" ry="55.03"/>
  <ellipse class="fil18" cx="4233.33" cy="931.33" rx="55.04" ry="55.03"/>
  <ellipse class="fil19" cx="2336.8" cy="753.53" rx="55.04" ry="55.03"/>
  <ellipse class="fil20" cx="2675.46" cy="4563.53" rx="55.04" ry="55.03"/>
  <ellipse class="fil21" cx="956.73" cy="4618.57" rx="55.04" ry="55.03"/>
  <ellipse class="fil17" cx="1117.6" cy="1422.4" rx="55.04" ry="55.03"/>
 </g>
</svg>
