<?xml version="1.0" encoding="UTF-8"?>
<!DOCTYPE svg PUBLIC "-//W3C//DTD SVG 1.1//EN" "http://www.w3.org/Graphics/SVG/1.1/DTD/svg11.dtd">
<!-- Creator: CorelDRAW 2018 (64-Bit) -->
<svg xmlns="http://www.w3.org/2000/svg" xml:space="preserve" width="10.16mm" height="10.16mm" version="1.1" style="shape-rendering:geometricPrecision; text-rendering:geometricPrecision; image-rendering:optimizeQuality; fill-rule:evenodd; clip-rule:evenodd"
viewBox="0 0 1016 1016"
 xmlns:xlink="http://www.w3.org/1999/xlink">
 <defs>
  <style type="text/css">
   <![CDATA[
    .str0 {stroke:#6556E2;stroke-width:25.39;stroke-miterlimit:22.9256}
    .fil0 {fill:none}
   ]]>
  </style>
 </defs>
 <g id="Слой_x0020_1">
  <metadata id="CorelCorpID_0Corel-Layer"/>
  <g id="_2352966458208">
   <path class="fil0 str0" d="M165.39 110.07l16.35 0c39.8,0 72.26,32.47 72.26,72.26l0 353.82m0 129.96l0 167.56c0,39.79 -32.47,72.26 -72.26,72.26l-16.35 0c-39.79,0 -72.26,-32.46 -72.26,-72.26l0 -167.56m0 -129.96l0 -353.82c0,-39.8 32.46,-72.26 72.26,-72.26"/>
   <path class="fil0 str0" d="M499.83 101.6l16.35 0c39.8,0 72.26,32.47 72.26,72.26l0 120.99m0 129.96l0 400.39c0,39.79 -32.47,72.26 -72.26,72.26l-16.35 0c-39.79,0 -72.26,-32.46 -72.26,-72.26l0 -400.39m0 -129.96l0 -120.99c0,-39.8 32.46,-72.26 72.26,-72.26"/>
   <path class="fil0 str0" d="M918.64 653.4l0 171.8c0,39.79 -32.47,72.26 -72.26,72.26l-16.35 0c-39.79,0 -72.26,-32.46 -72.26,-72.26l0 -171.8m0.94 -130.26l-0.94 -349.28c-0.1,-39.8 32.46,-72.26 72.26,-72.26l16.35 0c39.8,0 72.26,32.47 72.26,72.26l0 349.58"/>
   <path class="fil0 str0" d="M110.37 533.4l126.4 0c30.47,0 55.33,24.86 55.33,55.33l0 24.81c0,30.47 -24.86,55.33 -55.33,55.33l-126.4 0c-30.47,0 -55.33,-24.86 -55.33,-55.33l0 -24.81c0,-30.47 24.86,-55.33 55.33,-55.33z"/>
   <path class="fil0 str0" d="M444.8 292.09l126.4 0c30.47,0 55.33,24.86 55.33,55.33l0 24.81c0,30.47 -24.86,55.33 -55.33,55.33l-126.4 0c-30.47,0 -55.33,-24.86 -55.33,-55.33l0 -24.81c0,-30.47 24.86,-55.33 55.33,-55.33z"/>
   <path class="fil0 str0" d="M775 520.69l126.4 0c30.47,0 55.33,24.86 55.33,55.33l0 24.81c0,30.47 -24.86,55.33 -55.33,55.33l-126.4 0c-30.47,0 -55.33,-24.86 -55.33,-55.33l0 -24.81c0,-30.47 24.86,-55.33 55.33,-55.33z"/>
  </g>
 </g>
</svg>
