<?xml version="1.0" encoding="UTF-8"?>
<!DOCTYPE svg PUBLIC "-//W3C//DTD SVG 1.1//EN" "http://www.w3.org/Graphics/SVG/1.1/DTD/svg11.dtd">
<!-- Creator: CorelDRAW 2018 (64-Bit) -->
<svg xmlns="http://www.w3.org/2000/svg" xml:space="preserve" width="52.6626mm" height="52.6626mm" version="1.1" style="shape-rendering:geometricPrecision; text-rendering:geometricPrecision; image-rendering:optimizeQuality; fill-rule:evenodd; clip-rule:evenodd"
viewBox="0 0 5266.26 5266.26"
 xmlns:xlink="http://www.w3.org/1999/xlink">
 <defs>
  <style type="text/css">
   <![CDATA[
    .str3 {stroke:#4FBF20;stroke-width:42.33;stroke-miterlimit:22.9256}
    .str0 {stroke:#F7595A;stroke-width:42.33;stroke-miterlimit:22.9256}
    .str1 {stroke:#00A6FE;stroke-width:52.92;stroke-miterlimit:22.9256}
    .str2 {stroke:#22E0CD;stroke-width:50.79;stroke-miterlimit:22.9256}
    .fil16 {fill:none}
    .fil11 {fill:#FFED00}
    .fil14 {fill:#F5B2B6}
    .fil9 {fill:#EF7F1A}
    .fil15 {fill:#E5097F}
    .fil8 {fill:#E31E24}
    .fil7 {fill:#AE4A84}
    .fil12 {fill:#7E71B1}
    .fil13 {fill:#00A0E3}
    .fil10 {fill:#393185}
    .fil19 {fill:#00A6FE}
    .fil4 {fill:#2FEB6B}
    .fil3 {fill:#52EB82}
    .fil2 {fill:#71F099}
    .fil1 {fill:#88F0A9}
    .fil0 {fill:#9CF0B7}
    .fil6 {fill:#F1FFEB}
    .fil5 {fill:#F4F4F4}
    .fil17 {fill:white}
    .fil18 {fill:white;fill-opacity:0.000000}
   ]]>
  </style>
 </defs>
 <g id="Слой_x0020_1">
  <metadata id="CorelCorpID_0Corel-Layer"/>
  <circle class="fil0" cx="2633.13" cy="2641.6" r="2159"/>
  <ellipse class="fil1" cx="2633.13" cy="2641.61" rx="1735.66" ry="1735.67"/>
  <ellipse class="fil2" cx="2633.13" cy="2641.6" rx="1312.33" ry="1312.32"/>
  <circle class="fil3" cx="2624.66" cy="2641.6" r="888.99"/>
  <ellipse class="fil4" cx="2633.13" cy="2633.13" rx="465.66" ry="465.65"/>
  <circle class="fil5" cx="2556.71" cy="2443.17" r="32.71"/>
  <circle class="fil5" cx="2712.99" cy="2443.17" r="32.71"/>
  <circle class="fil6" cx="2315.98" cy="934.85" r="524.94"/>
  <circle class="fil5" cx="2593.18" cy="2531.19" r="32.71"/>
  <circle class="fil5" transform="matrix(0.70055 0.852295 -0.852295 0.70055 2534.24 2590.13)" r="29.63"/>
  <circle class="fil5" transform="matrix(0.70055 0.852295 -0.852295 0.70055 2534.25 2673.48)" r="29.63"/>
  <circle class="fil5" transform="matrix(0.70055 0.852295 -0.852295 0.70055 2593.18 2732.42)" r="29.63"/>
  <circle class="fil5" transform="matrix(0.70055 0.852295 -0.852295 0.70055 2676.53 2732.42)" r="29.63"/>
  <circle class="fil5" transform="matrix(0.70055 0.852295 -0.852295 0.70055 2735.47 2673.48)" r="29.63"/>
  <circle class="fil5" transform="matrix(0.70055 0.852295 -0.852295 0.70055 2735.46 2590.13)" r="29.63"/>
  <circle class="fil5" transform="matrix(0.70055 0.852295 -0.852295 0.70055 2676.53 2531.19)" r="29.63"/>
  <circle class="fil5" cx="2446.22" cy="2553.67" r="32.71"/>
  <circle class="fil5" cx="2446.22" cy="2709.95" r="32.71"/>
  <circle class="fil5" cx="2556.72" cy="2820.44" r="32.71"/>
  <circle class="fil5" cx="2713" cy="2820.44" r="32.71"/>
  <circle class="fil5" cx="2823.49" cy="2709.94" r="32.71"/>
  <circle class="fil5" cx="2823.49" cy="2553.66" r="32.71"/>
 </g>
 <g id="Слой_x0020_2">
  <metadata id="CorelCorpID_1Corel-Layer"/>
  <ellipse class="fil7" cx="2633.13" cy="3953.92" rx="55.04" ry="55.03"/>
  <ellipse class="fil8" cx="1778" cy="2040.46" rx="55.04" ry="55.03"/>
  <ellipse class="fil9" cx="1744.13" cy="4207.93" rx="55.04" ry="55.03"/>
  <ellipse class="fil10" cx="3467.09" cy="2387.6" rx="55.04" ry="55.03"/>
  <ellipse class="fil11" cx="3530.6" cy="4004.73" rx="55.04" ry="55.03"/>
  <ellipse class="fil12" cx="4339.35" cy="2321.58" rx="55.04" ry="55.03"/>
  <ellipse class="fil13" cx="2698.12" cy="1810.63" rx="55.04" ry="55.03"/>
  <ellipse class="fil14" cx="3117.18" cy="3326.77" rx="55.04" ry="55.03"/>
  <ellipse class="fil15" cx="2787.38" cy="4795.17" rx="55.04" ry="55.03"/>
  <ellipse class="fil11" cx="4123.26" cy="1464.73" rx="55.04" ry="55.03"/>
  <ellipse class="fil10" cx="1354.66" cy="1320.8" rx="55.04" ry="55.03"/>
  <ellipse class="fil10" cx="3285.06" cy="1151.46" rx="55.04" ry="55.03"/>
  <circle class="fil6" cx="4250.26" cy="3649.13" r="524.94"/>
  <circle class="fil6" cx="914.4" cy="2057.4" r="524.94"/>
  <circle class="fil6" cx="1567.64" cy="3407.88" r="524.94"/>
  <path class="fil16 str0" d="M2587.6 825.7l0 0 14.99 0c39.16,0 71.1,31.95 71.1,71.1l0 134.78c0,39.15 -31.95,71.1 -71.1,71.1l-27.81 0c-35.94,88.98 -116.76,154.49 -219.26,164.48 -4.68,16.31 -19.72,28.24 -37.54,28.24 -21.57,0 -39.06,-17.49 -39.06,-39.06 0,-21.58 17.49,-39.07 39.06,-39.07 18.42,0 33.85,12.74 37.98,29.9 86.39,-11.38 159.85,-67.69 193.58,-144.49l-24.99 0 0 -45.03 -35.51 0 0 -177.54 35.51 0 0 -54.41 37.54 0 0 0c0.01,-5.52 0,0 0.01,-5.52 -5.98,-127.9 -115.14,-226.72 -245.04,-226.72l-4.35 0c-130.67,0 -237.19,104.44 -244.33,233.38l39.02 0 0 51.74 31.96 0 0 177.54 -31.96 0 0 47.7 -78.04 0c-39.15,0 -71.1,-31.94 -71.1,-71.1l0 -134.78c0,-39.15 31.94,-71.1 71.1,-71.1l13.07 0c9.89,-140.44 127.17,-252.55 270.05,-252.55l4.8 0c141.89,0 259.23,108.14 270.56,247.24 -0.24,4.17 0,0 -0.24,4.17z"/>
  <path class="fil16 str1" d="M4052.07 3684.75l-6.28 122.52 113.01 -122.52c122.52,0 190.43,0 204.13,0 20.93,0 33.86,-12.56 39.19,-37.66 1.14,-86.19 1.14,-172.56 0,-258.74 -0.96,-24.16 -14.08,-37.28 -39.19,-39.38 -36.72,0 -331.02,0 -367.74,0 -25.31,0 -39.95,12.56 -43.57,37.67 0,26.06 0,234.57 0,260.63 0,47.78 67.61,37.48 100.45,37.48z"/>
  <path class="fil17" d="M4492.43 3866.28c34.06,0 53.08,0 56.88,0 0,0 43.57,-3.05 43.57,-37.67 0,-26.06 0,-234.56 0,-260.63 0,0 -5.71,-37.48 -43.75,-37.48 -36.72,0 -330.65,0 -367.36,0 0,0 -37.87,3.24 -39.38,39.19 -1.53,36.15 0,258.92 0,258.92 0,0 7.99,37.67 39.38,37.67 13.5,0 81.61,0 203.94,0l113 122.52 -6.28 -122.52z"/>
  <path class="fil18" d="M4496.67 3870.52c34.06,0 53.08,0 56.88,0 0,0 43.57,-3.05 43.57,-37.67 0,-26.06 0,-234.56 0,-260.63 0,0 -5.71,-37.48 -43.75,-37.48 -36.72,0 -330.65,0 -367.36,0 0,0 -37.87,3.24 -39.38,39.19 -1.53,36.15 0,258.92 0,258.92 0,0 7.99,37.67 39.38,37.67 13.5,0 81.61,0 203.94,0l113 122.52 -6.28 -122.52z"/>
  <path class="fil6 str1" d="M4492.43 3862.55c34.06,0 53.08,0 56.88,0 0,0 43.57,-3.05 43.57,-37.67 0,-26.06 0,-234.56 0,-260.63 0,0 -5.71,-37.48 -43.75,-37.48 -36.72,0 -330.65,0 -367.36,0 0,0 -37.87,3.24 -39.38,39.19 -1.53,36.15 0,258.92 0,258.92 0,0 7.99,37.67 39.38,37.67 67.98,0 135.96,0 203.94,0l113 122.52 -6.28 -122.52z"/>
  <path class="fil19" d="M4477.08 3651.46c-18.45,0 -33.29,14.84 -33.29,33.29 0,18.45 14.84,33.29 33.29,33.29 18.27,0 33.3,-14.84 33.3,-33.29 0,-18.45 -15.03,-33.29 -33.3,-33.29z"/>
  <path class="fil19" d="M4362.94 3651.46c-18.46,0 -33.3,14.84 -33.3,33.29 0,18.45 14.84,33.29 33.3,33.29 18.26,0 33.29,-14.84 33.29,-33.29 0,-18.45 -15.03,-33.29 -33.29,-33.29z"/>
  <path class="fil19" d="M4248.79 3651.46c-18.45,0 -33.29,14.84 -33.29,33.29 0,18.45 14.84,33.29 33.29,33.29 18.27,0 33.29,-14.84 33.29,-33.29 0,-18.45 -15.02,-33.29 -33.29,-33.29z"/>
  <path class="fil16 str2" d="M570.51 1873.54c0,27.7 8.7,30.33 27.33,37.04l307.69 127.42 302.89 -127.42m-639.43 146.64l0 0.02m336.54 -211.55l0 0m0 0l0 0m0 0l0 0m334.13 33.65c0,17.25 -13.99,31.24 -31.24,31.24m-600.86 -64.89l595.94 0c21.24,0 38.57,17.33 38.57,38.57l0 345.94c0,21.24 -17.33,38.57 -38.57,38.57l-595.94 0c-21.24,0 -38.57,-17.33 -38.57,-38.57l0 -338.83 0 -7.11c0,-1.04 0.05,-2.06 0.12,-3.07 1.57,-19.82 18.24,-35.5 38.45,-35.5z"/>
  <path class="fil16 str3" d="M1647.57 3079.82c-43.94,-12.41 -33.95,-11.79 -71.44,-11.79 -82.6,0 -186.68,50.27 -186.68,167.86 0,117.37 90.79,181.36 127.77,179.59 36.76,-1.54 -238.5,45.4 -238.5,189.79 -60.46,201.52 0,157.89 0,157.89 0,0 198.2,0 594.37,0 0,-94.56 0,-147.26 0,-157.89 0,0 0,-127.56 -224.99,-189.79 -137.74,0 100.75,-55.36 100.75,-179.37 -0.58,-55.72 6.56,-49.77 -28.72,-100.33m-109.01 150.08c-7.91,10 -15.81,19.99 -25.41,27.81 -9.6,7.83 -20.89,13.47 -32.88,16.29 -12,2.83 -24.7,2.83 -33.16,2.12 -8.47,-0.7 -12.71,-2.12 -16.94,-3.53m-29.63 -283.63c15.52,-12.7 31.05,-25.4 49.4,-32.46 18.34,-7.05 39.5,-8.46 60.67,-5.64 21.17,2.82 42.33,9.88 57.86,19.05 15.52,9.17 25.39,20.46 32.45,35.27 7.05,14.82 11.29,33.17 12,48.69 0.7,15.52 -2.13,28.22 -4.95,40.21 -2.82,12 -5.64,23.29 -7.75,29.64 -0.92,2.76 -1.71,4.58 -2.42,5.88m-15.5 -8.02c5.79,1.55 11.01,4.31 15.5,8.02 15.68,12.9 22.76,37.25 16.18,61.82 -8.47,31.61 -36.38,51.6 -62.36,44.64 -25.97,-6.96 -40.15,-38.22 -31.68,-69.84 8.23,-30.71 34.81,-50.45 60.14,-45.16l2.22 0.52zm-168.97 135.71c8.18,0 14.82,6.64 14.82,14.81 0,8.18 -6.64,14.82 -14.82,14.82 -8.17,0 -14.81,-6.64 -14.81,-14.82 0,-8.17 6.64,-14.81 14.81,-14.81z"/>
 </g>
</svg>
