<svg xmlns="http://www.w3.org/2000/svg" width="39" height="35" viewBox="0 0 39 35"><path fill="#f7595a" d="M36.92 8.85H1.22C.55 8.85 0 8.3 0 7.63c0-.67.55-1.22 1.22-1.22h34.47V2.44H1.22C.55 2.44 0 1.89 0 1.22 0 .55.55 0 1.22 0h35.7c.67 0 1.22.55 1.22 1.22v6.41c0 .67-.55 1.22-1.22 1.22"/><path fill="#f7595a" d="M32.95 34.69H5.19A5.19 5.19 0 0 1 0 29.51V1.22C0 .55.55 0 1.22 0c.67 0 1.22.55 1.22 1.22v28.29a2.75 2.75 0 0 0 2.75 2.74h27.76a2.74 2.74 0 0 0 2.74-2.74V11.47a1.23 1.23 0 0 1 2.45 0v18.04a5.19 5.19 0 0 1-5.19 5.18M33.35 5.44h-1.13c-.67 0-1.22-.55-1.22-1.22 0-.67.55-1.22 1.22-1.22h1.13a1.22 1.22 0 1 1 0 2.44M28.35 5.44h-1.13c-.67 0-1.22-.55-1.22-1.22 0-.67.55-1.22 1.22-1.22h1.13a1.22 1.22 0 1 1 0 2.44"/><path fill="#f7595a" d="M6.22 25.53c-.67 0-1.22-.55-1.22-1.22v-9.09c0-.67.55-1.22 1.22-1.22.67 0 1.22.55 1.22 1.22v9.09c0 .67-.55 1.22-1.22 1.22"/><path fill="#f7595a" d="M10.6 25.71c-.67 0-1.22-.54-1.22-1.21v-3.54c0-.26-.38-.5-.53-.52H6.22c-.67 0-1.22-.55-1.22-1.22 0-.67.55-1.22 1.22-1.22h2.65c1.23 0 2.95 1.12 2.95 2.96v3.54c0 .67-.54 1.21-1.22 1.21M18.07 25.53h-1.11c-1.24 0-2.96-1.13-2.96-2.96v-7.35c0-.67.55-1.22 1.22-1.22.67 0 1.22.55 1.22 1.22v7.35c0 .26.38.5.54.52h1.09c.67 0 1.22.55 1.22 1.22 0 .67-.55 1.22-1.22 1.22"/><path fill="#f7595a" d="M17.54 20.44h-4.32c-.67 0-1.22-.55-1.22-1.22 0-.67.55-1.22 1.22-1.22h4.32c.67 0 1.22.55 1.22 1.22 0 .67-.55 1.22-1.22 1.22M23.07 25.53h-1.11c-1.24 0-2.96-1.13-2.96-2.96v-7.35c0-.67.55-1.22 1.22-1.22.67 0 1.22.55 1.22 1.22v7.35c0 .26.38.5.54.52h1.09c.67 0 1.22.55 1.22 1.22 0 .67-.55 1.22-1.22 1.22"/><path fill="#f7595a" d="M22.88 20.44h-5.66c-.67 0-1.22-.55-1.22-1.22 0-.67.55-1.22 1.22-1.22h5.66c.67 0 1.22.55 1.22 1.22 0 .67-.55 1.22-1.22 1.22M27.44 23.28h.94c.59 0 1.13-.17 1.13-1.39 0-1.29-.6-1.45-1.13-1.45h-.94zM25 28.31v-9.09c0-.67.55-1.22 1.22-1.22h2.16c1.78 0 3.57 1.2 3.57 3.89 0 2.32-1.4 3.82-3.57 3.82h-.94v2.6c0 .67-.55 1.22-1.22 1.22-.67 0-1.22-.55-1.22-1.22z"/></svg>