<svg xmlns="http://www.w3.org/2000/svg" width="36" height="42" viewBox="0 0 36 42"><path fill="#6456e2" d="M33.56 41.77H1.38a1.38 1.38 0 0 1 0-2.77h32.18a1.38 1.38 0 1 1 0 2.77M33.87 37.2c-.77 0-1.39-.62-1.39-1.38V18.75c0-1.99-1.46-2.7-2.71-2.7a2.9 2.9 0 0 0-1.89.67 2.58 2.58 0 0 0-.82 2.03 1.38 1.38 0 0 1-2.76 0c0-3.12-3.19-3.56-4.58-2.24a2.96 2.96 0 0 0-.84 2.24 1.38 1.38 0 0 1-2.77 0c0-3.03-3.2-3.46-4.59-2.18a2.83 2.83 0 0 0-.83 2.18 1.38 1.38 0 0 1-2.77 0V6.37c0-2.47-1.35-3.6-2.61-3.6-1.27 0-2.54 1.11-2.54 3.6v29.45a1.38 1.38 0 0 1-2.77 0V6.37C0 2.19 2.67 0 5.31 0c2.67 0 5.38 2.19 5.38 6.37v7.41a5.73 5.73 0 0 1 6.78 1.07l.35-.36c1-.94 2.34-1.46 3.76-1.46 1.56 0 3.12.64 4.18 1.89l.28-.27a5.6 5.6 0 0 1 3.73-1.37c2.72 0 5.48 1.88 5.48 5.47v17.07c0 .76-.62 1.38-1.38 1.38"/></svg>