<?xml version="1.0" encoding="UTF-8"?>
<!DOCTYPE svg PUBLIC "-//W3C//DTD SVG 1.1//EN" "http://www.w3.org/Graphics/SVG/1.1/DTD/svg11.dtd">
<!-- Creator: CorelDRAW 2018 (64-Bit) -->
<svg xmlns="http://www.w3.org/2000/svg" xml:space="preserve" width="38.1mm" height="38.1mm" version="1.1" style="shape-rendering:geometricPrecision; text-rendering:geometricPrecision; image-rendering:optimizeQuality; fill-rule:evenodd; clip-rule:evenodd"
viewBox="0 0 3810 3810"
 xmlns:xlink="http://www.w3.org/1999/xlink">
 <defs>
  <style type="text/css">
   <![CDATA[
    .str13 {stroke:black;stroke-width:26.46;stroke-miterlimit:22.9256;stroke-opacity:0.000000}
    .str3 {stroke:#FEFEFE;stroke-width:33.86;stroke-miterlimit:22.9256}
    .str11 {stroke:#4FBF20;stroke-width:33.86;stroke-miterlimit:22.9256}
    .str15 {stroke:#6556E2;stroke-width:33.86;stroke-miterlimit:22.9256}
    .str5 {stroke:#FEFEFE;stroke-width:8.46;stroke-miterlimit:22.9256}
    .str10 {stroke:#4FBF20;stroke-width:8.46;stroke-miterlimit:22.9256}
    .str7 {stroke:#F7595A;stroke-width:8.46;stroke-miterlimit:22.9256}
    .str1 {stroke:#9CF0B7;stroke-width:67.73;stroke-miterlimit:22.9256}
    .str12 {stroke:#FEFEFE;stroke-width:16.93;stroke-miterlimit:22.9256}
    .str4 {stroke:#FEFEFE;stroke-width:20;stroke-miterlimit:22.9256}
    .str0 {stroke:#2B2A29;stroke-width:20;stroke-miterlimit:22.9256}
    .str9 {stroke:#4FBF20;stroke-width:20;stroke-miterlimit:22.9256}
    .str14 {stroke:#6556E2;stroke-width:20;stroke-miterlimit:22.9256}
    .str6 {stroke:#F7595A;stroke-width:20;stroke-miterlimit:22.9256}
    .str8 {stroke:white;stroke-width:20;stroke-miterlimit:22.9256}
    .str2 {stroke:#FEFEFE;stroke-width:25.39;stroke-miterlimit:22.9256}
    .fil5 {fill:none}
    .fil3 {fill:#FEFEFE}
    .fil8 {fill:#00A6FE}
    .fil7 {fill:#4FBF20}
    .fil10 {fill:#6556E2}
    .fil2 {fill:#7EE89F}
    .fil1 {fill:#A2EBB9}
    .fil4 {fill:#A3DAF7}
    .fil0 {fill:#BEEDCD}
    .fil6 {fill:#F7595A}
    .fil9 {fill:#00A6FE;fill-opacity:0.000000}
   ]]>
  </style>
 </defs>
 <g id="Слой_x0020_1">
  <metadata id="CorelCorpID_0Corel-Layer"/>
  <circle class="fil0" transform="matrix(-0.251656 0.73529 -0.73529 -0.251656 1763.53 1754.87)" r="2159"/>
  <circle class="fil1" transform="matrix(-0.186034 0.543557 -0.543557 -0.186034 1892.69 1878.87)" r="2159"/>
  <circle class="fil2" transform="matrix(-0.129843 0.379377 -0.379377 -0.129843 1969.62 1967.85)" r="2159"/>
  <path class="fil3 str0" d="M1263.11 2276.94l-316.64 1071.6c-9.27,31.35 -42.4,49.37 -73.75,40.11l-757.97 -223.97c-31.35,-9.26 -49.37,-42.39 -40.11,-73.74l316.64 -1071.61c9.26,-31.35 42.4,-49.37 73.75,-40.11l757.97 223.97c31.35,9.26 49.37,42.4 40.11,73.75z"/>
  <path class="fil4 str0" d="M1202.26 2304.74l-257.23 870.57c-7.53,25.47 -36.32,39.56 -64.08,31.35l-671.17 -198.32c-27.76,-8.2 -44.27,-35.67 -36.75,-61.14l257.24 -870.57c7.53,-25.47 36.31,-39.56 64.07,-31.35l671.18 198.32c27.76,8.2 44.27,35.67 36.74,61.14z"/>
  <ellipse class="fil5 str0" transform="matrix(-0.283369 0.959011 -0.879062 -0.259746 517.577 3186.6)" rx="46.56" ry="50.8"/>
  <ellipse class="fil3 str1" cx="1608.67" cy="1574.8" rx="465.67" ry="465.66"/>
  <ellipse class="fil3 str1" cx="999.07" cy="541.87" rx="465.67" ry="465.66"/>
  <ellipse class="fil3 str1" cx="3006.9" cy="1333.83" rx="465.67" ry="465.66"/>
  <ellipse class="fil3 str1" cx="2650.07" cy="2785.53" rx="465.67" ry="465.66"/>
  <path class="fil5 str0" d="M1138.56 3069.85c424.82,488.76 1039.66,11.57 1039.66,11.57l-119.62 -19.67"/>
  <line class="fil5 str0" x1="2178.22" y1="3081.42" x2="2165.58" y2= "3194.7" />
  <path class="fil5 str0" d="M2674.82 873.92c-408.2,-692.72 -1125.92,-439.71 -1125.92,-439.71l103.82 62.61m-103.82 -62.61l53.74 -100.53"/>
  <path class="fil5 str0" d="M2084.88 2826.05c-535.48,1.82 -781.01,-201.38 -546.34,-701.23l40.96 114.11m-40.96 -114.11l-109.14 32.9"/>
  <path class="fil5 str0" d="M1976.15 2036.62c317.74,217.35 704.36,-255.97 704.36,-255.97l-120.48 -13.57m120.48 13.57l-6.88 113.77"/>
  <path class="fil5 str0" d="M1092.21 1693.32c-516.48,-33.85 -364.08,-423.32 -289.14,-645.64l53.45 108.82m-53.45 -108.82l-104.77 44.89"/>
  <path class="fil5 str2" d="M381.41 2563.83c12.37,-6.73 33.51,-15.02 49.2,-25.96 15.69,-10.94 25.93,-24.53 34.77,-33.34 8.83,-8.81 16.25,-12.84 21.87,-14.3 5.62,-1.45 9.45,-0.32 8.09,-2.8 -1.34,-2.47 -7.85,-8.55 -12.56,-17.21 -4.71,-8.66 -7.62,-19.9 -8.62,-30.58 -1,-10.67 -0.08,-20.79 11.05,-26.85 11.14,-6.05 32.49,-8.04 51.76,-6.51 19.27,1.55 36.46,6.63 46.68,10.68 10.23,4.06 13.48,7.1 27.7,8.18 14.22,1.09 39.39,0.23 67.15,1.16 27.76,0.93 58.1,3.67 81.86,7.57 23.77,3.91 40.96,8.99 59.21,17.5 18.25,8.51 37.57,20.44 54.69,32.77 17.12,12.33 32.06,25.04 46.43,39.67 14.36,14.63 28.16,31.17 36.13,42.87 7.96,11.7 10.09,18.55 14.17,36.37 4.08,17.82 10.11,46.6 10.41,73.69 0.31,27.08 -5.11,52.48 -10.76,71.57 -5.64,19.1 -11.5,31.91 -17.19,40.61 -5.68,8.7 -11.2,13.3 -17,18.85 -5.79,5.56 -11.86,12.08 -20.7,20.88 -8.83,8.82 -20.42,19.93 -29.14,31.88 -8.73,11.97 -14.59,24.77 -18.65,34.99 -4.06,10.22 -6.31,17.86 -10.76,25.9 -4.45,8.03 -11.1,16.44 -16.22,23.24 -5.12,6.79 -8.72,11.95 -19.96,14.86 -11.25,2.91 -30.13,3.56 -50.07,0.78 -19.94,-2.77 -40.96,-8.98 -53.48,-15.8 -12.52,-6.81 -16.55,-14.23 -19.64,-21.37 -3.08,-7.15 -5.21,-14 -5.71,-19.34 -0.5,-5.34 0.63,-9.16 0.63,-9.16 0,0 -1.13,3.82 -4.56,4.88 -3.43,1.06 -9.15,-0.63 -20.62,-4.02 -11.46,-3.38 -28.64,-8.46 -40.11,-11.85 -11.45,-3.38 -17.18,-5.07 -26.12,0.59 -8.95,5.67 -21.1,18.69 -35.38,24.85 -14.28,6.17 -30.69,5.47 -48.44,2.3 -17.75,-3.17 -36.85,-8.81 -47.47,-15.07 -10.61,-6.24 -12.73,-13.1 -12.11,-22.26 0.63,-9.16 4.02,-20.62 7.69,-33.04 3.66,-12.41 7.61,-25.77 7.96,-33.98 0.35,-8.2 -2.91,-11.24 -9.53,-20.46 -6.62,-9.22 -16.6,-24.64 -22.09,-37.68 -5.49,-13.04 -6.49,-23.73 -9.85,-29.92 -3.36,-6.18 -9.09,-7.87 -17.4,-11.36 -8.31,-3.49 -19.21,-8.79 -28.31,-16.67 -9.09,-7.88 -16.38,-18.34 -21.59,-32.34 -5.21,-14 -8.33,-31.53 -8.49,-45.08 -0.15,-13.53 2.68,-23.09 5.89,-30.45 3.21,-7.36 6.82,-12.52 19.19,-19.24z"/>
  <path class="fil5 str3" d="M970.99 2603.05c11.66,-3.13 23.31,-6.26 35.34,-6 12.04,0.27 24.45,3.94 32.62,7.91 8.18,3.97 12.11,8.25 14.31,13.05 2.22,4.82 2.72,10.15 1.17,15.4 -1.55,5.26 -5.16,10.42 -9.91,14.2 -4.75,3.8 -10.66,6.21 -16.86,4.37 -6.21,-1.83 -12.72,-7.91 -16.28,-15.19 -3.56,-7.28 -4.17,-15.77 -1.3,-23.75 2.88,-7.97 9.25,-15.44 15.18,-21.47 5.94,-6.03 11.45,-10.63 16.39,-13.33 4.95,-2.68 9.34,-3.46 11.53,-3.85 2.19,-0.39 2.19,-0.39 2.19,-0.39"/>
  <path class="fil5 str3" d="M369.95 2571.65c6.73,2.75 13.46,5.5 20.14,11.49 6.68,5.99 13.3,15.22 16.68,26.6 3.39,11.38 3.54,24.93 2.21,36.47 -1.34,11.55 -4.16,21.09 -7.23,27.97 -3.07,6.89 -6.39,11.09 -9.56,12.92 -3.16,1.82 -6.17,1.26 -9.17,0.69"/>
  <path class="fil3" d="M553.9 2531.73c11.07,3.27 17.4,14.9 14.13,25.98 -3.27,11.07 -14.91,17.39 -25.98,14.12 -11.07,-3.27 -17.4,-14.9 -14.13,-25.97 3.28,-11.08 14.91,-17.4 25.98,-14.13z"/>
  <path class="fil5 str3" d="M473.26 2802.03c6.86,5.74 13.74,11.48 20.23,16.29 6.5,4.82 12.61,8.7 18.26,12.44 5.64,3.75 10.8,7.35 15.97,10.96"/>
  <path class="fil5 str3" d="M495.34 2487.43c3.75,4.91 7.48,9.83 11.23,14.74"/>
  <ellipse class="fil5 str4" transform="matrix(0.662355 0.195708 -0.199954 0.676726 741.103 2664.99)" rx="198.96" ry="194.73"/>
  <ellipse class="fil3 str5" transform="matrix(0.563124 0.166388 -0.169998 0.575342 741.107 2664.99)" rx="198.96" ry="194.73"/>
  <path class="fil4" d="M703.06 2750.78l6.06 -20.52c0,0 -23.04,-8.54 -34.29,-20.31l14.43 -23.9c0,0 29.98,29.01 52.14,19.96 0,0 19.7,-10.21 -8.68,-30.72 0,0 -29.22,-18.38 -31.41,-38.09 0,0 -4.34,-47.63 49.44,-43.44l6.04 -21.17 21.31 6.3 -5.63 19.78c0,0 18.91,4.93 29.81,16.39l-13.55 22.41c0,0 -24.96,-22.53 -45.87,-17.02 0,0 -19.14,9.08 10.79,30.92 0,0 39.69,22.55 28.65,53.29 0,0 -7.99,35.11 -50.94,30.22l-6.59 22.31 -21.71 -6.42 0 0.01z"/>
  <ellipse class="fil5 str6" transform="matrix(0.845576 0.249845 -0.255266 0.863922 913.52 376.6)" rx="198.96" ry="194.73"/>
  <path class="fil6 str7" d="M955.78 233.57c79,23.34 124.12,106.29 100.78,185.29 -23.35,79 -106.3,124.1 -185.3,100.76 -78.98,-23.33 -124.11,-106.29 -100.76,-185.28 23.33,-79 106.3,-124.1 185.28,-100.77zm-90.83 252.56l7.74 -26.2c0,0 -29.41,-10.9 -43.78,-25.93l18.43 -30.51c0,0 38.27,37.03 66.56,25.48 0,0 25.15,-13.03 -11.08,-39.22 0,0 -37.3,-23.46 -40.1,-48.62 0,0 -5.54,-60.81 63.12,-55.46l7.71 -27.03 27.2 8.05 -7.19 25.25c0,0 24.14,6.29 38.06,20.92l-17.3 28.61c0,0 -31.86,-28.76 -58.56,-21.73 0,0 -24.43,11.6 13.78,39.48 0,0 50.67,28.78 36.57,68.03 0,0 -10.2,44.82 -65.03,38.58l-8.41 28.48 -27.72 -8.2 0 0.02z"/>
  <ellipse class="fil3 str8" transform="matrix(0.877522 -0.518627 0.52988 0.896561 1174.46 536.794)" rx="198.96" ry="194.73"/>
  <ellipse class="fil5 str6" transform="matrix(0.759057 -0.448613 0.458346 0.775526 1174.46 536.807)" rx="198.96" ry="194.73"/>
  <path class="fil6 str7" d="M1098.58 408.41c70.91,-41.91 162.37,-18.41 204.28,52.5 41.91,70.92 18.39,162.37 -52.52,204.29 -70.9,41.9 -162.37,18.4 -204.28,-52.52 -41.91,-70.91 -18.38,-162.36 52.52,-204.27zm122.94 238.58l-13.9 -23.52c0,0 -28.02,14.1 -48.8,14.37l-9.78 -34.27c0,0 53.18,-2.78 64.01,-31.35 0,0 7.59,-27.29 -36.26,-18.62 0,0 -42.59,11.31 -62.91,-3.79 0,0 -48.28,-37.37 2.42,-83.98l-14.53 -24.06 24.43 -14.43 13.58 22.47c0,0 21.06,-13.38 41.25,-13.6l9.15 32.16c0,0 -42.76,3.72 -55.81,28.05 0,0 -8.16,25.78 38.28,16.82 0,0 55.6,-17.47 74.71,19.59 0,0 25.86,38.01 -16.07,73.88l15.11 25.57 -24.89 14.7 0.01 0.01z"/>
  <ellipse class="fil3 str8" transform="matrix(0.963479 0.332757 -0.339977 0.984383 878.589 669.41)" rx="198.96" ry="194.73"/>
  <ellipse class="fil5 str6" transform="matrix(0.83341 0.287835 -0.29408 0.851492 878.579 669.418)" rx="198.96" ry="194.73"/>
  <path class="fil6 str7" d="M927.27 528.45c77.86,26.88 119.18,111.79 92.29,189.65 -26.9,77.87 -111.81,119.17 -189.67,92.28 -77.85,-26.88 -119.18,-111.79 -92.28,-189.65 26.89,-77.86 111.81,-119.17 189.66,-92.28zm-102.16 248.18l8.91 -25.81c0,0 -28.89,-12.23 -42.56,-27.89l19.79 -29.64c0,0 36.55,38.72 65.34,28.46 0,0 25.71,-11.88 -9.3,-39.68 0,0 -36.2,-25.12 -37.86,-50.39 0,0 -2.78,-60.99 65.56,-52.54l8.93 -26.65 26.81 9.26 -8.32 24.9c0,0 23.83,7.38 37.07,22.63l-18.57 27.8c0,0 -30.53,-30.18 -57.52,-24.36 0,0 -24.93,10.48 11.98,40.06 0,0 49.31,31.05 33.46,69.61 0,0 -12.22,44.32 -66.71,35.6l-9.7 28.07 -27.31 -9.44 0 0.01z"/>
  <ellipse class="fil3 str8" cx="2540.95" cy="2601.42" rx="183.38" ry="183.37"/>
  <circle class="fil5 str9" cx="2540.94" cy="2601.43" r="158.62"/>
  <path class="fil7 str10" d="M2540.95 2466.57c74.48,-0.01 134.86,60.37 134.86,134.85 -0.01,74.49 -60.38,134.85 -134.87,134.86 -74.47,0 -134.86,-60.37 -134.85,-134.86 0,-74.48 60.39,-134.85 134.86,-134.85zm-14.06 242.28l0 -24.7c0,0 -28.3,-1.92 -44.6,-11.27l8.15 -31.18c0,0 42.68,22.31 64.25,5.04 0,0 18.47,-17.74 -19.66,-31.17 0,0 -38.36,-10.79 -47.23,-31.89 0,0 -20.38,-51.31 40.53,-64.26l-0.24 -25.41 25.65 0 0.24 23.74c0,0 22.54,-0.73 38.36,8.4l-7.67 29.24c0,0 -35,-16.78 -56.35,-3.84 0,0 -18.22,16.31 22.06,30.7 0,0 51.31,11.98 49.15,49.62 0,0 2.64,41.48 -46.51,50.12l0 26.85 -26.13 -0.01 0 0.02z"/>
  <polyline class="fil5 str11" points="2916.6,2756.03 2935.04,2669.97 2848.98,2676.12 "/>
  <ellipse class="fil7 str12" cx="2633.84" cy="2786.76" rx="21.51" ry="19.97"/>
  <ellipse class="fil7 str12" cx="2670.72" cy="2885.12" rx="21.51" ry="19.97"/>
  <rect class="fil7 str2" x="2452.5" y="2971.18" width="82.99" height="101.43"/>
  <rect class="fil7 str3" x="2535.48" y="2915.85" width="98.36" height="156.75"/>
  <rect class="fil7 str3" x="2633.83" y="2931.22" width="98.36" height="141.38"/>
  <rect class="fil7 str3" x="2732.19" y="2866.68" width="98.36" height="205.93"/>
  <rect class="fil7 str3" x="2830.55" y="2786.76" width="98.36" height="285.84"/>
  <path class="fil5 str11" d="M2387.95 3014.21l229.44 -212.24m23.53 3.66l22.73 60.62m22.5 4.95l248.89 -201.23"/>
  <path class="fil8" d="M3159.86 1282.67l2.57 1.22 2.46 1.23 2.46 1.35 2.23 1.22 2.23 1.34 2.13 1.35 2.01 1.33 1.9 1.35 1.78 1.33 1.79 1.35 1.56 1.45 1.57 1.34 1.34 1.45 1.34 1.45 1.23 1.45 1.11 1.46 1.01 1.56 1 1.46 0.79 1.56 0.78 1.56 0.67 1.57 0.44 1.56 0.45 1.56 0.34 1.68 0.33 1.56 0.11 1.68 0 1.68 0 249.77 0 2.46 -0.22 2.34 -0.33 2.35 -0.34 2.34 -0.56 2.24 -0.67 2.23 -0.67 2.12 -0.89 2.01 -1.01 2.01 -1 1.9 -1.12 1.9 -1.34 1.68 -1.34 1.67 -1.34 1.68 -1.56 1.45 -1.57 1.45 -1.67 1.34 -1.79 1.23 -1.9 1.12 -1.9 1.12 -1.9 0.89 -2.12 0.89 -2.12 0.78 -2.13 0.57 -2.23 0.55 -2.34 0.45 -2.35 0.22 -2.46 0.23 -2.45 0.11 -434.54 0 -2.23 0 -2.24 -0.11 -2.12 -0.34 -2.23 -0.33 -2.13 -0.45 -2.01 -0.56 -2.12 -0.67 -1.9 -0.89 -2.01 -0.9 -1.78 -0.89 -1.79 -1.12 -1.79 -1.23 -1.68 -1.23 -1.67 -1.33 -1.46 -1.46 -1.45 -1.56 -1.45 -1.57 -1.23 -1.67 -1.23 -1.79 -1.11 -1.78 -1.01 -1.9 -0.89 -1.9 -0.9 -2.01 -0.67 -2.01 -0.56 -2.13 -0.55 -2.12 -0.34 -2.12 -0.22 -2.24 -0.22 -2.23 0 -0.22 0 -0.45 0 -0.23 0 -0.22 0 -0.33 0 -0.23 0 -0.22 0 -0.22 0 -0.23 0 -0.11 0 -249.77 0.11 -2.57 0.22 -2.57 0.22 -2.35 0.45 -2.34 0.56 -2.35 0.56 -2.23 0.78 -2.12 0.89 -2.12 0.9 -2.02 1.12 -1.89 1.11 -1.9 1.34 -1.79 1.34 -1.67 1.45 -1.57 1.46 -1.56 1.67 -1.46 1.68 -1.22 1.9 -1.35 1.78 -1.11 2.01 -1.01 2.01 -1.01 2.13 -0.78 2.23 -0.78 2.23 -0.55 2.35 -0.57 2.35 -0.44 2.46 -0.22 2.45 -0.23 2.57 0 433.3 0 2.8 1.12 2.79 1.23zm-427.94 263.62l264.52 0 0 -38.87 -264.41 0 -0.11 38.87zm314.78 -209.78l-3.68 2.01 -2.8 2.35 -2.12 2.57 -1.22 2.9 -0.45 3.13 0 63.56 0.45 4.13 1.33 3.58 2.01 2.79 2.91 2.12 3.57 1.23 4.25 0.56 64.12 0 4.13 -0.56 3.47 -1.23 2.79 -2.12 2.01 -2.79 1.34 -3.47 0.33 -4.02 0 -64.23 -0.33 -4.25 -1.34 -3.46 -2.01 -2.79 -2.91 -2.12 -3.57 -1.23 -4.25 -0.45 -63.56 0 -4.47 1.79z"/>
  <path class="fil9 str13" d="M3159.86 1282.67l2.57 1.22 2.46 1.23 2.46 1.35 2.23 1.22 2.23 1.34 2.13 1.35 2.01 1.33 1.9 1.35 1.78 1.33 1.79 1.35 1.56 1.45 1.57 1.34 1.34 1.45 1.34 1.45 1.23 1.45 1.11 1.46 1.01 1.56 1 1.46 0.79 1.56 0.78 1.56 0.67 1.57 0.44 1.56 0.45 1.56 0.34 1.68 0.33 1.56 0.11 1.68 0 1.68 0 249.77 0 2.46 -0.22 2.34 -0.33 2.35 -0.34 2.34 -0.56 2.24 -0.67 2.23 -0.67 2.12 -0.89 2.01 -1.01 2.01 -1 1.9 -1.12 1.9 -1.34 1.68 -1.34 1.67 -1.34 1.68 -1.56 1.45 -1.57 1.45 -1.67 1.34 -1.79 1.23 -1.9 1.12 -1.9 1.12 -1.9 0.89 -2.12 0.89 -2.12 0.78 -2.13 0.57 -2.23 0.55 -2.34 0.45 -2.35 0.22 -2.46 0.23 -2.45 0.11 -434.54 0 -2.23 0 -2.24 -0.11 -2.12 -0.34 -2.23 -0.33 -2.13 -0.45 -2.01 -0.56 -2.12 -0.67 -1.9 -0.89 -2.01 -0.9 -1.78 -0.89 -1.79 -1.12 -1.79 -1.23 -1.68 -1.23 -1.67 -1.33 -1.46 -1.46 -1.45 -1.56 -1.45 -1.57 -1.23 -1.67 -1.23 -1.79 -1.11 -1.78 -1.01 -1.9 -0.89 -1.9 -0.9 -2.01 -0.67 -2.01 -0.56 -2.13 -0.55 -2.12 -0.34 -2.12 -0.22 -2.24 -0.22 -2.23 0 -0.22 0 -0.45 0 -0.23 0 -0.22 0 -0.33 0 -0.23 0 -0.22 0 -0.22 0 -0.23 0 -0.11 0 -249.77 0.11 -2.57 0.22 -2.57 0.22 -2.35 0.45 -2.34 0.56 -2.35 0.56 -2.23 0.78 -2.12 0.89 -2.12 0.9 -2.02 1.12 -1.89 1.11 -1.9 1.34 -1.79 1.34 -1.67 1.45 -1.57 1.46 -1.56 1.67 -1.46 1.68 -1.22 1.9 -1.35 1.78 -1.11 2.01 -1.01 2.01 -1.01 2.13 -0.78 2.23 -0.78 2.23 -0.55 2.35 -0.57 2.35 -0.44 2.46 -0.22 2.45 -0.23 2.57 0 433.3 0 2.8 1.12 2.79 1.23zm-427.94 263.62l264.52 0 0 -38.87 -264.41 0 -0.11 38.87zm314.78 -209.78l-3.68 2.01 -2.8 2.35 -2.12 2.57 -1.22 2.9 -0.45 3.13 0 63.56 0.45 4.13 1.33 3.58 2.01 2.79 2.91 2.12 3.57 1.23 4.25 0.56 64.12 0 4.13 -0.56 3.47 -1.23 2.79 -2.12 2.01 -2.79 1.34 -3.47 0.33 -4.02 0 -64.23 -0.33 -4.25 -1.34 -3.46 -2.01 -2.79 -2.91 -2.12 -3.57 -1.23 -4.25 -0.45 -63.56 0 -4.47 1.79z"/>
  <path class="fil8" d="M2766.77 1255.3c25.8,-80.54 40.1,-125.22 42.89,-134.16 164.66,50.6 327.52,105 492.07,157.06 -0.56,1.9 -3.69,11.62 -9.39,29.04 -25.58,80.1 -39.88,124.55 -42.78,133.49 -3.57,11.17 -9.83,20.11 -20.44,25.69 -2.01,1.12 -4.25,1.9 -7.15,3.02 0,-4.91 0,-29.27 0,-73.06 0,-44.9 0,-69.92 0,-74.84 0.78,-35.97 -27.81,-65.68 -63.79,-66.46 -1.11,0 -2.12,0 -3.23,0.11 -25.36,0 -152.04,0 -380.14,0l-8.04 0.11z"/>
  <path class="fil9 str13" d="M2766.77 1255.3c25.8,-80.54 40.1,-125.22 42.89,-134.16 164.66,50.6 327.52,105 492.07,157.06 -0.56,1.9 -3.69,11.62 -9.39,29.04 -25.58,80.1 -39.88,124.55 -42.78,133.49 -3.57,11.17 -9.83,20.11 -20.44,25.69 -2.01,1.12 -4.25,1.9 -7.15,3.02 0,-4.91 0,-29.27 0,-73.06 0,-44.9 0,-69.92 0,-74.84 0.78,-35.97 -27.81,-65.68 -63.79,-66.46 -1.11,0 -2.12,0 -3.23,0.11 -25.36,0 -152.04,0 -380.14,0l-8.04 0.11z"/>
  <path class="fil8" d="M2831 1058.81c2.91,-30.05 28.15,-46.92 55.85,-37.98 34.3,10.95 308.31,99.08 342.49,110.14 22.23,7.15 44.35,14.53 67.02,20.11 25.7,6.25 35.19,34.41 27.59,54.06 -1.11,2.91 -2.01,5.81 -3.12,9.27 -32.62,-10.38 -195.93,-62.32 -489.83,-155.6z"/>
  <path class="fil9 str13" d="M2831 1058.81c2.91,-30.05 28.15,-46.92 55.85,-37.98 34.3,10.95 308.31,99.08 342.49,110.14 22.23,7.15 44.35,14.53 67.02,20.11 25.7,6.25 35.19,34.41 27.59,54.06 -1.11,2.91 -2.01,5.81 -3.12,9.27 -32.62,-10.38 -195.93,-62.32 -489.83,-155.6z"/>
  <ellipse class="fil3 str8" cx="1498.84" cy="1400.96" rx="183.38" ry="183.37"/>
  <line class="fil5 str14" x1="1681.87" y1="1617.17" x2="1718.73" y2= "1655.23" />
  <polyline class="fil5 str14" points="1437.2,1630.72 1318.64,1630.72 1318.64,1295.4 1582.72,1295.4 1583.27,1388.53 "/>
  <polyline class="fil5 str15" points="1874.49,1555.57 1892.93,1469.51 1806.87,1475.66 "/>
  <ellipse class="fil10 str12" cx="1591.73" cy="1586.3" rx="21.51" ry="19.97"/>
  <ellipse class="fil10 str12" cx="1628.61" cy="1684.66" rx="21.51" ry="19.97"/>
  <rect class="fil10 str2" x="1410.39" y="1770.72" width="82.99" height="101.43"/>
  <rect class="fil10 str3" x="1493.37" y="1715.39" width="98.36" height="156.75"/>
  <rect class="fil10 str3" x="1591.72" y="1730.76" width="98.36" height="141.38"/>
  <rect class="fil10 str3" x="1690.08" y="1666.22" width="98.36" height="205.93"/>
  <rect class="fil10 str3" x="1788.44" y="1586.3" width="98.36" height="285.84"/>
  <path class="fil5 str15" d="M1345.84 1813.75l229.44 -212.24m23.53 3.66l22.73 60.62m22.5 4.95l248.89 -201.23"/>
  <circle class="fil10 str8" cx="1600.2" cy="1524" r="123.89"/>
  <path class="fil10 str12" d="M1741.65 1646.24l82.94 84.41c6.57,6.69 6.48,17.51 -0.21,24.08l-2.88 2.84c-6.69,6.57 -17.51,6.48 -24.09,-0.21l-82.94 -84.41c-6.57,-6.69 -6.48,-17.51 0.21,-24.08l2.88 -2.84c6.69,-6.57 17.51,-6.48 24.09,0.21z"/>
  <path class="fil10" d="M1460.34 1357.16c55.1,0 99.77,44.66 99.77,99.76 0,55.11 -44.67,99.76 -99.77,99.77 -55.09,0 -99.77,-44.66 -99.76,-99.77 -0.01,-55.1 44.67,-99.76 99.76,-99.76zm-10.4 179.23l0 -18.27c0,0 -20.93,-1.42 -33,-8.33l6.04 -23.07c0,0 31.57,16.5 47.53,3.73 0,0 13.66,-13.13 -14.54,-23.06 0,0 -28.38,-7.98 -34.94,-23.59 0,0 -15.08,-37.96 29.97,-47.54l-0.17 -18.8 18.97 0 0.18 17.56c0,0 16.68,-0.53 28.38,6.21l-5.67 21.64c0,0 -25.9,-12.42 -41.69,-2.84 0,0 -13.48,12.06 16.32,22.71 0,0 37.96,8.86 36.36,36.71 0,0 1.95,30.69 -34.41,37.07l0 19.87 -19.33 0 0 0z"/>
  <circle class="fil3 str4" cx="1600.2" cy="1524" r="91.02"/>
  <circle class="fil10" cx="1570.22" cy="1586.3" r="38.1"/>
  <polyline class="fil5 str14" points="1608.67,1625.6 1625.6,1604.43 1638.3,1621.37 "/>
 </g>
</svg>
