<?xml version="1.0" encoding="UTF-8"?>
<!DOCTYPE svg PUBLIC "-//W3C//DTD SVG 1.1//EN" "http://www.w3.org/Graphics/SVG/1.1/DTD/svg11.dtd">
<!-- Creator: CorelDRAW 2018 (64-Bit) -->
<svg xmlns="http://www.w3.org/2000/svg" xml:space="preserve" width="10.16mm" height="10.16mm" version="1.1" style="shape-rendering:geometricPrecision; text-rendering:geometricPrecision; image-rendering:optimizeQuality; fill-rule:evenodd; clip-rule:evenodd"
viewBox="0 0 1016 1016"
 xmlns:xlink="http://www.w3.org/1999/xlink">
 <defs>
  <style type="text/css">
   <![CDATA[
    .str1 {stroke:#95D0F0;stroke-width:7.62;stroke-miterlimit:22.9256}
    .str0 {stroke:#00A6FE;stroke-width:25.39;stroke-linejoin:round;stroke-miterlimit:22.9256}
    .fil0 {fill:none}
    .fil3 {fill:#FEFEFE}
    .fil1 {fill:#95D0F0}
    .fil2 {fill:#00A6FE;fill-rule:nonzero}
   ]]>
  </style>
 </defs>
 <g id="Слой_x0020_1">
  <metadata id="CorelCorpID_0Corel-Layer"/>
  <rect class="fil0 str0" x="77.67" y="52.43" width="621.77" height="935.7"/>
  <polygon class="fil0 str0" points="699.44,274.93 463.23,52.44 463.23,274.93 "/>
  <path class="fil1 str1" d="M188.46 326.65l394.34 0c12.69,0 23.04,10.35 23.04,23.04l0 5.74c0,12.69 -10.35,23.04 -23.04,23.04l-394.34 0c-12.69,0 -23.04,-10.35 -23.04,-23.04l0 -5.74c0,-12.69 10.35,-23.04 23.04,-23.04z"/>
  <path class="fil1 str1" d="M189.22 428.75l394.34 0c12.69,0 23.04,10.35 23.04,23.04l0 5.74c0,12.69 -10.35,23.04 -23.04,23.04l-394.34 0c-12.69,0 -23.04,-10.35 -23.04,-23.04l0 -5.74c0,-12.69 10.35,-23.04 23.04,-23.04z"/>
  <path class="fil1 str1" d="M186.18 530.86l394.34 0c12.69,0 23.04,10.35 23.04,23.04l0 5.74c0,12.69 -10.35,23.04 -23.04,23.04l-394.34 0c-12.69,0 -23.04,-10.35 -23.04,-23.04l0 -5.74c0,-12.69 10.35,-23.04 23.04,-23.04z"/>
  <path class="fil1 str1" d="M189.99 629.91l394.34 0c12.69,0 23.04,10.36 23.04,23.04l0 5.74c0,12.69 -10.35,23.04 -23.04,23.04l-394.34 0c-12.69,0 -23.04,-10.35 -23.04,-23.04l0 -5.74c0,-12.68 10.35,-23.04 23.04,-23.04z"/>
  <path class="fil1 str1" d="M190.75 732.02l394.34 0c12.69,0 23.04,10.35 23.04,23.04l0 5.73c0,12.69 -10.35,23.04 -23.04,23.04l-394.34 0c-12.69,0 -23.04,-10.35 -23.04,-23.04l0 -5.73c0,-12.69 10.35,-23.04 23.04,-23.04z"/>
  <path class="fil1 str1" d="M187.7 834.13l394.34 0c12.69,0 23.04,10.35 23.04,23.03l0 5.74c0,12.69 -10.35,23.04 -23.04,23.04l-394.34 0c-12.69,0 -23.04,-10.35 -23.04,-23.04l0 -5.74c0,-12.68 10.35,-23.03 23.04,-23.03z"/>
  <g>
   <path class="fil2" d="M590.56 916.18l198.96 0 0 80.43 198.97 -160.87 -198.97 -160.87 0 80.43 -198.96 0 0 160.88zm99.48 0m99.48 40.21m99.48 -40.22m0 -160.87m-99.48 -40.22m-99.48 40.22m-99.48 80.44"/>
   <path id="1" class="fil3" d="M590.56 916.18l198.96 0 0 80.43 198.97 -160.87 -198.97 -160.87 0 80.43 -198.96 0 0 160.88zm156.63 42.33l-156.63 0 -42.33 -42.33 0 -160.88 42.33 -42.33 156.63 0 0 -38.1 68.79 -32.9 198.97 160.87 0 65.8 -198.97 160.87 -68.79 -32.9 0 -38.1z"/>
  </g>
 </g>
</svg>
