<?xml version="1.0" encoding="UTF-8"?>
<!DOCTYPE svg PUBLIC "-//W3C//DTD SVG 1.1//EN" "http://www.w3.org/Graphics/SVG/1.1/DTD/svg11.dtd">
<!-- Creator: CorelDRAW 2018 (64-Bit) -->
<svg xmlns="http://www.w3.org/2000/svg" xml:space="preserve" width="43mm" height="29mm" version="1.1" style="shape-rendering:geometricPrecision; text-rendering:geometricPrecision; image-rendering:optimizeQuality; fill-rule:evenodd; clip-rule:evenodd"
viewBox="0 0 4300 2900"
 xmlns:xlink="http://www.w3.org/1999/xlink">
 <defs>
  <style type="text/css">
   <![CDATA[
    .fil1 {fill:#FEFEFE}
    .fil0 {fill:#00A6FE}
   ]]>
  </style>
 </defs>
 <g id="Слой_x0020_1">
  <metadata id="CorelCorpID_0Corel-Layer"/>
  <path class="fil0" d="M233.95 2473.21l23.46 0.02 10.5 -0.02 1784.66 0 0 -0.48 106.7 0.48 109.33 0 0 0.49 1784.64 8.03 0 0 33.96 0.16c51.83,0.23 163.93,24.33 165.98,156.85 2.05,132.52 -115.54,155.61 -167.38,155.34l-23.46 -0.12 -10.5 -0.03 -1891.87 -8.52 -1892.06 0 0 0 -33.96 0c-51.83,0 -164.03,-23.59 -166.68,-156.1 -2.65,-132.51 114.84,-156.13 166.68,-156.1z"/>
  <path class="fil0" d="M355.54 2202.9l0.01 -12.34 -0.01 -5.52 0 -938.22 -0.24 0.01 0.24 -56.1 0 -57.47 0.24 -0.01 4.02 -938.2 0 0 0.08 -17.86c0.12,-27.24 16.91,-86.17 83.17,-87.24l8.45 0 1016.34 -0.82c43.07,0 78,34.92 78,77.99 0,43.09 -34.93,78.01 -78,78.01l-952.16 0.92 -4.04 944.31 0 943.49 1573.01 0.01 0 -0.24 91.07 0.24 93.31 0 0 0.25 1534.42 5.29 0 -886.84 -0.24 0 0.24 -56.09 0 -57.48 0.25 0 3.8 -888.64 -1.64 0 0 0 -34.73 -0.04 -936.63 -2.47c-2.47,0.24 -4.98,0.36 -7.52,0.36 -2.7,0 -5.35,-0.14 -7.98,-0.4l-3.13 -0.01 -0.03 -0.39c-37.8,-5.41 -66.86,-37.91 -66.86,-77.2 0,-43.08 34.93,-78 78,-78l1055.09 3.63c1.37,-0.08 2.74,-0.14 4.15,-0.16 66.26,-1.08 77.8,60.74 77.67,88l-0.06 12.33 -0.02 5.52 -4.26 994.58 0 994.69 0 0 0 17.85c0,27.24 -22.09,85.79 -73.09,85.97 -20.53,0.07 -40.01,-0.33 -60.76,-0.35l0 0 -34.73 -0.04 -1614.65 -4.26 -1643.81 0 28.98 0 -28.98 0c-32.34,0 -66.69,2.03 -98.92,0.56 -63.3,-2.88 -78.07,-60.36 -78.05,-87.62zm1521.33 -782.56c0.12,43.03 10.65,84.62 29.89,122.84 18.72,37.18 47.06,67.72 79.82,92.68 30.78,23.38 67.07,38.96 105.03,46.46l0 7.49c0,13.65 -0.13,27.43 0,41.21 0,0.64 0,1.17 0,1.81 0,27.17 23.92,53.3 52,52 28.2,-1.3 51.99,-22.88 51.99,-52 0,-9.35 0,-18.84 0,-28.2l0 -22c7.14,-1.39 14.21,-3.06 21.19,-5.04 39.91,-11.3 76.04,-32.11 106.98,-59.54 31.2,-27.81 53.43,-62.91 69.28,-101.25 30.81,-74.88 21.84,-165.36 -20.01,-234.24 -21.32,-35.1 -50.44,-64.61 -84.75,-87.1 -28.46,-18.63 -59.88,-30.17 -92.69,-36.73l0 -88.19c0,-47.71 0,-95.28 0,-142.99l0 -93.57c6.38,2.03 12.67,4.36 18.85,6.99 -4.16,-1.68 -8.32,-3.5 -12.48,-5.19 16.77,7.28 32.5,16.38 47.06,27.55 -3.51,-2.72 -7.02,-5.45 -10.53,-8.18 14.82,11.44 27.95,24.7 39.52,39.52 -2.73,-3.52 -5.46,-7.02 -8.19,-10.54 11.05,14.56 20.27,30.29 27.56,47.06 -1.7,-4.16 -3.51,-8.32 -5.21,-12.48 7.42,17.81 12.61,36.4 15.21,55.38 -0.65,-4.55 -1.3,-9.23 -1.82,-13.79 1.3,9.5 1.82,19.11 1.95,28.74 0.13,27.16 23.79,53.29 52,51.99 28.07,-1.3 52.13,-22.88 51.99,-52 -0.12,-43.02 -10.66,-84.62 -29.89,-122.84 -18.72,-37.18 -47.06,-67.72 -79.82,-92.68 -31.1,-23.62 -67.82,-39.29 -106.2,-46.69l0 -6.86c0,-13.65 0.13,-27.43 0,-41.21 0,-0.65 0,-1.17 0,-1.82 0,-27.17 -23.92,-53.3 -51.99,-52 -28.21,1.17 -52,22.75 -52,52l0 0c0,9.36 0,18.85 0,28.21l0 21.84c-6.74,1.34 -13.42,2.94 -20.02,4.81 -39.91,11.3 -76.04,32.11 -106.98,59.53 -31.19,27.82 -53.42,62.91 -69.28,101.27 -30.81,74.86 -21.84,165.34 20.01,234.23 21.32,35.1 50.44,64.61 84.76,87.09 28.12,18.41 59.12,29.89 91.51,36.49l0 88.83c0,47.7 0,95.28 0,142.98l0 92.81c-5.98,-1.94 -11.88,-4.15 -17.68,-6.62 4.16,1.69 8.31,3.51 12.48,5.2 -16.77,-7.28 -32.5,-16.38 -47.06,-27.56 3.51,2.73 7.02,5.46 10.53,8.19 -14.81,-11.44 -27.95,-24.7 -39.51,-39.52 2.72,3.51 5.45,7.02 8.18,10.54 -11.04,-14.57 -20.27,-30.3 -27.56,-47.07 1.7,4.17 3.52,8.32 5.21,12.48 -7.42,-17.81 -12.62,-36.4 -15.21,-55.37 0.65,4.55 1.3,9.23 1.82,13.78 -1.3,-9.49 -1.82,-19.11 -1.95,-28.74 -0.13,-27.15 -23.79,-53.29 -52,-51.98 -28.07,1.3 -52.13,22.87 -51.99,51.99l0 0zm318.73 -215.65l0.39 0.39c0,-0.13 0,-0.26 0,-0.53 0.01,-2.17 -0.12,-4.32 -0.39,-6.43l0 6.57zm-103.99 -60.76c-6.07,-1.97 -12.06,-4.19 -17.94,-6.7 4.17,1.69 8.32,3.5 12.48,5.19 -16.77,-7.28 -32.5,-16.38 -47.06,-27.55 3.51,2.73 7.03,5.45 10.54,8.18 -14.83,-11.44 -27.96,-24.7 -39.52,-39.51 2.73,3.51 5.46,7.01 8.19,10.53 -11.05,-14.56 -20.28,-30.29 -27.56,-47.06 1.69,4.16 3.51,8.32 5.2,12.48 -7.41,-17.81 -12.62,-36.4 -15.21,-55.38 0.64,4.55 1.3,9.23 1.82,13.79 -2.47,-19.12 -2.47,-38.49 -0.01,-57.59 -0.64,4.55 -1.29,9.23 -1.81,13.78 2.59,-19.11 7.66,-37.7 15.21,-55.38 -1.69,4.16 -3.51,8.32 -5.2,12.48 7.28,-16.77 16.38,-32.5 27.56,-47.05 -2.73,3.51 -5.46,7.01 -8.19,10.52 11.43,-14.81 24.69,-27.94 39.51,-39.51 -3.5,2.73 -7.02,5.46 -10.53,8.18 14.56,-11.05 30.29,-20.27 47.06,-27.55 -4.16,1.69 -8.32,3.51 -12.48,5.2 5.9,-2.45 11.88,-4.67 17.94,-6.62l0 61.21c0,46.15 0,92.43 0,138.57l0 109.79zm103.99 121.14c6.47,2.05 12.85,4.41 19.11,7.08 -4.16,-1.69 -8.32,-3.5 -12.47,-5.2 16.76,7.15 32.49,16.39 47.05,27.56 -3.52,-2.73 -7.02,-5.46 -10.53,-8.19 14.82,11.44 27.95,24.7 39.51,39.52 -2.73,-3.51 -5.46,-7.02 -8.19,-10.53 11.06,14.55 20.28,30.28 27.56,47.05 -1.69,-4.15 -3.51,-8.31 -5.2,-12.47 7.41,17.81 12.62,36.4 15.21,55.37 -0.64,-4.55 -1.3,-9.23 -1.82,-13.78 2.47,19.11 2.48,38.48 0,57.59 0.65,-4.55 1.3,-9.23 1.82,-13.78 -2.6,19.11 -7.66,37.7 -15.2,55.37 1.68,-4.16 3.5,-8.31 5.19,-12.47 -7.14,16.76 -16.38,32.5 -27.56,47.05 2.73,-3.51 5.46,-7.02 8.19,-10.53 -11.44,14.82 -24.69,27.95 -39.51,39.52 3.5,-2.73 7.01,-5.46 10.53,-8.19 -14.56,11.05 -30.29,20.28 -47.06,27.56 4.16,-1.69 8.31,-3.51 12.48,-5.2 -6.28,2.61 -12.65,4.95 -19.11,6.99l0 -61.2c0,-46.14 0,-92.42 0,-138.57l0 -110.55zm-36 727.1c-441.83,0 -800,-358.17 -800,-800 0,-441.83 358.17,-800 800,-800 441.83,0 800,358.17 800,800 0,441.83 -358.17,800 -800,800zm-1643.92 -1746.12l25.97 0 -25.97 0z"/>
  <path class="fil1" d="M1876.87 1420.34c0.12,43.03 10.65,84.62 29.89,122.84 18.72,37.18 47.06,67.72 79.82,92.68 30.78,23.38 67.07,38.96 105.03,46.46l0 -79.34 0 -27.96c-5.98,-1.94 -11.88,-4.15 -17.68,-6.62 4.16,1.69 8.31,3.51 12.48,5.2 -16.77,-7.28 -32.5,-16.38 -47.06,-27.56 3.51,2.73 7.02,5.46 10.53,8.19 -14.81,-11.44 -27.95,-24.7 -39.51,-39.52 2.72,3.51 5.45,7.02 8.18,10.54 -11.04,-14.57 -20.27,-30.3 -27.56,-47.07 1.7,4.17 3.52,8.32 5.21,12.48 -7.42,-17.81 -12.62,-36.4 -15.21,-55.37 0.65,4.55 1.3,9.23 1.82,13.78 -1.3,-9.49 -1.82,-19.11 -1.95,-28.74 -0.13,-27.15 -23.79,-53.29 -52,-51.98 -28.07,1.3 -52.13,22.87 -51.99,51.99l0 0zm318.73 262.29c7.14,-1.39 14.21,-3.06 21.19,-5.04 39.91,-11.3 76.04,-32.11 106.98,-59.54 31.2,-27.81 53.43,-62.91 69.28,-101.25 30.81,-74.88 21.84,-165.36 -20.01,-234.24 -21.32,-35.1 -50.44,-64.61 -84.75,-87.1 -28.46,-18.63 -59.88,-30.17 -92.69,-36.73l0 39.39c0.27,2.11 0.4,4.26 0.39,6.43 0,0.27 0,0.4 0,0.53l-0.39 -0.39 0 19.11 0 41.27c6.47,2.05 12.85,4.41 19.11,7.08 -4.16,-1.69 -8.32,-3.5 -12.47,-5.2 16.76,7.15 32.49,16.39 47.05,27.56 -3.52,-2.73 -7.02,-5.46 -10.53,-8.19 14.82,11.44 27.95,24.7 39.51,39.52 -2.73,-3.51 -5.46,-7.02 -8.19,-10.53 11.06,14.55 20.28,30.28 27.56,47.05 -1.69,-4.15 -3.51,-8.31 -5.2,-12.47 7.41,17.81 12.62,36.4 15.21,55.37 -0.64,-4.55 -1.3,-9.23 -1.82,-13.78 2.47,19.11 2.48,38.48 0,57.59 0.65,-4.55 1.3,-9.23 1.82,-13.78 -2.6,19.11 -7.66,37.7 -15.2,55.37 1.68,-4.16 3.5,-8.31 5.19,-12.47 -7.14,16.76 -16.38,32.5 -27.56,47.05 2.73,-3.51 5.46,-7.02 8.19,-10.53 -11.44,14.82 -24.69,27.95 -39.51,39.52 3.5,-2.73 7.01,-5.46 10.53,-8.19 -14.56,11.05 -30.29,20.28 -47.06,27.56 4.16,-1.69 8.31,-3.51 12.48,-5.2 -6.28,2.61 -12.65,4.95 -19.11,6.99l0 52.41 0 54.83zm-103.99 -538.7c-6.07,-1.97 -12.06,-4.19 -17.94,-6.7 4.17,1.69 8.32,3.5 12.48,5.19 -16.77,-7.28 -32.5,-16.38 -47.06,-27.55 3.51,2.73 7.03,5.45 10.54,8.18 -14.83,-11.44 -27.96,-24.7 -39.52,-39.51 2.73,3.51 5.46,7.01 8.19,10.53 -11.05,-14.56 -20.28,-30.29 -27.56,-47.06 1.69,4.16 3.51,8.32 5.2,12.48 -7.41,-17.81 -12.62,-36.4 -15.21,-55.38 0.64,4.55 1.3,9.23 1.82,13.79 -2.47,-19.12 -2.47,-38.49 -0.01,-57.59 -0.64,4.55 -1.29,9.23 -1.81,13.78 2.59,-19.11 7.66,-37.7 15.21,-55.38 -1.69,4.16 -3.51,8.32 -5.2,12.48 7.28,-16.77 16.38,-32.5 27.56,-47.05 -2.73,3.51 -5.46,7.01 -8.19,10.52 11.43,-14.81 24.69,-27.94 39.51,-39.51 -3.5,2.73 -7.02,5.46 -10.53,8.18 14.56,-11.05 30.29,-20.27 47.06,-27.55 -4.16,1.69 -8.32,3.51 -12.48,5.2 5.9,-2.45 11.88,-4.67 17.94,-6.62l0 -52.4 0 -54.98c-6.74,1.34 -13.42,2.94 -20.02,4.81 -39.91,11.3 -76.04,32.11 -106.98,59.53 -31.19,27.82 -53.42,62.91 -69.28,101.27 -30.81,74.86 -21.84,165.34 20.01,234.23 21.32,35.1 50.44,64.61 84.76,87.09 28.12,18.41 59.12,29.89 91.51,36.49l0 -64.43 0 -42.04zm103.99 -309.95c6.38,2.03 12.67,4.36 18.85,6.99 -4.16,-1.68 -8.32,-3.5 -12.48,-5.19 16.77,7.28 32.5,16.38 47.06,27.55 -3.51,-2.72 -7.02,-5.45 -10.53,-8.18 14.82,11.44 27.95,24.7 39.52,39.52 -2.73,-3.52 -5.46,-7.02 -8.19,-10.54 11.05,14.56 20.27,30.29 27.56,47.06 -1.7,-4.16 -3.51,-8.32 -5.21,-12.48 7.42,17.81 12.61,36.4 15.21,55.38 -0.65,-4.55 -1.3,-9.23 -1.82,-13.79 1.3,9.5 1.82,19.11 1.95,28.74 0.13,27.16 23.79,53.29 52,51.99 28.07,-1.3 52.13,-22.88 51.99,-52 -0.12,-43.02 -10.66,-84.62 -29.89,-122.84 -18.72,-37.18 -47.06,-67.72 -79.82,-92.68 -31.1,-23.62 -67.82,-39.29 -106.2,-46.69l0 79.97 0 27.19z"/>
  <g id="_2184948293392">
   <path class="fil1" d="M2091.61 676.93c0,9.36 0,18.85 0,28.21 0,25.61 0,51.21 0,76.82 0,37.83 0,75.79 0,113.61 0,46.15 0,92.43 0,138.57 0,50.57 0,101.26 0,151.83 0,51.08 0,102.17 0,153.26 0,47.7 0,95.28 0,142.98 0,40.3 0,80.47 0,120.77 0,28.98 0,57.84 0,86.83 0,13.65 -0.13,27.43 0,41.21 0,0.64 0,1.17 0,1.81 0,27.17 23.92,53.3 52,52 28.2,-1.3 51.99,-22.88 51.99,-52 0,-9.35 0,-18.84 0,-28.2 0,-25.61 0,-51.22 0,-76.83 0,-37.82 0,-75.78 0,-113.61 0,-46.14 0,-92.42 0,-138.57 0,-50.56 0,-101.26 0,-151.82 0,-51.09 0,-102.18 0,-153.26 0,-47.71 0,-95.28 0,-142.99 0,-40.3 0,-80.46 0,-120.76 0,-28.99 0,-57.85 0,-86.83 0,-13.65 0.13,-27.43 0,-41.21 0,-0.65 0,-1.17 0,-1.82 0,-27.17 -23.92,-53.3 -51.99,-52 -28.21,1.17 -52,22.75 -52,52l0 0z"/>
  </g>
 </g>
</svg>
