<svg xmlns="http://www.w3.org/2000/svg" width="43" height="37" viewBox="0 0 43 37"><path fill="#df6d00" d="M32.08 28.72h-3.41a1.32 1.32 0 1 1 0-2.63h3.41c5.29 0 7.26-2.45 7.35-4.74.1-2.49-1.86-5.22-5.3-5.49a1.26 1.26 0 0 1-.94-.51 1.29 1.29 0 0 1-.25-1.04c1.15-6.14-2.09-9.41-5.21-10.35-3.54-1.07-8.4.26-10.71 5.71-.15.35-.45.62-.82.74-.37.11-.77.06-1.1-.14-3.05-1.93-6.05-1.04-7.68.7-1.38 1.47-2.15 4-.19 6.68a1.31 1.31 0 0 1-.66 2.03c-1.99.63-3.14 1.95-2.92 3.34.24 1.53 2.2 3.07 6.03 3.07h4.04a1.32 1.32 0 0 1 0 2.63H9.68c-5.76 0-8.25-2.85-8.63-5.29-.29-1.92.62-4.24 3.21-5.62A7.43 7.43 0 0 1 5.5 9.18a8.5 8.5 0 0 1 9.72-1.83c3.04-5.6 8.82-7.25 13.27-5.91 4.21 1.27 7.92 5.44 7.23 12.02a8.03 8.03 0 0 1 6.34 7.99c-.13 3.35-2.82 7.27-9.98 7.27"/><path fill="#df6d00" d="M21.08 24.63a2.45 2.45 0 1 0 0 4.9 2.45 2.45 0 0 0 0-4.9zM16 27.08a5.09 5.09 0 1 1 10.17.01A5.09 5.09 0 0 1 16 27.08z"/><path fill="#df6d00" d="M21.31 35.99c-.72 0-1.31-.59-1.31-1.31v-4.37a1.31 1.31 0 0 1 2.63 0v4.37c0 .72-.59 1.31-1.32 1.31M10.78 36.53c-.47 0-.93-.19-1.26-.51a1.8 1.8 0 0 1 0-2.52 1.83 1.83 0 0 1 2.52 0 1.8 1.8 0 0 1 0 2.52c-.33.32-.79.51-1.26.51"/><path fill="#df6d00" d="M15.78 36.56a1.78 1.78 0 0 0 0-3.56 1.78 1.78 0 0 0 0 3.56zm5.1 0a1.78 1.78 0 1 0 0-3.56 1.78 1.78 0 0 0 0 3.56zm5.1-3.56a1.78 1.78 0 0 1 0 3.56 1.78 1.78 0 0 1 0-3.56zM30.78 36.53c-.47 0-.93-.19-1.26-.51a1.8 1.8 0 0 1 0-2.52 1.82 1.82 0 0 1 2.51 0 1.76 1.76 0 0 1-1.25 3.03"/></svg>