<svg xmlns="http://www.w3.org/2000/svg" xmlns:xlink="http://www.w3.org/1999/xlink" width="145" height="92" viewBox="0 0 145 92"><defs><path id="cl5ab" d="M407.05 1680.95h4.79v4.93c3.44.94 6.2 2.74 8 5.81a11.18 11.18 0 0 1 1.66 6.1h-4.7c-.37-3.04-1.65-5.48-4.86-6.66v14.18c6.46 2.33 9.67 6.44 9.59 12.26-.08 5.47-3.48 9.62-9.62 11.68v4.92h-4.81v-4.84c-6.5-2.44-9.85-6.6-9.65-11.94h4.7c.29 3.07 1.68 5.38 4.79 6.65v-14.2c-5.88-1.88-9.47-5.71-9.53-12.19-.06-5.47 3.14-9.3 9.64-11.83zm33.8 26.63c0-17.44-14-31.55-31.35-31.58a31.45 31.45 0 0 0-31.44 31.49 31.46 31.46 0 0 0 31.42 31.66 31.47 31.47 0 0 0 31.37-31.57z"/><path id="cl5ac" d="M472.21 1753.66H346.67v-1.69-70.27c0-3.83 1.84-5.7 5.63-5.7h30.57l-.77.85c-2.22 2.54-4.5 5.03-6.6 7.65-.67.82-1.19 1.26-2.3 1.25-6.68-.06-13.37-.03-20.06-.03h-1.56v58.17h115.74v-58.17h-1.6c-6.75 0-13.5-.02-20.23.02-.91 0-1.4-.32-1.96-1.03-2.3-2.93-4.68-5.78-7.01-8.63.04 0 .4-.07.76-.07 9.91 0 19.82-.02 29.73 0 3.2 0 5.24 2 5.24 5.16v71.5c0 .29-.02.58-.04 1"/><path id="cl5aa" d="M337 1758.65h145v9.35H337z"/><path id="cl5ae" d="M337.06 1758.65h62.74c0 .74-.02 1.48 0 2.21.05 1.7.85 2.56 2.5 2.57 4.78.03 9.56.03 14.34 0 1.63-.01 2.43-.9 2.48-2.59.02-.7 0-1.4 0-2.18H482c-.11 2.06-.03 4.18-.4 6.21-.33 1.89-2.58 3.12-4.99 3.12H342.75c-.8 0-1.63-.06-2.38-.28a4.63 4.63 0 0 1-3.36-4.48c-.02-1.26 0-2.53 0-3.8 0-.2.02-.4.05-.78"/><path id="cl5af" d="M406.99 1691.27v13.15c-2.66-.56-4.7-3.31-4.77-6.39-.07-3.2 1.9-6.04 4.77-6.76"/><path id="cl5ag" d="M411.95 1723.9v-13.15c2.52.44 4.6 3.15 4.75 6.19a6.76 6.76 0 0 1-4.75 6.95"/><clipPath id="cl5ad"><use xlink:href="#cl5aa"/></clipPath></defs><g><g transform="translate(-337 -1676)"><g><use fill="#fff" xlink:href="#cl5ab"/></g><g><use fill="#fff" xlink:href="#cl5ac"/></g><g><g/><g clip-path="url(#cl5ad)"><use fill="#fff" xlink:href="#cl5ae"/></g></g><g><use fill="#fff" xlink:href="#cl5af"/></g><g><use fill="#fff" xlink:href="#cl5ag"/></g></g></g></svg>