<?xml version="1.0" encoding="UTF-8"?>
<!DOCTYPE svg PUBLIC "-//W3C//DTD SVG 1.1//EN" "http://www.w3.org/Graphics/SVG/1.1/DTD/svg11.dtd">
<!-- Creator: CorelDRAW 2018 (64-Bit) -->
<svg xmlns="http://www.w3.org/2000/svg" xml:space="preserve" width="210mm" height="210mm" version="1.1" style="shape-rendering:geometricPrecision; text-rendering:geometricPrecision; image-rendering:optimizeQuality; fill-rule:evenodd; clip-rule:evenodd"
viewBox="0 0 21000 21000"
 xmlns:xlink="http://www.w3.org/1999/xlink"
 xmlns:dc="http://purl.org/dc/elements/1.1/"
 xmlns:cc="http://creativecommons.org/ns#"
 xmlns:rdf="http://www.w3.org/1999/02/22-rdf-syntax-ns#"
 xmlns:svg="http://www.w3.org/2000/svg"
 xmlns:sodipodi="http://sodipodi.sourceforge.net/DTD/sodipodi-0.dtd"
 xmlns:inkscape="http://www.inkscape.org/namespaces/inkscape">
 <defs>
  <style type="text/css">
   <![CDATA[
    .fil0 {fill:black}
   ]]>
  </style>
 </defs>
 <g id="Слой_x0020_1">
  <metadata id="CorelCorpID_0Corel-Layer"/>
  <g id="_3094165963344">
   <path class="fil0" d="M3028.65 4136.37c-463.91,0 -840,376.07 -840,840 0,463.93 376.09,840 840,840l15540 0c463.91,0 840,-376.07 840,-840 0,-463.93 -376.09,-840 -840,-840l-15540 0zm0 5460c-463.91,0 -840,376.07 -840,840 0,463.93 376.09,840 840,840l15540 0c463.91,0 840,-376.07 840,-840 0,-463.93 -376.09,-840 -840,-840l-15540 0zm0 5460c-463.91,0 -840,376.07 -840,840 0,463.93 376.09,840 840,840l15540 0c463.91,0 840,-376.07 840,-840 0,-463.93 -376.09,-840 -840,-840l-15540 0z" display="inline"/>
  </g>
 </g>
</svg>
