<svg width="752" height="642" xmlns="http://www.w3.org/2000/svg" xmlns:xlink="http://www.w3.org/1999/xlink"><defs><linearGradient x1="50%" y1="0%" x2="50%" y2="100%" id="linearGradient-1"><stop stop-color="#3B1D46" offset="0%"/><stop stop-color="#2C1334" offset="100%"/></linearGradient><linearGradient x1="50%" y1="0%" x2="50%" y2="99.955%" id="linearGradient-2"><stop stop-color="#694B7F" offset="0%"/><stop stop-color="#64487A" offset="99.955%"/></linearGradient><linearGradient x1="12.881%" y1="103.011%" x2="87.119%" y2="-3.011%" id="linearGradient-3"><stop stop-color="#FFB900" offset="0%"/><stop stop-color="#9100EB" offset="100%"/></linearGradient><circle id="path-4" cx="41.5" cy="41.5" r="41.5"/><filter x="-16.9%" y="-8.4%" width="133.7%" height="133.7%" filterUnits="objectBoundingBox" id="filter-5"><feOffset dy="7" in="SourceAlpha" result="shadowOffsetOuter1"/><feGaussianBlur stdDeviation="3.5" in="shadowOffsetOuter1" result="shadowBlurOuter1"/><feColorMatrix values="0 0 0 0 0 0 0 0 0 0 0 0 0 0 0 0 0 0 0.115262681 0" in="shadowBlurOuter1"/></filter><path id="path-6" d="M0 .646h6.56v6.602H0z"/></defs><g id="Index-2b" fill="none" fill-rule="evenodd"><g id="1920" transform="translate(-1050 -2384)"><g id="4" transform="translate(-1 2256)"><g id="Illustr" transform="translate(1051 128)"><g id="Circles" transform="translate(82 35)"><circle id="Oval-2-Copy-4" fill="url(#linearGradient-1)" cx="286" cy="286" r="286"/><circle id="Oval-2-Copy-3" fill="#3C1D48" opacity=".642" cx="286.263" cy="286.263" r="218.263"/><circle id="Oval-2-Copy-2" fill="#3D2857" opacity=".547" cx="286.561" cy="286.561" r="160.561"/><circle id="Oval-2-Copy" fill="#56356C" opacity=".547" cx="286.86" cy="286.86" r="102.86"/><circle id="Oval-2" fill="url(#linearGradient-2)" cx="286.684" cy="286.684" r="52.684"/></g><g id="Small-circles" transform="translate(129 119)"><ellipse id="Oval-4" fill="#EF4623" cx="86.191" cy="158.926" rx="5.011" ry="5.014"/><ellipse id="Oval-4-Copy" fill="#CF3427" cx="330.236" cy="152.912" rx="5.011" ry="5.014"/><ellipse id="Oval-4-Copy-2" fill="#55ACEE" cx="442.989" cy="123.831" rx="5.011" ry="5.014"/><ellipse id="Oval-4-Copy-3" fill="#3A5BA0" cx="147.326" cy="5.014" rx="5.011" ry="5.014"/><ellipse id="Oval-4-Copy-4" fill="#9F18CC" cx="226.506" cy="362.48" rx="5.011" ry="5.014"/><ellipse id="Oval-4-Copy-5" fill="#FFFC00" cx="5.011" cy="366.986" rx="5.011" ry="5.014"/></g><g id="Socials" transform="translate(0 126)"><g id="Insta" transform="translate(117 19)" fill-rule="nonzero"><path d="M73 63.875C73 68.894 68.894 73 63.875 73H9.125C4.106 73 0 68.894 0 63.875V9.125C0 4.106 4.106 0 9.125 0h54.75C68.894 0 73 4.106 73 9.125v54.75z" id="Shape" fill="url(#linearGradient-3)"/><g id="Group" transform="translate(10.069 10.069)" fill="#FFF"><path d="M38.545 52.862H14.317C6.423 52.862 0 46.44 0 38.545V14.317C0 6.423 6.423 0 14.317 0h24.228c7.895 0 14.317 6.423 14.317 14.317v24.228c0 7.895-6.422 14.317-14.317 14.317zM14.317 4.405c-5.465 0-9.912 4.447-9.912 9.912v24.228c0 5.465 4.447 9.912 9.912 9.912h24.228c5.465 0 9.912-4.447 9.912-9.912V14.317c0-5.465-4.447-9.912-9.912-9.912H14.317z" id="Shape"/><path d="M26.431 40.276c-7.634 0-13.845-6.211-13.845-13.845s6.21-13.845 13.845-13.845c7.634 0 13.845 6.21 13.845 13.845 0 7.634-6.211 13.845-13.845 13.845zm0-23.075c-5.09 0-9.23 4.14-9.23 9.23 0 5.09 4.14 9.23 9.23 9.23 5.09 0 9.23-4.14 9.23-9.23 0-5.09-4.14-9.23-9.23-9.23z" id="Shape"/><circle id="Oval" cx="40.276" cy="12.586" r="2.517"/></g></g><g id="FB" transform="translate(551 245)" fill-rule="nonzero"><path d="M66.917 0H6.083C2.737 0 0 2.737 0 6.083v60.834C0 70.263 2.737 73 6.083 73h60.834C70.263 73 73 70.263 73 66.917V6.083C73 2.737 70.263 0 66.917 0z" id="Shape" fill="#3A5BA0"/><path d="M48.772 36.752l1.573-7.552h-7.867v-6.041c0-2.266 1.26-3.021 4.72-3.021h3.147v-7.552h-6.293c-6.45 0-11.013 3.625-11.013 10.573V29.2h-7.867v7.552h7.867v21.145h9.44V36.752h6.293z" id="f_1_" fill="#FFF"/></g><g id="youtube" transform="translate(211 369)"><circle id="Oval-3" fill="#FFF" cx="43.5" cy="43.5" r="38.5"/><path d="M55.338 52.276c-.39 0-.67.11-.84.342-.17.218-.252.593-.252 1.114v1.254h2.16v-1.254c0-.52-.087-.896-.259-1.114-.162-.233-.438-.342-.81-.342zm-8.425-.043c.327 0 .583.106.761.322.172.215.26.536.26.954v6.418c0 .4-.075.682-.215.855-.14.178-.358.265-.658.265-.207 0-.402-.046-.59-.134a2.096 2.096 0 0 1-.58-.439v-7.743c.166-.17.334-.298.504-.38.169-.082.341-.118.518-.118zm7.334 4.688v2.341c0 .655.08 1.109.238 1.364.165.253.438.376.829.376.405 0 .687-.106.848-.32.16-.215.245-.685.245-1.419v-.567h2.513v.639c0 1.275-.303 2.234-.92 2.882-.608.643-1.524.962-2.74.962-1.094 0-1.958-.339-2.586-1.023-.628-.68-.947-1.62-.947-2.82v-5.58c0-1.075.349-1.957 1.039-2.635.69-.679 1.58-1.018 2.675-1.018 1.119 0 1.979.315 2.58.944.601.627.9 1.53.9 2.709v3.17h-4.674v-.005zm-4.375 5.372c-.38.47-.936.701-1.662.701-.48 0-.904-.086-1.276-.268a3.133 3.133 0 0 1-1.045-.842v.954h-2.47V45.993h2.47v5.425c.332-.378.68-.67 1.047-.864a2.37 2.37 0 0 1 1.127-.295c.776 0 1.365.264 1.771.79.412.531.614 1.307.614 2.325v6.896c0 .88-.192 1.553-.576 2.023zm-10.73.545V61.47c-.456.506-.922.89-1.413 1.151-.489.267-.96.395-1.42.395-.567 0-.987-.18-1.278-.555-.282-.372-.427-.92-.427-1.664V50.407h2.441v9.533c0 .295.052.506.15.64.108.132.275.197.501.197.18 0 .41-.087.684-.263.275-.175.525-.397.758-.665v-9.442h2.442v12.43h-2.439zm-8.46-14.398v14.398h-2.755V48.44H25.08v-2.447h8.45v2.447h-2.848zm11.31-7.87c0-.002 16.912.024 18.92 2.03 2.014 2.008 2.036 11.919 2.036 11.976 0 0-.017 9.964-2.037 11.979-2.007 2.002-18.92 2.045-18.92 2.045s-16.91-.043-18.922-2.047c-2.013-2.009-2.017-11.903-2.017-11.978 0-.058.005-9.968 2.017-11.977 2.013-2.004 18.923-2.03 18.923-2.029zm13.336-5.213h-2.752v-1.512c-.502.556-1.03.984-1.582 1.273-.55.29-1.08.436-1.596.436-.642 0-1.116-.204-1.438-.611-.32-.408-.483-1.018-.483-1.836v-11.44h2.747v10.495c0 .324.063.559.177.703.112.146.303.218.559.218.2 0 .458-.096.767-.288.308-.192.592-.437.847-.738v-10.39h2.753v13.69h.001zm-14.942-2.334c.194.206.474.307.84.307.372 0 .666-.105.887-.312.22-.213.33-.502.33-.866v-7.457c0-.3-.113-.542-.338-.727-.224-.183-.518-.274-.88-.274-.337 0-.608.09-.82.274a.93.93 0 0 0-.315.727v7.457c0 .374.101.663.296.871zM38.37 22.264c.74-.628 1.738-.943 2.985-.943 1.137 0 2.072.331 2.801.995.724.662 1.088 1.516 1.088 2.56v7.07c0 1.171-.357 2.088-1.067 2.756-.718.666-1.696 1-2.948 1-1.201 0-2.166-.345-2.89-1.031-.718-.689-1.08-1.614-1.08-2.778v-7.095c-.002-1.062.368-1.907 1.111-2.534zM29.767 16.8h-3.12l3.687 11.204v7.353h3.098v-7.7L37.036 16.8h-3.15l-1.913 7.417h-.194L29.767 16.8zM42 84C18.805 84 0 65.195 0 42 0 18.803 18.805 0 42 0s42 18.803 42 42c0 23.195-18.805 42-42 42z" id="Shape" fill="#CF3427"/></g><g id="twitter" transform="translate(0 208)" fill-rule="nonzero"><rect id="rect2990-1" fill="#55ACEE" width="76" height="76" rx="38"/><path d="M47.665 19.001c-5.432.135-9.789 4.489-9.789 9.842 0 .77.084 1.523.257 2.245-8.356-.41-15.764-4.33-20.722-10.287a9.65 9.65 0 0 0-1.363 4.952c0 3.416 1.778 6.427 4.475 8.192a10.194 10.194 0 0 1-4.555-1.233v.127c0 4.77 3.466 8.745 8.066 9.65a10.31 10.31 0 0 1-4.54.17c1.28 3.91 4.987 6.759 9.386 6.838A20.421 20.421 0 0 1 16.4 53.71c-.81 0-1.613-.043-2.4-.135A28.877 28.877 0 0 0 29.408 58C47.9 58 58.012 42.997 58.012 29.986c0-.427-.008-.856-.027-1.278A20.133 20.133 0 0 0 63 23.612a20.327 20.327 0 0 1-5.773 1.553c2.077-1.218 3.67-3.147 4.422-5.448a20.393 20.393 0 0 1-6.386 2.392 10.14 10.14 0 0 0-7.338-3.108c-.087 0-.174-.002-.26 0z" id="rect2989" fill="#FFF"/></g><g id="if_reddit_386696" transform="translate(695 96)" fill-rule="nonzero"><rect id="rect2987" fill="#EF4623" width="57" height="57" rx="28.5"/><path d="M37.459 30.15c.113.294.165.597.165.897 0 .605-.207 1.193-.555 1.673-.343.474-.83.842-1.403 1.004l-.012.003-.007.002a2.492 2.492 0 0 1-.817.137c-.64 0-1.267-.233-1.77-.63a2.69 2.69 0 0 1-.994-1.636h-.001l-.002-.006c0-.002 0-.004-.002-.007h.002a2.476 2.476 0 0 1-.056-.518c0-.583.197-1.144.521-1.606.324-.46.78-.825 1.314-1.013h.004c.003 0 .003-.003.005-.003a2.68 2.68 0 0 1 .936-.169 2.91 2.91 0 0 1 1.62.497c.47.317.854.78 1.046 1.358.002.003.002.007.003.01 0 .003.003.006.004.008h-.001zm-1.76 7.154a1.393 1.393 0 0 0-.761-.238 1.18 1.18 0 0 0-.659.203 12.717 12.717 0 0 1-6.5 1.812c-1.704 0-3.397-.363-4.93-1.123l-.009-.004-.007-.003c-.231-.095-.495-.299-.782-.491a2.895 2.895 0 0 0-.468-.26 1.387 1.387 0 0 0-.55-.123c-.165 0-.338.038-.508.116l-.026.01h.001a1.238 1.238 0 0 0-.61.514c-.141.231-.21.499-.21.766 0 .24.057.482.173.7.111.207.282.388.505.51 2.193 1.493 4.774 2.168 7.365 2.166 2.337 0 4.687-.547 6.78-1.54l.01-.006.011-.006c.277-.164.643-.313.989-.528.171-.11.338-.237.481-.402.144-.165.259-.367.324-.608v-.001c.026-.106.04-.209.04-.312 0-.196-.048-.382-.127-.55a1.496 1.496 0 0 0-.531-.602zm-15.39-3.588a2.465 2.465 0 0 0 .867.158c.712 0 1.404-.295 1.928-.775.524-.481.882-1.163.882-1.938 0-.02 0-.04-.002-.065.002-.035.003-.072.003-.111 0-.77-.353-1.454-.871-1.936a2.855 2.855 0 0 0-1.927-.78c-.19 0-.385.022-.575.067h-.008-.003c-.946.2-1.777.909-2.083 1.885v.005a2.61 2.61 0 0 0-.13.815c0 .598.196 1.18.533 1.659.334.47.808.84 1.377 1.014.003 0 .005 0 .009.002zm29.682-6.969v.005c.007.097.009.193.009.29 0 1.078-.343 2.115-.915 2.995a5.986 5.986 0 0 1-2.118 1.98c.055.429.086.862.086 1.293-.001 2.322-.795 4.604-2.176 6.434v.001h-.003c-2.554 3.429-6.477 5.45-10.438 6.47l-.003.003a27.19 27.19 0 0 1-6.467.782c-3.246 0-6.49-.591-9.516-1.815v-.003h-.004c-3.137-1.305-6.127-3.379-7.96-6.419a10.534 10.534 0 0 1-1.528-5.436c0-.432.029-.865.086-1.294a6.162 6.162 0 0 1-2.072-1.929A5.717 5.717 0 0 1 6 27.194v-.017c0-1.48.638-2.881 1.628-3.915.99-1.033 2.342-1.708 3.793-1.708h.06c.151-.01.305-.017.46-.017.727 0 1.458.12 2.151.388l.004.003h.004c.592.252 1.18.555 1.704.975.17-.09.356-.19.564-.27 3.178-1.9 6.87-2.632 10.47-2.843.033-1.8.251-3.683 1.12-5.332.726-1.37 1.982-2.436 3.48-2.805l.005-.003h.008a8.947 8.947 0 0 1 1.716-.163c1.52 0 3.024.363 4.43.93a5.505 5.505 0 0 1 2.555-2.103l.01-.005.009-.004A6.4 6.4 0 0 1 42.078 10c.685 0 1.375.126 2.021.417v-.002l.002.002c.005.003.009.005.012.005.928.36 1.712 1.026 2.268 1.853.556.83.883 1.826.883 2.849 0 .188-.01.377-.032.567l-.002.003-.001.01c-.11 1.322-.773 2.482-1.712 3.31-.946.83-2.17 1.332-3.426 1.332-.202 0-.406-.011-.608-.038-1.246-.096-2.408-.705-3.262-1.61-.856-.903-1.408-2.111-1.408-3.414 0-.063.006-.128.007-.19-1.17-.526-2.412-.963-3.646-.961-.179 0-.357.01-.536.028h-.002a2.791 2.791 0 0 0-2.2 1.523v.003c-.632 1.243-.758 2.695-.777 4.136 3.543.233 7.108 1.091 10.234 2.905h.005l.044.027c.06.035.17.096.269.149.215-.176.442-.356.701-.513a5.733 5.733 0 0 1 3.194-.953c.498 0 .998.063 1.482.19h.002l.02.005c.007 0 .012.003.018.003v.001c1.144.293 2.18.957 2.958 1.85.779.896 1.303 2.029 1.405 3.258v.003zM39.554 15.045c0 .049 0 .099.005.15v.007c.023.622.313 1.2.756 1.627.444.428 1.033.692 1.63.695h.016c.043.003.087.003.129.003.603 0 1.202-.262 1.652-.687.45-.428.748-1.01.77-1.636l.002-.003v-.004c.004-.048.006-.094.006-.142 0-.645-.299-1.26-.767-1.715-.466-.456-1.093-.737-1.712-.736-.2 0-.397.028-.59.089h-.006l-.007.003c-.51.134-.987.45-1.33.872-.345.42-.554.938-.554 1.477zM13.397 24.63c-.474-.222-.963-.382-1.448-.379-.08 0-.163.004-.244.014h-.012l-.011.001c-.695.02-1.397.326-1.923.816-.527.488-.876 1.149-.903 1.875V26.97a2.288 2.288 0 0 0-.007.173c0 .449.136.882.368 1.276.17.294.395.562.649.796.812-1.795 2.081-3.319 3.53-4.585h.001zm30.87 8.78c0-1.6-.573-3.207-1.5-4.5-1.846-2.594-4.71-4.285-7.691-5.227l-.021-.008a23.737 23.737 0 0 0-7.043-1.068c-2.396 0-4.79.358-7.084 1.072-2.98.954-5.854 2.633-7.696 5.235v.001c-.934 1.3-1.482 2.913-1.482 4.518 0 .592.074 1.182.229 1.758l.002.001c.335 1.291.99 2.444 1.84 3.448.849 1.005 1.89 1.864 2.985 2.563.242.151.486.296.735.438 3.18 1.79 6.844 2.576 10.48 2.576.615 0 1.233-.021 1.844-.066 3.662-.305 7.34-1.396 10.312-3.624l.001-.003c.946-.706 1.823-1.56 2.516-2.532.696-.972 1.206-2.06 1.433-3.24v-.004c.094-.441.139-.888.139-1.337zm2.89-6.367a2.41 2.41 0 0 0-.283-1.136l-.004-.004-.002-.006a2.765 2.765 0 0 0-1.15-1.216 3.315 3.315 0 0 0-1.633-.418c-.517 0-1.033.117-1.49.349 1.454 1.274 2.73 2.805 3.555 4.607a3 3 0 0 0 .66-.835c.22-.415.346-.88.346-1.34z" id="reddit_4_" fill="#FFF"/></g><g id="Snapchat_logo" transform="translate(458)" fill-rule="nonzero"><g id="g3646" transform="matrix(1 0 0 -1 0 72)" fill="#ECE002"><path d="M60.522 72c6.26 0 11.336-5.075 11.336-11.337V12.19c0-6.26-5.076-11.336-11.336-11.336H12.049C5.789.854.712 5.93.712 12.19v48.473C.712 66.925 5.788 72 12.049 72h48.473z" id="path3648"/></g><g id="g3650" transform="matrix(1 0 0 -1 10 60)" fill="#FFF"><path d="M27.02 0c-.134 0-.265.004-.397.01a3.015 3.015 0 0 0-.26-.01c-3.074 0-5.048 1.4-6.957 2.753-1.317.935-2.561 1.817-4.027 2.062-.715.118-1.426.178-2.113.178-1.24 0-2.217-.192-2.931-.332-.433-.085-.807-.158-1.092-.158-.297 0-.619.064-.759.544-.121.416-.209.817-.294 1.207-.218 1.001-.373 1.617-.79 1.682-4.878.756-6.275 1.787-6.585 2.518a.934.934 0 0 0-.075.312.55.55 0 0 0 .46.575c7.496 1.238 10.858 8.926 10.998 9.253a.284.284 0 0 0 .012.026c.46.933.548 1.743.268 2.407-.515 1.215-2.193 1.75-3.304 2.104-.271.086-.529.168-.732.249-2.217.879-2.401 1.78-2.314 2.24.149.784 1.192 1.33 2.037 1.33.23 0 .435-.041.606-.121.998-.468 1.896-.706 2.672-.706 1.071 0 1.539.451 1.596.51-.028.51-.061 1.041-.096 1.59-.223 3.556-.5 7.975.622 10.497 3.36 7.56 10.488 8.148 12.592 8.148l.923.009h.125c2.108 0 9.252-.588 12.615-8.153 1.12-2.523.843-6.945.62-10.498l-.01-.156c-.03-.494-.06-.974-.086-1.435.054-.055.485-.47 1.455-.508h.001c.74.028 1.587.265 2.518.702.273.128.576.155.782.155.316 0 .635-.061.9-.172l.016-.007c.753-.268 1.246-.797 1.257-1.35.01-.522-.387-1.305-2.331-2.075-.202-.08-.46-.162-.733-.25-1.112-.353-2.789-.888-3.303-2.103-.281-.664-.192-1.473.268-2.406l.012-.027c.14-.327 3.498-8.012 11-9.252a.552.552 0 0 0 .459-.575.932.932 0 0 0-.077-.314c-.31-.726-1.705-1.756-6.583-2.512-.399-.061-.554-.583-.792-1.675a16.892 16.892 0 0 0-.294-1.2c-.104-.356-.325-.523-.698-.523h-.06c-.26 0-.626.047-1.091.14-.827.16-1.753.31-2.931.31-.688 0-1.4-.06-2.116-.178-1.463-.245-2.706-1.125-4.022-2.058C32.07 1.399 30.096 0 27.02 0" id="path3652"/></g><g id="g3654" transform="matrix(1 0 0 -1 10 61)" fill="#030303"><path d="M27 48.918c1.995 0 8.866-.537 12.104-7.813 1.067-2.395.794-6.735.575-10.222-.036-.554-.069-1.09-.096-1.602l-.012-.22.147-.164c.058-.065.613-.646 1.845-.694l.021-.001.02.001c.815.031 1.733.284 2.731.753.145.068.342.102.548.102.236 0 .486-.044.693-.132l.031-.012c.523-.183.892-.53.898-.843.004-.178-.13-.815-1.982-1.549-.182-.072-.42-.148-.697-.235-1.205-.384-3.027-.963-3.64-2.41-.345-.817-.252-1.78.28-2.862.22-.51 3.66-8.283 11.407-9.562a.364.364 0 0 0-.032-.125c-.13-.31-.966-1.38-6.158-2.182-.813-.126-1.011-1.04-1.243-2.1a16.323 16.323 0 0 0-.285-1.16c-.035-.119-.041-.126-.17-.126h-.061c-.23 0-.58.048-.986.127a15.12 15.12 0 0 1-3.033.321c-.719 0-1.46-.063-2.204-.186-1.589-.265-2.881-1.181-4.25-2.15-1.837-1.303-3.738-2.649-6.636-2.649-.126 0-.25.004-.374.01l-.032.001-.033-.002a2.445 2.445 0 0 0-.216-.009c-2.898 0-4.799 1.346-6.636 2.648-1.369.97-2.661 1.886-4.25 2.151-.743.123-1.484.186-2.203.186-1.289 0-2.297-.196-3.034-.34-.405-.081-.755-.149-.986-.149-.187 0-.19.01-.23.147-.117.397-.203.79-.285 1.169-.231 1.062-.432 1.98-1.243 2.105-5.193.804-6.027 1.876-6.159 2.185a.37.37 0 0 0-.031.127c7.746 1.28 11.187 9.05 11.406 9.563.532 1.083.627 2.044.28 2.861-.612 1.448-2.433 2.027-3.64 2.41a11.27 11.27 0 0 0-.696.236c-1.566.62-2.047 1.244-1.974 1.623.082.436.837.88 1.495.88a.884.884 0 0 0 .373-.07c1.07-.501 2.047-.756 2.903-.756 1.345 0 1.946.627 2.01.7l.146.163-.013.218c-.027.512-.061 1.047-.096 1.6-.219 3.488-.492 7.825.575 10.22 3.225 7.25 10.062 7.809 12.081 7.809l.928.008.119.001m0 1.1h-.132l-.916-.008c-2.185 0-9.59-.61-13.083-8.46-1.176-2.642-.894-7.128-.668-10.732.027-.425.055-.866.079-1.293-.18-.1-.511-.225-1.03-.225-.694 0-1.513.219-2.437.653a1.97 1.97 0 0 1-.839.172c-1.08 0-2.374-.713-2.574-1.774-.145-.765.196-1.881 2.65-2.852a11.3 11.3 0 0 1 .768-.261c1.013-.323 2.545-.81 2.961-1.792.215-.508.129-1.163-.255-1.944a.852.852 0 0 1-.024-.054c-.135-.314-3.377-7.722-10.576-8.91a1.101 1.101 0 0 1-.918-1.147c.01-.168.049-.333.117-.495.54-1.265 2.819-2.194 6.969-2.839.139-.187.283-.851.371-1.256.087-.4.176-.811.304-1.246.124-.427.45-.937 1.284-.937.338 0 .736.078 1.197.169.691.135 1.638.32 2.823.32.657 0 1.339-.057 2.024-.17 1.339-.224 2.477-1.03 3.794-1.963 1.886-1.338 4.024-2.851 7.27-2.851.09 0 .18.002.269.01.105-.006.242-.01.387-.01 3.248 0 5.386 1.513 7.27 2.85 1.32.934 2.457 1.74 3.796 1.964.685.113 1.367.17 2.024.17 1.13 0 2.025-.143 2.822-.3.501-.098.903-.148 1.197-.148h.061c.617 0 1.052.327 1.224.919.126.425.215.826.304 1.232.088.404.231 1.065.37 1.252 4.15.645 6.428 1.572 6.968 2.832.069.162.11.33.119.498a1.1 1.1 0 0 1-.918 1.147c-7.202 1.19-10.442 8.596-10.576 8.91a.61.61 0 0 1-.025.053c-.384.782-.47 1.436-.254 1.944.415.982 1.947 1.47 2.96 1.79.284.091.55.177.769.263 1.795.71 2.696 1.583 2.677 2.594-.016.794-.632 1.502-1.613 1.852l-.003.001c-.329.138-.72.213-1.104.213-.262 0-.65-.036-1.014-.206-.854-.401-1.621-.62-2.283-.649-.439.02-.726.131-.89.222.021.365.045.742.069 1.135l.01.153c.227 3.607.508 8.097-.668 10.74-3.495 7.854-10.916 8.465-13.107 8.465" id="path3656"/></g></g></g><g id="Dollars" transform="translate(61)"><g id="Dollar" transform="translate(391 545)"><g id="Oval-7"><use fill="#000" filter="url(#filter-5)" xlink:href="#path-4"/><use fill="#3D2857" xlink:href="#path-4"/></g><path d="M43.866 24.298V35.81c.98.326 2.064.653 3.255.988 8.95 2.515 8.543 10.06 8.543 13.414 0 3.136-2.49 11.405-11.798 12.464v5.142h-4.068v-5.154c-6.15-.776-10.082-5.206-11.798-13.29l7.323-.42c0 2.487 2.032 4.712 4.475 5.958V42.808l-.407-.141c-7.323-2.515-10.713-7.127-10.17-13.834.98-6.564 4.505-10.163 10.577-10.797V15h4.068v3.032c6.071.61 9.597 4.07 10.577 10.382l-6.916.42c-1.031-2.363-2.322-3.794-3.661-4.536zm-4.068-.37c-1.849.634-3.314 2.274-3.662 4.067-.525 2.707.476 4.54 3.662 6.176V23.929zm4.068 32.033c1.568-.015 2.937-.608 3.661-1.976 2.047-3.866 2.663-6.553-3.661-9.543v11.52z" fill="#8970DE"/></g><g id="Dollar-Copy" transform="translate(339)"><circle id="Oval-7" fill="#3D2857" cx="37.5" cy="37.5" r="37.5"/><path d="M39.337 22.362v10.353c.886.293 1.864.587 2.94.888 8.088 2.262 7.72 9.048 7.72 12.064 0 2.82-2.25 10.257-10.66 11.208V61.5H35.66v-4.635c-5.557-.698-9.11-4.682-10.661-11.952l6.617-.377c0 2.236 1.837 4.237 4.044 5.357V39.008l-.368-.127c-6.617-2.262-9.68-6.409-9.19-12.44.885-5.904 4.071-9.14 9.558-9.71V14h3.676v2.727c5.486.548 8.672 3.66 9.558 9.336l-6.25.377c-.932-2.124-2.098-3.41-3.308-4.078zm-3.676-.332c-1.67.57-2.994 2.044-3.309 3.657-.475 2.434.43 4.082 3.309 5.554V22.03zm3.676 28.807c1.416-.013 2.654-.547 3.308-1.777 1.85-3.477 2.407-5.893-3.308-8.583v10.36z" id="Dollar" fill="#8970DE"/></g><g id="Dollar-Copy-2" transform="translate(42 524)"><circle id="Oval-7" fill="#3D2857" cx="21" cy="21" r="21"/><path d="M22.602 12.577v5.667c.532.16 1.119.321 1.765.486 4.852 1.238 4.631 4.953 4.631 6.603 0 1.544-1.35 5.615-6.396 6.136V34h-2.206v-2.537C17.063 31.08 14.93 28.9 14 24.92l3.97-.207c0 1.224 1.102 2.32 2.426 2.933v-5.958a39.021 39.021 0 0 0-.22-.07c-3.97-1.238-5.808-3.508-5.514-6.81.531-3.23 2.443-5.002 5.734-5.315V8h2.206v1.493c3.292.3 5.203 2.003 5.735 5.11l-3.75.207c-.56-1.163-1.259-1.868-1.985-2.233zm-2.206-.182c-1.002.312-1.796 1.12-1.985 2.002-.285 1.332.258 2.235 1.985 3.04v-5.042zm2.206 15.768c.85-.007 1.592-.299 1.985-.973 1.11-1.902 1.444-3.225-1.985-4.697v5.67z" id="Dollar" fill="#8970DE"/></g><g id="Dollar-Copy-4" transform="translate(602 343)"><circle id="Oval-7" fill="#3D2857" cx="21" cy="21" r="21"/><path d="M22.602 12.577v5.667c.532.16 1.119.321 1.765.486 4.852 1.238 4.631 4.953 4.631 6.603 0 1.544-1.35 5.615-6.396 6.136V34h-2.206v-2.537C17.063 31.08 14.93 28.9 14 24.92l3.97-.207c0 1.224 1.102 2.32 2.426 2.933v-5.958a39.021 39.021 0 0 0-.22-.07c-3.97-1.238-5.808-3.508-5.514-6.81.531-3.23 2.443-5.002 5.734-5.315V8h2.206v1.493c3.292.3 5.203 2.003 5.735 5.11l-3.75.207c-.56-1.163-1.259-1.868-1.985-2.233zm-2.206-.182c-1.002.312-1.796 1.12-1.985 2.002-.285 1.332.258 2.235 1.985 3.04v-5.042zm2.206 15.768c.85-.007 1.592-.299 1.985-.973 1.11-1.902 1.444-3.225-1.985-4.697v5.67z" id="Dollar" fill="#8970DE"/></g><g id="Dollar-Copy-3" transform="translate(0 251)"><circle id="Oval-7" fill="#3D2857" cx="21" cy="21" r="21"/><path d="M22.602 12.577v5.667c.532.16 1.119.321 1.765.486 4.852 1.238 4.631 4.953 4.631 6.603 0 1.544-1.35 5.615-6.396 6.136V34h-2.206v-2.537C17.063 31.08 14.93 28.9 14 24.92l3.97-.207c0 1.224 1.102 2.32 2.426 2.933v-5.958a39.021 39.021 0 0 0-.22-.07c-3.97-1.238-5.808-3.508-5.514-6.81.531-3.23 2.443-5.002 5.734-5.315V8h2.206v1.493c3.292.3 5.203 2.003 5.735 5.11l-3.75.207c-.56-1.163-1.259-1.868-1.985-2.233zm-2.206-.182c-1.002.312-1.796 1.12-1.985 2.002-.285 1.332.258 2.235 1.985 3.04v-5.042zm2.206 15.768c.85-.007 1.592-.299 1.985-.973 1.11-1.902 1.444-3.225-1.985-4.697v5.67z" id="Dollar" fill="#8970DE"/></g></g><g id="Page-1" transform="translate(346 299)"><path d="M27.39 30.147c1.895 0 3.473 1.543 3.483 3.406.011 1.926-1.6 3.525-3.525 3.502-1.833-.023-3.386-1.606-3.39-3.457-.006-1.886 1.552-3.451 3.432-3.451" id="Fill-1" fill="#FFF"/><path d="M27.414 15.674c-1.884 0-3.453-1.558-3.456-3.434-.003-1.907 1.59-3.501 3.482-3.482 1.87.019 3.433 1.604 3.433 3.479 0 1.868-1.579 3.437-3.459 3.437" id="Fill-3" fill="#FFF"/><path d="M12.279 23.961c1.952.001 3.475 1.493 3.46 3.391-.011 1.856-1.611 3.44-3.477 3.443-1.867.004-3.443-1.578-3.444-3.459-.002-1.92 1.49-3.375 3.46-3.375" id="Fill-5" fill="#FFF"/><path d="M12.242 21.859c-1.948-.003-3.439-1.491-3.426-3.418.012-1.871 1.607-3.436 3.482-3.418 1.868.018 3.448 1.616 3.438 3.475-.011 1.903-1.532 3.364-3.495 3.36" id="Fill-7" fill="#FFF"/><path d="M21.928 12.201c-.001 1.934-1.491 3.466-3.376 3.473-1.897.007-3.467-1.578-3.456-3.488.011-1.839 1.581-3.416 3.413-3.428 1.877-.014 3.42 1.54 3.419 3.443" id="Fill-9" fill="#FFF"/><path d="M21.928 33.61c0 1.872-1.525 3.436-3.359 3.443-1.89.009-3.476-1.584-3.473-3.485.004-1.868 1.579-3.427 3.457-3.421 1.899.005 3.375 1.52 3.375 3.463" id="Fill-11" fill="#FFF"/><path d="M33.697 23.961c1.947.001 3.371 1.422 3.371 3.365.001 1.921-1.515 3.467-3.4 3.47-1.843.001-3.439-1.606-3.441-3.466-.003-1.899 1.512-3.369 3.47-3.369" id="Fill-13" fill="#FFF"/><path d="M33.658 21.859c-1.928-.001-3.447-1.512-3.431-3.416.014-1.862 1.62-3.44 3.482-3.42 1.886.02 3.364 1.559 3.36 3.499-.006 1.919-1.457 3.338-3.41 3.337" id="Fill-15" fill="#FFF"/><path d="M39.41 14.697c.027-1.77 1.556-3.275 3.29-3.236 1.783.041 3.273 1.538 3.265 3.28-.01 1.833-1.54 3.356-3.338 3.321-1.803-.036-3.242-1.542-3.216-3.365" id="Fill-17" fill="#FFF"/><path d="M42.683 34.297A3.26 3.26 0 0 1 39.423 31c.016-1.76 1.537-3.281 3.268-3.27 1.775.013 3.305 1.543 3.309 3.309.005 1.786-1.497 3.26-3.317 3.258" id="Fill-19" fill="#FFF"/><path d="M3.274 34.313C1.48 34.306-.022 32.867.014 31.07c.039-1.947 1.453-3.301 3.329-3.32 1.737-.016 3.244 1.589 3.217 3.328-.027 1.776-1.517 3.242-3.286 3.235" id="Fill-21" fill="#FFF"/><g id="Group-25" transform="translate(0 10.82)"><mask id="mask-7" fill="#fff"><use xlink:href="#path-6"/></mask><path d="M3.278 7.247C1.55 7.258.032 5.744 0 3.975-.03 2.207 1.51.643 3.278.645 5.018.65 6.531 2.16 6.56 3.918c.028 1.764-1.504 3.319-3.282 3.33" id="Fill-23" fill="#FFF" mask="url(#mask-7)"/></g><path d="M14.783 6.484c-1.774-.005-3.309-1.52-3.279-3.24A3.303 3.303 0 0 1 14.837 0a3.24 3.24 0 0 1 3.25 3.243c.005 1.816-1.453 3.246-3.304 3.241" id="Fill-26" fill="#FFF"/><path d="M14.814 45.82c-1.784-.002-3.271-1.472-3.277-3.236-.006-1.778 1.503-3.25 3.326-3.247 1.779.003 3.278 1.48 3.284 3.238.006 1.784-1.498 3.249-3.333 3.246" id="Fill-28" fill="#FFF"/><path d="M34.399 3.277c-.003 1.787-1.456 3.21-3.275 3.207-1.798-.002-3.265-1.435-3.293-3.217-.028-1.776 1.483-3.27 3.302-3.267 1.845.003 3.269 1.433 3.266 3.277" id="Fill-30" fill="#FFF"/><path d="M31.178 39.338c1.805 0 3.3 1.457 3.289 3.204-.012 1.756-1.512 3.263-3.262 3.276-1.838.014-3.308-1.46-3.306-3.313.002-1.802 1.415-3.167 3.28-3.167" id="Fill-32" fill="#FFF"/></g></g></g></g></g></svg>