<?xml version="1.0" encoding="UTF-8"?>
<!DOCTYPE svg PUBLIC "-//W3C//DTD SVG 1.1//EN" "http://www.w3.org/Graphics/SVG/1.1/DTD/svg11.dtd">
<!-- Creator: CorelDRAW 2018 (64-Bit) -->
<svg xmlns="http://www.w3.org/2000/svg" xml:space="preserve" width="52.6626mm" height="52.6626mm" version="1.1" style="shape-rendering:geometricPrecision; text-rendering:geometricPrecision; image-rendering:optimizeQuality; fill-rule:evenodd; clip-rule:evenodd"
viewBox="0 0 5266.26 5266.26"
 xmlns:xlink="http://www.w3.org/1999/xlink">
 <defs>
  <style type="text/css">
   <![CDATA[
    .str0 {stroke:black;stroke-width:26.46;stroke-miterlimit:22.9256;stroke-opacity:0.000000}
    .fil11 {fill:#FFED00}
    .fil14 {fill:#F5B2B6}
    .fil9 {fill:#EF7F1A}
    .fil15 {fill:#E5097F}
    .fil8 {fill:#E31E24}
    .fil7 {fill:#AE4A84}
    .fil12 {fill:#7E71B1}
    .fil13 {fill:#00A0E3}
    .fil10 {fill:#393185}
    .fil21 {fill:#00A6FE}
    .fil4 {fill:#2FEB6B}
    .fil19 {fill:#4FBF20}
    .fil3 {fill:#52EB82}
    .fil16 {fill:#6556E2}
    .fil2 {fill:#71F099}
    .fil1 {fill:#88F0A9}
    .fil0 {fill:#9CF0B7}
    .fil6 {fill:#F1FFEB}
    .fil5 {fill:#F4F4F4}
    .fil17 {fill:#F7595A}
    .fil22 {fill:#00A6FE;fill-opacity:0.000000}
    .fil20 {fill:#4FBF20;fill-opacity:0.000000}
    .fil18 {fill:#F7595A;fill-opacity:0.000000}
   ]]>
  </style>
 </defs>
 <g id="Слой_x0020_1">
  <metadata id="CorelCorpID_0Corel-Layer"/>
  <circle class="fil0" cx="2633.13" cy="2641.6" r="2159"/>
  <ellipse class="fil1" cx="2633.13" cy="2641.61" rx="1735.66" ry="1735.67"/>
  <ellipse class="fil2" cx="2633.13" cy="2641.6" rx="1312.33" ry="1312.32"/>
  <circle class="fil3" cx="2624.66" cy="2641.6" r="888.99"/>
  <ellipse class="fil4" cx="2633.13" cy="2633.13" rx="465.66" ry="465.65"/>
  <circle class="fil5" cx="2556.71" cy="2443.17" r="32.71"/>
  <circle class="fil5" cx="2712.99" cy="2443.17" r="32.71"/>
  <circle class="fil6" cx="4242.21" cy="3293.51" r="522.45"/>
  <circle class="fil6" cx="3191.43" cy="998.5" r="525.42"/>
  <circle class="fil5" cx="2593.18" cy="2531.19" r="32.71"/>
  <circle class="fil5" transform="matrix(0.70055 0.852295 -0.852295 0.70055 2534.24 2590.13)" r="29.63"/>
  <circle class="fil5" transform="matrix(0.70055 0.852295 -0.852295 0.70055 2534.25 2673.48)" r="29.63"/>
  <circle class="fil5" transform="matrix(0.70055 0.852295 -0.852295 0.70055 2593.18 2732.42)" r="29.63"/>
  <circle class="fil5" transform="matrix(0.70055 0.852295 -0.852295 0.70055 2676.53 2732.42)" r="29.63"/>
  <circle class="fil5" transform="matrix(0.70055 0.852295 -0.852295 0.70055 2735.47 2673.48)" r="29.63"/>
  <circle class="fil5" transform="matrix(0.70055 0.852295 -0.852295 0.70055 2735.46 2590.13)" r="29.63"/>
  <circle class="fil5" transform="matrix(0.70055 0.852295 -0.852295 0.70055 2676.53 2531.19)" r="29.63"/>
  <circle class="fil5" cx="2446.22" cy="2553.67" r="32.71"/>
  <circle class="fil5" cx="2446.22" cy="2709.95" r="32.71"/>
  <circle class="fil5" cx="2556.72" cy="2820.44" r="32.71"/>
  <circle class="fil5" cx="2713" cy="2820.44" r="32.71"/>
  <circle class="fil5" cx="2823.49" cy="2709.94" r="32.71"/>
  <circle class="fil5" cx="2823.49" cy="2553.66" r="32.71"/>
  <circle class="fil6" cx="2268.23" cy="3899.66" r="522.92"/>
  <circle class="fil6" cx="1267" cy="2234.87" r="525.27"/>
 </g>
 <g id="Слой_x0020_2">
  <metadata id="CorelCorpID_1Corel-Layer"/>
  <ellipse class="fil7" cx="1938.86" cy="2717.8" rx="55.04" ry="55.03"/>
  <ellipse class="fil8" cx="1811.86" cy="1346.2" rx="55.04" ry="55.03"/>
  <ellipse class="fil9" cx="1329.26" cy="3547.53" rx="55.04" ry="55.03"/>
  <ellipse class="fil10" cx="3866.39" cy="2390.35" rx="55.04" ry="55.03"/>
  <ellipse class="fil11" cx="3727.97" cy="3988.47" rx="55.04" ry="55.03"/>
  <ellipse class="fil12" cx="4402.66" cy="1794.93" rx="55.04" ry="55.03"/>
  <ellipse class="fil13" cx="2698.12" cy="1810.63" rx="55.04" ry="55.03"/>
  <ellipse class="fil14" cx="3056.46" cy="4157.13" rx="55.04" ry="55.03"/>
  <ellipse class="fil15" cx="488.36" cy="2890.79" rx="55.04" ry="55.03"/>
  <ellipse class="fil11" cx="1121.84" cy="804.33" rx="55.04" ry="55.03"/>
  <path class="fil16" d="M1215.98 2471.43l111.41 0 0 -595.22 -0.06 0c0,-30.74 -24.91,-55.66 -55.65,-55.66 -30.73,0 -55.64,24.92 -55.64,55.66l-0.06 0 0 595.22z"/>
  <path class="fil16" d="M1398.28 2471.2l110.94 0 0 -471.33c0.12,-1.46 0.18,-2.94 0.18,-4.43 0,-30.74 -24.92,-55.66 -55.65,-55.66 -30.73,0 -55.64,24.92 -55.64,55.66 0,1.49 0.05,2.97 0.17,4.43l0 471.33z"/>
  <path class="fil16" d="M1033.8 2471.2l111.29 0 0 -369.42c0,-30.74 -24.91,-55.66 -55.65,-55.66 -30.73,0 -55.64,24.92 -55.64,55.66l0 369.42z"/>
  <path class="fil16" d="M954.51 2543.71l11.27 0 623.77 0 0 -0.01c9.76,0 17.66,-7.91 17.66,-17.66 0,-9.75 -7.9,-17.66 -17.66,-17.66l0 -0.01 -635.04 0 0 0.03c-9.4,0.4 -16.89,8.14 -16.89,17.64 0,9.49 7.49,17.24 16.89,17.64l0 0.03z"/>
  <path class="fil17" d="M3234.59 754.98l19.66 4.75 19.01 6.39 18.35 8.02 17.53 9.67 16.71 10.97 15.73 12.46 14.57 13.76 13.28 14.9 12.12 16.06 10.65 17.2 9.01 18.19 7.54 19 5.73 19.82 3.76 20.65 0.33 1.96 0.17 1.97 0.32 1.96 0.17 1.97 0.16 1.96 0.17 1.81 0.16 1.96 0.17 1.81 0.16 1.8 0.16 1.8 0.16 1.8 0.17 1.64 0.16 1.64 0 1.64 0.17 1.47 0.16 1.48 0 1.47 0.16 1.31 0 0.16 -0.49 11.64 -0.81 11.3 -1.32 10.98 -1.8 10.81 -2.13 10.65 -2.62 10.32 -2.95 9.99 -3.61 9.83 -3.76 9.66 -4.42 9.34 -4.76 9.18 -5.07 8.85 -5.74 8.68 -6.06 8.36 -6.55 8.35 -6.89 7.86 -7.53 7.87 -7.86 7.53 -4.1 3.77 -3.93 3.61 -4.1 3.76 -3.93 3.77 -3.93 3.77 -3.93 3.93 -3.77 3.77 -3.77 3.93 -3.76 4.09 -3.61 3.93 -3.6 4.26 -3.44 4.1 -3.45 4.26 -3.1 4.42 -3.28 4.43 -2.95 4.58 -2.95 4.75 -2.79 4.76 -0.33 0.49 -0.32 0.33 -0.33 0.48 -0.32 0.33 -0.33 0.5 -0.5 0.33 -0.33 0.32 -0.48 0.49 -0.33 0.33 -0.49 0.33 -0.5 0.33 -0.49 0.16 -0.49 0.33 -0.49 0.33 -0.49 0.16 -0.5 0.16 -0.48 0.33 -0.49 0.16 -8.85 3.45 -9.01 2.94 -9.01 2.62 -9.18 2.13 -9.17 1.97 -9.17 1.47 -9.35 0.99 -9.33 0.66 -9.34 0.32 -9.34 0 -9.34 -0.49 -9.33 -0.82 -9.18 -1.31 -9.34 -1.64 -9.17 -1.97 -9.01 -2.45 -9.01 -2.79 -9.01 -3.11 -0.66 -0.33 -0.65 -0.32 -0.66 -0.33 -0.66 -0.49 -0.65 -0.33 -0.65 -0.5 -0.66 -0.48 -0.65 -0.49 -0.66 -0.5 -0.49 -0.66 -0.66 -0.48 -0.49 -0.66 -0.49 -0.49 -0.66 -0.66 -0.33 -0.65 -0.48 -0.49 -0.49 -0.66 -0.33 -0.65 -2.63 -4.1 -2.62 -4.1 -2.62 -4.09 -2.78 -3.93 -2.95 -3.93 -2.79 -3.93 -3.11 -3.78 -2.95 -3.76 -3.11 -3.77 -3.11 -3.6 -3.28 -3.78 -3.28 -3.43 -3.27 -3.61 -3.45 -3.44 -3.43 -3.44 -3.61 -3.28 -3.6 -3.27 -3.6 -3.28 -11.47 -10.81 -10.65 -11.14 -9.67 -11.3 -9.01 -11.64 -8.03 -11.95 -7.2 -12.29 -6.23 -12.45 -5.41 -12.78 -4.59 -12.94 -3.6 -13.27 -2.78 -13.6 -1.8 -13.76 -0.99 -14.09 0 -14.25 0.99 -14.58 1.8 -14.75 2.78 -15.07 3.77 -15.24 4.59 -14.91 5.24 -14.25 5.9 -13.6 6.72 -12.94 7.2 -12.28 8.03 -11.47 8.52 -10.98 9.34 -10.15 9.83 -9.51 10.48 -8.84 11.14 -8.03 11.8 -7.53 12.45 -6.72 12.94 -6.23 13.6 -5.41 14.09 -4.59 14.74 -4.09 15.24 -3.27 20.8 -2.95 20.48 -0.99 20.48 1.15 19.98 2.79zm-68.31 129.42l-1.96 0.82 -2.13 0.82 -1.97 0.82 -1.8 0.81 -1.97 0.82 -1.97 0.82 -1.8 0.82 -1.8 0.82 -1.8 0.82 -1.8 0.82 -1.64 0.98 -1.81 0.98 -5.07 3.45 -4.59 3.6 -4.09 3.93 -3.61 4.1 -3.11 4.42 -2.62 4.75 -2.13 4.92 -1.64 5.24 -1.15 5.41 -0.81 5.73 -0.33 5.89 0.16 6.07 0.33 5.24 0.98 5.08 1.31 4.91 1.97 4.75 2.29 4.59 2.78 4.26 3.29 3.93 3.6 3.61 3.93 3.11 4.26 2.95 4.58 2.29 4.92 1.97 2.62 0.98 2.78 1.15 2.63 0.98 2.78 0.82 2.79 0.98 2.62 0.82 2.78 0.99 2.79 0.81 2.78 0.82 2.79 0.82 2.62 0.82 2.79 0.99 2.78 0.81 2.78 0.99 2.79 0.82 2.79 0.81 2.78 0.82 2.79 0.82 2.78 0.99 2.62 0.82 2.78 1.14 2.63 0.99 2.62 1.14 2.46 1.31 1.31 0.82 1.14 0.99 1.15 1.14 0.98 1.15 0.99 1.47 0.98 1.47 0.98 1.48 0.66 1.64 0.82 1.64 0.49 1.63 0.49 1.48 0.33 1.64 0.33 1.96 -0.17 1.97 -0.33 1.8 -0.65 1.64 -0.82 1.64 -1.15 1.47 -1.31 1.31 -1.47 1.15 -1.64 0.98 -1.64 0.99 -1.8 0.65 -1.96 0.49 -2.3 0.49 -2.29 0.5 -2.3 0.33 -2.29 0.49 -2.29 0.16 -2.46 0.32 -2.3 0.17 -2.29 0 -2.3 0 -2.29 -0.17 -2.13 -0.32 -2.29 -0.33 -3.6 -0.82 -3.61 -1.14 -3.6 -0.99 -3.61 -1.14 -3.6 -1.32 -3.61 -1.3 -3.76 -1.48 -3.61 -1.31 -3.6 -1.47 -3.77 -1.32 -3.77 -1.47 -3.93 -1.31 -23.92 31.62 -0.16 0 0.82 0.49 0.82 0.65 0.65 0.49 0.66 0.5 0.81 0.49 0.66 0.49 0.66 0.49 0.65 0.49 0.49 0.5 0.66 0.32 0.65 0.49 0.66 0.33 1.47 0.82 1.48 0.82 1.31 0.98 1.47 0.99 1.48 0.81 1.47 0.82 1.48 0.82 1.47 0.82 1.48 0.66 1.47 0.65 1.64 0.49 1.47 0.33 4.76 0.99 4.42 1.3 3.77 1.64 3.27 1.81 2.79 2.29 2.29 2.62 1.8 2.95 1.32 3.27 0.81 3.78 0.33 4.09 -0.17 4.43 -0.81 4.74 0 0.17 0 0.16 0.16 0.16 0 0.17 0 0.16 0.16 0.17 0.17 0.16 0 0.17 0.32 0.65 0.17 0.33 43.58 0 0.16 -0.33 0.17 -0.49 0 -0.33 0.16 -0.16 0.17 -0.33 0.16 -0.17 0 -0.32 0.16 -0.17 0 -0.16 0 -0.16 0 -0.17 0 -0.16 -0.32 -4.09 -0.17 -3.61 0.33 -3.44 0.65 -3.12 0.99 -2.78 1.47 -2.62 1.8 -2.46 2.46 -2.13 2.78 -1.96 3.28 -1.64 3.77 -1.64 4.26 -1.48 6.06 -2.29 5.4 -2.62 4.75 -3.28 4.43 -3.76 3.77 -4.1 3.28 -4.75 2.78 -4.92 2.29 -5.4 1.81 -5.74 1.3 -6.06 0.83 -6.22 0.32 -6.55 -0.16 -6.23 -0.66 -6.06 -1.14 -5.57 -1.64 -5.24 -2.3 -4.92 -2.78 -4.42 -3.11 -4.26 -3.77 -3.93 -4.26 -3.61 -4.59 -3.11 -5.24 -2.95 -5.57 -2.62 -2.62 -1.15 -2.79 -0.98 -2.62 -0.98 -2.78 -0.99 -2.62 -0.81 -2.79 -0.99 -2.78 -0.82 -2.79 -0.98 -2.62 -0.82 -2.79 -0.82 -2.78 -0.98 -2.79 -0.82 -2.62 -0.82 -2.78 -0.98 -2.78 -0.82 -2.79 -0.82 -2.79 -0.82 -2.78 -0.82 -2.62 -0.82 -2.79 -0.98 -2.62 -0.99 -2.78 -1.14 -2.46 -1.15 -2.62 -1.31 -1.15 -0.82 -1.31 -0.98 -1.14 -1.15 -0.99 -1.47 -1.14 -1.31 -0.83 -1.64 -0.82 -1.64 -0.81 -1.64 -0.5 -1.63 -0.32 -1.48 -0.33 -1.64 0 -1.47 0.16 -1.32 0.49 -1.3 0.5 -1.31 0.81 -1.32 0.99 -1.14 0.98 -1.31 1.15 -1.31 1.31 -1.15 1.31 -1.15 1.31 -1.14 1.15 -0.99 1.31 -0.82 1.14 -0.65 1.15 -0.49 1.31 -0.49 1.48 -0.33 1.31 -0.33 1.47 -0.16 1.48 -0.17 1.47 -0.16 1.47 0 1.32 0.16 1.47 0.17 1.31 0.16 3.61 0.66 3.6 0.82 3.44 0.65 3.6 0.82 3.6 0.98 3.61 0.82 3.61 0.99 3.6 0.81 3.77 0.99 3.6 0.98 3.77 0.98 3.76 0.99 21.79 -34.73 -40.95 -16.39 -0.98 -21.62 -46.04 0 0 22.28z"/>
  <path class="fil18 str0" d="M3234.59 754.98l19.66 4.75 19.01 6.39 18.35 8.02 17.53 9.67 16.71 10.97 15.73 12.46 14.57 13.76 13.28 14.9 12.12 16.06 10.65 17.2 9.01 18.19 7.54 19 5.73 19.82 3.76 20.65 0.33 1.96 0.17 1.97 0.32 1.96 0.17 1.97 0.16 1.96 0.17 1.81 0.16 1.96 0.17 1.81 0.16 1.8 0.16 1.8 0.16 1.8 0.17 1.64 0.16 1.64 0 1.64 0.17 1.47 0.16 1.48 0 1.47 0.16 1.31 0 0.16 -0.49 11.64 -0.81 11.3 -1.32 10.98 -1.8 10.81 -2.13 10.65 -2.62 10.32 -2.95 9.99 -3.61 9.83 -3.76 9.66 -4.42 9.34 -4.76 9.18 -5.07 8.85 -5.74 8.68 -6.06 8.36 -6.55 8.35 -6.89 7.86 -7.53 7.87 -7.86 7.53 -4.1 3.77 -3.93 3.61 -4.1 3.76 -3.93 3.77 -3.93 3.77 -3.93 3.93 -3.77 3.77 -3.77 3.93 -3.76 4.09 -3.61 3.93 -3.6 4.26 -3.44 4.1 -3.45 4.26 -3.1 4.42 -3.28 4.43 -2.95 4.58 -2.95 4.75 -2.79 4.76 -0.33 0.49 -0.32 0.33 -0.33 0.48 -0.32 0.33 -0.33 0.5 -0.5 0.33 -0.33 0.32 -0.48 0.49 -0.33 0.33 -0.49 0.33 -0.5 0.33 -0.49 0.16 -0.49 0.33 -0.49 0.33 -0.49 0.16 -0.5 0.16 -0.48 0.33 -0.49 0.16 -8.85 3.45 -9.01 2.94 -9.01 2.62 -9.18 2.13 -9.17 1.97 -9.17 1.47 -9.35 0.99 -9.33 0.66 -9.34 0.32 -9.34 0 -9.34 -0.49 -9.33 -0.82 -9.18 -1.31 -9.34 -1.64 -9.17 -1.97 -9.01 -2.45 -9.01 -2.79 -9.01 -3.11 -0.66 -0.33 -0.65 -0.32 -0.66 -0.33 -0.66 -0.49 -0.65 -0.33 -0.65 -0.5 -0.66 -0.48 -0.65 -0.49 -0.66 -0.5 -0.49 -0.66 -0.66 -0.48 -0.49 -0.66 -0.49 -0.49 -0.66 -0.66 -0.33 -0.65 -0.48 -0.49 -0.49 -0.66 -0.33 -0.65 -2.63 -4.1 -2.62 -4.1 -2.62 -4.09 -2.78 -3.93 -2.95 -3.93 -2.79 -3.93 -3.11 -3.78 -2.95 -3.76 -3.11 -3.77 -3.11 -3.6 -3.28 -3.78 -3.28 -3.43 -3.27 -3.61 -3.45 -3.44 -3.43 -3.44 -3.61 -3.28 -3.6 -3.27 -3.6 -3.28 -11.47 -10.81 -10.65 -11.14 -9.67 -11.3 -9.01 -11.64 -8.03 -11.95 -7.2 -12.29 -6.23 -12.45 -5.41 -12.78 -4.59 -12.94 -3.6 -13.27 -2.78 -13.6 -1.8 -13.76 -0.99 -14.09 0 -14.25 0.99 -14.58 1.8 -14.75 2.78 -15.07 3.77 -15.24 4.59 -14.91 5.24 -14.25 5.9 -13.6 6.72 -12.94 7.2 -12.28 8.03 -11.47 8.52 -10.98 9.34 -10.15 9.83 -9.51 10.48 -8.84 11.14 -8.03 11.8 -7.53 12.45 -6.72 12.94 -6.23 13.6 -5.41 14.09 -4.59 14.74 -4.09 15.24 -3.27 20.8 -2.95 20.48 -0.99 20.48 1.15 19.98 2.79zm-68.31 129.42l-1.96 0.82 -2.13 0.82 -1.97 0.82 -1.8 0.81 -1.97 0.82 -1.97 0.82 -1.8 0.82 -1.8 0.82 -1.8 0.82 -1.8 0.82 -1.64 0.98 -1.81 0.98 -5.07 3.45 -4.59 3.6 -4.09 3.93 -3.61 4.1 -3.11 4.42 -2.62 4.75 -2.13 4.92 -1.64 5.24 -1.15 5.41 -0.81 5.73 -0.33 5.89 0.16 6.07 0.33 5.24 0.98 5.08 1.31 4.91 1.97 4.75 2.29 4.59 2.78 4.26 3.29 3.93 3.6 3.61 3.93 3.11 4.26 2.95 4.58 2.29 4.92 1.97 2.62 0.98 2.78 1.15 2.63 0.98 2.78 0.82 2.79 0.98 2.62 0.82 2.78 0.99 2.79 0.81 2.78 0.82 2.79 0.82 2.62 0.82 2.79 0.99 2.78 0.81 2.78 0.99 2.79 0.82 2.79 0.81 2.78 0.82 2.79 0.82 2.78 0.99 2.62 0.82 2.78 1.14 2.63 0.99 2.62 1.14 2.46 1.31 1.31 0.82 1.14 0.99 1.15 1.14 0.98 1.15 0.99 1.47 0.98 1.47 0.98 1.48 0.66 1.64 0.82 1.64 0.49 1.63 0.49 1.48 0.33 1.64 0.33 1.96 -0.17 1.97 -0.33 1.8 -0.65 1.64 -0.82 1.64 -1.15 1.47 -1.31 1.31 -1.47 1.15 -1.64 0.98 -1.64 0.99 -1.8 0.65 -1.96 0.49 -2.3 0.49 -2.29 0.5 -2.3 0.33 -2.29 0.49 -2.29 0.16 -2.46 0.32 -2.3 0.17 -2.29 0 -2.3 0 -2.29 -0.17 -2.13 -0.32 -2.29 -0.33 -3.6 -0.82 -3.61 -1.14 -3.6 -0.99 -3.61 -1.14 -3.6 -1.32 -3.61 -1.3 -3.76 -1.48 -3.61 -1.31 -3.6 -1.47 -3.77 -1.32 -3.77 -1.47 -3.93 -1.31 -23.92 31.62 -0.16 0 0.82 0.49 0.82 0.65 0.65 0.49 0.66 0.5 0.81 0.49 0.66 0.49 0.66 0.49 0.65 0.49 0.49 0.5 0.66 0.32 0.65 0.49 0.66 0.33 1.47 0.82 1.48 0.82 1.31 0.98 1.47 0.99 1.48 0.81 1.47 0.82 1.48 0.82 1.47 0.82 1.48 0.66 1.47 0.65 1.64 0.49 1.47 0.33 4.76 0.99 4.42 1.3 3.77 1.64 3.27 1.81 2.79 2.29 2.29 2.62 1.8 2.95 1.32 3.27 0.81 3.78 0.33 4.09 -0.17 4.43 -0.81 4.74 0 0.17 0 0.16 0.16 0.16 0 0.17 0 0.16 0.16 0.17 0.17 0.16 0 0.17 0.32 0.65 0.17 0.33 43.58 0 0.16 -0.33 0.17 -0.49 0 -0.33 0.16 -0.16 0.17 -0.33 0.16 -0.17 0 -0.32 0.16 -0.17 0 -0.16 0 -0.16 0 -0.17 0 -0.16 -0.32 -4.09 -0.17 -3.61 0.33 -3.44 0.65 -3.12 0.99 -2.78 1.47 -2.62 1.8 -2.46 2.46 -2.13 2.78 -1.96 3.28 -1.64 3.77 -1.64 4.26 -1.48 6.06 -2.29 5.4 -2.62 4.75 -3.28 4.43 -3.76 3.77 -4.1 3.28 -4.75 2.78 -4.92 2.29 -5.4 1.81 -5.74 1.3 -6.06 0.83 -6.22 0.32 -6.55 -0.16 -6.23 -0.66 -6.06 -1.14 -5.57 -1.64 -5.24 -2.3 -4.92 -2.78 -4.42 -3.11 -4.26 -3.77 -3.93 -4.26 -3.61 -4.59 -3.11 -5.24 -2.95 -5.57 -2.62 -2.62 -1.15 -2.79 -0.98 -2.62 -0.98 -2.78 -0.99 -2.62 -0.81 -2.79 -0.99 -2.78 -0.82 -2.79 -0.98 -2.62 -0.82 -2.79 -0.82 -2.78 -0.98 -2.79 -0.82 -2.62 -0.82 -2.78 -0.98 -2.78 -0.82 -2.79 -0.82 -2.79 -0.82 -2.78 -0.82 -2.62 -0.82 -2.79 -0.98 -2.62 -0.99 -2.78 -1.14 -2.46 -1.15 -2.62 -1.31 -1.15 -0.82 -1.31 -0.98 -1.14 -1.15 -0.99 -1.47 -1.14 -1.31 -0.83 -1.64 -0.82 -1.64 -0.81 -1.64 -0.5 -1.63 -0.32 -1.48 -0.33 -1.64 0 -1.47 0.16 -1.32 0.49 -1.3 0.5 -1.31 0.81 -1.32 0.99 -1.14 0.98 -1.31 1.15 -1.31 1.31 -1.15 1.31 -1.15 1.31 -1.14 1.15 -0.99 1.31 -0.82 1.14 -0.65 1.15 -0.49 1.31 -0.49 1.48 -0.33 1.31 -0.33 1.47 -0.16 1.48 -0.17 1.47 -0.16 1.47 0 1.32 0.16 1.47 0.17 1.31 0.16 3.61 0.66 3.6 0.82 3.44 0.65 3.6 0.82 3.6 0.98 3.61 0.82 3.61 0.99 3.6 0.81 3.77 0.99 3.6 0.98 3.77 0.98 3.76 0.99 21.79 -34.73 -40.95 -16.39 -0.98 -21.62 -46.04 0 0 22.28z"/>
  <path class="fil17" d="M3471.16 1096.88c24.09,24.08 37.52,37.51 40.14,40.14 -64.88,141.22 -214.61,223.29 -368.61,201.83 -175.79,-24.41 -307.01,-174.15 -307.99,-351.57 -2.62,0 -15.4,0 -38.5,0l70.44 -82.24 70.29 81.91c-27.52,0 -42.92,0 -46.04,0 -5.08,98.95 59.14,235.91 203.47,285.06 152.2,51.28 317.99,-25.72 376.8,-175.13z"/>
  <path class="fil18 str0" d="M3471.16 1096.88c24.09,24.08 37.52,37.51 40.14,40.14 -64.88,141.22 -214.61,223.29 -368.61,201.83 -175.79,-24.41 -307.01,-174.15 -307.99,-351.57 -2.62,0 -15.4,0 -38.5,0l70.44 -82.24 70.29 81.91c-27.52,0 -42.92,0 -46.04,0 -5.08,98.95 59.14,235.91 203.47,285.06 152.2,51.28 317.99,-25.72 376.8,-175.13z"/>
  <g>
   <path class="fil17" d="M3546.69 987.11l37.19 0 -69.96 81.43 -69.46 -80.93c27.19,0 42.43,0 45.37,0 6.23,-90.6 -50.94,-231 -197.08,-283.91 -152.85,-55.7 -322.24,20.48 -382.37,171.69 -3.93,-4.1 -36.03,-36.21 -40.13,-40.14 63.56,-137.62 208.22,-218.87 358.78,-201.83 180.69,19.49 317.66,172.01 317.82,353.69l-0.16 0zm0 0l0 0 0 0z"/>
  </g>
  <path class="fil18 str0" d="M3546.69 987.11l37.19 0 -69.96 81.43 -69.46 -80.93c27.19,0 42.43,0 45.37,0 6.23,-90.6 -50.94,-231 -197.08,-283.91 -152.85,-55.7 -322.24,20.48 -382.37,171.69 -3.93,-4.1 -36.03,-36.21 -40.13,-40.14 63.56,-137.62 208.22,-218.87 358.78,-201.83 180.69,19.49 317.66,172.01 317.82,353.69m-0.16 0l0 0 0 0z"/>
  <path class="fil17" d="M3080.6 1356.22c71.27,22.6 147.93,22.6 219.2,0.32 0,13.93 3.28,28.18 -1.14,39.32 -3.78,9.67 -15.57,16.71 -24.91,23.43 -4.42,3.11 -11.47,2.45 -17.53,3.28 -14.74,1.8 -27.85,4.25 -39.48,17.53 -15.89,18.5 -46.2,14.41 -60.61,-5.74 -5.08,-6.88 -10.49,-9.34 -18.35,-9.99 -10.49,-0.99 -20.81,-2.63 -31.13,-4.92 -14.91,-4.1 -25.4,-17.37 -26.05,-32.76 0,-1.97 0,-12.13 0,-30.47z"/>
  <path class="fil18 str0" d="M3080.6 1356.22c71.27,22.6 147.93,22.6 219.2,0.32 0,13.93 3.28,28.18 -1.14,39.32 -3.78,9.67 -15.57,16.71 -24.91,23.43 -4.42,3.11 -11.47,2.45 -17.53,3.28 -14.74,1.8 -27.85,4.25 -39.48,17.53 -15.89,18.5 -46.2,14.41 -60.61,-5.74 -5.08,-6.88 -10.49,-9.34 -18.35,-9.99 -10.49,-0.99 -20.81,-2.63 -31.13,-4.92 -14.91,-4.1 -25.4,-17.37 -26.05,-32.76 0,-1.97 0,-12.13 0,-30.47z"/>
  <polygon class="fil17" points="3163.66,558.06 3219.36,558.06 3219.36,501.7 3163.66,501.7 "/>
  <polygon class="fil18 str0" points="3163.66,558.06 3219.36,558.06 3219.36,501.7 3163.66,501.7 "/>
  <polygon class="fil17" points="2876.8,1251.53 2914.97,1289.21 2876.64,1327.55 2838.63,1289.54 "/>
  <polygon class="fil18 str0" points="2876.8,1251.53 2914.97,1289.21 2876.64,1327.55 2838.63,1289.54 "/>
  <polygon class="fil17" points="3620.57,1003.01 3676.93,1003.01 3676.93,947.64 3620.57,947.64 "/>
  <polygon class="fil18 str0" points="3620.57,1003.01 3676.93,1003.01 3676.93,947.64 3620.57,947.64 "/>
  <polygon class="fil17" points="2837.65,660.28 2876.15,622.93 2913.01,659.96 2875,697.96 "/>
  <polygon class="fil18 str0" points="2837.65,660.28 2876.15,622.93 2913.01,659.96 2875,697.96 "/>
  <polygon class="fil17" points="3544.39,661.43 3507.2,698.13 3469.69,660.45 3506.87,623.26 "/>
  <polygon class="fil18 str0" points="3544.39,661.43 3507.2,698.13 3469.69,660.45 3506.87,623.26 "/>
  <path class="fil17" d="M3468.54 1289.05c23.26,-23.11 36.04,-35.88 38.66,-38.5 12.45,12.45 24.91,25.06 37.19,37.51 -2.62,2.46 -15.56,15.24 -38.99,38.17l-36.86 -37.18z"/>
  <path class="fil18 str0" d="M3468.54 1289.05c23.26,-23.11 36.04,-35.88 38.66,-38.5 12.45,12.45 24.91,25.06 37.19,37.51 -2.62,2.46 -15.56,15.24 -38.99,38.17l-36.86 -37.18z"/>
  <polygon class="fil17" points="2707.73,1002.51 2762.94,1002.51 2762.94,946.82 2707.73,946.82 "/>
  <polygon class="fil18 str0" points="2707.73,1002.51 2762.94,1002.51 2762.94,946.82 2707.73,946.82 "/>
  <path class="fil19" d="M2276.14 3572.89l0.59 0 0.47 0 0.47 0.11 0.47 0 0.47 0 0.47 0.12 0.47 0 0.47 0.12 0.47 0 0.47 0.12 0.48 0 0.46 0.12 0.47 0.12 0.36 0 0.47 0.11 0.47 0.12 0.47 0.12 0.47 0.11 0.35 0.12 0.47 0.12 6.12 1.65 6 1.53 6.11 1.53 6.12 1.29 6.12 1.29 6.11 1.18 6.12 1.06 6.23 1.06 6.12 0.93 6.23 0.83 6.12 0.7 6.23 0.59 6.23 0.59 6.24 0.47 6.11 0.35 6.24 0.24 6.23 0.12 6.23 0.12 6.24 0 6.23 -0.12 6.24 -0.24 6.11 -0.23 6.24 -0.36 6.23 -0.47 6.24 -0.59 6.11 -0.7 6.23 -0.7 6.12 -0.83 6.23 -0.94 6.12 -1.06 6.12 -1.18 6.11 -1.17 6.12 -1.3 6.11 -1.41 6.12 -1.41 6.12 -1.64 5.99 -1.65 0.6 -0.12 0.58 -0.11 0.59 -0.12 0.47 -0.12 0.47 -0.12 0.59 -0.12 0.47 0 0.47 -0.12 0.47 0 0.47 0 0.35 0 0.48 0 0.47 0.12 0.35 0 0.35 0.12 0.47 0.12 0.36 0 0.35 0.24 0.35 0.11 0.35 0.12 0.35 0.12 0.36 0.23 0.35 0.24 0.24 0.23 0.35 0.24 0.35 0.23 0.36 0.24 0.23 0.35 0.35 0.24 0.36 0.35 0.23 0.35 0.35 0.35 0.36 0.36 0.23 0.35 0.35 0.47 0.24 0.35 0.35 0.48 4.24 5.99 4.11 6 4.12 6.12 3.88 6.11 4 6.12 3.77 6.12 3.76 6.23 3.53 6.12 3.64 6.35 3.42 6.23 3.28 6.35 3.3 6.35 3.18 6.35 2.94 6.47 2.94 6.47 2.82 6.47 2.7 6.59 2.59 6.58 2.47 6.59 2.47 6.71 2.24 6.7 2.11 6.7 2 6.83 1.77 6.82 1.76 6.82 1.65 6.94 1.41 6.94 1.29 6.94 1.3 7.06 0.94 7.05 0.94 7.06 0.71 7.17 0.7 7.18 0.35 7.29 0.36 7.29 0.11 7.3 0 7.41 -0.35 13.52 -0.59 13.41 -0.82 13.29 -1.29 13.05 -1.53 12.82 -1.77 12.82 -2.11 12.59 -2.48 12.35 -2.82 12.23 -3.06 12 -3.41 11.88 -3.64 11.76 -4 11.53 -4.35 11.29 -4.59 11.17 -4.94 11.06 -5.29 10.82 -5.65 10.59 -5.88 10.46 -6.24 10.24 -6.58 10.11 -6.94 9.88 -7.17 9.64 -7.53 9.53 -7.88 9.29 -8.12 9.18 -8.58 8.82 -8.83 8.82 -9.17 8.47 -9.53 8.35 -9.88 8.12 -10.11 7.99 -10.59 7.65 -10.82 7.52 -11.17 7.42 -11.53 7.05 -11.88 6.94 -2.7 1.53 -2.82 1.53 -2.83 1.41 -2.82 1.53 -2.82 1.41 -2.82 1.3 -2.83 1.41 -2.82 1.29 -2.94 1.29 -2.83 1.3 -2.93 1.29 -2.95 1.29 -2.94 1.18 -2.82 1.18 -2.94 1.17 -3.06 1.18 -2.94 1.18 -2.94 1.17 -2.94 1.18 -2.94 1.06 -3.06 1.17 -2.94 1.06 -2.94 1.18 -3.06 1.06 -2.93 1.06 -2.95 1.17 -3.06 1.06 -2.93 1.06 -2.95 1.18 -3.06 1.06 -2.93 1.05 -2.95 1.18 -3.05 1.06 -2.94 1.17 -2.94 1.18 -2.94 1.06 -2.94 1.17 -0.36 0.12 -0.47 0.24 -0.35 0.11 -0.35 0.12 -0.47 0.12 -0.35 0.12 -0.48 0.12 -0.47 0.11 -0.35 0.12 -0.47 0 -0.47 0.12 -0.36 0.12 -0.46 0 -0.47 0.11 -0.48 0 -0.35 0.12 -0.47 0 -0.47 0 -0.47 0.12 -0.47 0 -0.47 0 -0.35 0 -0.48 0 -0.47 0 -0.46 0 -0.47 0 -0.36 -0.12 -0.47 0 -0.47 0 -0.35 -0.12 -0.47 0 -0.47 -0.11 -0.36 -0.12 -0.47 0 -0.35 -0.12 -0.47 -0.12 -0.35 -0.11 -9.41 -2.83 -9.29 -2.82 -9.18 -3.06 -9.17 -3.17 -8.94 -3.3 -8.94 -3.53 -8.82 -3.53 -8.71 -3.76 -8.58 -3.88 -8.47 -4 -8.47 -4.23 -8.23 -4.24 -8.23 -4.46 -8 -4.71 -7.88 -4.71 -7.88 -4.93 -7.65 -5.06 -7.64 -5.3 -7.41 -5.41 -7.41 -5.52 -7.18 -5.77 -7.17 -5.88 -6.94 -6 -6.83 -6.23 -6.7 -6.47 -6.58 -6.47 -6.48 -6.82 -6.34 -6.94 -6.12 -7.06 -6.12 -7.29 -5.88 -7.41 -5.76 -7.64 -5.65 -7.89 -5.41 -7.99 -5.41 -8.24 -5.17 -8.34 -5.06 -8.59 -2.94 -5.06 -2.82 -5.18 -2.83 -5.17 -2.82 -5.3 -2.59 -5.17 -2.58 -5.29 -2.48 -5.29 -2.46 -5.41 -2.35 -5.41 -2.36 -5.3 -2.23 -5.52 -2.12 -5.41 -2 -5.53 -2 -5.53 -1.88 -5.53 -1.88 -5.53 -1.77 -5.65 -1.64 -5.52 -1.65 -5.65 -1.53 -5.64 -1.53 -5.65 -1.3 -5.76 -1.29 -5.65 -1.29 -5.76 -1.18 -5.76 -1.05 -5.77 -0.95 -5.76 -0.94 -5.88 -0.82 -5.77 -0.82 -5.88 -0.59 -5.76 -0.71 -5.88 -0.47 -5.88 -0.47 -5.88 -0.35 -5.88 -0.24 -5.88 -0.23 -5.89 0.11 -8.58 0.24 -8.47 0.35 -8.35 0.59 -8.23 0.59 -8.24 0.83 -8.11 0.93 -8 1.06 -7.88 1.18 -7.88 1.41 -7.76 1.41 -7.65 1.65 -7.52 1.76 -7.53 1.77 -7.41 2 -7.41 2.11 -7.3 2.24 -7.17 2.35 -7.18 2.47 -7.05 2.59 -7.06 2.82 -6.94 2.83 -6.94 2.93 -6.82 3.06 -6.82 3.18 -6.7 3.17 -6.71 3.41 -6.59 3.53 -6.58 3.65 -6.47 3.64 -6.47 3.88 -6.47 3.89 -6.35 4 -6.35 4.11 -6.24 4.24 -6.23 4.35 -6.23 4.35 -6.24 0.24 -0.23 0.11 -0.24 0.24 -0.23 0.24 -0.12 0.23 -0.24 0.24 -0.23 0.23 -0.24 0.35 -0.11 0.24 -0.24 0.35 -0.23 0.36 -0.12 0.23 -0.24 0.35 -0.11 0.35 -0.24 0.36 -0.12 0.35 -0.12 0.35 -0.11 0.36 -0.12 0.47 -0.12 0.35 -0.12 0.35 -0.11 0.36 -0.12 0.35 -0.12 0.35 -0.12 0.47 0 0.36 -0.11 0.35 0 0.35 0 0.35 -0.12 0.36 0 0.35 0 0.23 0 0.36 0 0.35 0.12 0.23 0 0.36 0 0.23 0.11 6.12 1.65 6.12 1.65 6.23 1.41 6.11 1.41 6.24 1.29 6.23 1.18 6.24 1.06 6.23 1.06 6.24 0.94 6.23 0.82 6.23 0.71 6.35 0.7 6.24 0.47 6.35 0.47 6.23 0.36 6.24 0.23 6.34 0.24 6.36 0.12 6.23 0 6.35 -0.12 6.23 -0.24 6.36 -0.23 6.23 -0.47 6.24 -0.47 6.35 -0.48 6.23 -0.7 6.23 -0.82 6.36 -0.83 6.23 -0.94 6.23 -0.94 6.12 -1.18 6.23 -1.17 6.24 -1.3 6.11 -1.41 6.24 -1.53 6.11 -1.64 6.12 -1.65 0.47 -0.11 0.35 -0.12 0.47 -0.12 0.47 0 0.47 -0.12 0.47 -0.12 0.47 0 0.36 -0.12 0.47 0 0.47 0 0.47 -0.11 0.47 0 0.47 0 0.47 0 0.47 0 0.47 0 0.47 0zm-15.53 73.16l-7.76 1.64 -7.88 1.41 -7.88 1.41 -7.88 1.18 -7.88 1.18 -8 1.06 -7.88 0.94 -7.88 0.82 -7.99 0.59 -8 0.59 -7.88 0.47 -8 0.35 -8 0.23 -7.88 0.24 -8 0 -8 -0.12 -7.99 -0.23 -8 -0.36 -7.88 -0.35 -8 -0.59 -8 -0.7 -7.88 -0.71 -8 -0.94 -7.99 -0.94 -7.89 -1.18 -0.35 0 -0.35 0 -0.47 0 -0.35 0 -0.48 0.12 -0.46 0.12 -0.36 0.12 -0.47 0.11 -0.47 0.12 -0.47 0.24 -0.47 0.23 -0.47 0.24 -0.35 0.23 -0.47 0.24 -0.47 0.23 -0.35 0.36 -0.48 0.23 -0.35 0.36 -0.47 0.23 -0.35 0.35 -0.36 0.35 -0.35 0.36 -0.23 0.23 -0.36 0.36 -0.23 0.35 -0.24 0.35 -0.23 0.35 -3.41 6.01 -3.18 6.11 -3.18 6.11 -3.05 6.12 -3.06 6.12 -2.82 6.23 -2.71 6.24 -2.59 6.23 -2.47 6.23 -2.35 6.35 -2.24 6.36 -2.11 6.47 -1.88 6.35 -1.88 6.47 -1.65 6.58 -1.53 6.47 -1.41 6.59 -1.18 6.58 -1.18 6.59 -0.93 6.71 -0.71 6.7 -0.59 6.7 -0.47 6.83 -0.23 6.82 -0.12 6.82 0.12 6.82 0.23 6.94 1.18 17.29 1.64 16.82 2.24 16.58 2.7 16.12 3.3 15.88 3.88 15.4 4.47 15.18 4.94 14.7 5.52 14.35 6.12 14 6.59 13.64 7.17 13.29 7.77 12.82 8.35 12.58 8.93 12.12 9.41 11.76 10.12 11.29 10.59 11.06 11.17 10.58 11.76 10.12 12.35 9.88 12.82 9.4 13.53 8.94 14.11 8.71 14.7 8.23 15.17 7.77 15.88 7.4 1.65 0.71 1.53 0.71 1.65 0.7 1.64 0.59 1.65 0.71 1.53 0.7 1.64 0.59 1.65 0.71 1.65 0.58 1.64 0.71 1.77 0.59 1.65 0.58 1.64 0.71 1.77 0.59 1.64 0.58 1.77 0.71 1.65 0.59 1.76 0.71 1.77 0.59 1.76 0.7 1.65 0.59 1.76 0.7 1.88 0.59 1.77 0.71 1.76 0.59 1.88 0.7 1.77 0.71 0 -106.09 0 -0.24 0 -0.35 0 -0.35 0 -0.24 0 -0.35 -0.12 -0.24 0 -0.35 0 -0.23 0 -0.36 -0.12 -0.35 0 -0.24 0 -0.35 -0.12 -0.35 0 -0.35 -0.12 -0.24 0 -0.35 0 -0.36 -0.11 -0.7 -0.12 -0.35 0 -0.36 -0.12 -0.47 0 -0.35 -0.12 -0.35 0 -0.48 0 -0.35 -0.11 -0.47 -5.53 -0.11 -5.41 -0.24 -5.41 -0.47 -5.41 -0.59 -5.41 -0.82 -5.3 -0.83 -5.29 -1.05 -5.29 -1.3 -5.3 -1.29 -5.17 -1.53 -5.06 -1.77 -5.05 -1.76 -5.06 -2 -4.94 -2.12 -4.94 -2.23 -4.82 -2.35 -4.71 -2.59 -4.7 -2.7 -4.59 -2.83 -4.59 -2.94 -4.35 -3.06 -4.35 -3.17 -4.35 -3.41 -4.12 -3.42 -4.11 -3.64 -4.01 -3.77 -3.88 -3.88 -3.88 -3.99 -3.76 -4 -3.53 -4.12 -3.53 -4.35 -3.29 -4.35 -3.18 -4.36 -3.06 -4.58 -2.94 -4.59 -2.7 -4.71 -2.71 -4.7 -2.47 -4.82 -2.35 -4.94 -2.12 -4.94 -2 -5.06 -1.88 -5.17 -1.76 -5.06 -1.53 -5.3 -1.41 -5.17 -1.3 -5.29 -1.06 -5.42 -0.93 -5.29 -0.83 -5.41 -0.59 -5.53 -0.47 -5.41 -0.23 -5.52 -0.12 -5.53 0 -5.53 0.12 -4.82 0.23 -4.71 0.36 -4.82 0.46 -4.7 0.6 -4.59 0.58 -4.7 0.82 -4.59 0.95 -4.47 1.06 -4.47 1.05 -4.47 1.3 -4.47 1.29 -4.35 1.53 -4.35 1.65 -4.24 1.64 -4.23 1.88 -4.24 1.89 -4.11 1.99 -4.23 2.24 -4.01 2.24 -4 2.35 -3.99 2.47 -4 2.59 -3.88 2.7 -3.89 2.82 -3.76 2.95 -3.76 3.05 -3.77 4.12 -4.82 4.23 -4.59 4.35 -4.46 4.36 -4.24 4.58 -4.12 4.59 -3.88 4.59 -3.64 4.82 -3.53 4.82 -3.41 4.94 -3.18 5.06 -3.06 5.06 -2.82 5.17 -2.71 5.3 -2.47 5.41 -2.35 5.41 -2.11 5.52 -2.01 5.53 -1.88 5.76 -1.64 5.77 -1.53 5.76 -1.29 6 -1.18 6 -0.94 6 -0.83 6.23 -0.7 6.23 -0.47 6.24 -0.36 0 -55.39 -7.76 1.88 -7.89 1.65zm-15.52 102.8l-14.94 4.58 -14.23 6.24 -13.41 7.52 -12.35 9.06 -11.41 10.23 -10.11 11.41 -8.82 12.47 -7.53 13.41 -6.12 14.23 -4.47 15.05 -2.7 15.65 -1.06 16.23 1.06 16.23 2.82 15.64 4.59 15.06 6.11 14.23 7.54 13.4 8.93 12.36 10.35 11.4 11.41 10.12 12.47 8.82 13.41 7.53 14.35 6 15.05 4.35 15.65 2.7 16.23 0.95 16.23 -0.95 15.64 -2.58 14.94 -4.47 14.23 -6 13.41 -7.41 12.47 -8.82 11.29 -10.12 10.23 -11.29 8.94 -12.47 7.53 -13.29 5.99 -14.23 4.47 -14.94 2.82 -15.64 0.95 -16.23 0 -0.71 0 -0.23 0 -0.35 0 -0.48 0 -0.11 -1.06 -16.23 -2.94 -15.65 -4.47 -14.94 -6.12 -14.23 -7.64 -13.4 -9.06 -12.35 -10.23 -11.29 -11.41 -10.12 -12.47 -8.94 -13.41 -7.41 -14.35 -6 -15.05 -4.35 -15.65 -2.7 -16.23 -0.95 -16.23 1.18 -15.64 2.83z"/>
  <path class="fil20 str0" d="M2276.14 3572.89l0.59 0 0.47 0 0.47 0.11 0.47 0 0.47 0 0.47 0.12 0.47 0 0.47 0.12 0.47 0 0.47 0.12 0.48 0 0.46 0.12 0.47 0.12 0.36 0 0.47 0.11 0.47 0.12 0.47 0.12 0.47 0.11 0.35 0.12 0.47 0.12 6.12 1.65 6 1.53 6.11 1.53 6.12 1.29 6.12 1.29 6.11 1.18 6.12 1.06 6.23 1.06 6.12 0.93 6.23 0.83 6.12 0.7 6.23 0.59 6.23 0.59 6.24 0.47 6.11 0.35 6.24 0.24 6.23 0.12 6.23 0.12 6.24 0 6.23 -0.12 6.24 -0.24 6.11 -0.23 6.24 -0.36 6.23 -0.47 6.24 -0.59 6.11 -0.7 6.23 -0.7 6.12 -0.83 6.23 -0.94 6.12 -1.06 6.12 -1.18 6.11 -1.17 6.12 -1.3 6.11 -1.41 6.12 -1.41 6.12 -1.64 5.99 -1.65 0.6 -0.12 0.58 -0.11 0.59 -0.12 0.47 -0.12 0.47 -0.12 0.59 -0.12 0.47 0 0.47 -0.12 0.47 0 0.47 0 0.35 0 0.48 0 0.47 0.12 0.35 0 0.35 0.12 0.47 0.12 0.36 0 0.35 0.24 0.35 0.11 0.35 0.12 0.35 0.12 0.36 0.23 0.35 0.24 0.24 0.23 0.35 0.24 0.35 0.23 0.36 0.24 0.23 0.35 0.35 0.24 0.36 0.35 0.23 0.35 0.35 0.35 0.36 0.36 0.23 0.35 0.35 0.47 0.24 0.35 0.35 0.48 4.24 5.99 4.11 6 4.12 6.12 3.88 6.11 4 6.12 3.77 6.12 3.76 6.23 3.53 6.12 3.64 6.35 3.42 6.23 3.28 6.35 3.3 6.35 3.18 6.35 2.94 6.47 2.94 6.47 2.82 6.47 2.7 6.59 2.59 6.58 2.47 6.59 2.47 6.71 2.24 6.7 2.11 6.7 2 6.83 1.77 6.82 1.76 6.82 1.65 6.94 1.41 6.94 1.29 6.94 1.3 7.06 0.94 7.05 0.94 7.06 0.71 7.17 0.7 7.18 0.35 7.29 0.36 7.29 0.11 7.3 0 7.41 -0.35 13.52 -0.59 13.41 -0.82 13.29 -1.29 13.05 -1.53 12.82 -1.77 12.82 -2.11 12.59 -2.48 12.35 -2.82 12.23 -3.06 12 -3.41 11.88 -3.64 11.76 -4 11.53 -4.35 11.29 -4.59 11.17 -4.94 11.06 -5.29 10.82 -5.65 10.59 -5.88 10.46 -6.24 10.24 -6.58 10.11 -6.94 9.88 -7.17 9.64 -7.53 9.53 -7.88 9.29 -8.12 9.18 -8.58 8.82 -8.83 8.82 -9.17 8.47 -9.53 8.35 -9.88 8.12 -10.11 7.99 -10.59 7.65 -10.82 7.52 -11.17 7.42 -11.53 7.05 -11.88 6.94 -2.7 1.53 -2.82 1.53 -2.83 1.41 -2.82 1.53 -2.82 1.41 -2.82 1.3 -2.83 1.41 -2.82 1.29 -2.94 1.29 -2.83 1.3 -2.93 1.29 -2.95 1.29 -2.94 1.18 -2.82 1.18 -2.94 1.17 -3.06 1.18 -2.94 1.18 -2.94 1.17 -2.94 1.18 -2.94 1.06 -3.06 1.17 -2.94 1.06 -2.94 1.18 -3.06 1.06 -2.93 1.06 -2.95 1.17 -3.06 1.06 -2.93 1.06 -2.95 1.18 -3.06 1.06 -2.93 1.05 -2.95 1.18 -3.05 1.06 -2.94 1.17 -2.94 1.18 -2.94 1.06 -2.94 1.17 -0.36 0.12 -0.47 0.24 -0.35 0.11 -0.35 0.12 -0.47 0.12 -0.35 0.12 -0.48 0.12 -0.47 0.11 -0.35 0.12 -0.47 0 -0.47 0.12 -0.36 0.12 -0.46 0 -0.47 0.11 -0.48 0 -0.35 0.12 -0.47 0 -0.47 0 -0.47 0.12 -0.47 0 -0.47 0 -0.35 0 -0.48 0 -0.47 0 -0.46 0 -0.47 0 -0.36 -0.12 -0.47 0 -0.47 0 -0.35 -0.12 -0.47 0 -0.47 -0.11 -0.36 -0.12 -0.47 0 -0.35 -0.12 -0.47 -0.12 -0.35 -0.11 -9.41 -2.83 -9.29 -2.82 -9.18 -3.06 -9.17 -3.17 -8.94 -3.3 -8.94 -3.53 -8.82 -3.53 -8.71 -3.76 -8.58 -3.88 -8.47 -4 -8.47 -4.23 -8.23 -4.24 -8.23 -4.46 -8 -4.71 -7.88 -4.71 -7.88 -4.93 -7.65 -5.06 -7.64 -5.3 -7.41 -5.41 -7.41 -5.52 -7.18 -5.77 -7.17 -5.88 -6.94 -6 -6.83 -6.23 -6.7 -6.47 -6.58 -6.47 -6.48 -6.82 -6.34 -6.94 -6.12 -7.06 -6.12 -7.29 -5.88 -7.41 -5.76 -7.64 -5.65 -7.89 -5.41 -7.99 -5.41 -8.24 -5.17 -8.34 -5.06 -8.59 -2.94 -5.06 -2.82 -5.18 -2.83 -5.17 -2.82 -5.3 -2.59 -5.17 -2.58 -5.29 -2.48 -5.29 -2.46 -5.41 -2.35 -5.41 -2.36 -5.3 -2.23 -5.52 -2.12 -5.41 -2 -5.53 -2 -5.53 -1.88 -5.53 -1.88 -5.53 -1.77 -5.65 -1.64 -5.52 -1.65 -5.65 -1.53 -5.64 -1.53 -5.65 -1.3 -5.76 -1.29 -5.65 -1.29 -5.76 -1.18 -5.76 -1.05 -5.77 -0.95 -5.76 -0.94 -5.88 -0.82 -5.77 -0.82 -5.88 -0.59 -5.76 -0.71 -5.88 -0.47 -5.88 -0.47 -5.88 -0.35 -5.88 -0.24 -5.88 -0.23 -5.89 0.11 -8.58 0.24 -8.47 0.35 -8.35 0.59 -8.23 0.59 -8.24 0.83 -8.11 0.93 -8 1.06 -7.88 1.18 -7.88 1.41 -7.76 1.41 -7.65 1.65 -7.52 1.76 -7.53 1.77 -7.41 2 -7.41 2.11 -7.3 2.24 -7.17 2.35 -7.18 2.47 -7.05 2.59 -7.06 2.82 -6.94 2.83 -6.94 2.93 -6.82 3.06 -6.82 3.18 -6.7 3.17 -6.71 3.41 -6.59 3.53 -6.58 3.65 -6.47 3.64 -6.47 3.88 -6.47 3.89 -6.35 4 -6.35 4.11 -6.24 4.24 -6.23 4.35 -6.23 4.35 -6.24 0.24 -0.23 0.11 -0.24 0.24 -0.23 0.24 -0.12 0.23 -0.24 0.24 -0.23 0.23 -0.24 0.35 -0.11 0.24 -0.24 0.35 -0.23 0.36 -0.12 0.23 -0.24 0.35 -0.11 0.35 -0.24 0.36 -0.12 0.35 -0.12 0.35 -0.11 0.36 -0.12 0.47 -0.12 0.35 -0.12 0.35 -0.11 0.36 -0.12 0.35 -0.12 0.35 -0.12 0.47 0 0.36 -0.11 0.35 0 0.35 0 0.35 -0.12 0.36 0 0.35 0 0.23 0 0.36 0 0.35 0.12 0.23 0 0.36 0 0.23 0.11 6.12 1.65 6.12 1.65 6.23 1.41 6.11 1.41 6.24 1.29 6.23 1.18 6.24 1.06 6.23 1.06 6.24 0.94 6.23 0.82 6.23 0.71 6.35 0.7 6.24 0.47 6.35 0.47 6.23 0.36 6.24 0.23 6.34 0.24 6.36 0.12 6.23 0 6.35 -0.12 6.23 -0.24 6.36 -0.23 6.23 -0.47 6.24 -0.47 6.35 -0.48 6.23 -0.7 6.23 -0.82 6.36 -0.83 6.23 -0.94 6.23 -0.94 6.12 -1.18 6.23 -1.17 6.24 -1.3 6.11 -1.41 6.24 -1.53 6.11 -1.64 6.12 -1.65 0.47 -0.11 0.35 -0.12 0.47 -0.12 0.47 0 0.47 -0.12 0.47 -0.12 0.47 0 0.36 -0.12 0.47 0 0.47 0 0.47 -0.11 0.47 0 0.47 0 0.47 0 0.47 0 0.47 0 0.47 0zm-15.53 73.16l-7.76 1.64 -7.88 1.41 -7.88 1.41 -7.88 1.18 -7.88 1.18 -8 1.06 -7.88 0.94 -7.88 0.82 -7.99 0.59 -8 0.59 -7.88 0.47 -8 0.35 -8 0.23 -7.88 0.24 -8 0 -8 -0.12 -7.99 -0.23 -8 -0.36 -7.88 -0.35 -8 -0.59 -8 -0.7 -7.88 -0.71 -8 -0.94 -7.99 -0.94 -7.89 -1.18 -0.35 0 -0.35 0 -0.47 0 -0.35 0 -0.48 0.12 -0.46 0.12 -0.36 0.12 -0.47 0.11 -0.47 0.12 -0.47 0.24 -0.47 0.23 -0.47 0.24 -0.35 0.23 -0.47 0.24 -0.47 0.23 -0.35 0.36 -0.48 0.23 -0.35 0.36 -0.47 0.23 -0.35 0.35 -0.36 0.35 -0.35 0.36 -0.23 0.23 -0.36 0.36 -0.23 0.35 -0.24 0.35 -0.23 0.35 -3.41 6.01 -3.18 6.11 -3.18 6.11 -3.05 6.12 -3.06 6.12 -2.82 6.23 -2.71 6.24 -2.59 6.23 -2.47 6.23 -2.35 6.35 -2.24 6.36 -2.11 6.47 -1.88 6.35 -1.88 6.47 -1.65 6.58 -1.53 6.47 -1.41 6.59 -1.18 6.58 -1.18 6.59 -0.93 6.71 -0.71 6.7 -0.59 6.7 -0.47 6.83 -0.23 6.82 -0.12 6.82 0.12 6.82 0.23 6.94 1.18 17.29 1.64 16.82 2.24 16.58 2.7 16.12 3.3 15.88 3.88 15.4 4.47 15.18 4.94 14.7 5.52 14.35 6.12 14 6.59 13.64 7.17 13.29 7.77 12.82 8.35 12.58 8.93 12.12 9.41 11.76 10.12 11.29 10.59 11.06 11.17 10.58 11.76 10.12 12.35 9.88 12.82 9.4 13.53 8.94 14.11 8.71 14.7 8.23 15.17 7.77 15.88 7.4 1.65 0.71 1.53 0.71 1.65 0.7 1.64 0.59 1.65 0.71 1.53 0.7 1.64 0.59 1.65 0.71 1.65 0.58 1.64 0.71 1.77 0.59 1.65 0.58 1.64 0.71 1.77 0.59 1.64 0.58 1.77 0.71 1.65 0.59 1.76 0.71 1.77 0.59 1.76 0.7 1.65 0.59 1.76 0.7 1.88 0.59 1.77 0.71 1.76 0.59 1.88 0.7 1.77 0.71 0 -106.09 0 -0.24 0 -0.35 0 -0.35 0 -0.24 0 -0.35 -0.12 -0.24 0 -0.35 0 -0.23 0 -0.36 -0.12 -0.35 0 -0.24 0 -0.35 -0.12 -0.35 0 -0.35 -0.12 -0.24 0 -0.35 0 -0.36 -0.11 -0.7 -0.12 -0.35 0 -0.36 -0.12 -0.47 0 -0.35 -0.12 -0.35 0 -0.48 0 -0.35 -0.11 -0.47 -5.53 -0.11 -5.41 -0.24 -5.41 -0.47 -5.41 -0.59 -5.41 -0.82 -5.3 -0.83 -5.29 -1.05 -5.29 -1.3 -5.3 -1.29 -5.17 -1.53 -5.06 -1.77 -5.05 -1.76 -5.06 -2 -4.94 -2.12 -4.94 -2.23 -4.82 -2.35 -4.71 -2.59 -4.7 -2.7 -4.59 -2.83 -4.59 -2.94 -4.35 -3.06 -4.35 -3.17 -4.35 -3.41 -4.12 -3.42 -4.11 -3.64 -4.01 -3.77 -3.88 -3.88 -3.88 -3.99 -3.76 -4 -3.53 -4.12 -3.53 -4.35 -3.29 -4.35 -3.18 -4.36 -3.06 -4.58 -2.94 -4.59 -2.7 -4.71 -2.71 -4.7 -2.47 -4.82 -2.35 -4.94 -2.12 -4.94 -2 -5.06 -1.88 -5.17 -1.76 -5.06 -1.53 -5.3 -1.41 -5.17 -1.3 -5.29 -1.06 -5.42 -0.93 -5.29 -0.83 -5.41 -0.59 -5.53 -0.47 -5.41 -0.23 -5.52 -0.12 -5.53 0 -5.53 0.12 -4.82 0.23 -4.71 0.36 -4.82 0.46 -4.7 0.6 -4.59 0.58 -4.7 0.82 -4.59 0.95 -4.47 1.06 -4.47 1.05 -4.47 1.3 -4.47 1.29 -4.35 1.53 -4.35 1.65 -4.24 1.64 -4.23 1.88 -4.24 1.89 -4.11 1.99 -4.23 2.24 -4.01 2.24 -4 2.35 -3.99 2.47 -4 2.59 -3.88 2.7 -3.89 2.82 -3.76 2.95 -3.76 3.05 -3.77 4.12 -4.82 4.23 -4.59 4.35 -4.46 4.36 -4.24 4.58 -4.12 4.59 -3.88 4.59 -3.64 4.82 -3.53 4.82 -3.41 4.94 -3.18 5.06 -3.06 5.06 -2.82 5.17 -2.71 5.3 -2.47 5.41 -2.35 5.41 -2.11 5.52 -2.01 5.53 -1.88 5.76 -1.64 5.77 -1.53 5.76 -1.29 6 -1.18 6 -0.94 6 -0.83 6.23 -0.7 6.23 -0.47 6.24 -0.36 0 -55.39 -7.76 1.88 -7.89 1.65zm-15.52 102.8l-14.94 4.58 -14.23 6.24 -13.41 7.52 -12.35 9.06 -11.41 10.23 -10.11 11.41 -8.82 12.47 -7.53 13.41 -6.12 14.23 -4.47 15.05 -2.7 15.65 -1.06 16.23 1.06 16.23 2.82 15.64 4.59 15.06 6.11 14.23 7.54 13.4 8.93 12.36 10.35 11.4 11.41 10.12 12.47 8.82 13.41 7.53 14.35 6 15.05 4.35 15.65 2.7 16.23 0.95 16.23 -0.95 15.64 -2.58 14.94 -4.47 14.23 -6 13.41 -7.41 12.47 -8.82 11.29 -10.12 10.23 -11.29 8.94 -12.47 7.53 -13.29 5.99 -14.23 4.47 -14.94 2.82 -15.64 0.95 -16.23 0 -0.71 0 -0.23 0 -0.35 0 -0.48 0 -0.11 -1.06 -16.23 -2.94 -15.65 -4.47 -14.94 -6.12 -14.23 -7.64 -13.4 -9.06 -12.35 -10.23 -11.29 -11.41 -10.12 -12.47 -8.94 -13.41 -7.41 -14.35 -6 -15.05 -4.35 -15.65 -2.7 -16.23 -0.95 -16.23 1.18 -15.64 2.83z"/>
  <path class="fil19" d="M2245.33 3924.68c15.76,-17.05 30.58,-33.76 46.1,-49.75 16.82,-17.29 34.34,-33.87 51.75,-50.58 10,-9.52 17.76,-9.41 27.06,0.12 8.7,9.06 8.93,16.7 -0.47,25.88 -37.76,37.64 -75.75,75.04 -113.86,112.2 -10.35,10.12 -16.46,9.88 -26.7,-0.58 -17.05,-17.65 -33.75,-35.76 -51.04,-53.17 -10.24,-10.47 -4.12,-17.76 3.41,-25.4 7.76,-7.88 15.17,-10.82 23.99,-0.71 11.76,13.29 24.35,25.76 39.76,41.99z"/>
  <path class="fil20 str0" d="M2245.33 3924.68c15.76,-17.05 30.58,-33.76 46.1,-49.75 16.82,-17.29 34.34,-33.87 51.75,-50.58 10,-9.52 17.76,-9.41 27.06,0.12 8.7,9.06 8.93,16.7 -0.47,25.88 -37.76,37.64 -75.75,75.04 -113.86,112.2 -10.35,10.12 -16.46,9.88 -26.7,-0.58 -17.05,-17.65 -33.75,-35.76 -51.04,-53.17 -10.24,-10.47 -4.12,-17.76 3.41,-25.4 7.76,-7.88 15.17,-10.82 23.99,-0.71 11.76,13.29 24.35,25.76 39.76,41.99z"/>
  <path class="fil21" d="M4423.54 3238.97l2.57 1.22 2.46 1.23 2.46 1.35 2.23 1.22 2.23 1.34 2.13 1.35 2.01 1.33 1.9 1.35 1.78 1.33 1.79 1.35 1.56 1.45 1.57 1.34 1.34 1.45 1.34 1.45 1.23 1.45 1.11 1.46 1.01 1.56 1 1.46 0.79 1.56 0.78 1.56 0.67 1.57 0.44 1.56 0.45 1.56 0.34 1.68 0.33 1.56 0.11 1.68 0 1.68 0 249.77 0 2.46 -0.22 2.34 -0.33 2.35 -0.34 2.34 -0.56 2.24 -0.67 2.23 -0.67 2.12 -0.89 2.01 -1.01 2.01 -1 1.9 -1.12 1.9 -1.34 1.68 -1.34 1.67 -1.34 1.68 -1.56 1.45 -1.57 1.45 -1.67 1.34 -1.79 1.23 -1.9 1.12 -1.9 1.12 -1.9 0.89 -2.12 0.89 -2.12 0.78 -2.13 0.57 -2.23 0.55 -2.34 0.45 -2.35 0.22 -2.46 0.23 -2.45 0.11 -434.54 0 -2.23 0 -2.24 -0.11 -2.12 -0.34 -2.23 -0.33 -2.13 -0.45 -2.01 -0.56 -2.12 -0.67 -1.9 -0.89 -2.01 -0.9 -1.78 -0.89 -1.79 -1.12 -1.79 -1.23 -1.68 -1.23 -1.67 -1.33 -1.46 -1.46 -1.45 -1.56 -1.45 -1.57 -1.23 -1.67 -1.23 -1.79 -1.11 -1.78 -1.01 -1.9 -0.89 -1.9 -0.9 -2.01 -0.67 -2.01 -0.56 -2.13 -0.55 -2.12 -0.34 -2.12 -0.22 -2.24 -0.22 -2.23 0 -0.22 0 -0.45 0 -0.23 0 -0.22 0 -0.33 0 -0.23 0 -0.22 0 -0.22 0 -0.23 0 -0.11 0 -249.77 0.11 -2.57 0.22 -2.57 0.22 -2.35 0.45 -2.34 0.56 -2.35 0.56 -2.23 0.78 -2.12 0.89 -2.12 0.9 -2.02 1.12 -1.89 1.11 -1.9 1.34 -1.79 1.34 -1.67 1.45 -1.57 1.46 -1.56 1.67 -1.46 1.68 -1.22 1.9 -1.35 1.78 -1.11 2.01 -1.01 2.01 -1.01 2.13 -0.78 2.23 -0.78 2.23 -0.55 2.35 -0.57 2.35 -0.44 2.46 -0.22 2.45 -0.23 2.57 0 433.3 0 2.8 1.12 2.79 1.23zm-427.94 263.62l264.52 0 0 -38.87 -264.41 0 -0.11 38.87zm314.78 -209.78l-3.68 2.01 -2.8 2.35 -2.12 2.57 -1.22 2.9 -0.45 3.13 0 63.56 0.45 4.13 1.33 3.58 2.01 2.79 2.91 2.12 3.57 1.23 4.25 0.56 64.12 0 4.13 -0.56 3.47 -1.23 2.79 -2.12 2.01 -2.79 1.34 -3.47 0.33 -4.02 0 -64.23 -0.33 -4.25 -1.34 -3.46 -2.01 -2.79 -2.91 -2.12 -3.57 -1.23 -4.25 -0.45 -63.56 0 -4.47 1.79z"/>
  <path class="fil22 str0" d="M4423.54 3238.97l2.57 1.22 2.46 1.23 2.46 1.35 2.23 1.22 2.23 1.34 2.13 1.35 2.01 1.33 1.9 1.35 1.78 1.33 1.79 1.35 1.56 1.45 1.57 1.34 1.34 1.45 1.34 1.45 1.23 1.45 1.11 1.46 1.01 1.56 1 1.46 0.79 1.56 0.78 1.56 0.67 1.57 0.44 1.56 0.45 1.56 0.34 1.68 0.33 1.56 0.11 1.68 0 1.68 0 249.77 0 2.46 -0.22 2.34 -0.33 2.35 -0.34 2.34 -0.56 2.24 -0.67 2.23 -0.67 2.12 -0.89 2.01 -1.01 2.01 -1 1.9 -1.12 1.9 -1.34 1.68 -1.34 1.67 -1.34 1.68 -1.56 1.45 -1.57 1.45 -1.67 1.34 -1.79 1.23 -1.9 1.12 -1.9 1.12 -1.9 0.89 -2.12 0.89 -2.12 0.78 -2.13 0.57 -2.23 0.55 -2.34 0.45 -2.35 0.22 -2.46 0.23 -2.45 0.11 -434.54 0 -2.23 0 -2.24 -0.11 -2.12 -0.34 -2.23 -0.33 -2.13 -0.45 -2.01 -0.56 -2.12 -0.67 -1.9 -0.89 -2.01 -0.9 -1.78 -0.89 -1.79 -1.12 -1.79 -1.23 -1.68 -1.23 -1.67 -1.33 -1.46 -1.46 -1.45 -1.56 -1.45 -1.57 -1.23 -1.67 -1.23 -1.79 -1.11 -1.78 -1.01 -1.9 -0.89 -1.9 -0.9 -2.01 -0.67 -2.01 -0.56 -2.13 -0.55 -2.12 -0.34 -2.12 -0.22 -2.24 -0.22 -2.23 0 -0.22 0 -0.45 0 -0.23 0 -0.22 0 -0.33 0 -0.23 0 -0.22 0 -0.22 0 -0.23 0 -0.11 0 -249.77 0.11 -2.57 0.22 -2.57 0.22 -2.35 0.45 -2.34 0.56 -2.35 0.56 -2.23 0.78 -2.12 0.89 -2.12 0.9 -2.02 1.12 -1.89 1.11 -1.9 1.34 -1.79 1.34 -1.67 1.45 -1.57 1.46 -1.56 1.67 -1.46 1.68 -1.22 1.9 -1.35 1.78 -1.11 2.01 -1.01 2.01 -1.01 2.13 -0.78 2.23 -0.78 2.23 -0.55 2.35 -0.57 2.35 -0.44 2.46 -0.22 2.45 -0.23 2.57 0 433.3 0 2.8 1.12 2.79 1.23zm-427.94 263.62l264.52 0 0 -38.87 -264.41 0 -0.11 38.87zm314.78 -209.78l-3.68 2.01 -2.8 2.35 -2.12 2.57 -1.22 2.9 -0.45 3.13 0 63.56 0.45 4.13 1.33 3.58 2.01 2.79 2.91 2.12 3.57 1.23 4.25 0.56 64.12 0 4.13 -0.56 3.47 -1.23 2.79 -2.12 2.01 -2.79 1.34 -3.47 0.33 -4.02 0 -64.23 -0.33 -4.25 -1.34 -3.46 -2.01 -2.79 -2.91 -2.12 -3.57 -1.23 -4.25 -0.45 -63.56 0 -4.47 1.79z"/>
  <path class="fil21" d="M4030.45 3211.6c25.8,-80.54 40.1,-125.22 42.89,-134.16 164.66,50.6 327.52,105 492.07,157.06 -0.56,1.9 -3.69,11.62 -9.39,29.04 -25.58,80.1 -39.88,124.55 -42.78,133.49 -3.57,11.17 -9.83,20.11 -20.44,25.69 -2.01,1.12 -4.25,1.9 -7.15,3.02 0,-4.91 0,-29.27 0,-73.06 0,-44.9 0,-69.92 0,-74.84 0.78,-35.97 -27.81,-65.68 -63.79,-66.46 -1.11,0 -2.12,0 -3.23,0.11 -25.36,0 -152.04,0 -380.14,0l-8.04 0.11z"/>
  <path class="fil22 str0" d="M4030.45 3211.6c25.8,-80.54 40.1,-125.22 42.89,-134.16 164.66,50.6 327.52,105 492.07,157.06 -0.56,1.9 -3.69,11.62 -9.39,29.04 -25.58,80.1 -39.88,124.55 -42.78,133.49 -3.57,11.17 -9.83,20.11 -20.44,25.69 -2.01,1.12 -4.25,1.9 -7.15,3.02 0,-4.91 0,-29.27 0,-73.06 0,-44.9 0,-69.92 0,-74.84 0.78,-35.97 -27.81,-65.68 -63.79,-66.46 -1.11,0 -2.12,0 -3.23,0.11 -25.36,0 -152.04,0 -380.14,0l-8.04 0.11z"/>
  <path class="fil21" d="M4094.68 3015.11c2.91,-30.05 28.15,-46.92 55.85,-37.98 34.3,10.95 308.31,99.08 342.49,110.14 22.23,7.15 44.35,14.53 67.02,20.11 25.7,6.25 35.19,34.41 27.59,54.06 -1.11,2.91 -2.01,5.81 -3.12,9.27 -32.62,-10.38 -195.93,-62.32 -489.83,-155.6z"/>
  <path class="fil22 str0" d="M4094.68 3015.11c2.91,-30.05 28.15,-46.92 55.85,-37.98 34.3,10.95 308.31,99.08 342.49,110.14 22.23,7.15 44.35,14.53 67.02,20.11 25.7,6.25 35.19,34.41 27.59,54.06 -1.11,2.91 -2.01,5.81 -3.12,9.27 -32.62,-10.38 -195.93,-62.32 -489.83,-155.6z"/>
 </g>
</svg>
