<?xml version="1.0" encoding="UTF-8"?>
<!DOCTYPE svg PUBLIC "-//W3C//DTD SVG 1.1//EN" "http://www.w3.org/Graphics/SVG/1.1/DTD/svg11.dtd">
<!-- Creator: CorelDRAW 2018 (64-Bit) -->
<svg xmlns="http://www.w3.org/2000/svg" xml:space="preserve" width="52.6626mm" height="52.6626mm" version="1.1" style="shape-rendering:geometricPrecision; text-rendering:geometricPrecision; image-rendering:optimizeQuality; fill-rule:evenodd; clip-rule:evenodd"
viewBox="0 0 5266.26 5266.26"
 xmlns:xlink="http://www.w3.org/1999/xlink">
 <defs>
  <style type="text/css">
   <![CDATA[
    .str0 {stroke:black;stroke-width:26.46;stroke-miterlimit:22.9256;stroke-opacity:0.000000}
    .fil11 {fill:#FFED00}
    .fil14 {fill:#F5B2B6}
    .fil9 {fill:#EF7F1A}
    .fil15 {fill:#E5097F}
    .fil8 {fill:#E31E24}
    .fil7 {fill:#AE4A84}
    .fil12 {fill:#7E71B1}
    .fil13 {fill:#00A0E3}
    .fil10 {fill:#393185}
    .fil21 {fill:#00A6FE}
    .fil23 {fill:#22E0CD}
    .fil4 {fill:#2FEB6B}
    .fil19 {fill:#4FBF20}
    .fil3 {fill:#52EB82}
    .fil16 {fill:#6556E2}
    .fil2 {fill:#71F099}
    .fil1 {fill:#88F0A9}
    .fil0 {fill:#9CF0B7}
    .fil5 {fill:#F4F4F4}
    .fil17 {fill:#F7595A}
    .fil6 {fill:white}
    .fil22 {fill:#00A6FE;fill-opacity:0.000000}
    .fil24 {fill:#22E0CD;fill-opacity:0.000000}
    .fil20 {fill:#4FBF20;fill-opacity:0.000000}
    .fil18 {fill:#F7595A;fill-opacity:0.000000}
   ]]>
  </style>
 </defs>
 <g id="Слой_x0020_1">
  <metadata id="CorelCorpID_0Corel-Layer"/>
  <circle class="fil0" cx="2633.13" cy="2641.6" r="2159"/>
  <ellipse class="fil1" cx="2633.13" cy="2641.61" rx="1735.66" ry="1735.67"/>
  <ellipse class="fil2" cx="2633.13" cy="2641.6" rx="1312.33" ry="1312.32"/>
  <circle class="fil3" cx="2624.66" cy="2641.6" r="888.99"/>
  <ellipse class="fil4" cx="2633.13" cy="2633.13" rx="465.66" ry="465.65"/>
  <circle class="fil5" cx="2556.71" cy="2443.17" r="32.71"/>
  <circle class="fil5" cx="2712.99" cy="2443.17" r="32.71"/>
  <ellipse class="fil6" cx="3755.68" cy="1317.77" rx="296.34" ry="296.33"/>
  <ellipse class="fil6" cx="2319.86" cy="550.33" rx="296.34" ry="296.33"/>
  <ellipse class="fil6" cx="2273.07" cy="4351.74" rx="296.34" ry="296.33"/>
  <circle class="fil5" cx="2593.18" cy="2531.19" r="32.71"/>
  <circle class="fil5" transform="matrix(0.70055 0.852295 -0.852295 0.70055 2534.24 2590.13)" r="29.63"/>
  <circle class="fil5" transform="matrix(0.70055 0.852295 -0.852295 0.70055 2534.25 2673.48)" r="29.63"/>
  <circle class="fil5" transform="matrix(0.70055 0.852295 -0.852295 0.70055 2593.18 2732.42)" r="29.63"/>
  <circle class="fil5" transform="matrix(0.70055 0.852295 -0.852295 0.70055 2676.53 2732.42)" r="29.63"/>
  <circle class="fil5" transform="matrix(0.70055 0.852295 -0.852295 0.70055 2735.47 2673.48)" r="29.63"/>
  <circle class="fil5" transform="matrix(0.70055 0.852295 -0.852295 0.70055 2735.46 2590.13)" r="29.63"/>
  <circle class="fil5" transform="matrix(0.70055 0.852295 -0.852295 0.70055 2676.53 2531.19)" r="29.63"/>
  <circle class="fil5" cx="2446.22" cy="2553.67" r="32.71"/>
  <circle class="fil5" cx="2446.22" cy="2709.95" r="32.71"/>
  <circle class="fil5" cx="2556.72" cy="2820.44" r="32.71"/>
  <circle class="fil5" cx="2713" cy="2820.44" r="32.71"/>
  <circle class="fil5" cx="2823.49" cy="2709.94" r="32.71"/>
  <circle class="fil5" cx="2823.49" cy="2553.66" r="32.71"/>
  <ellipse class="fil6" cx="3678.54" cy="3435.01" rx="296.34" ry="296.33"/>
  <ellipse class="fil6" cx="1038.06" cy="2005.94" rx="296.34" ry="296.33"/>
 </g>
 <g id="Слой_x0020_2">
  <metadata id="CorelCorpID_1Corel-Layer"/>
  <ellipse class="fil7" cx="1938.86" cy="2717.8" rx="55.04" ry="55.03"/>
  <ellipse class="fil8" cx="1811.86" cy="1346.2" rx="55.04" ry="55.03"/>
  <ellipse class="fil9" cx="1329.26" cy="3547.53" rx="55.04" ry="55.03"/>
  <ellipse class="fil10" cx="3866.39" cy="2390.35" rx="55.04" ry="55.03"/>
  <ellipse class="fil11" cx="4301.06" cy="3784.6" rx="55.04" ry="55.03"/>
  <ellipse class="fil12" cx="4402.66" cy="1794.93" rx="55.04" ry="55.03"/>
  <ellipse class="fil13" cx="2698.12" cy="1810.63" rx="55.04" ry="55.03"/>
  <ellipse class="fil14" cx="3056.46" cy="4157.13" rx="55.04" ry="55.03"/>
  <ellipse class="fil15" cx="488.36" cy="2890.79" rx="55.04" ry="55.03"/>
  <ellipse class="fil11" cx="1121.84" cy="804.33" rx="55.04" ry="55.03"/>
  <path class="fil16" d="M1009.28 2139.4l62.85 0 0 -335.8 -0.03 0c0,-17.34 -14.06,-31.4 -31.4,-31.4 -17.33,0 -31.39,14.06 -31.39,31.4l-0.03 0 0 335.8z"/>
  <path class="fil16" d="M1112.12 2139.27l62.59 0 0 -265.91c0.07,-0.82 0.1,-1.66 0.1,-2.5 0,-17.34 -14.05,-31.4 -31.39,-31.4 -17.34,0 -31.39,14.06 -31.39,31.4 0,0.84 0.03,1.68 0.09,2.5l0 265.91z"/>
  <path class="fil16" d="M906.5 2139.27l62.79 0 0 -208.42c0,-17.34 -14.06,-31.39 -31.4,-31.39 -17.34,0 -31.39,14.05 -31.39,31.39l0 208.42z"/>
  <path class="fil16" d="M861.77 2180.17l6.35 0 351.91 0 0 0c5.51,0 9.97,-4.46 9.97,-9.96 0,-5.51 -4.46,-9.97 -9.97,-9.97l0 0 -358.26 0 0 0.01c-5.3,0.23 -9.53,4.6 -9.53,9.96 0,5.35 4.23,9.72 9.53,9.95l0 0.01z"/>
  <path class="fil17" d="M2351.64 433.91l11.09 2.68 10.72 3.6 10.35 4.53 9.88 5.45 9.43 6.19 8.87 7.02 8.22 7.77 7.49 8.4 6.83 9.06 6.01 9.7 5.08 10.25 4.25 10.72 3.24 11.18 2.12 11.65 0.18 1.1 0.1 1.11 0.18 1.11 0.09 1.11 0.1 1.11 0.09 1.02 0.09 1.11 0.1 1.01 0.09 1.02 0.09 1.01 0.09 1.02 0.1 0.92 0.09 0.93 0 0.92 0.09 0.83 0.09 0.84 0 0.83 0.09 0.74 0 0.09 -0.27 6.56 -0.46 6.37 -0.75 6.2 -1.01 6.09 -1.2 6.01 -1.48 5.82 -1.66 5.64 -2.04 5.54 -2.12 5.45 -2.49 5.27 -2.69 5.17 -2.86 4.99 -3.23 4.9 -3.42 4.71 -3.7 4.71 -3.88 4.44 -4.25 4.43 -4.44 4.25 -2.3 2.13 -2.22 2.03 -2.31 2.13 -2.22 2.12 -2.22 2.13 -2.22 2.21 -2.12 2.13 -2.13 2.22 -2.12 2.31 -2.03 2.21 -2.03 2.41 -1.95 2.31 -1.94 2.4 -1.75 2.49 -1.85 2.5 -1.66 2.59 -1.67 2.67 -1.57 2.69 -0.18 0.27 -0.19 0.19 -0.18 0.27 -0.19 0.19 -0.18 0.28 -0.28 0.18 -0.18 0.18 -0.28 0.28 -0.19 0.19 -0.27 0.18 -0.28 0.19 -0.28 0.09 -0.27 0.18 -0.28 0.19 -0.28 0.09 -0.28 0.1 -0.27 0.18 -0.28 0.09 -4.99 1.94 -5.08 1.66 -5.08 1.48 -5.18 1.2 -5.17 1.11 -5.17 0.84 -5.27 0.55 -5.27 0.37 -5.27 0.18 -5.26 0 -5.27 -0.27 -5.27 -0.46 -5.17 -0.75 -5.27 -0.92 -5.17 -1.11 -5.08 -1.38 -5.08 -1.58 -5.09 -1.75 -0.37 -0.18 -0.37 -0.19 -0.37 -0.18 -0.37 -0.28 -0.36 -0.18 -0.37 -0.28 -0.37 -0.28 -0.37 -0.28 -0.37 -0.28 -0.28 -0.37 -0.37 -0.27 -0.28 -0.37 -0.28 -0.28 -0.37 -0.37 -0.18 -0.37 -0.28 -0.27 -0.27 -0.37 -0.19 -0.37 -1.48 -2.31 -1.48 -2.31 -1.47 -2.31 -1.57 -2.22 -1.67 -2.22 -1.57 -2.22 -1.75 -2.12 -1.67 -2.13 -1.75 -2.12 -1.76 -2.03 -1.85 -2.13 -1.84 -1.94 -1.85 -2.03 -1.94 -1.94 -1.94 -1.94 -2.03 -1.85 -2.04 -1.85 -2.03 -1.85 -6.47 -6.09 -6 -6.29 -5.45 -6.37 -5.09 -6.57 -4.53 -6.74 -4.06 -6.93 -3.51 -7.02 -3.05 -7.21 -2.59 -7.3 -2.03 -7.48 -1.57 -7.67 -1.02 -7.76 -0.55 -7.95 0 -8.04 0.55 -8.22 1.02 -8.32 1.57 -8.5 2.12 -8.59 2.59 -8.41 2.96 -8.04 3.32 -7.67 3.79 -7.3 4.07 -6.92 4.52 -6.47 4.81 -6.19 5.27 -5.73 5.54 -5.36 5.91 -4.99 6.29 -4.53 6.65 -4.25 7.02 -3.79 7.3 -3.51 7.67 -3.05 7.95 -2.59 8.31 -2.3 8.6 -1.85 11.73 -1.66 11.55 -0.56 11.55 0.65 11.27 1.57zm-38.53 72.99l-1.11 0.46 -1.2 0.47 -1.11 0.46 -1.01 0.46 -1.11 0.46 -1.11 0.47 -1.02 0.46 -1.01 0.46 -1.02 0.46 -1.02 0.46 -0.92 0.56 -1.02 0.55 -2.86 1.94 -2.59 2.03 -2.31 2.22 -2.03 2.31 -1.76 2.5 -1.47 2.67 -1.2 2.78 -0.93 2.96 -0.65 3.04 -0.46 3.24 -0.18 3.32 0.09 3.42 0.18 2.96 0.56 2.86 0.74 2.78 1.11 2.67 1.29 2.59 1.57 2.4 1.85 2.22 2.03 2.03 2.22 1.76 2.4 1.66 2.59 1.3 2.77 1.11 1.48 0.55 1.57 0.65 1.48 0.55 1.57 0.46 1.57 0.56 1.48 0.46 1.57 0.56 1.57 0.46 1.57 0.46 1.57 0.46 1.48 0.46 1.57 0.56 1.57 0.46 1.57 0.55 1.57 0.47 1.57 0.46 1.58 0.46 1.57 0.46 1.56 0.56 1.49 0.46 1.56 0.64 1.48 0.56 1.48 0.65 1.39 0.74 0.74 0.46 0.64 0.55 0.65 0.65 0.56 0.64 0.55 0.83 0.55 0.84 0.56 0.83 0.37 0.92 0.46 0.93 0.28 0.92 0.27 0.83 0.19 0.93 0.18 1.1 -0.09 1.11 -0.19 1.02 -0.36 0.93 -0.47 0.92 -0.64 0.83 -0.74 0.74 -0.83 0.65 -0.93 0.55 -0.92 0.56 -1.02 0.36 -1.1 0.28 -1.3 0.28 -1.29 0.28 -1.3 0.18 -1.29 0.28 -1.29 0.09 -1.39 0.18 -1.29 0.1 -1.3 0 -1.29 0 -1.29 -0.1 -1.21 -0.18 -1.29 -0.19 -2.03 -0.46 -2.04 -0.64 -2.03 -0.56 -2.03 -0.64 -2.03 -0.74 -2.04 -0.74 -2.12 -0.83 -2.03 -0.74 -2.04 -0.83 -2.12 -0.74 -2.13 -0.84 -2.21 -0.74 -13.5 17.84 -0.09 0 0.46 0.27 0.47 0.37 0.37 0.28 0.37 0.28 0.46 0.28 0.37 0.27 0.37 0.28 0.37 0.28 0.27 0.28 0.37 0.18 0.37 0.28 0.37 0.18 0.84 0.46 0.83 0.46 0.74 0.56 0.83 0.55 0.83 0.47 0.83 0.46 0.83 0.46 0.83 0.46 0.84 0.37 0.83 0.37 0.92 0.28 0.83 0.18 2.68 0.56 2.5 0.74 2.12 0.92 1.85 1.02 1.57 1.29 1.29 1.48 1.02 1.66 0.74 1.85 0.46 2.13 0.19 2.3 -0.1 2.5 -0.46 2.68 0 0.09 0 0.1 0.1 0.09 0 0.09 0 0.09 0.09 0.1 0.09 0.09 0 0.09 0.18 0.37 0.1 0.18 24.58 0 0.09 -0.18 0.09 -0.28 0 -0.18 0.09 -0.09 0.1 -0.19 0.09 -0.09 0 -0.19 0.09 -0.09 0 -0.09 0 -0.09 0 -0.1 0 -0.09 -0.18 -2.31 -0.1 -2.03 0.19 -1.94 0.37 -1.76 0.55 -1.57 0.83 -1.48 1.02 -1.38 1.39 -1.21 1.56 -1.1 1.85 -0.93 2.13 -0.92 2.4 -0.83 3.42 -1.3 3.05 -1.47 2.68 -1.85 2.49 -2.13 2.13 -2.31 1.85 -2.68 1.57 -2.77 1.29 -3.05 1.02 -3.23 0.73 -3.42 0.47 -3.51 0.18 -3.7 -0.09 -3.51 -0.37 -3.42 -0.65 -3.14 -0.92 -2.96 -1.29 -2.77 -1.58 -2.49 -1.75 -2.41 -2.13 -2.21 -2.4 -2.04 -2.59 -1.75 -2.95 -1.66 -3.14 -1.48 -1.48 -0.65 -1.57 -0.55 -1.48 -0.56 -1.57 -0.55 -1.48 -0.46 -1.57 -0.56 -1.57 -0.46 -1.57 -0.56 -1.48 -0.46 -1.57 -0.46 -1.57 -0.55 -1.57 -0.47 -1.48 -0.46 -1.57 -0.55 -1.57 -0.46 -1.57 -0.47 -1.57 -0.46 -1.58 -0.46 -1.47 -0.46 -1.57 -0.56 -1.48 -0.55 -1.57 -0.65 -1.39 -0.64 -1.48 -0.74 -0.64 -0.47 -0.74 -0.55 -0.65 -0.65 -0.55 -0.83 -0.65 -0.74 -0.46 -0.92 -0.47 -0.93 -0.46 -0.92 -0.28 -0.92 -0.18 -0.83 -0.18 -0.93 0 -0.83 0.09 -0.74 0.27 -0.74 0.28 -0.74 0.46 -0.74 0.56 -0.64 0.55 -0.74 0.65 -0.74 0.74 -0.65 0.74 -0.65 0.74 -0.64 0.64 -0.56 0.74 -0.46 0.65 -0.37 0.65 -0.28 0.74 -0.27 0.83 -0.19 0.74 -0.18 0.83 -0.1 0.83 -0.09 0.83 -0.09 0.83 0 0.74 0.09 0.83 0.09 0.75 0.1 2.03 0.37 2.03 0.46 1.94 0.37 2.03 0.46 2.03 0.56 2.04 0.46 2.03 0.55 2.03 0.46 2.13 0.56 2.03 0.55 2.13 0.55 2.12 0.56 12.29 -19.59 -23.1 -9.24 -0.55 -12.19 -25.97 0 0 12.56z"/>
  <path class="fil18 str0" d="M2351.64 433.91l11.09 2.68 10.72 3.6 10.35 4.53 9.88 5.45 9.43 6.19 8.87 7.02 8.22 7.77 7.49 8.4 6.83 9.06 6.01 9.7 5.08 10.25 4.25 10.72 3.24 11.18 2.12 11.65 0.18 1.1 0.1 1.11 0.18 1.11 0.09 1.11 0.1 1.11 0.09 1.02 0.09 1.11 0.1 1.01 0.09 1.02 0.09 1.01 0.09 1.02 0.1 0.92 0.09 0.93 0 0.92 0.09 0.83 0.09 0.84 0 0.83 0.09 0.74 0 0.09 -0.27 6.56 -0.46 6.37 -0.75 6.2 -1.01 6.09 -1.2 6.01 -1.48 5.82 -1.66 5.64 -2.04 5.54 -2.12 5.45 -2.49 5.27 -2.69 5.17 -2.86 4.99 -3.23 4.9 -3.42 4.71 -3.7 4.71 -3.88 4.44 -4.25 4.43 -4.44 4.25 -2.3 2.13 -2.22 2.03 -2.31 2.13 -2.22 2.12 -2.22 2.13 -2.22 2.21 -2.12 2.13 -2.13 2.22 -2.12 2.31 -2.03 2.21 -2.03 2.41 -1.95 2.31 -1.94 2.4 -1.75 2.49 -1.85 2.5 -1.66 2.59 -1.67 2.67 -1.57 2.69 -0.18 0.27 -0.19 0.19 -0.18 0.27 -0.19 0.19 -0.18 0.28 -0.28 0.18 -0.18 0.18 -0.28 0.28 -0.19 0.19 -0.27 0.18 -0.28 0.19 -0.28 0.09 -0.27 0.18 -0.28 0.19 -0.28 0.09 -0.28 0.1 -0.27 0.18 -0.28 0.09 -4.99 1.94 -5.08 1.66 -5.08 1.48 -5.18 1.2 -5.17 1.11 -5.17 0.84 -5.27 0.55 -5.27 0.37 -5.27 0.18 -5.26 0 -5.27 -0.27 -5.27 -0.46 -5.17 -0.75 -5.27 -0.92 -5.17 -1.11 -5.08 -1.38 -5.08 -1.58 -5.09 -1.75 -0.37 -0.18 -0.37 -0.19 -0.37 -0.18 -0.37 -0.28 -0.36 -0.18 -0.37 -0.28 -0.37 -0.28 -0.37 -0.28 -0.37 -0.28 -0.28 -0.37 -0.37 -0.27 -0.28 -0.37 -0.28 -0.28 -0.37 -0.37 -0.18 -0.37 -0.28 -0.27 -0.27 -0.37 -0.19 -0.37 -1.48 -2.31 -1.48 -2.31 -1.47 -2.31 -1.57 -2.22 -1.67 -2.22 -1.57 -2.22 -1.75 -2.12 -1.67 -2.13 -1.75 -2.12 -1.76 -2.03 -1.85 -2.13 -1.84 -1.94 -1.85 -2.03 -1.94 -1.94 -1.94 -1.94 -2.03 -1.85 -2.04 -1.85 -2.03 -1.85 -6.47 -6.09 -6 -6.29 -5.45 -6.37 -5.09 -6.57 -4.53 -6.74 -4.06 -6.93 -3.51 -7.02 -3.05 -7.21 -2.59 -7.3 -2.03 -7.48 -1.57 -7.67 -1.02 -7.76 -0.55 -7.95 0 -8.04 0.55 -8.22 1.02 -8.32 1.57 -8.5 2.12 -8.59 2.59 -8.41 2.96 -8.04 3.32 -7.67 3.79 -7.3 4.07 -6.92 4.52 -6.47 4.81 -6.19 5.27 -5.73 5.54 -5.36 5.91 -4.99 6.29 -4.53 6.65 -4.25 7.02 -3.79 7.3 -3.51 7.67 -3.05 7.95 -2.59 8.31 -2.3 8.6 -1.85 11.73 -1.66 11.55 -0.56 11.55 0.65 11.27 1.57zm-38.53 72.99l-1.11 0.46 -1.2 0.47 -1.11 0.46 -1.01 0.46 -1.11 0.46 -1.11 0.47 -1.02 0.46 -1.01 0.46 -1.02 0.46 -1.02 0.46 -0.92 0.56 -1.02 0.55 -2.86 1.94 -2.59 2.03 -2.31 2.22 -2.03 2.31 -1.76 2.5 -1.47 2.67 -1.2 2.78 -0.93 2.96 -0.65 3.04 -0.46 3.24 -0.18 3.32 0.09 3.42 0.18 2.96 0.56 2.86 0.74 2.78 1.11 2.67 1.29 2.59 1.57 2.4 1.85 2.22 2.03 2.03 2.22 1.76 2.4 1.66 2.59 1.3 2.77 1.11 1.48 0.55 1.57 0.65 1.48 0.55 1.57 0.46 1.57 0.56 1.48 0.46 1.57 0.56 1.57 0.46 1.57 0.46 1.57 0.46 1.48 0.46 1.57 0.56 1.57 0.46 1.57 0.55 1.57 0.47 1.57 0.46 1.58 0.46 1.57 0.46 1.56 0.56 1.49 0.46 1.56 0.64 1.48 0.56 1.48 0.65 1.39 0.74 0.74 0.46 0.64 0.55 0.65 0.65 0.56 0.64 0.55 0.83 0.55 0.84 0.56 0.83 0.37 0.92 0.46 0.93 0.28 0.92 0.27 0.83 0.19 0.93 0.18 1.1 -0.09 1.11 -0.19 1.02 -0.36 0.93 -0.47 0.92 -0.64 0.83 -0.74 0.74 -0.83 0.65 -0.93 0.55 -0.92 0.56 -1.02 0.36 -1.1 0.28 -1.3 0.28 -1.29 0.28 -1.3 0.18 -1.29 0.28 -1.29 0.09 -1.39 0.18 -1.29 0.1 -1.3 0 -1.29 0 -1.29 -0.1 -1.21 -0.18 -1.29 -0.19 -2.03 -0.46 -2.04 -0.64 -2.03 -0.56 -2.03 -0.64 -2.03 -0.74 -2.04 -0.74 -2.12 -0.83 -2.03 -0.74 -2.04 -0.83 -2.12 -0.74 -2.13 -0.84 -2.21 -0.74 -13.5 17.84 -0.09 0 0.46 0.27 0.47 0.37 0.37 0.28 0.37 0.28 0.46 0.28 0.37 0.27 0.37 0.28 0.37 0.28 0.27 0.28 0.37 0.18 0.37 0.28 0.37 0.18 0.84 0.46 0.83 0.46 0.74 0.56 0.83 0.55 0.83 0.47 0.83 0.46 0.83 0.46 0.83 0.46 0.84 0.37 0.83 0.37 0.92 0.28 0.83 0.18 2.68 0.56 2.5 0.74 2.12 0.92 1.85 1.02 1.57 1.29 1.29 1.48 1.02 1.66 0.74 1.85 0.46 2.13 0.19 2.3 -0.1 2.5 -0.46 2.68 0 0.09 0 0.1 0.1 0.09 0 0.09 0 0.09 0.09 0.1 0.09 0.09 0 0.09 0.18 0.37 0.1 0.18 24.58 0 0.09 -0.18 0.09 -0.28 0 -0.18 0.09 -0.09 0.1 -0.19 0.09 -0.09 0 -0.19 0.09 -0.09 0 -0.09 0 -0.09 0 -0.1 0 -0.09 -0.18 -2.31 -0.1 -2.03 0.19 -1.94 0.37 -1.76 0.55 -1.57 0.83 -1.48 1.02 -1.38 1.39 -1.21 1.56 -1.1 1.85 -0.93 2.13 -0.92 2.4 -0.83 3.42 -1.3 3.05 -1.47 2.68 -1.85 2.49 -2.13 2.13 -2.31 1.85 -2.68 1.57 -2.77 1.29 -3.05 1.02 -3.23 0.73 -3.42 0.47 -3.51 0.18 -3.7 -0.09 -3.51 -0.37 -3.42 -0.65 -3.14 -0.92 -2.96 -1.29 -2.77 -1.58 -2.49 -1.75 -2.41 -2.13 -2.21 -2.4 -2.04 -2.59 -1.75 -2.95 -1.66 -3.14 -1.48 -1.48 -0.65 -1.57 -0.55 -1.48 -0.56 -1.57 -0.55 -1.48 -0.46 -1.57 -0.56 -1.57 -0.46 -1.57 -0.56 -1.48 -0.46 -1.57 -0.46 -1.57 -0.55 -1.57 -0.47 -1.48 -0.46 -1.57 -0.55 -1.57 -0.46 -1.57 -0.47 -1.57 -0.46 -1.58 -0.46 -1.47 -0.46 -1.57 -0.56 -1.48 -0.55 -1.57 -0.65 -1.39 -0.64 -1.48 -0.74 -0.64 -0.47 -0.74 -0.55 -0.65 -0.65 -0.55 -0.83 -0.65 -0.74 -0.46 -0.92 -0.47 -0.93 -0.46 -0.92 -0.28 -0.92 -0.18 -0.83 -0.18 -0.93 0 -0.83 0.09 -0.74 0.27 -0.74 0.28 -0.74 0.46 -0.74 0.56 -0.64 0.55 -0.74 0.65 -0.74 0.74 -0.65 0.74 -0.65 0.74 -0.64 0.64 -0.56 0.74 -0.46 0.65 -0.37 0.65 -0.28 0.74 -0.27 0.83 -0.19 0.74 -0.18 0.83 -0.1 0.83 -0.09 0.83 -0.09 0.83 0 0.74 0.09 0.83 0.09 0.75 0.1 2.03 0.37 2.03 0.46 1.94 0.37 2.03 0.46 2.03 0.56 2.04 0.46 2.03 0.55 2.03 0.46 2.13 0.56 2.03 0.55 2.13 0.55 2.12 0.56 12.29 -19.59 -23.1 -9.24 -0.55 -12.19 -25.97 0 0 12.56z"/>
  <path class="fil17" d="M2485.06 626.74c13.59,13.59 21.16,21.16 22.64,22.64 -36.59,79.65 -121.04,125.94 -207.89,113.83 -99.15,-13.76 -173.16,-98.22 -173.71,-198.28 -1.48,0 -8.68,0 -21.71,0l39.73 -46.38 39.64 46.19c-15.53,0 -24.21,0 -25.97,0 -2.86,55.81 33.36,133.06 114.76,160.77 85.84,28.93 179.35,-14.5 212.51,-98.77z"/>
  <path class="fil18 str0" d="M2485.06 626.74c13.59,13.59 21.16,21.16 22.64,22.64 -36.59,79.65 -121.04,125.94 -207.89,113.83 -99.15,-13.76 -173.16,-98.22 -173.71,-198.28 -1.48,0 -8.68,0 -21.71,0l39.73 -46.38 39.64 46.19c-15.53,0 -24.21,0 -25.97,0 -2.86,55.81 33.36,133.06 114.76,160.77 85.84,28.93 179.35,-14.5 212.51,-98.77z"/>
  <g>
   <path class="fil17" d="M2527.66 564.83l20.98 0 -39.46 45.93 -39.17 -45.65c15.33,0 23.92,0 25.59,0 3.51,-51.09 -28.74,-130.28 -111.16,-160.12 -86.21,-31.42 -181.74,11.55 -215.65,96.83 -2.22,-2.31 -20.33,-20.42 -22.64,-22.64 35.85,-77.61 117.44,-123.44 202.35,-113.83 101.91,10.99 179.16,97.02 179.25,199.48l-0.09 0zm0 0l0 0 0 0z"/>
  </g>
  <path class="fil18 str0" d="M2527.66 564.83l20.98 0 -39.46 45.93 -39.17 -45.65c15.33,0 23.92,0 25.59,0 3.51,-51.09 -28.74,-130.28 -111.16,-160.12 -86.21,-31.42 -181.74,11.55 -215.65,96.83 -2.22,-2.31 -20.33,-20.42 -22.64,-22.64 35.85,-77.61 117.44,-123.44 202.35,-113.83 101.91,10.99 179.16,97.02 179.25,199.48m-0.09 0l0 0 0 0z"/>
  <path class="fil17" d="M2264.79 773.01c40.19,12.75 83.43,12.75 123.63,0.18 0,7.86 1.84,15.9 -0.65,22.18 -2.13,5.45 -8.78,9.42 -14.04,13.21 -2.5,1.76 -6.47,1.39 -9.89,1.85 -8.32,1.02 -15.71,2.4 -22.27,9.89 -8.96,10.43 -26.06,8.13 -34.19,-3.24 -2.86,-3.88 -5.91,-5.27 -10.34,-5.63 -5.92,-0.56 -11.74,-1.48 -17.56,-2.78 -8.41,-2.31 -14.32,-9.79 -14.69,-18.48 0,-1.1 0,-6.83 0,-17.18z"/>
  <path class="fil18 str0" d="M2264.79 773.01c40.19,12.75 83.43,12.75 123.63,0.18 0,7.86 1.84,15.9 -0.65,22.18 -2.13,5.45 -8.78,9.42 -14.04,13.21 -2.5,1.76 -6.47,1.39 -9.89,1.85 -8.32,1.02 -15.71,2.4 -22.27,9.89 -8.96,10.43 -26.06,8.13 -34.19,-3.24 -2.86,-3.88 -5.91,-5.27 -10.34,-5.63 -5.92,-0.56 -11.74,-1.48 -17.56,-2.78 -8.41,-2.31 -14.32,-9.79 -14.69,-18.48 0,-1.1 0,-6.83 0,-17.18z"/>
  <polygon class="fil17" points="2311.63,322.85 2343.05,322.85 2343.05,291.06 2311.63,291.06 "/>
  <polygon class="fil18 str0" points="2311.63,322.85 2343.05,322.85 2343.05,291.06 2311.63,291.06 "/>
  <polygon class="fil17" points="2149.84,713.97 2171.37,735.22 2149.75,756.84 2128.32,735.4 "/>
  <polygon class="fil18 str0" points="2149.84,713.97 2171.37,735.22 2149.75,756.84 2128.32,735.4 "/>
  <polygon class="fil17" points="2569.33,573.8 2601.12,573.8 2601.12,542.57 2569.33,542.57 "/>
  <polygon class="fil18 str0" points="2569.33,573.8 2601.12,573.8 2601.12,542.57 2569.33,542.57 "/>
  <polygon class="fil17" points="2127.76,380.5 2149.48,359.43 2170.27,380.32 2148.83,401.75 "/>
  <polygon class="fil18 str0" points="2127.76,380.5 2149.48,359.43 2170.27,380.32 2148.83,401.75 "/>
  <polygon class="fil17" points="2526.37,381.15 2505.39,401.85 2484.23,380.59 2505.21,359.62 "/>
  <polygon class="fil18 str0" points="2526.37,381.15 2505.39,401.85 2484.23,380.59 2505.21,359.62 "/>
  <path class="fil17" d="M2483.59 735.12c13.12,-13.03 20.32,-20.23 21.8,-21.71 7.02,7.02 14.05,14.14 20.98,21.16 -1.48,1.39 -8.78,8.59 -21.99,21.53l-20.79 -20.98z"/>
  <path class="fil18 str0" d="M2483.59 735.12c13.12,-13.03 20.32,-20.23 21.8,-21.71 7.02,7.02 14.05,14.14 20.98,21.16 -1.48,1.39 -8.78,8.59 -21.99,21.53l-20.79 -20.98z"/>
  <polygon class="fil17" points="2054.49,573.52 2085.63,573.52 2085.63,542.11 2054.49,542.11 "/>
  <polygon class="fil18 str0" points="2054.49,573.52 2085.63,573.52 2085.63,542.11 2054.49,542.11 "/>
  <path class="fil19" d="M3683.02 3249.83l0.34 0 0.26 0 0.27 0.07 0.27 0 0.26 0 0.27 0.06 0.27 0 0.26 0.07 0.27 0 0.27 0.07 0.26 0 0.27 0.06 0.27 0.07 0.2 0 0.26 0.07 0.27 0.06 0.27 0.07 0.26 0.07 0.2 0.06 0.27 0.07 3.46 0.93 3.4 0.87 3.47 0.87 3.47 0.73 3.46 0.73 3.47 0.67 3.47 0.6 3.53 0.6 3.46 0.53 3.54 0.47 3.46 0.4 3.53 0.33 3.54 0.33 3.53 0.27 3.46 0.2 3.54 0.13 3.53 0.07 3.53 0.07 3.54 0 3.53 -0.07 3.53 -0.13 3.47 -0.13 3.53 -0.21 3.53 -0.26 3.53 -0.34 3.47 -0.4 3.53 -0.39 3.47 -0.47 3.53 -0.53 3.47 -0.6 3.46 -0.67 3.47 -0.67 3.47 -0.73 3.46 -0.8 3.47 -0.8 3.46 -0.93 3.4 -0.94 0.34 -0.06 0.33 -0.07 0.33 -0.07 0.27 -0.06 0.27 -0.07 0.33 -0.07 0.26 0 0.27 -0.06 0.27 0 0.27 0 0.19 0 0.27 0 0.27 0.06 0.2 0 0.2 0.07 0.26 0.07 0.21 0 0.19 0.13 0.2 0.07 0.21 0.06 0.19 0.07 0.2 0.13 0.2 0.14 0.14 0.13 0.2 0.13 0.2 0.14 0.2 0.13 0.13 0.2 0.2 0.13 0.2 0.2 0.13 0.2 0.2 0.2 0.2 0.2 0.14 0.2 0.2 0.27 0.13 0.2 0.2 0.27 2.4 3.39 2.33 3.4 2.33 3.47 2.2 3.47 2.27 3.46 2.13 3.47 2.14 3.53 2 3.47 2.06 3.6 1.94 3.53 1.86 3.6 1.87 3.6 1.8 3.6 1.66 3.66 1.67 3.67 1.6 3.66 1.53 3.74 1.47 3.73 1.4 3.73 1.4 3.8 1.26 3.8 1.2 3.8 1.14 3.87 1 3.86 1 3.87 0.93 3.93 0.8 3.93 0.73 3.93 0.74 4 0.53 4 0.53 4 0.4 4.07 0.4 4.06 0.2 4.14 0.2 4.13 0.07 4.13 0 4.2 -0.2 7.66 -0.33 7.6 -0.47 7.53 -0.73 7.4 -0.87 7.27 -1 7.26 -1.2 7.14 -1.4 6.99 -1.6 6.94 -1.73 6.8 -1.93 6.73 -2.07 6.66 -2.27 6.53 -2.46 6.4 -2.6 6.33 -2.8 6.27 -3 6.13 -3.2 6 -3.33 5.93 -3.54 5.8 -3.73 5.73 -3.93 5.6 -4.07 5.47 -4.26 5.4 -4.47 5.26 -4.6 5.2 -4.86 5 -5 5 -5.2 4.8 -5.4 4.73 -5.6 4.6 -5.73 4.53 -6 4.33 -6.13 4.27 -6.33 4.2 -6.53 4 -6.74 3.93 -1.53 0.87 -1.6 0.87 -1.6 0.79 -1.6 0.87 -1.6 0.8 -1.6 0.73 -1.6 0.8 -1.6 0.74 -1.67 0.73 -1.59 0.73 -1.67 0.74 -1.67 0.73 -1.66 0.67 -1.6 0.66 -1.67 0.67 -1.73 0.67 -1.67 0.66 -1.66 0.67 -1.67 0.66 -1.67 0.61 -1.73 0.66 -1.67 0.6 -1.66 0.67 -1.74 0.6 -1.66 0.6 -1.67 0.66 -1.73 0.6 -1.67 0.6 -1.66 0.67 -1.74 0.6 -1.66 0.6 -1.67 0.67 -1.73 0.6 -1.67 0.66 -1.66 0.67 -1.67 0.6 -1.67 0.67 -0.2 0.06 -0.27 0.14 -0.19 0.06 -0.2 0.07 -0.27 0.07 -0.2 0.06 -0.27 0.07 -0.26 0.06 -0.21 0.07 -0.26 0 -0.27 0.07 -0.2 0.07 -0.26 0 -0.27 0.06 -0.27 0 -0.2 0.07 -0.26 0 -0.27 0 -0.27 0.07 -0.26 0 -0.27 0 -0.2 0 -0.27 0 -0.26 0 -0.27 0 -0.27 0 -0.2 -0.07 -0.26 0 -0.27 0 -0.2 -0.07 -0.27 0 -0.26 -0.06 -0.2 -0.07 -0.27 0 -0.2 -0.07 -0.27 -0.07 -0.2 -0.06 -5.33 -1.6 -5.26 -1.6 -5.2 -1.73 -5.2 -1.8 -5.07 -1.87 -5.06 -2 -5 -2 -4.94 -2.13 -4.86 -2.2 -4.8 -2.27 -4.8 -2.39 -4.66 -2.41 -4.67 -2.53 -4.53 -2.67 -4.47 -2.66 -4.46 -2.8 -4.34 -2.87 -4.33 -3 -4.2 -3.06 -4.2 -3.13 -4.06 -3.27 -4.07 -3.33 -3.93 -3.4 -3.87 -3.53 -3.8 -3.67 -3.73 -3.67 -3.66 -3.86 -3.6 -3.93 -3.47 -4 -3.46 -4.14 -3.34 -4.2 -3.26 -4.33 -3.2 -4.46 -3.07 -4.54 -3.07 -4.66 -2.93 -4.73 -2.86 -4.87 -1.67 -2.87 -1.6 -2.93 -1.6 -2.93 -1.6 -3 -1.47 -2.93 -1.46 -3 -1.4 -3 -1.4 -3.07 -1.33 -3.06 -1.34 -3 -1.26 -3.14 -1.2 -3.06 -1.14 -3.14 -1.13 -3.13 -1.07 -3.13 -1.06 -3.13 -1 -3.2 -0.93 -3.13 -0.94 -3.2 -0.87 -3.2 -0.86 -3.2 -0.74 -3.27 -0.73 -3.2 -0.73 -3.26 -0.67 -3.27 -0.6 -3.27 -0.53 -3.26 -0.53 -3.33 -0.47 -3.27 -0.47 -3.33 -0.33 -3.27 -0.4 -3.33 -0.27 -3.34 -0.26 -3.33 -0.2 -3.33 -0.14 -3.33 -0.13 -3.34 0.07 -4.86 0.13 -4.8 0.2 -4.73 0.33 -4.67 0.34 -4.66 0.46 -4.6 0.54 -4.54 0.6 -4.46 0.66 -4.47 0.8 -4.4 0.8 -4.33 0.93 -4.26 1 -4.27 1 -4.2 1.14 -4.2 1.2 -4.13 1.26 -4.07 1.34 -4.06 1.4 -4 1.46 -4 1.6 -3.93 1.6 -3.94 1.67 -3.86 1.73 -3.87 1.8 -3.8 1.8 -3.8 1.93 -3.73 2 -3.73 2.07 -3.67 2.07 -3.66 2.19 -3.67 2.21 -3.6 2.26 -3.6 2.33 -3.53 2.4 -3.53 2.47 -3.54 2.47 -3.53 0.13 -0.13 0.07 -0.13 0.13 -0.14 0.13 -0.06 0.14 -0.14 0.13 -0.13 0.13 -0.13 0.2 -0.07 0.14 -0.13 0.2 -0.14 0.2 -0.06 0.13 -0.14 0.2 -0.06 0.2 -0.14 0.2 -0.06 0.2 -0.07 0.2 -0.07 0.2 -0.06 0.27 -0.07 0.2 -0.07 0.19 -0.06 0.21 -0.07 0.2 -0.07 0.19 -0.06 0.27 0 0.2 -0.07 0.2 0 0.2 0 0.2 -0.07 0.2 0 0.2 0 0.13 0 0.21 0 0.19 0.07 0.14 0 0.2 0 0.13 0.07 3.47 0.93 3.46 0.93 3.54 0.8 3.46 0.8 3.54 0.73 3.53 0.67 3.53 0.6 3.53 0.6 3.54 0.54 3.53 0.46 3.53 0.4 3.6 0.4 3.53 0.27 3.6 0.26 3.53 0.21 3.54 0.13 3.59 0.13 3.6 0.07 3.54 0 3.6 -0.07 3.53 -0.13 3.6 -0.13 3.53 -0.27 3.53 -0.27 3.6 -0.27 3.54 -0.4 3.53 -0.46 3.6 -0.47 3.53 -0.53 3.53 -0.53 3.47 -0.67 3.53 -0.67 3.53 -0.73 3.47 -0.8 3.53 -0.87 3.47 -0.93 3.47 -0.93 0.26 -0.07 0.2 -0.07 0.27 -0.06 0.27 0 0.26 -0.07 0.27 -0.07 0.26 0 0.2 -0.06 0.27 0 0.27 0 0.26 -0.07 0.27 0 0.27 0 0.26 0 0.27 0 0.27 0 0.26 0zm-8.8 41.46l-4.39 0.93 -4.47 0.8 -4.46 0.8 -4.47 0.67 -4.47 0.66 -4.53 0.6 -4.47 0.54 -4.46 0.46 -4.53 0.34 -4.54 0.33 -4.46 0.27 -4.53 0.2 -4.54 0.13 -4.46 0.13 -4.53 0 -4.54 -0.06 -4.53 -0.14 -4.53 -0.2 -4.47 -0.2 -4.53 -0.33 -4.53 -0.4 -4.47 -0.4 -4.53 -0.53 -4.53 -0.54 -4.47 -0.66 -0.2 0 -0.2 0 -0.26 0 -0.21 0 -0.26 0.06 -0.27 0.07 -0.2 0.07 -0.27 0.06 -0.26 0.07 -0.27 0.13 -0.26 0.14 -0.27 0.13 -0.2 0.13 -0.27 0.14 -0.26 0.13 -0.2 0.2 -0.27 0.13 -0.2 0.2 -0.27 0.14 -0.2 0.2 -0.2 0.2 -0.2 0.2 -0.13 0.13 -0.2 0.2 -0.13 0.2 -0.14 0.2 -0.13 0.2 -1.93 3.4 -1.8 3.46 -1.8 3.47 -1.74 3.47 -1.73 3.46 -1.6 3.53 -1.53 3.54 -1.47 3.53 -1.4 3.53 -1.33 3.6 -1.27 3.6 -1.2 3.67 -1.06 3.6 -1.07 3.66 -0.93 3.73 -0.87 3.67 -0.8 3.73 -0.67 3.74 -0.66 3.73 -0.53 3.8 -0.4 3.8 -0.34 3.8 -0.26 3.86 -0.14 3.87 -0.06 3.86 0.06 3.87 0.14 3.93 0.66 9.8 0.94 9.53 1.26 9.4 1.53 9.13 1.87 9 2.2 8.73 2.53 8.6 2.8 8.33 3.13 8.13 3.47 7.94 3.73 7.73 4.07 7.53 4.4 7.26 4.73 7.14 5.07 6.86 5.33 6.67 5.73 6.39 6 6.27 6.33 6 6.67 5.73 6.99 5.6 7.27 5.33 7.67 5.07 7.99 4.93 8.34 4.66 8.59 4.4 9 4.2 0.94 0.4 0.86 0.4 0.93 0.4 0.94 0.34 0.93 0.4 0.87 0.39 0.93 0.34 0.93 0.4 0.94 0.33 0.93 0.4 1 0.34 0.93 0.33 0.94 0.4 1 0.33 0.93 0.33 1 0.4 0.93 0.34 1 0.4 1 0.33 1 0.4 0.93 0.34 1.01 0.39 1.06 0.34 1 0.4 1 0.33 1.07 0.4 1 0.4 0 -60.12 0 -0.13 0 -0.2 0 -0.2 0 -0.14 0 -0.2 -0.07 -0.13 0 -0.2 0 -0.13 0 -0.2 -0.07 -0.2 0 -0.14 0 -0.2 -0.06 -0.2 0 -0.2 -0.07 -0.13 0 -0.2 0 -0.2 -0.07 -0.4 -0.06 -0.2 0 -0.2 -0.07 -0.27 0 -0.2 -0.07 -0.2 0 -0.26 0 -0.2 -0.06 -0.27 -3.14 -0.06 -3.06 -0.14 -3.07 -0.27 -3.06 -0.33 -3.07 -0.47 -3 -0.46 -3 -0.6 -3 -0.73 -3 -0.74 -2.93 -0.86 -2.87 -1 -2.86 -1 -2.87 -1.14 -2.8 -1.2 -2.8 -1.26 -2.73 -1.34 -2.67 -1.46 -2.66 -1.54 -2.6 -1.59 -2.6 -1.67 -2.47 -1.74 -2.46 -1.79 -2.47 -1.94 -2.33 -1.93 -2.33 -2.07 -2.27 -2.13 -2.2 -2.2 -2.2 -2.26 -2.13 -2.27 -2 -2.33 -2 -2.47 -1.87 -2.47 -1.8 -2.46 -1.73 -2.6 -1.67 -2.6 -1.53 -2.67 -1.53 -2.66 -1.4 -2.74 -1.34 -2.8 -1.2 -2.79 -1.13 -2.87 -1.07 -2.93 -1 -2.87 -0.86 -3 -0.8 -2.93 -0.74 -3 -0.6 -3.07 -0.53 -3 -0.47 -3.06 -0.33 -3.14 -0.27 -3.06 -0.13 -3.13 -0.06 -3.14 0 -3.13 0.06 -2.73 0.13 -2.67 0.21 -2.73 0.26 -2.67 0.34 -2.6 0.33 -2.66 0.46 -2.6 0.54 -2.53 0.6 -2.54 0.6 -2.53 0.73 -2.54 0.73 -2.46 0.87 -2.47 0.93 -2.4 0.94 -2.39 1.06 -2.41 1.07 -2.33 1.13 -2.4 1.27 -2.26 1.27 -2.27 1.33 -2.27 1.4 -2.26 1.47 -2.2 1.53 -2.2 1.6 -2.13 1.66 -2.14 1.74 -2.13 2.33 -2.73 2.4 -2.6 2.46 -2.53 2.47 -2.41 2.6 -2.33 2.6 -2.2 2.6 -2.06 2.73 -2 2.73 -1.94 2.81 -1.79 2.86 -1.74 2.87 -1.6 2.93 -1.53 3 -1.4 3.07 -1.33 3.06 -1.2 3.13 -1.14 3.14 -1.06 3.26 -0.93 3.27 -0.87 3.26 -0.73 3.4 -0.67 3.4 -0.54 3.4 -0.46 3.54 -0.4 3.53 -0.27 3.53 -0.2 0 -31.39 -4.4 1.07 -4.47 0.93zm-8.79 58.25l-8.47 2.6 -8.06 3.54 -7.6 4.26 -7 5.13 -6.47 5.8 -5.73 6.47 -5 7.06 -4.26 7.6 -3.47 8.07 -2.53 8.53 -1.53 8.86 -0.6 9.2 0.6 9.2 1.6 8.86 2.59 8.53 3.47 8.07 4.27 7.6 5.06 7 5.87 6.46 6.46 5.73 7.07 5 7.6 4.27 8.13 3.4 8.53 2.46 8.87 1.54 9.19 0.53 9.2 -0.53 8.87 -1.47 8.46 -2.53 8.07 -3.4 7.59 -4.2 7.07 -5 6.4 -5.73 5.8 -6.4 5.06 -7.07 4.27 -7.53 3.4 -8.06 2.53 -8.47 1.6 -8.86 0.53 -9.2 0 -0.4 0 -0.13 0 -0.2 0 -0.27 0 -0.07 -0.6 -9.19 -1.66 -8.87 -2.54 -8.47 -3.46 -8.06 -4.33 -7.6 -5.14 -7 -5.8 -6.39 -6.46 -5.74 -7.07 -5.06 -7.59 -4.2 -8.14 -3.4 -8.53 -2.47 -8.86 -1.53 -9.2 -0.53 -9.2 0.66 -8.86 1.6z"/>
  <path class="fil20 str0" d="M3683.02 3249.83l0.34 0 0.26 0 0.27 0.07 0.27 0 0.26 0 0.27 0.06 0.27 0 0.26 0.07 0.27 0 0.27 0.07 0.26 0 0.27 0.06 0.27 0.07 0.2 0 0.26 0.07 0.27 0.06 0.27 0.07 0.26 0.07 0.2 0.06 0.27 0.07 3.46 0.93 3.4 0.87 3.47 0.87 3.47 0.73 3.46 0.73 3.47 0.67 3.47 0.6 3.53 0.6 3.46 0.53 3.54 0.47 3.46 0.4 3.53 0.33 3.54 0.33 3.53 0.27 3.46 0.2 3.54 0.13 3.53 0.07 3.53 0.07 3.54 0 3.53 -0.07 3.53 -0.13 3.47 -0.13 3.53 -0.21 3.53 -0.26 3.53 -0.34 3.47 -0.4 3.53 -0.39 3.47 -0.47 3.53 -0.53 3.47 -0.6 3.46 -0.67 3.47 -0.67 3.47 -0.73 3.46 -0.8 3.47 -0.8 3.46 -0.93 3.4 -0.94 0.34 -0.06 0.33 -0.07 0.33 -0.07 0.27 -0.06 0.27 -0.07 0.33 -0.07 0.26 0 0.27 -0.06 0.27 0 0.27 0 0.19 0 0.27 0 0.27 0.06 0.2 0 0.2 0.07 0.26 0.07 0.21 0 0.19 0.13 0.2 0.07 0.21 0.06 0.19 0.07 0.2 0.13 0.2 0.14 0.14 0.13 0.2 0.13 0.2 0.14 0.2 0.13 0.13 0.2 0.2 0.13 0.2 0.2 0.13 0.2 0.2 0.2 0.2 0.2 0.14 0.2 0.2 0.27 0.13 0.2 0.2 0.27 2.4 3.39 2.33 3.4 2.33 3.47 2.2 3.47 2.27 3.46 2.13 3.47 2.14 3.53 2 3.47 2.06 3.6 1.94 3.53 1.86 3.6 1.87 3.6 1.8 3.6 1.66 3.66 1.67 3.67 1.6 3.66 1.53 3.74 1.47 3.73 1.4 3.73 1.4 3.8 1.26 3.8 1.2 3.8 1.14 3.87 1 3.86 1 3.87 0.93 3.93 0.8 3.93 0.73 3.93 0.74 4 0.53 4 0.53 4 0.4 4.07 0.4 4.06 0.2 4.14 0.2 4.13 0.07 4.13 0 4.2 -0.2 7.66 -0.33 7.6 -0.47 7.53 -0.73 7.4 -0.87 7.27 -1 7.26 -1.2 7.14 -1.4 6.99 -1.6 6.94 -1.73 6.8 -1.93 6.73 -2.07 6.66 -2.27 6.53 -2.46 6.4 -2.6 6.33 -2.8 6.27 -3 6.13 -3.2 6 -3.33 5.93 -3.54 5.8 -3.73 5.73 -3.93 5.6 -4.07 5.47 -4.26 5.4 -4.47 5.26 -4.6 5.2 -4.86 5 -5 5 -5.2 4.8 -5.4 4.73 -5.6 4.6 -5.73 4.53 -6 4.33 -6.13 4.27 -6.33 4.2 -6.53 4 -6.74 3.93 -1.53 0.87 -1.6 0.87 -1.6 0.79 -1.6 0.87 -1.6 0.8 -1.6 0.73 -1.6 0.8 -1.6 0.74 -1.67 0.73 -1.59 0.73 -1.67 0.74 -1.67 0.73 -1.66 0.67 -1.6 0.66 -1.67 0.67 -1.73 0.67 -1.67 0.66 -1.66 0.67 -1.67 0.66 -1.67 0.61 -1.73 0.66 -1.67 0.6 -1.66 0.67 -1.74 0.6 -1.66 0.6 -1.67 0.66 -1.73 0.6 -1.67 0.6 -1.66 0.67 -1.74 0.6 -1.66 0.6 -1.67 0.67 -1.73 0.6 -1.67 0.66 -1.66 0.67 -1.67 0.6 -1.67 0.67 -0.2 0.06 -0.27 0.14 -0.19 0.06 -0.2 0.07 -0.27 0.07 -0.2 0.06 -0.27 0.07 -0.26 0.06 -0.21 0.07 -0.26 0 -0.27 0.07 -0.2 0.07 -0.26 0 -0.27 0.06 -0.27 0 -0.2 0.07 -0.26 0 -0.27 0 -0.27 0.07 -0.26 0 -0.27 0 -0.2 0 -0.27 0 -0.26 0 -0.27 0 -0.27 0 -0.2 -0.07 -0.26 0 -0.27 0 -0.2 -0.07 -0.27 0 -0.26 -0.06 -0.2 -0.07 -0.27 0 -0.2 -0.07 -0.27 -0.07 -0.2 -0.06 -5.33 -1.6 -5.26 -1.6 -5.2 -1.73 -5.2 -1.8 -5.07 -1.87 -5.06 -2 -5 -2 -4.94 -2.13 -4.86 -2.2 -4.8 -2.27 -4.8 -2.39 -4.66 -2.41 -4.67 -2.53 -4.53 -2.67 -4.47 -2.66 -4.46 -2.8 -4.34 -2.87 -4.33 -3 -4.2 -3.06 -4.2 -3.13 -4.06 -3.27 -4.07 -3.33 -3.93 -3.4 -3.87 -3.53 -3.8 -3.67 -3.73 -3.67 -3.66 -3.86 -3.6 -3.93 -3.47 -4 -3.46 -4.14 -3.34 -4.2 -3.26 -4.33 -3.2 -4.46 -3.07 -4.54 -3.07 -4.66 -2.93 -4.73 -2.86 -4.87 -1.67 -2.87 -1.6 -2.93 -1.6 -2.93 -1.6 -3 -1.47 -2.93 -1.46 -3 -1.4 -3 -1.4 -3.07 -1.33 -3.06 -1.34 -3 -1.26 -3.14 -1.2 -3.06 -1.14 -3.14 -1.13 -3.13 -1.07 -3.13 -1.06 -3.13 -1 -3.2 -0.93 -3.13 -0.94 -3.2 -0.87 -3.2 -0.86 -3.2 -0.74 -3.27 -0.73 -3.2 -0.73 -3.26 -0.67 -3.27 -0.6 -3.27 -0.53 -3.26 -0.53 -3.33 -0.47 -3.27 -0.47 -3.33 -0.33 -3.27 -0.4 -3.33 -0.27 -3.34 -0.26 -3.33 -0.2 -3.33 -0.14 -3.33 -0.13 -3.34 0.07 -4.86 0.13 -4.8 0.2 -4.73 0.33 -4.67 0.34 -4.66 0.46 -4.6 0.54 -4.54 0.6 -4.46 0.66 -4.47 0.8 -4.4 0.8 -4.33 0.93 -4.26 1 -4.27 1 -4.2 1.14 -4.2 1.2 -4.13 1.26 -4.07 1.34 -4.06 1.4 -4 1.46 -4 1.6 -3.93 1.6 -3.94 1.67 -3.86 1.73 -3.87 1.8 -3.8 1.8 -3.8 1.93 -3.73 2 -3.73 2.07 -3.67 2.07 -3.66 2.19 -3.67 2.21 -3.6 2.26 -3.6 2.33 -3.53 2.4 -3.53 2.47 -3.54 2.47 -3.53 0.13 -0.13 0.07 -0.13 0.13 -0.14 0.13 -0.06 0.14 -0.14 0.13 -0.13 0.13 -0.13 0.2 -0.07 0.14 -0.13 0.2 -0.14 0.2 -0.06 0.13 -0.14 0.2 -0.06 0.2 -0.14 0.2 -0.06 0.2 -0.07 0.2 -0.07 0.2 -0.06 0.27 -0.07 0.2 -0.07 0.19 -0.06 0.21 -0.07 0.2 -0.07 0.19 -0.06 0.27 0 0.2 -0.07 0.2 0 0.2 0 0.2 -0.07 0.2 0 0.2 0 0.13 0 0.21 0 0.19 0.07 0.14 0 0.2 0 0.13 0.07 3.47 0.93 3.46 0.93 3.54 0.8 3.46 0.8 3.54 0.73 3.53 0.67 3.53 0.6 3.53 0.6 3.54 0.54 3.53 0.46 3.53 0.4 3.6 0.4 3.53 0.27 3.6 0.26 3.53 0.21 3.54 0.13 3.59 0.13 3.6 0.07 3.54 0 3.6 -0.07 3.53 -0.13 3.6 -0.13 3.53 -0.27 3.53 -0.27 3.6 -0.27 3.54 -0.4 3.53 -0.46 3.6 -0.47 3.53 -0.53 3.53 -0.53 3.47 -0.67 3.53 -0.67 3.53 -0.73 3.47 -0.8 3.53 -0.87 3.47 -0.93 3.47 -0.93 0.26 -0.07 0.2 -0.07 0.27 -0.06 0.27 0 0.26 -0.07 0.27 -0.07 0.26 0 0.2 -0.06 0.27 0 0.27 0 0.26 -0.07 0.27 0 0.27 0 0.26 0 0.27 0 0.27 0 0.26 0zm-8.8 41.46l-4.39 0.93 -4.47 0.8 -4.46 0.8 -4.47 0.67 -4.47 0.66 -4.53 0.6 -4.47 0.54 -4.46 0.46 -4.53 0.34 -4.54 0.33 -4.46 0.27 -4.53 0.2 -4.54 0.13 -4.46 0.13 -4.53 0 -4.54 -0.06 -4.53 -0.14 -4.53 -0.2 -4.47 -0.2 -4.53 -0.33 -4.53 -0.4 -4.47 -0.4 -4.53 -0.53 -4.53 -0.54 -4.47 -0.66 -0.2 0 -0.2 0 -0.26 0 -0.21 0 -0.26 0.06 -0.27 0.07 -0.2 0.07 -0.27 0.06 -0.26 0.07 -0.27 0.13 -0.26 0.14 -0.27 0.13 -0.2 0.13 -0.27 0.14 -0.26 0.13 -0.2 0.2 -0.27 0.13 -0.2 0.2 -0.27 0.14 -0.2 0.2 -0.2 0.2 -0.2 0.2 -0.13 0.13 -0.2 0.2 -0.13 0.2 -0.14 0.2 -0.13 0.2 -1.93 3.4 -1.8 3.46 -1.8 3.47 -1.74 3.47 -1.73 3.46 -1.6 3.53 -1.53 3.54 -1.47 3.53 -1.4 3.53 -1.33 3.6 -1.27 3.6 -1.2 3.67 -1.06 3.6 -1.07 3.66 -0.93 3.73 -0.87 3.67 -0.8 3.73 -0.67 3.74 -0.66 3.73 -0.53 3.8 -0.4 3.8 -0.34 3.8 -0.26 3.86 -0.14 3.87 -0.06 3.86 0.06 3.87 0.14 3.93 0.66 9.8 0.94 9.53 1.26 9.4 1.53 9.13 1.87 9 2.2 8.73 2.53 8.6 2.8 8.33 3.13 8.13 3.47 7.94 3.73 7.73 4.07 7.53 4.4 7.26 4.73 7.14 5.07 6.86 5.33 6.67 5.73 6.39 6 6.27 6.33 6 6.67 5.73 6.99 5.6 7.27 5.33 7.67 5.07 7.99 4.93 8.34 4.66 8.59 4.4 9 4.2 0.94 0.4 0.86 0.4 0.93 0.4 0.94 0.34 0.93 0.4 0.87 0.39 0.93 0.34 0.93 0.4 0.94 0.33 0.93 0.4 1 0.34 0.93 0.33 0.94 0.4 1 0.33 0.93 0.33 1 0.4 0.93 0.34 1 0.4 1 0.33 1 0.4 0.93 0.34 1.01 0.39 1.06 0.34 1 0.4 1 0.33 1.07 0.4 1 0.4 0 -60.12 0 -0.13 0 -0.2 0 -0.2 0 -0.14 0 -0.2 -0.07 -0.13 0 -0.2 0 -0.13 0 -0.2 -0.07 -0.2 0 -0.14 0 -0.2 -0.06 -0.2 0 -0.2 -0.07 -0.13 0 -0.2 0 -0.2 -0.07 -0.4 -0.06 -0.2 0 -0.2 -0.07 -0.27 0 -0.2 -0.07 -0.2 0 -0.26 0 -0.2 -0.06 -0.27 -3.14 -0.06 -3.06 -0.14 -3.07 -0.27 -3.06 -0.33 -3.07 -0.47 -3 -0.46 -3 -0.6 -3 -0.73 -3 -0.74 -2.93 -0.86 -2.87 -1 -2.86 -1 -2.87 -1.14 -2.8 -1.2 -2.8 -1.26 -2.73 -1.34 -2.67 -1.46 -2.66 -1.54 -2.6 -1.59 -2.6 -1.67 -2.47 -1.74 -2.46 -1.79 -2.47 -1.94 -2.33 -1.93 -2.33 -2.07 -2.27 -2.13 -2.2 -2.2 -2.2 -2.26 -2.13 -2.27 -2 -2.33 -2 -2.47 -1.87 -2.47 -1.8 -2.46 -1.73 -2.6 -1.67 -2.6 -1.53 -2.67 -1.53 -2.66 -1.4 -2.74 -1.34 -2.8 -1.2 -2.79 -1.13 -2.87 -1.07 -2.93 -1 -2.87 -0.86 -3 -0.8 -2.93 -0.74 -3 -0.6 -3.07 -0.53 -3 -0.47 -3.06 -0.33 -3.14 -0.27 -3.06 -0.13 -3.13 -0.06 -3.14 0 -3.13 0.06 -2.73 0.13 -2.67 0.21 -2.73 0.26 -2.67 0.34 -2.6 0.33 -2.66 0.46 -2.6 0.54 -2.53 0.6 -2.54 0.6 -2.53 0.73 -2.54 0.73 -2.46 0.87 -2.47 0.93 -2.4 0.94 -2.39 1.06 -2.41 1.07 -2.33 1.13 -2.4 1.27 -2.26 1.27 -2.27 1.33 -2.27 1.4 -2.26 1.47 -2.2 1.53 -2.2 1.6 -2.13 1.66 -2.14 1.74 -2.13 2.33 -2.73 2.4 -2.6 2.46 -2.53 2.47 -2.41 2.6 -2.33 2.6 -2.2 2.6 -2.06 2.73 -2 2.73 -1.94 2.81 -1.79 2.86 -1.74 2.87 -1.6 2.93 -1.53 3 -1.4 3.07 -1.33 3.06 -1.2 3.13 -1.14 3.14 -1.06 3.26 -0.93 3.27 -0.87 3.26 -0.73 3.4 -0.67 3.4 -0.54 3.4 -0.46 3.54 -0.4 3.53 -0.27 3.53 -0.2 0 -31.39 -4.4 1.07 -4.47 0.93zm-8.79 58.25l-8.47 2.6 -8.06 3.54 -7.6 4.26 -7 5.13 -6.47 5.8 -5.73 6.47 -5 7.06 -4.26 7.6 -3.47 8.07 -2.53 8.53 -1.53 8.86 -0.6 9.2 0.6 9.2 1.6 8.86 2.59 8.53 3.47 8.07 4.27 7.6 5.06 7 5.87 6.46 6.46 5.73 7.07 5 7.6 4.27 8.13 3.4 8.53 2.46 8.87 1.54 9.19 0.53 9.2 -0.53 8.87 -1.47 8.46 -2.53 8.07 -3.4 7.59 -4.2 7.07 -5 6.4 -5.73 5.8 -6.4 5.06 -7.07 4.27 -7.53 3.4 -8.06 2.53 -8.47 1.6 -8.86 0.53 -9.2 0 -0.4 0 -0.13 0 -0.2 0 -0.27 0 -0.07 -0.6 -9.19 -1.66 -8.87 -2.54 -8.47 -3.46 -8.06 -4.33 -7.6 -5.14 -7 -5.8 -6.39 -6.46 -5.74 -7.07 -5.06 -7.59 -4.2 -8.14 -3.4 -8.53 -2.47 -8.86 -1.53 -9.2 -0.53 -9.2 0.66 -8.86 1.6z"/>
  <path class="fil19" d="M3665.56 3449.19c8.93,-9.67 17.33,-19.13 26.13,-28.2 9.53,-9.79 19.46,-19.19 29.32,-28.66 5.67,-5.39 10.07,-5.33 15.34,0.07 4.93,5.13 5.06,9.46 -0.27,14.66 -21.4,21.33 -42.92,42.53 -64.52,63.59 -5.87,5.73 -9.33,5.6 -15.13,-0.33 -9.66,-10 -19.13,-20.26 -28.93,-30.13 -5.8,-5.93 -2.33,-10.06 1.93,-14.4 4.4,-4.46 8.6,-6.13 13.6,-0.4 6.67,7.54 13.8,14.6 22.53,23.8z"/>
  <path class="fil20 str0" d="M3665.56 3449.19c8.93,-9.67 17.33,-19.13 26.13,-28.2 9.53,-9.79 19.46,-19.19 29.32,-28.66 5.67,-5.39 10.07,-5.33 15.34,0.07 4.93,5.13 5.06,9.46 -0.27,14.66 -21.4,21.33 -42.92,42.53 -64.52,63.59 -5.87,5.73 -9.33,5.6 -15.13,-0.33 -9.66,-10 -19.13,-20.26 -28.93,-30.13 -5.8,-5.93 -2.33,-10.06 1.93,-14.4 4.4,-4.46 8.6,-6.13 13.6,-0.4 6.67,7.54 13.8,14.6 22.53,23.8z"/>
  <path class="fil21" d="M3858.53 1286.83l1.46 0.7 1.39 0.7 1.4 0.76 1.26 0.69 1.27 0.76 1.2 0.76 1.14 0.76 1.08 0.76 1.02 0.76 1.01 0.77 0.89 0.82 0.88 0.76 0.76 0.82 0.76 0.83 0.7 0.82 0.63 0.82 0.57 0.89 0.57 0.83 0.45 0.88 0.44 0.89 0.38 0.89 0.26 0.88 0.25 0.89 0.19 0.95 0.19 0.89 0.06 0.95 0 0.95 0 141.67 0 1.39 -0.12 1.33 -0.19 1.33 -0.19 1.34 -0.32 1.26 -0.38 1.27 -0.38 1.2 -0.51 1.14 -0.57 1.14 -0.57 1.08 -0.63 1.08 -0.76 0.95 -0.76 0.95 -0.76 0.95 -0.89 0.82 -0.89 0.83 -0.95 0.76 -1.01 0.69 -1.08 0.64 -1.08 0.63 -1.07 0.51 -1.21 0.5 -1.2 0.45 -1.2 0.32 -1.27 0.31 -1.33 0.26 -1.33 0.12 -1.4 0.13 -1.39 0.06 -246.47 0 -1.26 0 -1.27 -0.06 -1.21 -0.19 -1.26 -0.19 -1.21 -0.25 -1.14 -0.32 -1.2 -0.38 -1.08 -0.51 -1.14 -0.5 -1.01 -0.51 -1.02 -0.63 -1.01 -0.7 -0.95 -0.7 -0.95 -0.76 -0.83 -0.82 -0.82 -0.89 -0.82 -0.89 -0.7 -0.95 -0.7 -1.01 -0.63 -1.01 -0.57 -1.08 -0.51 -1.08 -0.5 -1.14 -0.38 -1.14 -0.32 -1.2 -0.32 -1.21 -0.19 -1.2 -0.12 -1.27 -0.13 -1.27 0 -0.12 0 -0.26 0 -0.12 0 -0.13 0 -0.19 0 -0.13 0 -0.12 0 -0.13 0 -0.13 0 -0.06 0 -141.67 0.06 -1.46 0.13 -1.46 0.13 -1.33 0.25 -1.33 0.32 -1.33 0.31 -1.27 0.45 -1.2 0.5 -1.2 0.51 -1.14 0.64 -1.08 0.63 -1.08 0.76 -1.01 0.76 -0.95 0.82 -0.89 0.83 -0.89 0.95 -0.82 0.95 -0.7 1.07 -0.76 1.02 -0.63 1.14 -0.57 1.14 -0.57 1.2 -0.44 1.27 -0.45 1.27 -0.31 1.33 -0.32 1.33 -0.25 1.39 -0.13 1.4 -0.13 1.45 0 245.77 0 1.59 0.63 1.58 0.7zm-242.73 149.53l150.04 0 0 -22.05 -149.97 0 -0.07 22.05zm178.55 -118.99l-2.09 1.14 -1.59 1.33 -1.2 1.46 -0.7 1.65 -0.25 1.77 0 36.05 0.25 2.35 0.76 2.02 1.14 1.59 1.65 1.2 2.03 0.7 2.41 0.32 36.36 0 2.35 -0.32 1.96 -0.7 1.59 -1.2 1.14 -1.59 0.76 -1.96 0.19 -2.28 0 -36.43 -0.19 -2.41 -0.76 -1.96 -1.14 -1.59 -1.65 -1.2 -2.03 -0.7 -2.41 -0.25 -36.05 0 -2.53 1.01z"/>
  <path class="fil22 str0" d="M3858.53 1286.83l1.46 0.7 1.39 0.7 1.4 0.76 1.26 0.69 1.27 0.76 1.2 0.76 1.14 0.76 1.08 0.76 1.02 0.76 1.01 0.77 0.89 0.82 0.88 0.76 0.76 0.82 0.76 0.83 0.7 0.82 0.63 0.82 0.57 0.89 0.57 0.83 0.45 0.88 0.44 0.89 0.38 0.89 0.26 0.88 0.25 0.89 0.19 0.95 0.19 0.89 0.06 0.95 0 0.95 0 141.67 0 1.39 -0.12 1.33 -0.19 1.33 -0.19 1.34 -0.32 1.26 -0.38 1.27 -0.38 1.2 -0.51 1.14 -0.57 1.14 -0.57 1.08 -0.63 1.08 -0.76 0.95 -0.76 0.95 -0.76 0.95 -0.89 0.82 -0.89 0.83 -0.95 0.76 -1.01 0.69 -1.08 0.64 -1.08 0.63 -1.07 0.51 -1.21 0.5 -1.2 0.45 -1.2 0.32 -1.27 0.31 -1.33 0.26 -1.33 0.12 -1.4 0.13 -1.39 0.06 -246.47 0 -1.26 0 -1.27 -0.06 -1.21 -0.19 -1.26 -0.19 -1.21 -0.25 -1.14 -0.32 -1.2 -0.38 -1.08 -0.51 -1.14 -0.5 -1.01 -0.51 -1.02 -0.63 -1.01 -0.7 -0.95 -0.7 -0.95 -0.76 -0.83 -0.82 -0.82 -0.89 -0.82 -0.89 -0.7 -0.95 -0.7 -1.01 -0.63 -1.01 -0.57 -1.08 -0.51 -1.08 -0.5 -1.14 -0.38 -1.14 -0.32 -1.2 -0.32 -1.21 -0.19 -1.2 -0.12 -1.27 -0.13 -1.27 0 -0.12 0 -0.26 0 -0.12 0 -0.13 0 -0.19 0 -0.13 0 -0.12 0 -0.13 0 -0.13 0 -0.06 0 -141.67 0.06 -1.46 0.13 -1.46 0.13 -1.33 0.25 -1.33 0.32 -1.33 0.31 -1.27 0.45 -1.2 0.5 -1.2 0.51 -1.14 0.64 -1.08 0.63 -1.08 0.76 -1.01 0.76 -0.95 0.82 -0.89 0.83 -0.89 0.95 -0.82 0.95 -0.7 1.07 -0.76 1.02 -0.63 1.14 -0.57 1.14 -0.57 1.2 -0.44 1.27 -0.45 1.27 -0.31 1.33 -0.32 1.33 -0.25 1.39 -0.13 1.4 -0.13 1.45 0 245.77 0 1.59 0.63 1.58 0.7zm-242.73 149.53l150.04 0 0 -22.05 -149.97 0 -0.07 22.05zm178.55 -118.99l-2.09 1.14 -1.59 1.33 -1.2 1.46 -0.7 1.65 -0.25 1.77 0 36.05 0.25 2.35 0.76 2.02 1.14 1.59 1.65 1.2 2.03 0.7 2.41 0.32 36.36 0 2.35 -0.32 1.96 -0.7 1.59 -1.2 1.14 -1.59 0.76 -1.96 0.19 -2.28 0 -36.43 -0.19 -2.41 -0.76 -1.96 -1.14 -1.59 -1.65 -1.2 -2.03 -0.7 -2.41 -0.25 -36.05 0 -2.53 1.01z"/>
  <path class="fil21" d="M3635.57 1271.31c14.64,-45.68 22.75,-71.03 24.33,-76.09 93.39,28.7 185.77,59.55 279.1,89.08 -0.32,1.08 -2.09,6.59 -5.32,16.47 -14.51,45.43 -22.62,70.65 -24.27,75.72 -2.03,6.33 -5.58,11.4 -11.6,14.57 -1.14,0.63 -2.4,1.08 -4.05,1.71 0,-2.79 0,-16.6 0,-41.44 0,-25.47 0,-39.66 0,-42.45 0.44,-20.4 -15.78,-37.25 -36.18,-37.7 -0.63,0 -1.2,0 -1.84,0.07 -14.38,0 -86.23,0 -215.61,0l-4.56 0.06z"/>
  <path class="fil22 str0" d="M3635.57 1271.31c14.64,-45.68 22.75,-71.03 24.33,-76.09 93.39,28.7 185.77,59.55 279.1,89.08 -0.32,1.08 -2.09,6.59 -5.32,16.47 -14.51,45.43 -22.62,70.65 -24.27,75.72 -2.03,6.33 -5.58,11.4 -11.6,14.57 -1.14,0.63 -2.4,1.08 -4.05,1.71 0,-2.79 0,-16.6 0,-41.44 0,-25.47 0,-39.66 0,-42.45 0.44,-20.4 -15.78,-37.25 -36.18,-37.7 -0.63,0 -1.2,0 -1.84,0.07 -14.38,0 -86.23,0 -215.61,0l-4.56 0.06z"/>
  <path class="fil21" d="M3672 1159.86c1.65,-17.04 15.97,-26.61 31.68,-21.54 19.45,6.21 174.87,56.2 194.26,62.47 12.61,4.05 25.15,8.24 38.02,11.4 14.57,3.55 19.96,19.52 15.65,30.67 -0.64,1.65 -1.14,3.3 -1.78,5.26 -18.5,-5.89 -111.13,-35.35 -277.83,-88.26z"/>
  <path class="fil22 str0" d="M3672 1159.86c1.65,-17.04 15.97,-26.61 31.68,-21.54 19.45,6.21 174.87,56.2 194.26,62.47 12.61,4.05 25.15,8.24 38.02,11.4 14.57,3.55 19.96,19.52 15.65,30.67 -0.64,1.65 -1.14,3.3 -1.78,5.26 -18.5,-5.89 -111.13,-35.35 -277.83,-88.26z"/>
  <path class="fil23" d="M2309.53 4380.89c0.68,-15.18 -3.97,-27.97 -15.73,-37.54 -7.45,-6.15 -16.82,-9.43 -26.39,-9.23 -11.89,0 -23.25,5.2 -30.97,14.15 -7.93,9.03 -11.76,20.86 -10.6,32.82 -6.15,-0.41 -11.76,-0.68 -17.43,-1.23 -45.81,-4.1 -90.81,-12.3 -134.5,-27.07 -3.14,-1.03 -4.1,-2.47 -4.1,-5.75 0.21,-23.11 -0.34,-46.29 0.48,-69.4 1.03,-23.11 20.1,-41.22 43.28,-41.09 38.91,-0.2 77.74,-0.13 116.65,-0.13 19.07,0 171.68,0 190.76,0 24.13,-0.83 44.37,18.11 45.12,42.25 0.07,0.82 0.07,1.64 0.07,2.46 0.28,22.22 0,44.44 0.14,66.66 0,2.95 -1.16,4.04 -3.69,4.86 -31.39,10.6 -63.73,18.19 -96.55,22.56 -17.64,2.4 -35.41,3.83 -53.12,5.68 -0.28,0 -1.37,0 -3.42,0z"/>
  <path class="fil24 str0" d="M2309.53 4380.89c0.68,-15.18 -3.97,-27.97 -15.73,-37.54 -7.45,-6.15 -16.82,-9.43 -26.39,-9.23 -11.89,0 -23.25,5.2 -30.97,14.15 -7.93,9.03 -11.76,20.86 -10.6,32.82 -6.15,-0.41 -11.76,-0.68 -17.43,-1.23 -45.81,-4.1 -90.81,-12.3 -134.5,-27.07 -3.14,-1.03 -4.1,-2.47 -4.1,-5.75 0.21,-23.11 -0.34,-46.29 0.48,-69.4 1.03,-23.11 20.1,-41.22 43.28,-41.09 38.91,-0.2 77.74,-0.13 116.65,-0.13 19.07,0 171.68,0 190.76,0 24.13,-0.83 44.37,18.11 45.12,42.25 0.07,0.82 0.07,1.64 0.07,2.46 0.28,22.22 0,44.44 0.14,66.66 0,2.95 -1.16,4.04 -3.69,4.86 -31.39,10.6 -63.73,18.19 -96.55,22.56 -17.64,2.4 -35.41,3.83 -53.12,5.68 -0.28,0 -1.37,0 -3.42,0z"/>
  <path class="fil23" d="M2070.22 4385.33c8.69,2.46 16.96,4.79 25.1,7.32 0.89,0.27 1.64,2.39 1.7,3.62 0.14,11.76 0.55,23.45 0,35.15 -1.23,25.02 20.04,38.9 38.71,38.69 29.53,-0.27 59.07,0 88.61,0 57.98,0 115.96,-0.13 174.01,0 9.91,0 19.07,-2.05 27,-8.34 8.69,-6.35 13.75,-16.47 13.68,-27.21 0,-3.76 0,-34.05 0,-37.81 -0.07,-2.73 0.68,-4.1 3.55,-4.79 7.66,-2.05 15.18,-4.3 23.05,-6.56 0.2,0.89 0.54,1.57 0.54,2.26 0,22.42 0.48,44.78 -0.13,67.14 -0.76,25.16 -20.11,42.8 -45.81,42.8 -30.5,0 -274.25,0 -304.68,0 -19.07,0 -33.36,-8.48 -41.43,-25.84 -2.53,-5.61 -3.97,-11.63 -4.03,-17.71 -0.48,-21.88 -0.21,-43.97 -0.21,-65.91 0,-0.76 0.21,-1.51 0.34,-2.81z"/>
  <path class="fil24 str0" d="M2070.22 4385.33c8.69,2.46 16.96,4.79 25.1,7.32 0.89,0.27 1.64,2.39 1.7,3.62 0.14,11.76 0.55,23.45 0,35.15 -1.23,25.02 20.04,38.9 38.71,38.69 29.53,-0.27 59.07,0 88.61,0 57.98,0 115.96,-0.13 174.01,0 9.91,0 19.07,-2.05 27,-8.34 8.69,-6.35 13.75,-16.47 13.68,-27.21 0,-3.76 0,-34.05 0,-37.81 -0.07,-2.73 0.68,-4.1 3.55,-4.79 7.66,-2.05 15.18,-4.3 23.05,-6.56 0.2,0.89 0.54,1.57 0.54,2.26 0,22.42 0.48,44.78 -0.13,67.14 -0.76,25.16 -20.11,42.8 -45.81,42.8 -30.5,0 -274.25,0 -304.68,0 -19.07,0 -33.36,-8.48 -41.43,-25.84 -2.53,-5.61 -3.97,-11.63 -4.03,-17.71 -0.48,-21.88 -0.21,-43.97 -0.21,-65.91 0,-0.76 0.21,-1.51 0.34,-2.81z"/>
  <path class="fil23" d="M2310.49 4167.9c19.62,1.37 36.03,19.7 36.78,39.32 0,0.68 0,5.95 0,6.63 -0.14,5.54 -3.69,9.23 -8.89,9.3 -5.26,0 -8.89,-3.9 -9.02,-9.64 0,-2.46 0.07,-4.99 -0.35,-7.38 -1.84,-12.24 -12.58,-21.2 -24.95,-20.72 -20.92,-0.14 -41.85,0 -62.77,0 -5.33,0 -10.66,-0.14 -16,0 -13.47,-0.41 -24.68,10.19 -25.02,23.66 0,0.2 0,0.47 0,0.75 -0.07,0.48 -0.07,4.24 -0.07,4.72 -0.55,5.12 -4.1,8.54 -8.89,8.54 -4.99,0.07 -8.89,-3.42 -9.16,-8.68 -0.55,-10.6 1.64,-20.51 7.93,-29.13 8,-11.55 21.33,-18.32 35.42,-18.05 13.12,-0.13 26.25,0 39.38,0 15.25,0.48 30.5,-0.34 45.61,0.68z"/>
  <path class="fil24 str0" d="M2310.49 4167.9c19.62,1.37 36.03,19.7 36.78,39.32 0,0.68 0,5.95 0,6.63 -0.14,5.54 -3.69,9.23 -8.89,9.3 -5.26,0 -8.89,-3.9 -9.02,-9.64 0,-2.46 0.07,-4.99 -0.35,-7.38 -1.84,-12.24 -12.58,-21.2 -24.95,-20.72 -20.92,-0.14 -41.85,0 -62.77,0 -5.33,0 -10.66,-0.14 -16,0 -13.47,-0.41 -24.68,10.19 -25.02,23.66 0,0.2 0,0.47 0,0.75 -0.07,0.48 -0.07,4.24 -0.07,4.72 -0.55,5.12 -4.1,8.54 -8.89,8.54 -4.99,0.07 -8.89,-3.42 -9.16,-8.68 -0.55,-10.6 1.64,-20.51 7.93,-29.13 8,-11.55 21.33,-18.32 35.42,-18.05 13.12,-0.13 26.25,0 39.38,0 15.25,0.48 30.5,-0.34 45.61,0.68z"/>
  <path class="fil23" d="M2291.89 4384.78c-0.34,5.2 -0.07,10.54 -1.23,15.53 -2.74,12.17 -14.09,19.28 -26.94,17.64 -11.49,-1.92 -19.97,-11.83 -19.9,-23.46 0,-1.98 0,-17.57 0,-19.55 0.14,-13.13 10.87,-23.59 23.93,-23.45 0.21,0 0.35,0 0.55,0 12.79,0.27 23.04,10.66 23.25,23.52 0,0.61 0,3.9 0,9.77l0.34 0z"/>
  <path class="fil24 str0" d="M2291.89 4384.78c-0.34,5.2 -0.07,10.54 -1.23,15.53 -2.74,12.17 -14.09,19.28 -26.94,17.64 -11.49,-1.92 -19.97,-11.83 -19.9,-23.46 0,-1.98 0,-17.57 0,-19.55 0.14,-13.13 10.87,-23.59 23.93,-23.45 0.21,0 0.35,0 0.55,0 12.79,0.27 23.04,10.66 23.25,23.52 0,0.61 0,3.9 0,9.77l0.34 0z"/>
 </g>
</svg>
