<?xml version="1.0" encoding="UTF-8"?>
<!DOCTYPE svg PUBLIC "-//W3C//DTD SVG 1.1//EN" "http://www.w3.org/Graphics/SVG/1.1/DTD/svg11.dtd">
<!-- Creator: CorelDRAW 2018 (64-Bit) -->
<svg xmlns="http://www.w3.org/2000/svg" xml:space="preserve" width="10.16mm" height="10.16mm" version="1.1" style="shape-rendering:geometricPrecision; text-rendering:geometricPrecision; image-rendering:optimizeQuality; fill-rule:evenodd; clip-rule:evenodd"
viewBox="0 0 1016 1016"
 xmlns:xlink="http://www.w3.org/1999/xlink">
 <defs>
  <style type="text/css">
   <![CDATA[
    .str0 {stroke:#4FBF20;stroke-width:42.33;stroke-miterlimit:22.9256}
    .str1 {stroke:#4FBF20;stroke-width:33.86;stroke-linecap:square;stroke-linejoin:round;stroke-miterlimit:22.9256}
    .fil0 {fill:none}
   ]]>
  </style>
 </defs>
 <g id="Слой_x0020_1">
  <metadata id="CorelCorpID_0Corel-Layer"/>
  <path class="fil0 str0" d="M768.54 293.99c-43.94,-12.41 -33.95,-11.79 -71.44,-11.79 -82.6,0 -186.68,50.27 -186.68,167.86 0,117.37 90.79,181.36 127.77,179.59 36.76,-1.54 -238.5,45.4 -238.5,189.79 -60.46,201.52 0,157.89 0,157.89 0,0 198.2,0 594.37,0 0,-94.56 0,-147.26 0,-157.89 0,0 0,-127.56 -224.99,-189.79 -137.74,0 100.75,-55.36 100.75,-179.37 -0.58,-55.72 6.56,-49.77 -28.72,-100.33m-109.01 150.08c-7.91,10 -15.81,19.99 -25.41,27.81 -9.6,7.83 -20.89,13.47 -32.88,16.29 -12,2.83 -24.7,2.83 -33.16,2.12 -8.47,-0.7 -12.71,-2.12 -16.94,-3.53m-29.63 -283.63c15.52,-12.7 31.05,-25.4 49.4,-32.46 18.34,-7.05 39.5,-8.46 60.67,-5.64 21.17,2.82 42.33,9.88 57.86,19.05 15.52,9.17 25.39,20.46 32.45,35.27 7.05,14.82 11.29,33.17 12,48.69 0.7,15.52 -2.13,28.22 -4.95,40.21 -2.82,12 -5.64,23.29 -7.75,29.64 -0.92,2.76 -1.71,4.58 -2.42,5.88m-15.5 -8.02c5.79,1.55 11.01,4.31 15.5,8.02 15.68,12.9 22.76,37.25 16.18,61.82 -8.47,31.61 -36.38,51.6 -62.36,44.64 -25.97,-6.96 -40.15,-38.22 -31.68,-69.84 8.23,-30.71 34.81,-50.45 60.14,-45.16l2.22 0.52zm-168.97 135.71c8.18,0 14.82,6.64 14.82,14.81 0,8.18 -6.64,14.82 -14.82,14.82 -8.17,0 -14.81,-6.64 -14.81,-14.82 0,-8.17 6.64,-14.81 14.81,-14.81z"/>
  <path class="fil0 str1" d="M371.44 387.15c34.06,0 53.08,0 56.88,0 0,0 43.57,-3.05 43.57,-37.67 0,-26.06 0,-234.56 0,-260.63 0,0 -5.71,-37.48 -43.75,-37.48 -36.72,0 -330.65,0 -367.36,0 0,0 -37.87,3.24 -39.38,39.19 -1.53,36.15 0,258.92 0,258.92 0,0 7.99,37.67 39.38,37.67 67.98,0 135.96,0 203.94,0l113 122.52 -6.28 -122.52z"/>
 </g>
</svg>
