<?xml version="1.0" encoding="UTF-8"?>
<svg width="469px" height="353px" viewBox="0 0 469 353" version="1.1" xmlns="http://www.w3.org/2000/svg" xmlns:xlink="http://www.w3.org/1999/xlink">
    <!-- Generator: Sketch 47.1 (45422) - http://www.bohemiancoding.com/sketch -->
    <title>Illustration</title>
    <desc>Created with Sketch.</desc>
    <defs>
        <rect id="path-1" x="0" y="0" width="270" height="280" rx="8"></rect>
        <rect id="path-2" x="0" y="15.0909091" width="235" height="150.909091" rx="8"></rect>
        <filter x="-9.8%" y="-10.6%" width="119.6%" height="130.5%" filterUnits="objectBoundingBox" id="filter-3">
            <feOffset dx="0" dy="7" in="SourceAlpha" result="shadowOffsetOuter1"></feOffset>
            <feGaussianBlur stdDeviation="6.5" in="shadowOffsetOuter1" result="shadowBlurOuter1"></feGaussianBlur>
            <feComposite in="shadowBlurOuter1" in2="SourceAlpha" operator="out" result="shadowBlurOuter1"></feComposite>
            <feColorMatrix values="0 0 0 0 0   0 0 0 0 0   0 0 0 0 0  0 0 0 0.0657835145 0" type="matrix" in="shadowBlurOuter1"></feColorMatrix>
        </filter>
        <rect id="path-4" x="0" y="31.1776177" width="186" height="117.969364" rx="8"></rect>
        <filter x="-13.2%" y="-14.8%" width="126.3%" height="141.5%" filterUnits="objectBoundingBox" id="filter-5">
            <feOffset dx="0" dy="7" in="SourceAlpha" result="shadowOffsetOuter1"></feOffset>
            <feGaussianBlur stdDeviation="7" in="shadowOffsetOuter1" result="shadowBlurOuter1"></feGaussianBlur>
            <feComposite in="shadowBlurOuter1" in2="SourceAlpha" operator="out" result="shadowBlurOuter1"></feComposite>
            <feColorMatrix values="0 0 0 0 0   0 0 0 0 0   0 0 0 0 0  0 0 0 0.0766813859 0" type="matrix" in="shadowBlurOuter1"></feColorMatrix>
        </filter>
    </defs>
    <g id="Page-1" stroke="none" stroke-width="1" fill="none" fill-rule="evenodd">
        <g id="1280" transform="translate(-1145.000000, -906.000000)">
            <g id="2" transform="translate(320.000000, 721.000000)">
                <g id="Illustration" transform="translate(839.000000, 185.000000)">
                    <g id="article" transform="translate(22.000000, 0.000000)">
                        <g id="Rectangle-17">
                            <use fill="#FFFFFF" fill-rule="evenodd" xlink:href="#path-1"></use>
                            <rect stroke="#E3E3E3" stroke-width="2" x="1" y="1" width="268" height="278" rx="8"></rect>
                        </g>
                        <path d="M28.4702981,26.5021135 L32.9522981,26.5021135 C33.7683022,26.5021135 34.4402955,26.6131124 34.9682981,26.8351135 C35.4963008,27.0571146 35.9132966,27.3391118 36.2192981,27.6811135 C36.5252997,28.0231152 36.7382975,28.4071114 36.8582981,28.8331135 C36.9782987,29.2591156 37.0382981,29.6701115 37.0382981,30.0661135 C37.0382981,30.4621155 36.9782987,30.8731114 36.8582981,31.2991135 C36.7382975,31.7251156 36.5252997,32.1091118 36.2192981,32.4511135 C35.9132966,32.7931152 35.4963008,33.0751124 34.9682981,33.2971135 C34.4402955,33.5191146 33.7683022,33.6301135 32.9522981,33.6301135 L30.1982981,33.6301135 L30.1982981,39.2461135 L28.4702981,39.2461135 L28.4702981,26.5021135 Z M30.1982981,32.1181135 L32.4662981,32.1181135 C32.8022998,32.1181135 33.1352965,32.0911138 33.4652981,32.0371135 C33.7952998,31.9831132 34.0892968,31.8841142 34.3472981,31.7401135 C34.6052994,31.5961128 34.8122974,31.3891148 34.9682981,31.1191135 C35.1242989,30.8491121 35.2022981,30.4981156 35.2022981,30.0661135 C35.2022981,29.6341113 35.1242989,29.2831148 34.9682981,29.0131135 C34.8122974,28.7431121 34.6052994,28.5361142 34.3472981,28.3921135 C34.0892968,28.2481128 33.7952998,28.1491138 33.4652981,28.0951135 C33.1352965,28.0411132 32.8022998,28.0141135 32.4662981,28.0141135 L30.1982981,28.0141135 L30.1982981,32.1181135 Z M38.7662981,31.7581135 C39.2223004,31.3381114 39.7502951,31.0231145 40.3502981,30.8131135 C40.9503011,30.6031124 41.5502951,30.4981135 42.1502981,30.4981135 C42.7743013,30.4981135 43.3112959,30.5761127 43.7612981,30.7321135 C44.2113004,30.8881143 44.5802967,31.0981122 44.8682981,31.3621135 C45.1562996,31.6261148 45.3692974,31.9291118 45.5072981,32.2711135 C45.6452988,32.6131152 45.7142981,32.9701116 45.7142981,33.3421135 L45.7142981,37.6981135 C45.7142981,37.998115 45.7202981,38.2741122 45.7322981,38.5261135 C45.7442982,38.7781147 45.762298,39.0181123 45.7862981,39.2461135 L44.3462981,39.2461135 C44.310298,38.8141113 44.2922981,38.3821156 44.2922981,37.9501135 L44.2562981,37.9501135 C43.8962963,38.5021162 43.4703006,38.8921123 42.9782981,39.1201135 C42.4862957,39.3481146 41.9163014,39.4621135 41.2682981,39.4621135 C40.8722962,39.4621135 40.4942999,39.408114 40.1342981,39.3001135 C39.7742963,39.1921129 39.4592995,39.0301146 39.1892981,38.8141135 C38.9192968,38.5981124 38.7062989,38.3311151 38.5502981,38.0131135 C38.3942974,37.6951119 38.3162981,37.3261156 38.3162981,36.9061135 C38.3162981,36.3541107 38.4392969,35.8921153 38.6852981,35.5201135 C38.9312994,35.1481116 39.267296,34.8451147 39.6932981,34.6111135 C40.1193003,34.3771123 40.6172953,34.209114 41.1872981,34.1071135 C41.757301,34.005113 42.3662949,33.9541135 43.0142981,33.9541135 L44.2022981,33.9541135 L44.2022981,33.5941135 C44.2022981,33.3781124 44.1602986,33.1621146 44.0762981,32.9461135 C43.9922977,32.7301124 43.866299,32.5351144 43.6982981,32.3611135 C43.5302973,32.1871126 43.3202994,32.049114 43.0682981,31.9471135 C42.8162969,31.845113 42.5162999,31.7941135 42.1682981,31.7941135 C41.8562966,31.7941135 41.5832993,31.8241132 41.3492981,31.8841135 C41.115297,31.9441138 40.9022991,32.019113 40.7102981,32.1091135 C40.5182972,32.1991139 40.3442989,32.3041129 40.1882981,32.4241135 C40.0322974,32.5441141 39.8822989,32.6581129 39.7382981,32.7661135 L38.7662981,31.7581135 Z M43.3382981,35.1421135 C42.9542962,35.1421135 42.5613001,35.1631133 42.1592981,35.2051135 C41.7572961,35.2471137 41.3912998,35.3281129 41.0612981,35.4481135 C40.7312965,35.5681141 40.4612992,35.7361124 40.2512981,35.9521135 C40.0412971,36.1681146 39.9362981,36.4441118 39.9362981,36.7801135 C39.9362981,37.2721159 40.1012965,37.6261124 40.4312981,37.8421135 C40.7612998,38.0581146 41.2082953,38.1661135 41.7722981,38.1661135 C42.2163004,38.1661135 42.5942966,38.0911142 42.9062981,37.9411135 C43.2182997,37.7911127 43.4702972,37.5961147 43.6622981,37.3561135 C43.8542991,37.1161123 43.9922977,36.849115 44.0762981,36.5551135 C44.1602986,36.261112 44.2022981,35.9701149 44.2022981,35.6821135 L44.2022981,35.1421135 L43.3382981,35.1421135 Z M48.1982981,30.7141135 L49.8182981,30.7141135 L49.8182981,39.2461135 L48.1982981,39.2461135 L48.1982981,30.7141135 Z M47.8202981,27.6541135 C47.8202981,27.3301119 47.937297,27.0511147 48.1712981,26.8171135 C48.4052993,26.5831123 48.6842965,26.4661135 49.0082981,26.4661135 C49.3322998,26.4661135 49.611297,26.5831123 49.8452981,26.8171135 C50.0792993,27.0511147 50.1962981,27.3301119 50.1962981,27.6541135 C50.1962981,27.9781151 50.0792993,28.2571123 49.8452981,28.4911135 C49.611297,28.7251147 49.3322998,28.8421135 49.0082981,28.8421135 C48.6842965,28.8421135 48.4052993,28.7251147 48.1712981,28.4911135 C47.937297,28.2571123 47.8202981,27.9781151 47.8202981,27.6541135 Z M60.9422981,39.2461135 L59.3222981,39.2461135 L59.3222981,38.0221135 L59.2862981,38.0221135 C58.9742966,38.4781158 58.5453009,38.8321122 57.9992981,39.0841135 C57.4532954,39.3361147 56.892301,39.4621135 56.3162981,39.4621135 C55.6562948,39.4621135 55.0593008,39.3481146 54.5252981,39.1201135 C53.9912955,38.8921123 53.5353,38.5741155 53.1572981,38.1661135 C52.7792962,37.7581114 52.4882992,37.2841162 52.2842981,36.7441135 C52.0802971,36.2041108 51.9782981,35.6161167 51.9782981,34.9801135 C51.9782981,34.3441103 52.0802971,33.7531162 52.2842981,33.2071135 C52.4882992,32.6611108 52.7792962,32.1871155 53.1572981,31.7851135 C53.5353,31.3831115 53.9912955,31.0681146 54.5252981,30.8401135 C55.0593008,30.6121123 55.6562948,30.4981135 56.3162981,30.4981135 C56.9283012,30.4981135 57.5042954,30.6271122 58.0442981,30.8851135 C58.5843008,31.1431148 58.9982967,31.4941113 59.2862981,31.9381135 L59.3222981,31.9381135 L59.3222981,25.6381135 L60.9422981,25.6381135 L60.9422981,39.2461135 Z M56.5142981,37.9501135 C56.9463003,37.9501135 57.3362964,37.8751142 57.6842981,37.7251135 C58.0322999,37.5751127 58.3262969,37.3711148 58.5662981,37.1131135 C58.8062993,36.8551122 58.9922975,36.5431153 59.1242981,36.1771135 C59.2562988,35.8111117 59.3222981,35.4121156 59.3222981,34.9801135 C59.3222981,34.5481113 59.2562988,34.1491153 59.1242981,33.7831135 C58.9922975,33.4171117 58.8062993,33.1051148 58.5662981,32.8471135 C58.3262969,32.5891122 58.0322999,32.3851142 57.6842981,32.2351135 C57.3362964,32.0851127 56.9463003,32.0101135 56.5142981,32.0101135 C56.082296,32.0101135 55.6922999,32.0851127 55.3442981,32.2351135 C54.9962964,32.3851142 54.7022993,32.5891122 54.4622981,32.8471135 C54.2222969,33.1051148 54.0362988,33.4171117 53.9042981,33.7831135 C53.7722975,34.1491153 53.7062981,34.5481113 53.7062981,34.9801135 C53.7062981,35.4121156 53.7722975,35.8111117 53.9042981,36.1771135 C54.0362988,36.5431153 54.2222969,36.8551122 54.4622981,37.1131135 C54.7022993,37.3711148 54.9962964,37.5751127 55.3442981,37.7251135 C55.6922999,37.8751142 56.082296,37.9501135 56.5142981,37.9501135 Z M68.4302981,31.7581135 C68.8863004,31.3381114 69.4142951,31.0231145 70.0142981,30.8131135 C70.6143011,30.6031124 71.2142951,30.4981135 71.8142981,30.4981135 C72.4383013,30.4981135 72.9752959,30.5761127 73.4252981,30.7321135 C73.8753004,30.8881143 74.2442967,31.0981122 74.5322981,31.3621135 C74.8202996,31.6261148 75.0332974,31.9291118 75.1712981,32.2711135 C75.3092988,32.6131152 75.3782981,32.9701116 75.3782981,33.3421135 L75.3782981,37.6981135 C75.3782981,37.998115 75.3842981,38.2741122 75.3962981,38.5261135 C75.4082982,38.7781147 75.426298,39.0181123 75.4502981,39.2461135 L74.0102981,39.2461135 C73.974298,38.8141113 73.9562981,38.3821156 73.9562981,37.9501135 L73.9202981,37.9501135 C73.5602963,38.5021162 73.1343006,38.8921123 72.6422981,39.1201135 C72.1502957,39.3481146 71.5803014,39.4621135 70.9322981,39.4621135 C70.5362962,39.4621135 70.1582999,39.408114 69.7982981,39.3001135 C69.4382963,39.1921129 69.1232995,39.0301146 68.8532981,38.8141135 C68.5832968,38.5981124 68.3702989,38.3311151 68.2142981,38.0131135 C68.0582974,37.6951119 67.9802981,37.3261156 67.9802981,36.9061135 C67.9802981,36.3541107 68.1032969,35.8921153 68.3492981,35.5201135 C68.5952994,35.1481116 68.931296,34.8451147 69.3572981,34.6111135 C69.7833003,34.3771123 70.2812953,34.209114 70.8512981,34.1071135 C71.421301,34.005113 72.0302949,33.9541135 72.6782981,33.9541135 L73.8662981,33.9541135 L73.8662981,33.5941135 C73.8662981,33.3781124 73.8242986,33.1621146 73.7402981,32.9461135 C73.6562977,32.7301124 73.530299,32.5351144 73.3622981,32.3611135 C73.1942973,32.1871126 72.9842994,32.049114 72.7322981,31.9471135 C72.4802969,31.845113 72.1802999,31.7941135 71.8322981,31.7941135 C71.5202966,31.7941135 71.2472993,31.8241132 71.0132981,31.8841135 C70.779297,31.9441138 70.5662991,32.019113 70.3742981,32.1091135 C70.1822972,32.1991139 70.0082989,32.3041129 69.8522981,32.4241135 C69.6962974,32.5441141 69.5462989,32.6581129 69.4022981,32.7661135 L68.4302981,31.7581135 Z M73.0022981,35.1421135 C72.6182962,35.1421135 72.2253001,35.1631133 71.8232981,35.2051135 C71.4212961,35.2471137 71.0552998,35.3281129 70.7252981,35.4481135 C70.3952965,35.5681141 70.1252992,35.7361124 69.9152981,35.9521135 C69.7052971,36.1681146 69.6002981,36.4441118 69.6002981,36.7801135 C69.6002981,37.2721159 69.7652965,37.6261124 70.0952981,37.8421135 C70.4252998,38.0581146 70.8722953,38.1661135 71.4362981,38.1661135 C71.8803004,38.1661135 72.2582966,38.0911142 72.5702981,37.9411135 C72.8822997,37.7911127 73.1342972,37.5961147 73.3262981,37.3561135 C73.5182991,37.1161123 73.6562977,36.849115 73.7402981,36.5551135 C73.8242986,36.261112 73.8662981,35.9701149 73.8662981,35.6821135 L73.8662981,35.1421135 L73.0022981,35.1421135 Z M83.8382981,32.9821135 C83.5382966,32.6701119 83.2232998,32.4331143 82.8932981,32.2711135 C82.5632965,32.1091127 82.1703004,32.0281135 81.7142981,32.0281135 C81.2702959,32.0281135 80.8832998,32.1091127 80.5532981,32.2711135 C80.2232965,32.4331143 79.9472992,32.6551121 79.7252981,32.9371135 C79.503297,33.2191149 79.3352987,33.5431117 79.2212981,33.9091135 C79.1072976,34.2751153 79.0502981,34.6561115 79.0502981,35.0521135 C79.0502981,35.4481155 79.1162975,35.8231117 79.2482981,36.1771135 C79.3802988,36.5311153 79.5662969,36.8401122 79.8062981,37.1041135 C80.0462993,37.3681148 80.3342965,37.5751127 80.6702981,37.7251135 C81.0062998,37.8751142 81.384296,37.9501135 81.8042981,37.9501135 C82.2603004,37.9501135 82.6502965,37.8691143 82.9742981,37.7071135 C83.2982998,37.5451127 83.5982968,37.308115 83.8742981,36.9961135 L85.0262981,38.1481135 C84.606296,38.6161158 84.1173009,38.9521125 83.5592981,39.1561135 C83.0012953,39.3601145 82.4103013,39.4621135 81.7862981,39.4621135 C81.1262948,39.4621135 80.5233009,39.3541146 79.9772981,39.1381135 C79.4312954,38.9221124 78.9603001,38.6191154 78.5642981,38.2291135 C78.1682962,37.8391115 77.8622992,37.3711162 77.6462981,36.8251135 C77.4302971,36.2791108 77.3222981,35.6761168 77.3222981,35.0161135 C77.3222981,34.3561102 77.4302971,33.7501162 77.6462981,33.1981135 C77.8622992,32.6461107 78.1652962,32.1721155 78.5552981,31.7761135 C78.9453001,31.3801115 79.4132954,31.0711146 79.9592981,30.8491135 C80.5053009,30.6271124 81.1142948,30.5161135 81.7862981,30.5161135 C82.4103013,30.5161135 83.0072953,30.6271124 83.5772981,30.8491135 C84.147301,31.0711146 84.642296,31.4101112 85.0622981,31.8661135 L83.8382981,32.9821135 Z M92.5142981,32.9821135 C92.2142966,32.6701119 91.8992998,32.4331143 91.5692981,32.2711135 C91.2392965,32.1091127 90.8463004,32.0281135 90.3902981,32.0281135 C89.9462959,32.0281135 89.5592998,32.1091127 89.2292981,32.2711135 C88.8992965,32.4331143 88.6232992,32.6551121 88.4012981,32.9371135 C88.179297,33.2191149 88.0112987,33.5431117 87.8972981,33.9091135 C87.7832976,34.2751153 87.7262981,34.6561115 87.7262981,35.0521135 C87.7262981,35.4481155 87.7922975,35.8231117 87.9242981,36.1771135 C88.0562988,36.5311153 88.2422969,36.8401122 88.4822981,37.1041135 C88.7222993,37.3681148 89.0102965,37.5751127 89.3462981,37.7251135 C89.6822998,37.8751142 90.060296,37.9501135 90.4802981,37.9501135 C90.9363004,37.9501135 91.3262965,37.8691143 91.6502981,37.7071135 C91.9742998,37.5451127 92.2742968,37.308115 92.5502981,36.9961135 L93.7022981,38.1481135 C93.282296,38.6161158 92.7933009,38.9521125 92.2352981,39.1561135 C91.6772953,39.3601145 91.0863013,39.4621135 90.4622981,39.4621135 C89.8022948,39.4621135 89.1993009,39.3541146 88.6532981,39.1381135 C88.1072954,38.9221124 87.6363001,38.6191154 87.2402981,38.2291135 C86.8442962,37.8391115 86.5382992,37.3711162 86.3222981,36.8251135 C86.1062971,36.2791108 85.9982981,35.6761168 85.9982981,35.0161135 C85.9982981,34.3561102 86.1062971,33.7501162 86.3222981,33.1981135 C86.5382992,32.6461107 86.8412962,32.1721155 87.2312981,31.7761135 C87.6213001,31.3801115 88.0892954,31.0711146 88.6352981,30.8491135 C89.1813009,30.6271124 89.7902948,30.5161135 90.4622981,30.5161135 C91.0863013,30.5161135 91.6832953,30.6271124 92.2532981,30.8491135 C92.823301,31.0711146 93.318296,31.4101112 93.7382981,31.8661135 L92.5142981,32.9821135 Z M96.3122981,35.5741135 C96.3122981,35.9461153 96.3932973,36.285112 96.5552981,36.5911135 C96.7172989,36.897115 96.9302968,37.1581124 97.1942981,37.3741135 C97.4582995,37.5901146 97.7642964,37.7581129 98.1122981,37.8781135 C98.4602999,37.9981141 98.8202963,38.0581135 99.1922981,38.0581135 C99.6963007,38.0581135 100.134296,37.9411147 100.506298,37.7071135 C100.8783,37.4731123 101.220297,37.1641154 101.532298,36.7801135 L102.756298,37.7161135 C101.856294,38.8801193 100.596306,39.4621135 98.9762981,39.4621135 C98.3042948,39.4621135 97.6953009,39.3481146 97.1492981,39.1201135 C96.6032954,38.8921123 96.1413,38.5771155 95.7632981,38.1751135 C95.3852962,37.7731115 95.0942992,37.2991162 94.8902981,36.7531135 C94.6862971,36.2071108 94.5842981,35.6161167 94.5842981,34.9801135 C94.5842981,34.3441103 94.695297,33.7531162 94.9172981,33.2071135 C95.1392992,32.6611108 95.4452962,32.1871155 95.8352981,31.7851135 C96.2253001,31.3831115 96.6902954,31.0681146 97.2302981,30.8401135 C97.7703008,30.6121123 98.358295,30.4981135 98.9942981,30.4981135 C99.7503019,30.4981135 100.389296,30.6301122 100.911298,30.8941135 C101.433301,31.1581148 101.862296,31.5031114 102.198298,31.9291135 C102.5343,32.3551156 102.777297,32.8351108 102.927298,33.3691135 C103.077299,33.9031162 103.152298,34.4461107 103.152298,34.9981135 L103.152298,35.5741135 L96.3122981,35.5741135 Z M101.424298,34.2781135 C101.412298,33.9181117 101.355299,33.588115 101.253298,33.2881135 C101.151298,32.988112 100.998299,32.7271146 100.794298,32.5051135 C100.590297,32.2831124 100.3353,32.1091141 100.029298,31.9831135 C99.7232966,31.8571129 99.3663002,31.7941135 98.9582981,31.7941135 C98.5622962,31.7941135 98.1992998,31.8691127 97.8692981,32.0191135 C97.5392965,32.1691142 97.2602993,32.3641123 97.0322981,32.6041135 C96.804297,32.8441147 96.6272988,33.111112 96.5012981,33.4051135 C96.3752975,33.699115 96.3122981,33.990112 96.3122981,34.2781135 L101.424298,34.2781135 Z M109.632298,32.8561135 C109.440297,32.6161123 109.2033,32.4151143 108.921298,32.2531135 C108.639297,32.0911127 108.2943,32.0101135 107.886298,32.0101135 C107.502296,32.0101135 107.1693,32.0911127 106.887298,32.2531135 C106.605297,32.4151143 106.464298,32.6521119 106.464298,32.9641135 C106.464298,33.2161147 106.545297,33.4201127 106.707298,33.5761135 C106.869299,33.7321143 107.061297,33.858113 107.283298,33.9541135 C107.505299,34.050114 107.742297,34.1221132 107.994298,34.1701135 C108.246299,34.2181137 108.462297,34.2601133 108.642298,34.2961135 C108.9903,34.3801139 109.317297,34.4821129 109.623298,34.6021135 C109.9293,34.7221141 110.193297,34.8781125 110.415298,35.0701135 C110.637299,35.2621144 110.811298,35.4961121 110.937298,35.7721135 C111.063299,36.0481149 111.126298,36.3841115 111.126298,36.7801135 C111.126298,37.2601159 111.024299,37.6711118 110.820298,38.0131135 C110.616297,38.3551152 110.3523,38.6341124 110.028298,38.8501135 C109.704297,39.0661146 109.3353,39.222113 108.921298,39.3181135 C108.507296,39.414114 108.0903,39.4621135 107.670298,39.4621135 C106.962295,39.4621135 106.341301,39.3541146 105.807298,39.1381135 C105.273295,38.9221124 104.7963,38.5261164 104.376298,37.9501135 L105.600298,36.9421135 C105.864299,37.2061148 106.158297,37.4401125 106.482298,37.6441135 C106.8063,37.8481145 107.202296,37.9501135 107.670298,37.9501135 C107.874299,37.9501135 108.081297,37.9291137 108.291298,37.8871135 C108.501299,37.8451133 108.687297,37.7791139 108.849298,37.6891135 C109.011299,37.599113 109.143298,37.4851142 109.245298,37.3471135 C109.347299,37.2091128 109.398298,37.0501144 109.398298,36.8701135 C109.398298,36.6301123 109.323299,36.4321143 109.173298,36.2761135 C109.023297,36.1201127 108.843299,35.9971139 108.633298,35.9071135 C108.423297,35.817113 108.201299,35.7451138 107.967298,35.6911135 C107.733297,35.6371132 107.526299,35.5921137 107.346298,35.5561135 C106.998296,35.4721131 106.6683,35.376114 106.356298,35.2681135 C106.044297,35.1601129 105.768299,35.0161144 105.528298,34.8361135 C105.288297,34.6561126 105.096299,34.4281149 104.952298,34.1521135 C104.808297,33.8761121 104.736298,33.5341155 104.736298,33.1261135 C104.736298,32.6821113 104.829297,32.2951151 105.015298,31.9651135 C105.201299,31.6351118 105.447297,31.3621146 105.753298,31.1461135 C106.0593,30.9301124 106.407296,30.768114 106.797298,30.6601135 C107.1873,30.5521129 107.580296,30.4981135 107.976298,30.4981135 C108.552301,30.4981135 109.104295,30.6061124 109.632298,30.8221135 C110.160301,31.0381146 110.580297,31.398111 110.892298,31.9021135 L109.632298,32.8561135 Z M117.624298,32.8561135 C117.432297,32.6161123 117.1953,32.4151143 116.913298,32.2531135 C116.631297,32.0911127 116.2863,32.0101135 115.878298,32.0101135 C115.494296,32.0101135 115.1613,32.0911127 114.879298,32.2531135 C114.597297,32.4151143 114.456298,32.6521119 114.456298,32.9641135 C114.456298,33.2161147 114.537297,33.4201127 114.699298,33.5761135 C114.861299,33.7321143 115.053297,33.858113 115.275298,33.9541135 C115.497299,34.050114 115.734297,34.1221132 115.986298,34.1701135 C116.238299,34.2181137 116.454297,34.2601133 116.634298,34.2961135 C116.9823,34.3801139 117.309297,34.4821129 117.615298,34.6021135 C117.9213,34.7221141 118.185297,34.8781125 118.407298,35.0701135 C118.629299,35.2621144 118.803298,35.4961121 118.929298,35.7721135 C119.055299,36.0481149 119.118298,36.3841115 119.118298,36.7801135 C119.118298,37.2601159 119.016299,37.6711118 118.812298,38.0131135 C118.608297,38.3551152 118.3443,38.6341124 118.020298,38.8501135 C117.696297,39.0661146 117.3273,39.222113 116.913298,39.3181135 C116.499296,39.414114 116.0823,39.4621135 115.662298,39.4621135 C114.954295,39.4621135 114.333301,39.3541146 113.799298,39.1381135 C113.265295,38.9221124 112.7883,38.5261164 112.368298,37.9501135 L113.592298,36.9421135 C113.856299,37.2061148 114.150297,37.4401125 114.474298,37.6441135 C114.7983,37.8481145 115.194296,37.9501135 115.662298,37.9501135 C115.866299,37.9501135 116.073297,37.9291137 116.283298,37.8871135 C116.493299,37.8451133 116.679297,37.7791139 116.841298,37.6891135 C117.003299,37.599113 117.135298,37.4851142 117.237298,37.3471135 C117.339299,37.2091128 117.390298,37.0501144 117.390298,36.8701135 C117.390298,36.6301123 117.315299,36.4321143 117.165298,36.2761135 C117.015297,36.1201127 116.835299,35.9971139 116.625298,35.9071135 C116.415297,35.817113 116.193299,35.7451138 115.959298,35.6911135 C115.725297,35.6371132 115.518299,35.5921137 115.338298,35.5561135 C114.990296,35.4721131 114.6603,35.376114 114.348298,35.2681135 C114.036297,35.1601129 113.760299,35.0161144 113.520298,34.8361135 C113.280297,34.6561126 113.088299,34.4281149 112.944298,34.1521135 C112.800297,33.8761121 112.728298,33.5341155 112.728298,33.1261135 C112.728298,32.6821113 112.821297,32.2951151 113.007298,31.9651135 C113.193299,31.6351118 113.439297,31.3621146 113.745298,31.1461135 C114.0513,30.9301124 114.399296,30.768114 114.789298,30.6601135 C115.1793,30.5521129 115.572296,30.4981135 115.968298,30.4981135 C116.544301,30.4981135 117.096295,30.6061124 117.624298,30.8221135 C118.152301,31.0381146 118.572297,31.398111 118.884298,31.9021135 L117.624298,32.8561135 Z M130.656298,32.1181135 L128.334298,32.1181135 L128.334298,35.9881135 C128.334298,36.2281147 128.340298,36.4651123 128.352298,36.6991135 C128.364298,36.9331147 128.409298,37.1431126 128.487298,37.3291135 C128.565299,37.5151144 128.685297,37.6651129 128.847298,37.7791135 C129.009299,37.8931141 129.246297,37.9501135 129.558298,37.9501135 C129.750299,37.9501135 129.948297,37.9321137 130.152298,37.8961135 C130.356299,37.8601133 130.542297,37.794114 130.710298,37.6981135 L130.710298,39.1741135 C130.518297,39.282114 130.2693,39.3571133 129.963298,39.3991135 C129.657297,39.4411137 129.420299,39.4621135 129.252298,39.4621135 C128.628295,39.4621135 128.1453,39.3751144 127.803298,39.2011135 C127.461296,39.0271126 127.209299,38.8021149 127.047298,38.5261135 C126.885297,38.2501121 126.789298,37.9411152 126.759298,37.5991135 C126.729298,37.2571118 126.714298,36.9121152 126.714298,36.5641135 L126.714298,32.1181135 L124.842298,32.1181135 L124.842298,30.7141135 L126.714298,30.7141135 L126.714298,28.3201135 L128.334298,28.3201135 L128.334298,30.7141135 L130.656298,30.7141135 L130.656298,32.1181135 Z M134.058298,34.9801135 C134.058298,35.4121156 134.124297,35.8111117 134.256298,36.1771135 C134.388299,36.5431153 134.574297,36.8551122 134.814298,37.1131135 C135.054299,37.3711148 135.348296,37.5751127 135.696298,37.7251135 C136.0443,37.8751142 136.434296,37.9501135 136.866298,37.9501135 C137.2983,37.9501135 137.688296,37.8751142 138.036298,37.7251135 C138.3843,37.5751127 138.678297,37.3711148 138.918298,37.1131135 C139.158299,36.8551122 139.344297,36.5431153 139.476298,36.1771135 C139.608299,35.8111117 139.674298,35.4121156 139.674298,34.9801135 C139.674298,34.5481113 139.608299,34.1491153 139.476298,33.7831135 C139.344297,33.4171117 139.158299,33.1051148 138.918298,32.8471135 C138.678297,32.5891122 138.3843,32.3851142 138.036298,32.2351135 C137.688296,32.0851127 137.2983,32.0101135 136.866298,32.0101135 C136.434296,32.0101135 136.0443,32.0851127 135.696298,32.2351135 C135.348296,32.3851142 135.054299,32.5891122 134.814298,32.8471135 C134.574297,33.1051148 134.388299,33.4171117 134.256298,33.7831135 C134.124297,34.1491153 134.058298,34.5481113 134.058298,34.9801135 Z M132.330298,34.9801135 C132.330298,34.3561104 132.447297,33.7741162 132.681298,33.2341135 C132.915299,32.6941108 133.236296,32.2201155 133.644298,31.8121135 C134.0523,31.4041114 134.532295,31.0831147 135.084298,30.8491135 C135.636301,30.6151123 136.230295,30.4981135 136.866298,30.4981135 C137.502301,30.4981135 138.096295,30.6151123 138.648298,30.8491135 C139.200301,31.0831147 139.680296,31.4041114 140.088298,31.8121135 C140.4963,32.2201155 140.817297,32.6941108 141.051298,33.2341135 C141.285299,33.7741162 141.402298,34.3561104 141.402298,34.9801135 C141.402298,35.6041166 141.285299,36.1891108 141.051298,36.7351135 C140.817297,37.2811162 140.4963,37.7551115 140.088298,38.1571135 C139.680296,38.5591155 139.200301,38.8771123 138.648298,39.1111135 C138.096295,39.3451147 137.502301,39.4621135 136.866298,39.4621135 C136.230295,39.4621135 135.636301,39.3451147 135.084298,39.1111135 C134.532295,38.8771123 134.0523,38.5591155 133.644298,38.1571135 C133.236296,37.7551115 132.915299,37.2811162 132.681298,36.7351135 C132.447297,36.1891108 132.330298,35.6041166 132.330298,34.9801135 Z M154.542298,32.9821135 C154.242297,32.6701119 153.9273,32.4331143 153.597298,32.2711135 C153.267296,32.1091127 152.8743,32.0281135 152.418298,32.0281135 C151.974296,32.0281135 151.5873,32.1091127 151.257298,32.2711135 C150.927296,32.4331143 150.651299,32.6551121 150.429298,32.9371135 C150.207297,33.2191149 150.039299,33.5431117 149.925298,33.9091135 C149.811298,34.2751153 149.754298,34.6561115 149.754298,35.0521135 C149.754298,35.4481155 149.820297,35.8231117 149.952298,36.1771135 C150.084299,36.5311153 150.270297,36.8401122 150.510298,37.1041135 C150.750299,37.3681148 151.038296,37.5751127 151.374298,37.7251135 C151.7103,37.8751142 152.088296,37.9501135 152.508298,37.9501135 C152.9643,37.9501135 153.354297,37.8691143 153.678298,37.7071135 C154.0023,37.5451127 154.302297,37.308115 154.578298,36.9961135 L155.730298,38.1481135 C155.310296,38.6161158 154.821301,38.9521125 154.263298,39.1561135 C153.705295,39.3601145 153.114301,39.4621135 152.490298,39.4621135 C151.830295,39.4621135 151.227301,39.3541146 150.681298,39.1381135 C150.135295,38.9221124 149.6643,38.6191154 149.268298,38.2291135 C148.872296,37.8391115 148.566299,37.3711162 148.350298,36.8251135 C148.134297,36.2791108 148.026298,35.6761168 148.026298,35.0161135 C148.026298,34.3561102 148.134297,33.7501162 148.350298,33.1981135 C148.566299,32.6461107 148.869296,32.1721155 149.259298,31.7761135 C149.6493,31.3801115 150.117295,31.0711146 150.663298,30.8491135 C151.209301,30.6271124 151.818295,30.5161135 152.490298,30.5161135 C153.114301,30.5161135 153.711295,30.6271124 154.281298,30.8491135 C154.851301,31.0711146 155.346296,31.4101112 155.766298,31.8661135 L154.542298,32.9821135 Z M158.430298,34.9801135 C158.430298,35.4121156 158.496297,35.8111117 158.628298,36.1771135 C158.760299,36.5431153 158.946297,36.8551122 159.186298,37.1131135 C159.426299,37.3711148 159.720296,37.5751127 160.068298,37.7251135 C160.4163,37.8751142 160.806296,37.9501135 161.238298,37.9501135 C161.6703,37.9501135 162.060296,37.8751142 162.408298,37.7251135 C162.7563,37.5751127 163.050297,37.3711148 163.290298,37.1131135 C163.530299,36.8551122 163.716297,36.5431153 163.848298,36.1771135 C163.980299,35.8111117 164.046298,35.4121156 164.046298,34.9801135 C164.046298,34.5481113 163.980299,34.1491153 163.848298,33.7831135 C163.716297,33.4171117 163.530299,33.1051148 163.290298,32.8471135 C163.050297,32.5891122 162.7563,32.3851142 162.408298,32.2351135 C162.060296,32.0851127 161.6703,32.0101135 161.238298,32.0101135 C160.806296,32.0101135 160.4163,32.0851127 160.068298,32.2351135 C159.720296,32.3851142 159.426299,32.5891122 159.186298,32.8471135 C158.946297,33.1051148 158.760299,33.4171117 158.628298,33.7831135 C158.496297,34.1491153 158.430298,34.5481113 158.430298,34.9801135 Z M156.702298,34.9801135 C156.702298,34.3561104 156.819297,33.7741162 157.053298,33.2341135 C157.287299,32.6941108 157.608296,32.2201155 158.016298,31.8121135 C158.4243,31.4041114 158.904295,31.0831147 159.456298,30.8491135 C160.008301,30.6151123 160.602295,30.4981135 161.238298,30.4981135 C161.874301,30.4981135 162.468295,30.6151123 163.020298,30.8491135 C163.572301,31.0831147 164.052296,31.4041114 164.460298,31.8121135 C164.8683,32.2201155 165.189297,32.6941108 165.423298,33.2341135 C165.657299,33.7741162 165.774298,34.3561104 165.774298,34.9801135 C165.774298,35.6041166 165.657299,36.1891108 165.423298,36.7351135 C165.189297,37.2811162 164.8683,37.7551115 164.460298,38.1571135 C164.052296,38.5591155 163.572301,38.8771123 163.020298,39.1111135 C162.468295,39.3451147 161.874301,39.4621135 161.238298,39.4621135 C160.602295,39.4621135 160.008301,39.3451147 159.456298,39.1111135 C158.904295,38.8771123 158.4243,38.5591155 158.016298,38.1571135 C157.608296,37.7551115 157.287299,37.2811162 157.053298,36.7351135 C156.819297,36.1891108 156.702298,35.6041166 156.702298,34.9801135 Z M167.808298,30.7141135 L169.428298,30.7141135 L169.428298,32.0281135 L169.464298,32.0281135 C169.668299,31.5721112 170.022296,31.2031149 170.526298,30.9211135 C171.030301,30.6391121 171.612295,30.4981135 172.272298,30.4981135 C172.6803,30.4981135 173.073296,30.5611129 173.451298,30.6871135 C173.8293,30.8131141 174.159297,31.0081122 174.441298,31.2721135 C174.7233,31.5361148 174.948297,31.8751114 175.116298,32.2891135 C175.284299,32.7031156 175.368298,33.1921107 175.368298,33.7561135 L175.368298,39.2461135 L173.748298,39.2461135 L173.748298,34.2061135 C173.748298,33.8101115 173.694299,33.4711149 173.586298,33.1891135 C173.478298,32.9071121 173.334299,32.6791144 173.154298,32.5051135 C172.974297,32.3311126 172.767299,32.2051139 172.533298,32.1271135 C172.299297,32.0491131 172.056299,32.0101135 171.804298,32.0101135 C171.468296,32.0101135 171.1563,32.0641129 170.868298,32.1721135 C170.580297,32.280114 170.328299,32.4511123 170.112298,32.6851135 C169.896297,32.9191147 169.728299,33.2161117 169.608298,33.5761135 C169.488298,33.9361153 169.428298,34.362111 169.428298,34.8541135 L169.428298,39.2461135 L167.808298,39.2461135 L167.808298,30.7141135 Z M182.388298,32.1181135 L180.066298,32.1181135 L180.066298,35.9881135 C180.066298,36.2281147 180.072298,36.4651123 180.084298,36.6991135 C180.096298,36.9331147 180.141298,37.1431126 180.219298,37.3291135 C180.297299,37.5151144 180.417297,37.6651129 180.579298,37.7791135 C180.741299,37.8931141 180.978297,37.9501135 181.290298,37.9501135 C181.482299,37.9501135 181.680297,37.9321137 181.884298,37.8961135 C182.088299,37.8601133 182.274297,37.794114 182.442298,37.6981135 L182.442298,39.1741135 C182.250297,39.282114 182.0013,39.3571133 181.695298,39.3991135 C181.389297,39.4411137 181.152299,39.4621135 180.984298,39.4621135 C180.360295,39.4621135 179.8773,39.3751144 179.535298,39.2011135 C179.193296,39.0271126 178.941299,38.8021149 178.779298,38.5261135 C178.617297,38.2501121 178.521298,37.9411152 178.491298,37.5991135 C178.461298,37.2571118 178.446298,36.9121152 178.446298,36.5641135 L178.446298,32.1181135 L176.574298,32.1181135 L176.574298,30.7141135 L178.446298,30.7141135 L178.446298,28.3201135 L180.066298,28.3201135 L180.066298,30.7141135 L182.388298,30.7141135 L182.388298,32.1181135 Z M185.700298,35.5741135 C185.700298,35.9461153 185.781297,36.285112 185.943298,36.5911135 C186.105299,36.897115 186.318297,37.1581124 186.582298,37.3741135 C186.846299,37.5901146 187.152296,37.7581129 187.500298,37.8781135 C187.8483,37.9981141 188.208296,38.0581135 188.580298,38.0581135 C189.084301,38.0581135 189.522296,37.9411147 189.894298,37.7071135 C190.2663,37.4731123 190.608297,37.1641154 190.920298,36.7801135 L192.144298,37.7161135 C191.244294,38.8801193 189.984306,39.4621135 188.364298,39.4621135 C187.692295,39.4621135 187.083301,39.3481146 186.537298,39.1201135 C185.991295,38.8921123 185.5293,38.5771155 185.151298,38.1751135 C184.773296,37.7731115 184.482299,37.2991162 184.278298,36.7531135 C184.074297,36.2071108 183.972298,35.6161167 183.972298,34.9801135 C183.972298,34.3441103 184.083297,33.7531162 184.305298,33.2071135 C184.527299,32.6611108 184.833296,32.1871155 185.223298,31.7851135 C185.6133,31.3831115 186.078295,31.0681146 186.618298,30.8401135 C187.158301,30.6121123 187.746295,30.4981135 188.382298,30.4981135 C189.138302,30.4981135 189.777296,30.6301122 190.299298,30.8941135 C190.821301,31.1581148 191.250296,31.5031114 191.586298,31.9291135 C191.9223,32.3551156 192.165297,32.8351108 192.315298,33.3691135 C192.465299,33.9031162 192.540298,34.4461107 192.540298,34.9981135 L192.540298,35.5741135 L185.700298,35.5741135 Z M190.812298,34.2781135 C190.800298,33.9181117 190.743299,33.588115 190.641298,33.2881135 C190.539298,32.988112 190.386299,32.7271146 190.182298,32.5051135 C189.978297,32.2831124 189.7233,32.1091141 189.417298,31.9831135 C189.111297,31.8571129 188.7543,31.7941135 188.346298,31.7941135 C187.950296,31.7941135 187.5873,31.8691127 187.257298,32.0191135 C186.927296,32.1691142 186.648299,32.3641123 186.420298,32.6041135 C186.192297,32.8441147 186.015299,33.111112 185.889298,33.4051135 C185.763298,33.699115 185.700298,33.990112 185.700298,34.2781135 L190.812298,34.2781135 Z M194.484298,30.7141135 L196.104298,30.7141135 L196.104298,32.0281135 L196.140298,32.0281135 C196.344299,31.5721112 196.698296,31.2031149 197.202298,30.9211135 C197.706301,30.6391121 198.288295,30.4981135 198.948298,30.4981135 C199.3563,30.4981135 199.749296,30.5611129 200.127298,30.6871135 C200.5053,30.8131141 200.835297,31.0081122 201.117298,31.2721135 C201.3993,31.5361148 201.624297,31.8751114 201.792298,32.2891135 C201.960299,32.7031156 202.044298,33.1921107 202.044298,33.7561135 L202.044298,39.2461135 L200.424298,39.2461135 L200.424298,34.2061135 C200.424298,33.8101115 200.370299,33.4711149 200.262298,33.1891135 C200.154298,32.9071121 200.010299,32.6791144 199.830298,32.5051135 C199.650297,32.3311126 199.443299,32.2051139 199.209298,32.1271135 C198.975297,32.0491131 198.732299,32.0101135 198.480298,32.0101135 C198.144296,32.0101135 197.8323,32.0641129 197.544298,32.1721135 C197.256297,32.280114 197.004299,32.4511123 196.788298,32.6851135 C196.572297,32.9191147 196.404299,33.2161117 196.284298,33.5761135 C196.164298,33.9361153 196.104298,34.362111 196.104298,34.8541135 L196.104298,39.2461135 L194.484298,39.2461135 L194.484298,30.7141135 Z M209.064298,32.1181135 L206.742298,32.1181135 L206.742298,35.9881135 C206.742298,36.2281147 206.748298,36.4651123 206.760298,36.6991135 C206.772298,36.9331147 206.817298,37.1431126 206.895298,37.3291135 C206.973299,37.5151144 207.093297,37.6651129 207.255298,37.7791135 C207.417299,37.8931141 207.654297,37.9501135 207.966298,37.9501135 C208.158299,37.9501135 208.356297,37.9321137 208.560298,37.8961135 C208.764299,37.8601133 208.950297,37.794114 209.118298,37.6981135 L209.118298,39.1741135 C208.926297,39.282114 208.6773,39.3571133 208.371298,39.3991135 C208.065297,39.4411137 207.828299,39.4621135 207.660298,39.4621135 C207.036295,39.4621135 206.5533,39.3751144 206.211298,39.2011135 C205.869296,39.0271126 205.617299,38.8021149 205.455298,38.5261135 C205.293297,38.2501121 205.197298,37.9411152 205.167298,37.5991135 C205.137298,37.2571118 205.122298,36.9121152 205.122298,36.5641135 L205.122298,32.1181135 L203.250298,32.1181135 L203.250298,30.7141135 L205.122298,30.7141135 L205.122298,28.3201135 L206.742298,28.3201135 L206.742298,30.7141135 L209.064298,30.7141135 L209.064298,32.1181135 Z" id="Paid-access-to-conte" fill="#DBDBDB"></path>
                        <g id="btn_donate" transform="translate(20.124224, 220.120482)" fill="#EFF1F5">
                            <rect id="Rectangle-20" x="0" y="0" width="115.714286" height="30.3614458" rx="15.1807229"></rect>
                        </g>
                        <g id="Group-6" transform="translate(26.832298, 64.096386)" fill="#EFF1F5" opacity="0.235054348">
                            <g id="text">
                                <rect id="Rectangle-19" x="0" y="0" width="216.335404" height="8.43373494" rx="4.21686747"></rect>
                                <rect id="Rectangle-19-Copy" x="0" y="21.0843373" width="209.075826" height="8.43373494" rx="4.21686747"></rect>
                                <rect id="Rectangle-19-Copy-4" x="0.838509317" y="63.253012" width="192.303724" height="8.43373494" rx="4.21686747"></rect>
                                <rect id="Rectangle-19-Copy-6" x="1.67701863" y="126.506024" width="192.303724" height="8.43373494" rx="4.21686747"></rect>
                                <rect id="Rectangle-19-Copy-2" x="0" y="42.1686747" width="215.609446" height="8.43373494" rx="4.21686747"></rect>
                                <rect id="Rectangle-19-Copy-7" x="0.838509317" y="105.421687" width="215.609446" height="8.43373494" rx="4.21686747"></rect>
                                <rect id="Rectangle-19-Copy-5" x="0.838509317" y="84.3373494" width="215.609446" height="8.43373494" rx="4.21686747"></rect>
                            </g>
                        </g>
                        <g id="lock" opacity="0.246659873" transform="translate(93.913043, 89.397590)" fill="#414141">
                            <g id="3F" opacity="0.218636775">
                                <path d="M33.6638232,71.9619994 L33.6638232,75.8815943 C33.6638232,77.7092705 35.1240615,79.1846236 36.9281412,79.1846236 C38.7300447,79.1846236 40.1924592,77.7092705 40.1924592,75.8815943 L40.1924592,71.9399792 C42.192398,70.7729089 43.5590592,68.6149297 43.5590592,66.1266476 C43.5590592,62.4272547 40.5841774,59.4104879 36.9281412,59.4104879 C33.2699289,59.4104879 30.2950471,62.4272547 30.2950471,66.1266476 C30.2950471,68.5708893 31.6007743,70.7729089 33.6638232,71.9619994 M67.2601839,86.2971468 C67.2601839,87.0898739 67.0773821,94.1583567 60.7359004,94.422599 C51.2715544,94.7969423 13.6470254,94.4666394 13.1791398,94.4446192 C12.5980912,94.4446192 7.50140272,94.1583567 6.52863596,84.9318947 L6.52863596,46.6607946 L67.2601839,46.6607946 L67.2601839,86.2971468 Z M36.7975685,6.6060587 C55.1321545,6.6060587 56.1832649,21.9981755 56.2420226,23.6496901 L56.2420226,40.0547359 L17.3552906,40.0547359 L17.3531144,24.5525182 C17.3727003,23.8038315 18.0038018,6.6060587 36.7975685,6.6060587 Z M70.5245019,40.0547359 L62.7706586,40.0547359 L62.7684824,23.5616094 C62.5639184,15.414137 56.8709479,0 36.7975685,0 C16.7220129,0 11.0312186,15.9426217 10.8266546,24.4644374 L10.8266546,40.0547359 L3.26431798,40.0547359 C1.46241446,40.0547359 0,41.530089 0,43.3577653 L0,85.1080562 C0,85.2181572 0.00652863596,85.3282582 0.0174096959,85.4383592 C1.27743644,98.1440121 9.31853973,101.2929 13.2052543,101.050678 C14.1954308,101.072698 29.3723332,101.204819 42.7647418,101.204819 C50.4228318,101.204819 57.4998731,101.160779 61.0013982,101.028658 C71.1142553,100.610274 73.7888199,91.2076504 73.7888199,86.2971468 L73.7888199,43.3577653 C73.7888199,41.530089 72.3264054,40.0547359 70.5245019,40.0547359 L70.5245019,40.0547359 Z"></path>
                            </g>
                        </g>
                        <path d="M223.043478,1.68674699 L268.268146,48.5976906 L268.268146,6.82649067 C268.165036,5.2902069 267.664251,4.08004554 266.765791,3.19600661 C265.867332,2.31196767 264.774378,1.80888113 263.486931,1.68674699 L223.043478,1.68674699 Z" id="Path-12" fill="#FCFBFB"></path>
                        <path d="M224.163002,3.44024121 L224.163002,35.4199449 C223.523403,38.0958957 223.975617,40.576249 225.519646,42.8610048 C227.063674,45.1457606 229.510422,46.2881385 232.859888,46.2881385 L266.867391,46.2881385 L224.163002,3.44024121 Z" id="Path-13" stroke="#EEEEEE" stroke-width="2"></path>
                    </g>
                    <g id="membership" transform="translate(207.000000, 56.000000)">
                        <g id="Rectangle-17-Copy">
                            <use fill="black" fill-opacity="1" filter="url(#filter-3)" xlink:href="#path-2"></use>
                            <use fill="#FFFFFF" fill-rule="evenodd" xlink:href="#path-2"></use>
                            <rect stroke="#E3E3E3" stroke-width="2" x="1" y="16.0909091" width="233" height="148.909091" rx="8"></rect>
                        </g>
                        <g id="lock" opacity="0.468353714" transform="translate(184.822064, 25.151515)" fill="#414141">
                            <g id="3F" opacity="0.218636775">
                                <path d="M11.8275859,25.633823 L11.8275859,27.0300349 C11.8275859,27.6810775 12.340632,28.206618 12.9744847,28.206618 C13.6075729,28.206618 14.1213836,27.6810775 14.1213836,27.0300349 L14.1213836,25.6259791 C14.8240503,25.2102531 15.3042187,24.4415522 15.3042187,23.5551929 C15.3042187,22.2374199 14.2590115,21.1628074 12.9744847,21.1628074 C11.6891934,21.1628074 10.6439862,22.2374199 10.6439862,23.5551929 C10.6439862,24.4258644 11.1027458,25.2102531 11.8275859,25.633823 M23.6314691,30.7401935 C23.6314691,31.0225734 23.5672428,33.5404612 21.3392006,33.6345878 C18.0139584,33.7679339 4.79480192,33.6502756 4.63041308,33.6424317 C4.42626508,33.6424317 2.63557363,33.5404612 2.29379776,30.2538725 L2.29379776,16.6211967 L23.6314691,16.6211967 L23.6314691,30.7401935 Z M12.9286088,2.35316613 C19.3703575,2.35316613 19.7396589,7.8360432 19.7603031,8.42433473 L19.7603031,14.2680306 L6.09767905,14.2680306 L6.09691445,8.7459341 C6.10379584,8.47924194 6.32552963,2.35316613 12.9286088,2.35316613 Z M24.778368,14.2680306 L22.0541009,14.2680306 L22.0533363,8.39295918 C21.981464,5.49072096 19.9812723,2.27373675e-13 12.9286088,2.27373675e-13 C5.87518067,2.27373675e-13 3.87575362,5.67897425 3.80388129,8.71455855 L3.80388129,14.2680306 L1.14689888,14.2680306 C0.513810699,14.2680306 0,14.793571 0,15.4446137 L0,30.3166236 C0,30.355843 0.00229379776,30.3950625 0.00611679403,30.4342819 C0.448819762,34.9602047 3.27401401,36.0818806 4.63958827,35.9955978 C4.98748093,36.0034417 10.3197961,36.0505051 15.0251399,36.0505051 C17.7157647,36.0505051 20.2022415,36.0348173 21.4324817,35.987754 C24.9855744,35.8387201 25.9252669,32.4893803 25.9252669,30.7401935 L25.9252669,15.4446137 C25.9252669,14.793571 25.4114562,14.2680306 24.778368,14.2680306 L24.778368,14.2680306 Z"></path>
                            </g>
                        </g>
                        <path d="M20.5088754,38.3147568 L23.9948754,38.3147568 C24.6295453,38.3147568 25.1522067,38.4010893 25.5628754,38.5737568 C25.9735442,38.7464243 26.2978743,38.9657555 26.5358754,39.2317568 C26.7738766,39.4977581 26.9395416,39.7964218 27.0328754,40.1277568 C27.1262092,40.4590918 27.1728754,40.7787553 27.1728754,41.0867568 C27.1728754,41.3947584 27.1262092,41.7144218 27.0328754,42.0457568 C26.9395416,42.3770918 26.7738766,42.6757555 26.5358754,42.9417568 C26.2978743,43.2077581 25.9735442,43.4270893 25.5628754,43.5997568 C25.1522067,43.7724243 24.6295453,43.8587568 23.9948754,43.8587568 L21.8528754,43.8587568 L21.8528754,48.2267568 L20.5088754,48.2267568 L20.5088754,38.3147568 Z M21.8528754,42.6827568 L23.6168754,42.6827568 C23.8782101,42.6827568 24.1372075,42.661757 24.3938754,42.6197568 C24.6505434,42.5777566 24.8792078,42.5007574 25.0798754,42.3887568 C25.2805431,42.2767563 25.4415415,42.1157579 25.5628754,41.9057568 C25.6842094,41.6957558 25.7448754,41.4227585 25.7448754,41.0867568 C25.7448754,40.7507551 25.6842094,40.4777579 25.5628754,40.2677568 C25.4415415,40.0577558 25.2805431,39.8967574 25.0798754,39.7847568 C24.8792078,39.6727563 24.6505434,39.595757 24.3938754,39.5537568 C24.1372075,39.5117566 23.8782101,39.4907568 23.6168754,39.4907568 L21.8528754,39.4907568 L21.8528754,42.6827568 Z M28.5168754,42.4027568 C28.8715439,42.0760885 29.2822064,41.831091 29.7488754,41.6677568 C30.2155444,41.5044227 30.6822064,41.4227568 31.1488754,41.4227568 C31.6342112,41.4227568 32.0518737,41.4834229 32.4018754,41.6047568 C32.7518772,41.7260908 33.0388743,41.8894225 33.2628754,42.0947568 C33.4868766,42.3000912 33.6525416,42.5357555 33.7598754,42.8017568 C33.8672093,43.0677581 33.9208754,43.345422 33.9208754,43.6347568 L33.9208754,47.0227568 C33.9208754,47.2560913 33.9255421,47.4707558 33.9348754,47.6667568 C33.9442088,47.8627578 33.9582087,48.0494226 33.9768754,48.2267568 L32.8568754,48.2267568 C32.8288753,47.8907551 32.8148754,47.5547585 32.8148754,47.2187568 L32.7868754,47.2187568 C32.506874,47.6480923 32.175544,47.9514226 31.7928754,48.1287568 C31.4102069,48.306091 30.966878,48.3947568 30.4628754,48.3947568 C30.1548739,48.3947568 29.8608768,48.3527572 29.5808754,48.2687568 C29.300874,48.1847564 29.0558765,48.0587577 28.8458754,47.8907568 C28.6358744,47.722756 28.4702094,47.5150914 28.3488754,47.2677568 C28.2275415,47.0204222 28.1668754,46.7334251 28.1668754,46.4067568 C28.1668754,45.9774213 28.2625412,45.6180916 28.4538754,45.3287568 C28.6452097,45.039422 28.9065405,44.8037577 29.2378754,44.6217568 C29.5692104,44.4397559 29.9565399,44.3090905 30.3998754,44.2297568 C30.843211,44.1504231 31.3168729,44.1107568 31.8208754,44.1107568 L32.7448754,44.1107568 L32.7448754,43.8307568 C32.7448754,43.662756 32.7122091,43.4947577 32.6468754,43.3267568 C32.5815418,43.158756 32.4835428,43.0070908 32.3528754,42.8717568 C32.2222081,42.7364228 32.0588764,42.6290905 31.8628754,42.5497568 C31.6668745,42.4704231 31.4335435,42.4307568 31.1628754,42.4307568 C30.9202076,42.4307568 30.7078764,42.4540899 30.5258754,42.5007568 C30.3438745,42.5474237 30.1782095,42.6057565 30.0288754,42.6757568 C29.8795414,42.7457572 29.7442094,42.827423 29.6228754,42.9207568 C29.5015415,43.0140906 29.384876,43.1027564 29.2728754,43.1867568 L28.5168754,42.4027568 Z M32.0728754,45.0347568 C31.7742073,45.0347568 31.4685437,45.05109 31.1558754,45.0837568 C30.8432072,45.1164236 30.5585434,45.179423 30.3018754,45.2727568 C30.0452075,45.3660906 29.8352096,45.496756 29.6718754,45.6647568 C29.5085413,45.8327577 29.4268754,46.0474222 29.4268754,46.3087568 C29.4268754,46.6914254 29.5552075,46.966756 29.8118754,47.1347568 C30.0685434,47.3027577 30.4162066,47.3867568 30.8548754,47.3867568 C31.2002105,47.3867568 31.4942076,47.3284241 31.7368754,47.2117568 C31.9795433,47.0950896 32.1755414,46.9434244 32.3248754,46.7567568 C32.4742095,46.5700892 32.5815418,46.3624246 32.6468754,46.1337568 C32.7122091,45.905089 32.7448754,45.6787579 32.7448754,45.4547568 L32.7448754,45.0347568 L32.0728754,45.0347568 Z M35.8528754,41.5907568 L37.1128754,41.5907568 L37.1128754,48.2267568 L35.8528754,48.2267568 L35.8528754,41.5907568 Z M35.5588754,39.2107568 C35.5588754,38.9587556 35.6498745,38.7417577 35.8318754,38.5597568 C36.0138764,38.3777559 36.2308742,38.2867568 36.4828754,38.2867568 C36.7348767,38.2867568 36.9518745,38.3777559 37.1338754,38.5597568 C37.3158764,38.7417577 37.4068754,38.9587556 37.4068754,39.2107568 C37.4068754,39.4627581 37.3158764,39.6797559 37.1338754,39.8617568 C36.9518745,40.0437577 36.7348767,40.1347568 36.4828754,40.1347568 C36.2308742,40.1347568 36.0138764,40.0437577 35.8318754,39.8617568 C35.6498745,39.6797559 35.5588754,39.4627581 35.5588754,39.2107568 Z M45.7648754,48.2267568 L44.5048754,48.2267568 L44.5048754,47.2747568 L44.4768754,47.2747568 C44.2342076,47.6294253 43.9005442,47.9047558 43.4758754,48.1007568 C43.0512067,48.2967578 42.6148777,48.3947568 42.1668754,48.3947568 C41.6535395,48.3947568 41.1892109,48.306091 40.7738754,48.1287568 C40.35854,47.9514226 40.0038769,47.7040917 39.7098754,47.3867568 C39.415874,47.0694219 39.1895429,46.7007589 39.0308754,46.2807568 C38.872208,45.8607547 38.7928754,45.403426 38.7928754,44.9087568 C38.7928754,44.4140877 38.872208,43.9544256 39.0308754,43.5297568 C39.1895429,43.105088 39.415874,42.736425 39.7098754,42.4237568 C40.0038769,42.1110886 40.35854,41.866091 40.7738754,41.6887568 C41.1892109,41.5114226 41.6535395,41.4227568 42.1668754,41.4227568 C42.6428778,41.4227568 43.0908733,41.5230891 43.5108754,41.7237568 C43.9308775,41.9244245 44.2528743,42.1974218 44.4768754,42.5427568 L44.5048754,42.5427568 L44.5048754,37.6427568 L45.7648754,37.6427568 L45.7648754,48.2267568 Z M42.3208754,47.2187568 C42.6568771,47.2187568 42.9602074,47.1604241 43.2308754,47.0437568 C43.5015435,46.9270896 43.7302078,46.7684245 43.9168754,46.5677568 C44.103543,46.3670891 44.2482083,46.1244249 44.3508754,45.8397568 C44.4535426,45.5550887 44.5048754,45.2447585 44.5048754,44.9087568 C44.5048754,44.5727551 44.4535426,44.2624249 44.3508754,43.9777568 C44.2482083,43.6930887 44.103543,43.4504245 43.9168754,43.2497568 C43.7302078,43.0490891 43.5015435,42.8904241 43.2308754,42.7737568 C42.9602074,42.6570896 42.6568771,42.5987568 42.3208754,42.5987568 C41.9848738,42.5987568 41.6815435,42.6570896 41.4108754,42.7737568 C41.1402074,42.8904241 40.911543,43.0490891 40.7248754,43.2497568 C40.5382078,43.4504245 40.3935426,43.6930887 40.2908754,43.9777568 C40.1882083,44.2624249 40.1368754,44.5727551 40.1368754,44.9087568 C40.1368754,45.2447585 40.1882083,45.5550887 40.2908754,45.8397568 C40.3935426,46.1244249 40.5382078,46.3670891 40.7248754,46.5677568 C40.911543,46.7684245 41.1402074,46.9270896 41.4108754,47.0437568 C41.6815435,47.1604241 41.9848738,47.2187568 42.3208754,47.2187568 Z M51.5888754,42.4027568 C51.9435439,42.0760885 52.3542064,41.831091 52.8208754,41.6677568 C53.2875444,41.5044227 53.7542064,41.4227568 54.2208754,41.4227568 C54.7062112,41.4227568 55.1238737,41.4834229 55.4738754,41.6047568 C55.8238772,41.7260908 56.1108743,41.8894225 56.3348754,42.0947568 C56.5588766,42.3000912 56.7245416,42.5357555 56.8318754,42.8017568 C56.9392093,43.0677581 56.9928754,43.345422 56.9928754,43.6347568 L56.9928754,47.0227568 C56.9928754,47.2560913 56.9975421,47.4707558 57.0068754,47.6667568 C57.0162088,47.8627578 57.0302087,48.0494226 57.0488754,48.2267568 L55.9288754,48.2267568 C55.9008753,47.8907551 55.8868754,47.5547585 55.8868754,47.2187568 L55.8588754,47.2187568 C55.578874,47.6480923 55.247544,47.9514226 54.8648754,48.1287568 C54.4822069,48.306091 54.038878,48.3947568 53.5348754,48.3947568 C53.2268739,48.3947568 52.9328768,48.3527572 52.6528754,48.2687568 C52.372874,48.1847564 52.1278765,48.0587577 51.9178754,47.8907568 C51.7078744,47.722756 51.5422094,47.5150914 51.4208754,47.2677568 C51.2995415,47.0204222 51.2388754,46.7334251 51.2388754,46.4067568 C51.2388754,45.9774213 51.3345412,45.6180916 51.5258754,45.3287568 C51.7172097,45.039422 51.9785405,44.8037577 52.3098754,44.6217568 C52.6412104,44.4397559 53.0285399,44.3090905 53.4718754,44.2297568 C53.915211,44.1504231 54.3888729,44.1107568 54.8928754,44.1107568 L55.8168754,44.1107568 L55.8168754,43.8307568 C55.8168754,43.662756 55.7842091,43.4947577 55.7188754,43.3267568 C55.6535418,43.158756 55.5555428,43.0070908 55.4248754,42.8717568 C55.2942081,42.7364228 55.1308764,42.6290905 54.9348754,42.5497568 C54.7388745,42.4704231 54.5055435,42.4307568 54.2348754,42.4307568 C53.9922076,42.4307568 53.7798764,42.4540899 53.5978754,42.5007568 C53.4158745,42.5474237 53.2502095,42.6057565 53.1008754,42.6757568 C52.9515414,42.7457572 52.8162094,42.827423 52.6948754,42.9207568 C52.5735415,43.0140906 52.456876,43.1027564 52.3448754,43.1867568 L51.5888754,42.4027568 Z M55.1448754,45.0347568 C54.8462073,45.0347568 54.5405437,45.05109 54.2278754,45.0837568 C53.9152072,45.1164236 53.6305434,45.179423 53.3738754,45.2727568 C53.1172075,45.3660906 52.9072096,45.496756 52.7438754,45.6647568 C52.5805413,45.8327577 52.4988754,46.0474222 52.4988754,46.3087568 C52.4988754,46.6914254 52.6272075,46.966756 52.8838754,47.1347568 C53.1405434,47.3027577 53.4882066,47.3867568 53.9268754,47.3867568 C54.2722105,47.3867568 54.5662076,47.3284241 54.8088754,47.2117568 C55.0515433,47.0950896 55.2475414,46.9434244 55.3968754,46.7567568 C55.5462095,46.5700892 55.6535418,46.3624246 55.7188754,46.1337568 C55.7842091,45.905089 55.8168754,45.6787579 55.8168754,45.4547568 L55.8168754,45.0347568 L55.1448754,45.0347568 Z M63.5728754,43.3547568 C63.3395409,43.1120889 63.0945434,42.9277574 62.8378754,42.8017568 C62.5812075,42.6757562 62.2755439,42.6127568 61.9208754,42.6127568 C61.5755404,42.6127568 61.2745434,42.6757562 61.0178754,42.8017568 C60.7612075,42.9277574 60.546543,43.1004224 60.3738754,43.3197568 C60.2012079,43.5390912 60.0705426,43.7910887 59.9818754,44.0757568 C59.8932083,44.3604249 59.8488754,44.6567553 59.8488754,44.9647568 C59.8488754,45.2727584 59.9002083,45.5644221 60.0028754,45.8397568 C60.1055426,46.1150915 60.2502078,46.3554225 60.4368754,46.5607568 C60.623543,46.7660912 60.8475408,46.9270896 61.1088754,47.0437568 C61.3702101,47.1604241 61.6642071,47.2187568 61.9908754,47.2187568 C62.3455439,47.2187568 62.6488742,47.1557574 62.9008754,47.0297568 C63.1528767,46.9037562 63.3862077,46.7194247 63.6008754,46.4767568 L64.4968754,47.3727568 C64.1702071,47.7367586 63.7898776,47.9980894 63.3558754,48.1567568 C62.9218733,48.3154243 62.4622112,48.3947568 61.9768754,48.3947568 C61.4635395,48.3947568 60.9945442,48.3107577 60.5698754,48.1427568 C60.1452067,47.974756 59.778877,47.7390917 59.4708754,47.4357568 C59.1628739,47.132422 58.9248763,46.7684256 58.7568754,46.3437568 C58.5888746,45.919088 58.5048754,45.4500927 58.5048754,44.9367568 C58.5048754,44.4234209 58.5888746,43.9520923 58.7568754,43.5227568 C58.9248763,43.0934213 59.1605406,42.7247584 59.4638754,42.4167568 C59.7672103,42.1087553 60.1312067,41.8684243 60.5558754,41.6957568 C60.9805442,41.5230893 61.4542062,41.4367568 61.9768754,41.4367568 C62.4622112,41.4367568 62.9265399,41.5230893 63.3698754,41.6957568 C63.813211,41.8684243 64.1982071,42.1320884 64.5248754,42.4867568 L63.5728754,43.3547568 Z M70.3208754,43.3547568 C70.0875409,43.1120889 69.8425434,42.9277574 69.5858754,42.8017568 C69.3292075,42.6757562 69.0235439,42.6127568 68.6688754,42.6127568 C68.3235404,42.6127568 68.0225434,42.6757562 67.7658754,42.8017568 C67.5092075,42.9277574 67.294543,43.1004224 67.1218754,43.3197568 C66.9492079,43.5390912 66.8185426,43.7910887 66.7298754,44.0757568 C66.6412083,44.3604249 66.5968754,44.6567553 66.5968754,44.9647568 C66.5968754,45.2727584 66.6482083,45.5644221 66.7508754,45.8397568 C66.8535426,46.1150915 66.9982078,46.3554225 67.1848754,46.5607568 C67.371543,46.7660912 67.5955408,46.9270896 67.8568754,47.0437568 C68.1182101,47.1604241 68.4122071,47.2187568 68.7388754,47.2187568 C69.0935439,47.2187568 69.3968742,47.1557574 69.6488754,47.0297568 C69.9008767,46.9037562 70.1342077,46.7194247 70.3488754,46.4767568 L71.2448754,47.3727568 C70.9182071,47.7367586 70.5378776,47.9980894 70.1038754,48.1567568 C69.6698733,48.3154243 69.2102112,48.3947568 68.7248754,48.3947568 C68.2115395,48.3947568 67.7425442,48.3107577 67.3178754,48.1427568 C66.8932067,47.974756 66.526877,47.7390917 66.2188754,47.4357568 C65.9108739,47.132422 65.6728763,46.7684256 65.5048754,46.3437568 C65.3368746,45.919088 65.2528754,45.4500927 65.2528754,44.9367568 C65.2528754,44.4234209 65.3368746,43.9520923 65.5048754,43.5227568 C65.6728763,43.0934213 65.9085406,42.7247584 66.2118754,42.4167568 C66.5152103,42.1087553 66.8792067,41.8684243 67.3038754,41.6957568 C67.7285442,41.5230893 68.2022062,41.4367568 68.7248754,41.4367568 C69.2102112,41.4367568 69.6745399,41.5230893 70.1178754,41.6957568 C70.561211,41.8684243 70.9462071,42.1320884 71.2728754,42.4867568 L70.3208754,43.3547568 Z M73.2748754,45.3707568 C73.2748754,45.6600916 73.3378748,45.9237556 73.4638754,46.1617568 C73.5898761,46.399758 73.7555411,46.602756 73.9608754,46.7707568 C74.1662098,46.9387577 74.4042074,47.069423 74.6748754,47.1627568 C74.9455435,47.2560906 75.2255407,47.3027568 75.5148754,47.3027568 C75.9068774,47.3027568 76.2475407,47.2117577 76.5368754,47.0297568 C76.8262102,46.8477559 77.0922076,46.607425 77.3348754,46.3087568 L78.2868754,47.0367568 C77.5868719,47.9420947 76.6068817,48.3947568 75.3468754,48.3947568 C74.8242062,48.3947568 74.3505442,48.306091 73.9258754,48.1287568 C73.5012067,47.9514226 73.1418769,47.706425 72.8478754,47.3937568 C72.553874,47.0810886 72.3275429,46.7124256 72.1688754,46.2877568 C72.010208,45.863088 71.9308754,45.403426 71.9308754,44.9087568 C71.9308754,44.4140877 72.0172079,43.9544256 72.1898754,43.5297568 C72.362543,43.105088 72.6005406,42.736425 72.9038754,42.4237568 C73.2072103,42.1110886 73.5688733,41.866091 73.9888754,41.6887568 C74.4088775,41.5114226 74.8662063,41.4227568 75.3608754,41.4227568 C75.9488784,41.4227568 76.4458734,41.5254225 76.8518754,41.7307568 C77.2578775,41.9360912 77.5915408,42.2044218 77.8528754,42.5357568 C78.1142101,42.8670918 78.3032082,43.2404214 78.4198754,43.6557568 C78.5365427,44.0710922 78.5948754,44.4934213 78.5948754,44.9227568 L78.5948754,45.3707568 L73.2748754,45.3707568 Z M77.2508754,44.3627568 C77.2415421,44.0827554 77.1972092,43.8260913 77.1178754,43.5927568 C77.0385417,43.3594223 76.9195429,43.1564243 76.7608754,42.9837568 C76.602208,42.8110893 76.4038766,42.6757573 76.1658754,42.5777568 C75.9278743,42.4797563 75.6502104,42.4307568 75.3328754,42.4307568 C75.0248739,42.4307568 74.7425434,42.4890896 74.4858754,42.6057568 C74.2292075,42.7224241 74.0122097,42.8740892 73.8348754,43.0607568 C73.6575412,43.2474244 73.5198759,43.455089 73.4218754,43.6837568 C73.323875,43.9124246 73.2748754,44.1387557 73.2748754,44.3627568 L77.2508754,44.3627568 Z M83.6348754,43.2567568 C83.4855414,43.0700892 83.3012099,42.9137574 83.0818754,42.7877568 C82.862541,42.6617562 82.5942104,42.5987568 82.2768754,42.5987568 C81.9782073,42.5987568 81.7192099,42.6617562 81.4998754,42.7877568 C81.280541,42.9137574 81.1708754,43.0980889 81.1708754,43.3407568 C81.1708754,43.5367578 81.2338748,43.6954229 81.3598754,43.8167568 C81.4858761,43.9380908 81.6352079,44.0360898 81.8078754,44.1107568 C81.980543,44.1854239 82.1648745,44.2414233 82.3608754,44.2787568 C82.5568764,44.3160903 82.7248747,44.3487567 82.8648754,44.3767568 C83.1355435,44.4420905 83.3898743,44.521423 83.6278754,44.6147568 C83.8658766,44.7080906 84.0712079,44.8294227 84.2438754,44.9787568 C84.416543,45.1280909 84.551875,45.3100891 84.6498754,45.5247568 C84.7478759,45.7394246 84.7968754,46.0007553 84.7968754,46.3087568 C84.7968754,46.682092 84.7175429,47.0017555 84.5588754,47.2677568 C84.400208,47.5337581 84.1948767,47.750756 83.9428754,47.9187568 C83.6908742,48.0867577 83.4038771,48.2080898 83.0818754,48.2827568 C82.7598738,48.3574239 82.4355437,48.3947568 82.1088754,48.3947568 C81.558206,48.3947568 81.0752109,48.3107577 80.6598754,48.1427568 C80.24454,47.974756 79.8735437,47.6667591 79.5468754,47.2187568 L80.4988754,46.4347568 C80.7042098,46.6400912 80.9328742,46.8220894 81.1848754,46.9807568 C81.4368767,47.1394243 81.7448736,47.2187568 82.1088754,47.2187568 C82.2675429,47.2187568 82.4285413,47.2024236 82.5918754,47.1697568 C82.7552096,47.13709 82.8998748,47.0857572 83.0258754,47.0157568 C83.1518761,46.9457565 83.2545417,46.8570907 83.3338754,46.7497568 C83.4132092,46.6424229 83.4528754,46.5187575 83.4528754,46.3787568 C83.4528754,46.1920892 83.3945427,46.0380908 83.2778754,45.9167568 C83.1612082,45.7954229 83.0212096,45.6997572 82.8578754,45.6297568 C82.6945413,45.5597565 82.5218764,45.503757 82.3398754,45.4617568 C82.1578745,45.4197566 81.9968761,45.384757 81.8568754,45.3567568 C81.5862074,45.2914232 81.3295433,45.2167572 81.0868754,45.1327568 C80.8442076,45.0487564 80.629543,44.9367575 80.4428754,44.7967568 C80.2562078,44.6567561 80.106876,44.4794246 79.9948754,44.2647568 C79.8828749,44.0500891 79.8268754,43.7840917 79.8268754,43.4667568 C79.8268754,43.1214218 79.8992081,42.8204248 80.0438754,42.5637568 C80.1885428,42.3070889 80.3798743,42.0947577 80.6178754,41.9267568 C80.8558766,41.758756 81.1265406,41.6327572 81.4298754,41.5487568 C81.7332103,41.4647564 82.0388739,41.4227568 82.3468754,41.4227568 C82.7948777,41.4227568 83.2242067,41.506756 83.6348754,41.6747568 C84.0455442,41.8427577 84.3722076,42.1227549 84.6148754,42.5147568 L83.6348754,43.2567568 Z M89.8508754,43.2567568 C89.7015414,43.0700892 89.5172099,42.9137574 89.2978754,42.7877568 C89.078541,42.6617562 88.8102104,42.5987568 88.4928754,42.5987568 C88.1942073,42.5987568 87.9352099,42.6617562 87.7158754,42.7877568 C87.496541,42.9137574 87.3868754,43.0980889 87.3868754,43.3407568 C87.3868754,43.5367578 87.4498748,43.6954229 87.5758754,43.8167568 C87.7018761,43.9380908 87.8512079,44.0360898 88.0238754,44.1107568 C88.196543,44.1854239 88.3808745,44.2414233 88.5768754,44.2787568 C88.7728764,44.3160903 88.9408747,44.3487567 89.0808754,44.3767568 C89.3515435,44.4420905 89.6058743,44.521423 89.8438754,44.6147568 C90.0818766,44.7080906 90.2872079,44.8294227 90.4598754,44.9787568 C90.632543,45.1280909 90.767875,45.3100891 90.8658754,45.5247568 C90.9638759,45.7394246 91.0128754,46.0007553 91.0128754,46.3087568 C91.0128754,46.682092 90.9335429,47.0017555 90.7748754,47.2677568 C90.616208,47.5337581 90.4108767,47.750756 90.1588754,47.9187568 C89.9068742,48.0867577 89.6198771,48.2080898 89.2978754,48.2827568 C88.9758738,48.3574239 88.6515437,48.3947568 88.3248754,48.3947568 C87.774206,48.3947568 87.2912109,48.3107577 86.8758754,48.1427568 C86.46054,47.974756 86.0895437,47.6667591 85.7628754,47.2187568 L86.7148754,46.4347568 C86.9202098,46.6400912 87.1488742,46.8220894 87.4008754,46.9807568 C87.6528767,47.1394243 87.9608736,47.2187568 88.3248754,47.2187568 C88.4835429,47.2187568 88.6445413,47.2024236 88.8078754,47.1697568 C88.9712096,47.13709 89.1158748,47.0857572 89.2418754,47.0157568 C89.3678761,46.9457565 89.4705417,46.8570907 89.5498754,46.7497568 C89.6292092,46.6424229 89.6688754,46.5187575 89.6688754,46.3787568 C89.6688754,46.1920892 89.6105427,46.0380908 89.4938754,45.9167568 C89.3772082,45.7954229 89.2372096,45.6997572 89.0738754,45.6297568 C88.9105413,45.5597565 88.7378764,45.503757 88.5558754,45.4617568 C88.3738745,45.4197566 88.2128761,45.384757 88.0728754,45.3567568 C87.8022074,45.2914232 87.5455433,45.2167572 87.3028754,45.1327568 C87.0602076,45.0487564 86.845543,44.9367575 86.6588754,44.7967568 C86.4722078,44.6567561 86.322876,44.4794246 86.2108754,44.2647568 C86.0988749,44.0500891 86.0428754,43.7840917 86.0428754,43.4667568 C86.0428754,43.1214218 86.1152081,42.8204248 86.2598754,42.5637568 C86.4045428,42.3070889 86.5958743,42.0947577 86.8338754,41.9267568 C87.0718766,41.758756 87.3425406,41.6327572 87.6458754,41.5487568 C87.9492103,41.4647564 88.2548739,41.4227568 88.5628754,41.4227568 C89.0108777,41.4227568 89.4402067,41.506756 89.8508754,41.6747568 C90.2615442,41.8427577 90.5882076,42.1227549 90.8308754,42.5147568 L89.8508754,43.2567568 Z M99.9868754,42.6827568 L98.1808754,42.6827568 L98.1808754,45.6927568 C98.1808754,45.8794244 98.1855421,46.0637559 98.1948754,46.2457568 C98.2042088,46.4277577 98.2392085,46.5910894 98.2998754,46.7357568 C98.3605424,46.8804242 98.4538748,46.9970897 98.5798754,47.0857568 C98.7058761,47.1744239 98.8902076,47.2187568 99.1328754,47.2187568 C99.2822095,47.2187568 99.436208,47.204757 99.5948754,47.1767568 C99.7535429,47.1487567 99.8982081,47.0974239 100.028875,47.0227568 L100.028875,48.1707568 C99.8795414,48.2547572 99.6858766,48.31309 99.4478754,48.3457568 C99.2098743,48.3784236 99.0255428,48.3947568 98.8948754,48.3947568 C98.4095397,48.3947568 98.0338768,48.3270908 97.7678754,48.1917568 C97.5018741,48.0564228 97.3058761,47.8814246 97.1798754,47.6667568 C97.0538748,47.4520891 96.9792089,47.2117581 96.9558754,46.9457568 C96.932542,46.6797555 96.9208754,46.4114248 96.9208754,46.1407568 L96.9208754,42.6827568 L95.4648754,42.6827568 L95.4648754,41.5907568 L96.9208754,41.5907568 L96.9208754,39.7287568 L98.1808754,39.7287568 L98.1808754,41.5907568 L99.9868754,41.5907568 L99.9868754,42.6827568 Z M102.632875,44.9087568 C102.632875,45.2447585 102.684208,45.5550887 102.786875,45.8397568 C102.889543,46.1244249 103.034208,46.3670891 103.220875,46.5677568 C103.407543,46.7684245 103.636207,46.9270896 103.906875,47.0437568 C104.177543,47.1604241 104.480874,47.2187568 104.816875,47.2187568 C105.152877,47.2187568 105.456207,47.1604241 105.726875,47.0437568 C105.997543,46.9270896 106.226208,46.7684245 106.412875,46.5677568 C106.599543,46.3670891 106.744208,46.1244249 106.846875,45.8397568 C106.949543,45.5550887 107.000875,45.2447585 107.000875,44.9087568 C107.000875,44.5727551 106.949543,44.2624249 106.846875,43.9777568 C106.744208,43.6930887 106.599543,43.4504245 106.412875,43.2497568 C106.226208,43.0490891 105.997543,42.8904241 105.726875,42.7737568 C105.456207,42.6570896 105.152877,42.5987568 104.816875,42.5987568 C104.480874,42.5987568 104.177543,42.6570896 103.906875,42.7737568 C103.636207,42.8904241 103.407543,43.0490891 103.220875,43.2497568 C103.034208,43.4504245 102.889543,43.6930887 102.786875,43.9777568 C102.684208,44.2624249 102.632875,44.5727551 102.632875,44.9087568 Z M101.288875,44.9087568 C101.288875,44.4234211 101.379875,43.9707589 101.561875,43.5507568 C101.743876,43.1307547 101.993541,42.7620917 102.310875,42.4447568 C102.62821,42.1274219 103.00154,41.8777577 103.430875,41.6957568 C103.860211,41.5137559 104.322206,41.4227568 104.816875,41.4227568 C105.311545,41.4227568 105.77354,41.5137559 106.202875,41.6957568 C106.632211,41.8777577 107.005541,42.1274219 107.322875,42.4447568 C107.64021,42.7620917 107.889875,43.1307547 108.071875,43.5507568 C108.253876,43.9707589 108.344875,44.4234211 108.344875,44.9087568 C108.344875,45.3940926 108.253876,45.849088 108.071875,46.2737568 C107.889875,46.6984256 107.64021,47.0670886 107.322875,47.3797568 C107.005541,47.692425 106.632211,47.9397559 106.202875,48.1217568 C105.77354,48.3037577 105.311545,48.3947568 104.816875,48.3947568 C104.322206,48.3947568 103.860211,48.3037577 103.430875,48.1217568 C103.00154,47.9397559 102.62821,47.692425 102.310875,47.3797568 C101.993541,47.0670886 101.743876,46.6984256 101.561875,46.2737568 C101.379875,45.849088 101.288875,45.3940926 101.288875,44.9087568 Z M113.818875,41.5907568 L115.078875,41.5907568 L115.078875,42.6127568 L115.106875,42.6127568 C115.265543,42.2580884 115.540873,41.9710912 115.932875,41.7517568 C116.324877,41.5324224 116.77754,41.4227568 117.290875,41.4227568 C117.60821,41.4227568 117.913874,41.4717563 118.207875,41.5697568 C118.501877,41.6677573 118.758541,41.8194225 118.977875,42.0247568 C119.19721,42.2300912 119.372208,42.4937552 119.502875,42.8157568 C119.633543,43.1377584 119.698875,43.518088 119.698875,43.9567568 L119.698875,48.2267568 L118.438875,48.2267568 L118.438875,44.3067568 C118.438875,43.9987553 118.396876,43.7350912 118.312875,43.5157568 C118.228875,43.2964224 118.116876,43.1190908 117.976875,42.9837568 C117.836875,42.8484228 117.675876,42.7504238 117.493875,42.6897568 C117.311875,42.6290898 117.122876,42.5987568 116.926875,42.5987568 C116.665541,42.5987568 116.422877,42.6407564 116.198875,42.7247568 C115.974874,42.8087572 115.778876,42.9417559 115.610875,43.1237568 C115.442875,43.3057577 115.312209,43.5367554 115.218875,43.8167568 C115.125542,44.0967582 115.078875,44.4280882 115.078875,44.8107568 L115.078875,48.2267568 L113.818875,48.2267568 L113.818875,41.5907568 Z M122.554875,45.3707568 C122.554875,45.6600916 122.617875,45.9237556 122.743875,46.1617568 C122.869876,46.399758 123.035541,46.602756 123.240875,46.7707568 C123.44621,46.9387577 123.684207,47.069423 123.954875,47.1627568 C124.225543,47.2560906 124.505541,47.3027568 124.794875,47.3027568 C125.186877,47.3027568 125.527541,47.2117577 125.816875,47.0297568 C126.10621,46.8477559 126.372208,46.607425 126.614875,46.3087568 L127.566875,47.0367568 C126.866872,47.9420947 125.886882,48.3947568 124.626875,48.3947568 C124.104206,48.3947568 123.630544,48.306091 123.205875,48.1287568 C122.781207,47.9514226 122.421877,47.706425 122.127875,47.3937568 C121.833874,47.0810886 121.607543,46.7124256 121.448875,46.2877568 C121.290208,45.863088 121.210875,45.403426 121.210875,44.9087568 C121.210875,44.4140877 121.297208,43.9544256 121.469875,43.5297568 C121.642543,43.105088 121.880541,42.736425 122.183875,42.4237568 C122.48721,42.1110886 122.848873,41.866091 123.268875,41.6887568 C123.688878,41.5114226 124.146206,41.4227568 124.640875,41.4227568 C125.228878,41.4227568 125.725873,41.5254225 126.131875,41.7307568 C126.537877,41.9360912 126.871541,42.2044218 127.132875,42.5357568 C127.39421,42.8670918 127.583208,43.2404214 127.699875,43.6557568 C127.816543,44.0710922 127.874875,44.4934213 127.874875,44.9227568 L127.874875,45.3707568 L122.554875,45.3707568 Z M126.530875,44.3627568 C126.521542,44.0827554 126.477209,43.8260913 126.397875,43.5927568 C126.318542,43.3594223 126.199543,43.1564243 126.040875,42.9837568 C125.882208,42.8110893 125.683877,42.6757573 125.445875,42.5777568 C125.207874,42.4797563 124.93021,42.4307568 124.612875,42.4307568 C124.304874,42.4307568 124.022543,42.4890896 123.765875,42.6057568 C123.509207,42.7224241 123.29221,42.8740892 123.114875,43.0607568 C122.937541,43.2474244 122.799876,43.455089 122.701875,43.6837568 C122.603875,43.9124246 122.554875,44.1387557 122.554875,44.3627568 L126.530875,44.3627568 Z M132.942875,42.6827568 L131.136875,42.6827568 L131.136875,45.6927568 C131.136875,45.8794244 131.141542,46.0637559 131.150875,46.2457568 C131.160209,46.4277577 131.195208,46.5910894 131.255875,46.7357568 C131.316542,46.8804242 131.409875,46.9970897 131.535875,47.0857568 C131.661876,47.1744239 131.846208,47.2187568 132.088875,47.2187568 C132.23821,47.2187568 132.392208,47.204757 132.550875,47.1767568 C132.709543,47.1487567 132.854208,47.0974239 132.984875,47.0227568 L132.984875,48.1707568 C132.835541,48.2547572 132.641877,48.31309 132.403875,48.3457568 C132.165874,48.3784236 131.981543,48.3947568 131.850875,48.3947568 C131.36554,48.3947568 130.989877,48.3270908 130.723875,48.1917568 C130.457874,48.0564228 130.261876,47.8814246 130.135875,47.6667568 C130.009875,47.4520891 129.935209,47.2117581 129.911875,46.9457568 C129.888542,46.6797555 129.876875,46.4114248 129.876875,46.1407568 L129.876875,42.6827568 L128.420875,42.6827568 L128.420875,41.5907568 L129.876875,41.5907568 L129.876875,39.7287568 L131.136875,39.7287568 L131.136875,41.5907568 L132.942875,41.5907568 L132.942875,42.6827568 Z M133.768875,41.5907568 L135.182875,41.5907568 L136.680875,46.5467568 L136.708875,46.5467568 L138.290875,41.5907568 L139.620875,41.5907568 L141.300875,46.5467568 L141.328875,46.5467568 L142.756875,41.5907568 L144.086875,41.5907568 L141.944875,48.2267568 L140.670875,48.2267568 L138.920875,43.2707568 L138.892875,43.2707568 L137.310875,48.2267568 L135.952875,48.2267568 L133.768875,41.5907568 Z M146.214875,44.9087568 C146.214875,45.2447585 146.266208,45.5550887 146.368875,45.8397568 C146.471543,46.1244249 146.616208,46.3670891 146.802875,46.5677568 C146.989543,46.7684245 147.218207,46.9270896 147.488875,47.0437568 C147.759543,47.1604241 148.062874,47.2187568 148.398875,47.2187568 C148.734877,47.2187568 149.038207,47.1604241 149.308875,47.0437568 C149.579543,46.9270896 149.808208,46.7684245 149.994875,46.5677568 C150.181543,46.3670891 150.326208,46.1244249 150.428875,45.8397568 C150.531543,45.5550887 150.582875,45.2447585 150.582875,44.9087568 C150.582875,44.5727551 150.531543,44.2624249 150.428875,43.9777568 C150.326208,43.6930887 150.181543,43.4504245 149.994875,43.2497568 C149.808208,43.0490891 149.579543,42.8904241 149.308875,42.7737568 C149.038207,42.6570896 148.734877,42.5987568 148.398875,42.5987568 C148.062874,42.5987568 147.759543,42.6570896 147.488875,42.7737568 C147.218207,42.8904241 146.989543,43.0490891 146.802875,43.2497568 C146.616208,43.4504245 146.471543,43.6930887 146.368875,43.9777568 C146.266208,44.2624249 146.214875,44.5727551 146.214875,44.9087568 Z M144.870875,44.9087568 C144.870875,44.4234211 144.961875,43.9707589 145.143875,43.5507568 C145.325876,43.1307547 145.575541,42.7620917 145.892875,42.4447568 C146.21021,42.1274219 146.58354,41.8777577 147.012875,41.6957568 C147.442211,41.5137559 147.904206,41.4227568 148.398875,41.4227568 C148.893545,41.4227568 149.35554,41.5137559 149.784875,41.6957568 C150.214211,41.8777577 150.587541,42.1274219 150.904875,42.4447568 C151.22221,42.7620917 151.471875,43.1307547 151.653875,43.5507568 C151.835876,43.9707589 151.926875,44.4234211 151.926875,44.9087568 C151.926875,45.3940926 151.835876,45.849088 151.653875,46.2737568 C151.471875,46.6984256 151.22221,47.0670886 150.904875,47.3797568 C150.587541,47.692425 150.214211,47.9397559 149.784875,48.1217568 C149.35554,48.3037577 148.893545,48.3947568 148.398875,48.3947568 C147.904206,48.3947568 147.442211,48.3037577 147.012875,48.1217568 C146.58354,47.9397559 146.21021,47.692425 145.892875,47.3797568 C145.575541,47.0670886 145.325876,46.6984256 145.143875,46.2737568 C144.961875,45.849088 144.870875,45.3940926 144.870875,44.9087568 Z M153.508875,41.5907568 L154.768875,41.5907568 L154.768875,42.6127568 L154.796875,42.6127568 C154.880876,42.4354226 154.992875,42.2744242 155.132875,42.1297568 C155.272876,41.9850894 155.429208,41.861424 155.601875,41.7587568 C155.774543,41.6560896 155.963541,41.5744238 156.168875,41.5137568 C156.37421,41.4530898 156.579541,41.4227568 156.784875,41.4227568 C156.99021,41.4227568 157.176875,41.4507565 157.344875,41.5067568 L157.288875,42.8647568 C157.186208,42.8367567 157.083543,42.8134236 156.980875,42.7947568 C156.878208,42.7760901 156.775543,42.7667568 156.672875,42.7667568 C156.056872,42.7667568 155.585544,42.9394218 155.258875,43.2847568 C154.932207,43.6300919 154.768875,44.1667532 154.768875,44.8947568 L154.768875,48.2267568 L153.508875,48.2267568 L153.508875,41.5907568 Z M158.688875,37.6427568 L159.948875,37.6427568 L159.948875,44.4747568 L162.804875,41.6047568 L164.554875,41.6047568 L161.460875,44.6147568 L164.820875,48.2267568 L163.028875,48.2267568 L159.948875,44.7827568 L159.948875,48.2267568 L158.688875,48.2267568 L158.688875,37.6427568 Z" id="Paid-access-to-netwo" fill="#A0C911"></path>
                        <rect id="Rectangle-22" fill="#ABCF2C" x="20.0711744" y="73.7777778" width="69.4128114" height="69.5858586" rx="8"></rect>
                        <ellipse id="Oval-9" fill="#FFFFFF" cx="54.8150092" cy="102.342846" rx="12.1637636" ry="12.6683853"></ellipse>
                        <rect id="Rectangle-36" fill="#EFF1F5" opacity="0.953521286" x="102.864769" y="73.7777778" width="112.064057" height="8.38383838" rx="4.19191919"></rect>
                        <rect id="Rectangle-36-Copy" fill="#EFF1F5" opacity="0.953521286" x="102.864769" y="94.7373737" width="112.064057" height="8.38383838" rx="4.19191919"></rect>
                        <rect id="Rectangle-36-Copy-2" fill="#EFF1F5" opacity="0.953521286" x="102.864769" y="115.69697" width="112.064057" height="8.38383838" rx="4.19191919"></rect>
                        <rect id="Rectangle-36-Copy-3" fill="#EFF1F5" opacity="0.953521286" x="102.864769" y="136.656566" width="112.064057" height="8.38383838" rx="4.19191919"></rect>
                        <path d="M26.7615658,139.438019 L83.2314347,139.438019 C81.4655651,122.067858 72.0559395,113.316289 55.0025579,113.183311 C37.9491763,113.050333 28.5355123,121.801902 26.7615658,139.438019 Z" id="Path-14" fill="#FFFFFF"></path>
                        <rect id="Rectangle-42" fill="#E5E5E5" x="104.537367" y="0" width="25.9252669" height="30.1818182" rx="8"></rect>
                    </g>
                    <g id="donate" transform="translate(0.000000, 183.000000)">
                        <g id="Rectangle-17-Copy">
                            <use fill="black" fill-opacity="1" filter="url(#filter-5)" xlink:href="#path-4"></use>
                            <use fill="#FFFFFF" fill-rule="evenodd" xlink:href="#path-4"></use>
                            <rect stroke="#E3E3E3" stroke-width="2" x="1" y="32.1776177" width="184" height="115.969364" rx="8"></rect>
                        </g>
                        <ellipse id="Oval-19" fill-opacity="0.887030118" fill="#A0C911" cx="93.4189189" cy="23.1725537" rx="23.0405405" ry="23.1725537"></ellipse>
                        <g id="Dollar-coin-2" transform="translate(75.405405, 5.898468)" stroke-width="0.5" stroke="#FFFFFF" fill="#FFFFFF">
                            <path d="M21.7625806,13.0153333 C21.7625806,13.3618333 22.0436129,13.6441667 22.3861935,13.6441667 C22.7310968,13.6441667 23.012129,13.3618333 23.012129,13.0153333 C23.012129,10.3425 20.844,8.16666667 18.1811613,8.16666667 C15.5183226,8.16666667 13.3548387,10.3425 13.3548387,13.0153333 C13.3548387,15.4735 15.192,17.4906667 17.5575484,17.8033333 L17.5575484,24.9736667 C15.8876129,24.675 14.6136774,23.2143333 14.6136774,21.4526667 C14.6136774,21.1061667 14.3349677,20.8238333 13.9900645,20.8238333 C13.6451613,20.8238333 13.364129,21.1061667 13.364129,21.4526667 C13.364129,24.1208333 15.5276129,26.292 18.1811613,26.292 C20.8393548,26.292 23.0005161,24.1208333 23.0005161,21.4526667 C23.0005161,18.998 21.1656774,16.9866667 18.8070968,16.674 L18.8070968,9.485 C20.484,9.78366667 21.7625806,11.2466667 21.7625806,13.0153333 L21.7625806,13.0153333 Z M14.6043871,13.0153333 C14.6043871,11.2466667 15.884129,9.78366667 17.5575484,9.48616667 L17.5575484,16.548 C15.884129,16.2481667 14.6043871,14.784 14.6043871,13.0153333 L14.6043871,13.0153333 Z M21.7532903,21.4526667 C21.7532903,23.2143333 20.4781935,24.675 18.8070968,24.9736667 L18.8070968,17.9305 C20.4793548,18.2291667 21.7532903,19.6921667 21.7532903,21.4526667 L21.7532903,21.4526667 Z M18.1811613,33.4658333 C9.27174194,33.4658333 2.02064516,26.1811667 2.02064516,17.2281667 C2.02064516,8.27283333 9.27174194,0.988166667 18.1811613,0.988166667 C27.0952258,0.988166667 34.3486452,8.27283333 34.3486452,17.2281667 C34.3486452,26.1811667 27.0952258,33.4658333 18.1811613,33.4658333 L18.1811613,33.4658333 Z M18.1811613,-0.264833333 C8.5796129,-0.264833333 0.771096774,7.58333333 0.771096774,17.2281667 C0.771096774,26.873 8.58077419,34.7211667 18.1811613,34.7211667 C27.7850323,34.7211667 35.5981935,26.873 35.5981935,17.2281667 C35.5981935,7.58333333 27.7850323,-0.264833333 18.1811613,-0.264833333 L18.1811613,-0.264833333 Z"></path>
                        </g>
                        <rect id="Rectangle-40" fill="#EFF1F5" x="18.4324324" y="73.3095335" width="149.135135" height="10.1116598" rx="5.0558299"></rect>
                        <rect id="Rectangle-40-Copy-2" fill="#EFF1F5" x="25.972973" y="92.6902148" width="134.054054" height="10.1116598" rx="5.0558299"></rect>
                        <rect id="Rectangle-40-Copy" fill="#EFF1F5" x="29.3243243" y="53.9288523" width="127.351351" height="10.1116598" rx="5.0558299"></rect>
                        <rect id="Rectangle-41" fill-opacity="0.256142437" fill="#AACE2B" x="44" y="115" width="97.1891892" height="22.7512345" rx="11.3756173"></rect>
                        <path d="M69.05,120.088 L72.508,120.088 C73.2080035,120.088 73.821664,120.167333 74.349,120.326 C74.876336,120.484667 75.3336647,120.696999 75.721,120.963 C76.1083353,121.229001 76.4303321,121.534665 76.687,121.88 C76.943668,122.225335 77.1466659,122.579998 77.296,122.944 C77.4453341,123.308002 77.5526663,123.671998 77.618,124.036 C77.6833337,124.400002 77.716,124.735998 77.716,125.044 C77.716,125.67867 77.5993345,126.29233 77.366,126.885 C77.1326655,127.47767 76.7873356,128.004998 76.33,128.467 C75.8726644,128.929002 75.3056701,129.299999 74.629,129.58 C73.95233,129.860001 73.1706711,130 72.284,130 L69.05,130 L69.05,120.088 Z M70.394,128.74 L72.088,128.74 C72.6573362,128.74 73.1963308,128.663001 73.705,128.509 C74.2136692,128.354999 74.6593314,128.124002 75.042,127.816 C75.4246686,127.507998 75.7279989,127.123002 75.952,126.661 C76.1760011,126.198998 76.288,125.660003 76.288,125.044 C76.288,124.726665 76.2366672,124.355669 76.134,123.931 C76.0313328,123.506331 75.8376681,123.102669 75.553,122.72 C75.2683319,122.337331 74.8740025,122.013001 74.37,121.747 C73.8659975,121.480999 73.2126707,121.348 72.41,121.348 L70.394,121.348 L70.394,128.74 Z M80.348,126.682 C80.348,127.018002 80.3993328,127.328332 80.502,127.613 C80.6046672,127.897668 80.7493324,128.140332 80.936,128.341 C81.1226676,128.541668 81.351332,128.700333 81.622,128.817 C81.892668,128.933667 82.1959983,128.992 82.532,128.992 C82.8680017,128.992 83.171332,128.933667 83.442,128.817 C83.712668,128.700333 83.9413324,128.541668 84.128,128.341 C84.3146676,128.140332 84.4593328,127.897668 84.562,127.613 C84.6646672,127.328332 84.716,127.018002 84.716,126.682 C84.716,126.345998 84.6646672,126.035668 84.562,125.751 C84.4593328,125.466332 84.3146676,125.223668 84.128,125.023 C83.9413324,124.822332 83.712668,124.663667 83.442,124.547 C83.171332,124.430333 82.8680017,124.372 82.532,124.372 C82.1959983,124.372 81.892668,124.430333 81.622,124.547 C81.351332,124.663667 81.1226676,124.822332 80.936,125.023 C80.7493324,125.223668 80.6046672,125.466332 80.502,125.751 C80.3993328,126.035668 80.348,126.345998 80.348,126.682 Z M79.004,126.682 C79.004,126.196664 79.0949991,125.744002 79.277,125.324 C79.4590009,124.903998 79.7086651,124.535335 80.026,124.218 C80.3433349,123.900665 80.7166645,123.651001 81.146,123.469 C81.5753355,123.286999 82.0373309,123.196 82.532,123.196 C83.0266691,123.196 83.4886645,123.286999 83.918,123.469 C84.3473355,123.651001 84.7206651,123.900665 85.038,124.218 C85.3553349,124.535335 85.6049991,124.903998 85.787,125.324 C85.9690009,125.744002 86.06,126.196664 86.06,126.682 C86.06,127.167336 85.9690009,127.622331 85.787,128.047 C85.6049991,128.471669 85.3553349,128.840332 85.038,129.153 C84.7206651,129.465668 84.3473355,129.712999 83.918,129.895 C83.4886645,130.077001 83.0266691,130.168 82.532,130.168 C82.0373309,130.168 81.5753355,130.077001 81.146,129.895 C80.7166645,129.712999 80.3433349,129.465668 80.026,129.153 C79.7086651,128.840332 79.4590009,128.471669 79.277,128.047 C79.0949991,127.622331 79.004,127.167336 79.004,126.682 Z M87.642,123.364 L88.902,123.364 L88.902,124.386 L88.93,124.386 C89.0886675,124.031332 89.363998,123.744334 89.756,123.525 C90.148002,123.305666 90.6006641,123.196 91.114,123.196 C91.4313349,123.196 91.7369985,123.245 92.031,123.343 C92.3250015,123.441 92.5816656,123.592666 92.801,123.798 C93.0203344,124.003334 93.1953327,124.266998 93.326,124.589 C93.4566673,124.911002 93.522,125.291331 93.522,125.73 L93.522,130 L92.262,130 L92.262,126.08 C92.262,125.771998 92.2200004,125.508334 92.136,125.289 C92.0519996,125.069666 91.9400007,124.892334 91.8,124.757 C91.6599993,124.621666 91.4990009,124.523667 91.317,124.463 C91.1349991,124.402333 90.946001,124.372 90.75,124.372 C90.4886654,124.372 90.2460011,124.414 90.022,124.498 C89.7979989,124.582 89.6020008,124.714999 89.434,124.897 C89.2659992,125.079001 89.1353338,125.309999 89.042,125.59 C88.9486662,125.870001 88.902,126.201331 88.902,126.584 L88.902,130 L87.642,130 L87.642,123.364 Z M95.454,124.176 C95.8086684,123.849332 96.219331,123.604334 96.686,123.441 C97.152669,123.277666 97.619331,123.196 98.086,123.196 C98.5713358,123.196 98.9889983,123.256666 99.339,123.378 C99.6890018,123.499334 99.9759989,123.662666 100.2,123.868 C100.424001,124.073334 100.589666,124.308999 100.697,124.575 C100.804334,124.841001 100.858,125.118665 100.858,125.408 L100.858,128.796 C100.858,129.029335 100.862667,129.243999 100.872,129.44 C100.881333,129.636001 100.895333,129.822666 100.914,130 L99.794,130 C99.7659999,129.663998 99.752,129.328002 99.752,128.992 L99.724,128.992 C99.4439986,129.421335 99.1126686,129.724666 98.73,129.902 C98.3473314,130.079334 97.9040025,130.168 97.4,130.168 C97.0919985,130.168 96.7980014,130.126 96.518,130.042 C96.2379986,129.958 95.9930011,129.832001 95.783,129.664 C95.5729989,129.495999 95.4073339,129.288335 95.286,129.041 C95.1646661,128.793665 95.104,128.506668 95.104,128.18 C95.104,127.750665 95.1996657,127.391335 95.391,127.102 C95.5823343,126.812665 95.843665,126.577001 96.175,126.395 C96.506335,126.212999 96.8936645,126.082334 97.337,126.003 C97.7803355,125.923666 98.2539975,125.884 98.758,125.884 L99.682,125.884 L99.682,125.604 C99.682,125.435999 99.6493337,125.268001 99.584,125.1 C99.5186663,124.931999 99.4206673,124.780334 99.29,124.645 C99.1593327,124.509666 98.996001,124.402334 98.8,124.323 C98.603999,124.243666 98.370668,124.204 98.1,124.204 C97.8573321,124.204 97.6450009,124.227333 97.463,124.274 C97.2809991,124.320667 97.1153341,124.379 96.966,124.449 C96.8166659,124.519 96.6813339,124.600666 96.56,124.694 C96.4386661,124.787334 96.3220006,124.876 96.21,124.96 L95.454,124.176 Z M99.01,126.808 C98.7113318,126.808 98.4056682,126.824333 98.093,126.857 C97.7803318,126.889667 97.4956679,126.952666 97.239,127.046 C96.982332,127.139334 96.7723342,127.269999 96.609,127.438 C96.4456658,127.606001 96.364,127.820665 96.364,128.082 C96.364,128.464669 96.4923321,128.739999 96.749,128.908 C97.005668,129.076001 97.3533311,129.16 97.792,129.16 C98.1373351,129.16 98.4313321,129.101667 98.674,128.985 C98.9166679,128.868333 99.1126659,128.716668 99.262,128.53 C99.4113341,128.343332 99.5186663,128.135668 99.584,127.907 C99.6493337,127.678332 99.682,127.452001 99.682,127.228 L99.682,126.808 L99.01,126.808 Z M106.248,124.456 L104.442,124.456 L104.442,127.466 C104.442,127.652668 104.446667,127.836999 104.456,128.019 C104.465333,128.201001 104.500333,128.364333 104.561,128.509 C104.621667,128.653667 104.714999,128.770333 104.841,128.859 C104.967001,128.947667 105.151332,128.992 105.394,128.992 C105.543334,128.992 105.697333,128.978 105.856,128.95 C106.014667,128.922 106.159333,128.870667 106.29,128.796 L106.29,129.944 C106.140666,130.028 105.947001,130.086333 105.709,130.119 C105.470999,130.151667 105.286667,130.168 105.156,130.168 C104.670664,130.168 104.295001,130.100334 104.029,129.965 C103.762999,129.829666 103.567001,129.654668 103.441,129.44 C103.314999,129.225332 103.240333,128.985001 103.217,128.719 C103.193667,128.452999 103.182,128.184668 103.182,127.914 L103.182,124.456 L101.726,124.456 L101.726,123.364 L103.182,123.364 L103.182,121.502 L104.442,121.502 L104.442,123.364 L106.248,123.364 L106.248,124.456 Z M108.824,127.144 C108.824,127.433335 108.886999,127.696999 109.013,127.935 C109.139001,128.173001 109.304666,128.375999 109.51,128.544 C109.715334,128.712001 109.953332,128.842666 110.224,128.936 C110.494668,129.029334 110.774665,129.076 111.064,129.076 C111.456002,129.076 111.796665,128.985001 112.086,128.803 C112.375335,128.620999 112.641332,128.380668 112.884,128.082 L113.836,128.81 C113.135997,129.715338 112.156006,130.168 110.896,130.168 C110.373331,130.168 109.899669,130.079334 109.475,129.902 C109.050331,129.724666 108.691001,129.479668 108.397,129.167 C108.102999,128.854332 107.876667,128.485669 107.718,128.061 C107.559333,127.636331 107.48,127.176669 107.48,126.682 C107.48,126.187331 107.566332,125.727669 107.739,125.303 C107.911668,124.878331 108.149665,124.509668 108.453,124.197 C108.756335,123.884332 109.117998,123.639334 109.538,123.462 C109.958002,123.284666 110.415331,123.196 110.91,123.196 C111.498003,123.196 111.994998,123.298666 112.401,123.504 C112.807002,123.709334 113.140665,123.977665 113.402,124.309 C113.663335,124.640335 113.852333,125.013665 113.969,125.429 C114.085667,125.844335 114.144,126.266665 114.144,126.696 L114.144,127.144 L108.824,127.144 Z M112.8,126.136 C112.790667,125.855999 112.746334,125.599334 112.667,125.366 C112.587666,125.132666 112.468667,124.929668 112.31,124.757 C112.151333,124.584332 111.953001,124.449 111.715,124.351 C111.476999,124.253 111.199335,124.204 110.882,124.204 C110.573998,124.204 110.291668,124.262333 110.035,124.379 C109.778332,124.495667 109.561334,124.647332 109.384,124.834 C109.206666,125.020668 109.069,125.228332 108.971,125.457 C108.873,125.685668 108.824,125.911999 108.824,126.136 L112.8,126.136 Z" id="Donate" fill="#6AA528"></path>
                    </g>
                </g>
            </g>
        </g>
    </g>
</svg>