<?xml version="1.0" encoding="UTF-8"?>
<!DOCTYPE svg PUBLIC "-//W3C//DTD SVG 1.1//EN" "http://www.w3.org/Graphics/SVG/1.1/DTD/svg11.dtd">
<!-- Creator: CorelDRAW 2018 (64-Bit) -->
<svg xmlns="http://www.w3.org/2000/svg" xml:space="preserve" width="10.16mm" height="10.16mm" version="1.1" style="shape-rendering:geometricPrecision; text-rendering:geometricPrecision; image-rendering:optimizeQuality; fill-rule:evenodd; clip-rule:evenodd"
viewBox="0 0 1016 1016"
 xmlns:xlink="http://www.w3.org/1999/xlink">
 <defs>
  <style type="text/css">
   <![CDATA[
    .str0 {stroke:#FEFEFE;stroke-width:33.86;stroke-miterlimit:22.9256}
    .str1 {stroke:#DF6D00;stroke-width:42.33;stroke-miterlimit:22.9256}
    .fil1 {fill:none}
    .fil0 {fill:#DF6D00}
    .fil2 {fill:#F4F4F4}
   ]]>
  </style>
 </defs>
 <g id="Слой_x0020_1">
  <metadata id="CorelCorpID_0Corel-Layer"/>
  <path class="fil0 str0" d="M736.02 593.72l190.66 0c31.29,0 56.82,25.53 56.82,56.82l0 181.97c0,31.29 -25.53,56.82 -56.82,56.82l-190.66 0c-31.29,0 -56.81,-25.53 -56.81,-56.82l0 -181.97c0,-31.29 25.52,-56.82 56.81,-56.82z"/>
  <path class="fil1 str1" d="M924.82 587.66c0,-107.55 -78.68,-145.34 -133.94,-113.34 -29.92,17.31 -52.99,55.1 -52.99,113.34"/>
  <path class="fil2" d="M833.54 797.84l-43.47 0 18.65 -61.65c-4.81,-5.45 -7.78,-12.84 -7.78,-20.95 0,-16.8 12.65,-30.43 28.25,-30.43 15.6,0 28.25,13.63 28.25,30.43 0,6.5 -3.17,16.7 -6.52,21.74l21.73 61.25 -39.11 -0.39z"/>
  <path class="fil0" d="M799.13 185.04l3.85 1.83 3.69 1.85 3.69 2.02 3.34 1.83 3.35 2.01 3.19 2.02 3.01 2 2.85 2.02 2.67 1.99 2.69 2.03 2.33 2.17 2.36 2.01 2.01 2.18 2.01 2.17 1.84 2.17 1.66 2.19 1.52 2.34 1.5 2.19 1.18 2.34 1.17 2.34 1.01 2.35 0.66 2.34 0.67 2.34 0.51 2.52 0.5 2.34 0.16 2.52 0 2.51 0 160.97c-16.13,-5.48 -33.39,-8.87 -49.81,-8.87 -21.17,0 -40.92,5.64 -56.45,13.41 -15.52,7.76 -26.81,17.63 -37.4,31.04 -10.58,13.4 -20.45,30.34 -26.8,48.68 -6.35,18.35 -9.18,38.1 -11.3,52.92 -2.11,14.82 -3.52,24.69 -4.23,29.63 -0.7,4.94 -0.7,4.94 -4.23,7.05 -3.53,2.12 -10.58,6.36 -14.82,13.41 -4.23,7.06 -5.64,16.93 -6.35,22.57 -0.7,5.65 -0.7,7.07 0,45.87 0.11,5.82 0.23,12.48 0.47,19.76l-502.52 0 -3.34 0 -3.36 -0.17 -3.18 -0.51 -3.34 -0.49 -3.19 -0.68 -3.02 -0.84 -3.17 -1 -2.85 -1.34 -3.02 -1.34 -2.67 -1.34 -2.68 -1.68 -2.68 -1.84 -2.52 -1.85 -2.5 -1.99 -2.19 -2.19 -2.18 -2.34 -2.17 -2.35 -1.85 -2.51 -1.84 -2.68 -1.66 -2.67 -1.52 -2.85 -1.33 -2.85 -1.35 -3.01 -1.01 -3.01 -0.84 -3.2 -0.82 -3.17 -0.51 -3.18 -0.33 -3.36 -0.33 -3.34 0 -0.33 0 -0.68 0 -0.34 0 -0.33 0 -0.5 0 -0.34 0 -0.33 0 -0.33 0 -0.35 0 -0.16 0 -374.47 0.16 -3.85 0.33 -3.86 0.33 -3.52 0.68 -3.51 0.84 -3.52 0.84 -3.35 1.17 -3.17 1.33 -3.18 1.35 -3.03 1.68 -2.83 1.66 -2.85 2.01 -2.69 2.01 -2.5 2.18 -2.35 2.19 -2.34 2.5 -2.19 2.52 -1.83 2.85 -2.02 2.67 -1.67 3.01 -1.51 3.01 -1.52 3.2 -1.17 3.34 -1.17 3.34 -0.82 3.53 -0.86 3.52 -0.66 3.69 -0.33 3.67 -0.34 3.85 0 649.63 0 4.2 1.68 4.18 1.84zm-641.59 395.24l396.58 0 0 -58.28 -396.41 0 -0.17 58.28zm471.94 -314.52l-5.52 3.02 -4.2 3.52 -3.18 3.85 -1.83 4.35 -0.67 4.69 0 95.3 0.67 6.19 2 5.37 3.01 4.18 4.36 3.18 5.36 1.84 6.37 0.84 96.13 0 6.19 -0.84 5.2 -1.84 4.19 -3.18 3.01 -4.18 2.01 -5.21 0.49 -6.02 0 -96.3 -0.49 -6.37 -2.01 -5.19 -3.01 -4.18 -4.37 -3.18 -5.35 -1.85 -6.37 -0.67 -95.29 0 -6.7 2.68z"/>
 </g>
</svg>
