<?xml version="1.0" encoding="UTF-8"?>
<!DOCTYPE svg PUBLIC "-//W3C//DTD SVG 1.1//EN" "http://www.w3.org/Graphics/SVG/1.1/DTD/svg11.dtd">
<!-- Creator: CorelDRAW 2018 (64-Bit) -->
<svg xmlns="http://www.w3.org/2000/svg" xml:space="preserve" width="43mm" height="29mm" version="1.1" style="shape-rendering:geometricPrecision; text-rendering:geometricPrecision; image-rendering:optimizeQuality; fill-rule:evenodd; clip-rule:evenodd"
viewBox="0 0 4300 2900"
 xmlns:xlink="http://www.w3.org/1999/xlink">
 <defs>
  <style type="text/css">
   <![CDATA[
    .fil1 {fill:#FEFEFE}
    .fil0 {fill:#F7595A}
   ]]>
  </style>
 </defs>
 <g id="Слой_x0020_1">
  <metadata id="CorelCorpID_0Corel-Layer"/>
  <path class="fil0" d="M233.95 2473.21l23.46 0.02 10.5 -0.02 1784.66 0 0 -0.48 106.7 0.48 109.33 0 0 0.49 1784.64 8.03 0 0 33.96 0.16c51.83,0.23 163.93,24.33 165.98,156.85 2.05,132.52 -115.54,155.61 -167.38,155.34l-23.46 -0.12 -10.5 -0.03 -1891.87 -8.52 -1892.06 0 0 0 -33.96 0c-51.83,0 -164.03,-23.59 -166.68,-156.1 -2.65,-132.51 114.84,-156.13 166.68,-156.1z"/>
  <path class="fil0" d="M355.54 2202.9l0.01 -12.34 -0.01 -5.52 0 -938.22 -0.24 0.01 0.24 -56.1 0 -57.47 0.24 -0.01 4.02 -938.2 0 0 0.08 -17.86c0.12,-27.24 16.91,-86.17 83.17,-87.24l8.45 0 1016.34 -0.82c43.07,0 78,34.92 78,77.99 0,43.09 -34.93,78.01 -78,78.01l-952.16 0.92 -4.04 944.31 0 943.49 1573.01 0.01 0 -0.24 91.07 0.24 93.31 0 0 0.25 1534.42 5.29 0 -886.84 -0.24 0 0.24 -56.09 0 -57.48 0.25 0 3.8 -888.64 -1.64 0 0 0 -34.73 -0.04 -936.63 -2.47c-2.47,0.24 -4.98,0.36 -7.52,0.36 -2.7,0 -5.35,-0.14 -7.98,-0.4l-3.13 -0.01 -0.03 -0.39c-37.8,-5.41 -66.86,-37.91 -66.86,-77.2 0,-43.08 34.93,-78 78,-78l1055.09 3.63c1.37,-0.08 2.74,-0.14 4.15,-0.16 66.26,-1.08 77.8,60.74 77.67,88l-0.06 12.33 -0.02 5.52 -4.26 994.58 0 994.69 0 0 0 17.85c0,27.24 -22.09,85.79 -73.09,85.97 -20.53,0.07 -40.01,-0.33 -60.76,-0.35l0 0 -34.73 -0.04 -1614.65 -4.26 -1643.81 0 28.98 0 -28.98 0c-32.34,0 -66.69,2.03 -98.92,0.56 -63.3,-2.88 -78.07,-60.36 -78.05,-87.62zm160.14 -1956.85l25.97 0 -25.97 0z"/>
  <path class="fil1" d="M2249.5 1433.17c0,-9.03 0,-18.2 0,-27.23 0,-24.73 0,-49.46 0,-74.18 0,-36.53 0,-73.18 0,-109.7 0,-44.56 0,-89.24 0,-133.8 0,-48.83 0,-97.78 0,-146.6 0,-49.33 0,-98.66 0,-147.98 0,-46.07 0,-92.01 0,-138.07 0,-38.91 0,-77.69 0,-116.6 0,-27.99 0,-55.86 0,-83.85 0,-13.18 0.12,-26.48 0,-39.79 0,-0.62 0,-1.13 0,-1.75 0,-26.23 -23.1,-51.46 -50.21,-50.21 -27.23,1.26 -50.2,22.09 -50.2,50.21 0,9.03 0,18.2 0,27.23 0,24.73 0,49.46 0,74.18 0,36.53 0,73.18 0,109.7 0,44.56 0,89.24 0,133.8 0,48.83 0,97.78 0,146.6 0,49.33 0,98.66 0,147.98 0,46.07 0,92.01 0,138.07 0,38.91 0,77.69 0,116.6 0,27.99 0,55.86 0,83.85 0,13.18 -0.13,26.48 0,39.79 0,0.62 0,1.13 0,1.75 0,26.24 23.09,51.46 50.2,50.21 27.24,-1.13 50.21,-21.97 50.21,-50.21l0 0z"/>
  <g>
   <path class="fil0" d="M1918.66 133.76c0,-0.03 0.01,-0.07 0.01,-0.11 0.25,-13.17 -10.23,-24.06 -23.4,-24.31 -9.48,-0.18 -18.17,5.26 -22.13,13.87 -22.14,49.46 -67.54,84.97 -107.52,116.23 -50.65,39.75 -103,80.95 -82.98,142.24 5.71,18 19.18,32.47 36.61,39.74 43.76,18.24 114.08,-7.83 153.63,-24.59 -0.24,80.55 -1,258.79 -0.96,267.78l0 0c-0.42,42.21 40.97,73.55 85.51,73.55 26.8,0.78 46.9,-7.91 61.22,-21.64 16.07,18.47 41.91,29.99 68.9,29.99 30.46,0.88 52.27,-10.46 66.76,-27.54 16.17,16.05 40.11,25.87 65.03,25.87l1.93 0.03 0.75 0.01 1.14 0 1.5 -0.01 0.38 -0.01c1.56,-0.04 3.09,-0.11 4.61,-0.21l0.29 -0.02 2.37 -0.19 0.01 0 1.76 -0.18 0.69 -0.07 0.42 -0.06 1.95 -0.26 0.04 -0.01 0.36 -0.05 1.7 -0.27 0.3 -0.05 0.46 -0.08 1.67 -0.31 0.36 -0.07 2.12 -0.46 0.03 0c1.42,-0.33 2.82,-0.69 4.18,-1.07l0.23 -0.06 0.35 -0.1 1.54 -0.46 0.26 -0.09 1.26 -0.41 0.85 -0.29 0.15 -0.05 1.92 -0.7 0.05 -0.01 1.45 -0.57 0.53 -0.21 0.15 -0.06 1.75 -0.75 0.08 -0.04 0.32 -0.14 1.39 -0.64 0.23 -0.1 0.28 -0.14 1.31 -0.65 0.31 -0.15 0.58 -0.31 1.28 -0.68 0.05 -0.02 1.72 -0.99 0.12 -0.07 1.45 -0.87 0.25 -0.15 0.3 -0.19 1.24 -0.79 0.19 -0.13 0.14 -0.09 1.37 -0.93 0.18 -0.13 0.54 -0.38 1.12 -0.81 0.05 -0.05 0.41 -0.31 1.14 -0.87 0.01 -0.01 0.74 -0.58 0.84 -0.69 0.27 -0.23 1.1 -0.94 0.16 -0.13 0.91 -0.82 0.58 -0.53 0.48 -0.44 0.97 -0.93 0.06 -0.06 1.01 -1.01 0.34 -0.35 0.66 -0.68 0.72 -0.76 0.25 -0.28 0.96 -1.06 0.13 -0.14 0.8 -0.93 0.49 -0.58 0.43 -0.51 0.84 -1.03 0.05 -0.07 0.88 -1.12 0.28 -0.37 0.58 -0.76 0.61 -0.84 0.23 -0.31 0.81 -1.16 0.1 -0.15 1.01 -1.5 0.1 -0.15 0.36 -0.57 0.71 -1.1 0.06 -0.09 0.74 -1.21 0.23 -0.4 0.06 -0.11 0.89 -1.53 0.04 -0.08 0.2 -0.34 0.69 -1.25 0.07 -0.15c0.56,-1.04 1.09,-2.08 1.61,-3.14l0.2 -0.4 0.05 -0.11 0.61 -1.29 0.26 0.36 0 0.01 0.26 0.36 0.06 0.08 0.67 0.91 0.12 0.16 0.24 0.31 0.07 0.09 0.31 0.38 0.01 0.01 0.39 0.47 0.29 0.35 0.12 0.14 0.24 0.27 0.21 0.22 0.17 0.2 0.28 0.3 0.11 0.12 0.37 0.38 0.04 0.04 0.42 0.43 0.04 0.03 0.53 0.51 0.32 0.31 0.23 0.21 0.25 0.22 0.32 0.29 0.16 0.14 0.44 0.37 0.07 0.07 0.53 0.42 0.02 0.02 1.33 1.02 0.34 0.25 0.36 0.25 0.24 0.17 0.49 0.34 0.13 0.09 0.63 0.41 0.01 0.01 0.67 0.41 0.11 0.07 0.57 0.35 0.25 0.15c0.84,0.48 1.71,0.95 2.64,1.41l0.02 0.02 0.06 0.03 0.8 0.39 0.09 0.04 0.74 0.34 0.24 0.12 0.6 0.26 0.43 0.18 1.05 0.43 0.3 0.12 0.8 0.31 0.12 0.05 0.95 0.35 0.05 0.01 1.16 0.41 0.77 0.25 0.44 0.14 0.59 0.18 0.65 0.19 0.41 0.12 0.87 0.24 0.22 0.06 1.1 0.29 0.02 0 1.14 0.28 0.21 0.05 0.97 0.22 0.43 0.09 0.77 0.16 0.68 0.14 0.55 0.11 0.94 0.17 1.26 0.21 0.28 0.05 0.09 0.02 1.32 0.2 0.17 0.02 1.19 0.17 0.43 0.06 0.97 0.12 0.7 0.08 0.72 0.08 0.99 0.1 0.47 0.04 1.3 0.12 0.19 0.01 1.53 0.12 0.09 0 1.47 0.1 0.39 0.02 1.91 0.09 0.92 0.03 1.04 0.04 0.63 0.01 1.38 0.02 0.32 0.01 1.74 0.01c44.04,0 88.58,-36.54 88.58,-106.27l0 -491.28c0,-12.76 -10.35,-23.1 -23.11,-23.1 -12.75,0 -23.1,10.34 -23.1,23.09l0 491.29c0,41.54 -21.18,60.06 -42.37,60.06l-0.98 -0.02 0 0 -0.97 -0.03 -0.02 -0.01 -0.95 -0.06 -0.04 0 -0.94 -0.09 -0.04 -0.01 -0.93 -0.11 -0.05 -0.01 -0.92 -0.13 -0.07 -0.01 -0.9 -0.15 -0.07 -0.02 -0.89 -0.17 -0.09 -0.02 -0.88 -0.19 -0.09 -0.02 -0.87 -0.21 -0.1 -0.02 -0.85 -0.23 -0.12 -0.03 -0.84 -0.25 -0.13 -0.04 -0.82 -0.25 -0.14 -0.05 -0.8 -0.27 -0.15 -0.05 -0.79 -0.28 -0.15 -0.06 -0.79 -0.3 -0.16 -0.06 -0.76 -0.31 -0.17 -0.08 -0.75 -0.31 -0.19 -0.08 -0.73 -0.33 -0.19 -0.09 -0.71 -0.33 -0.2 -0.1 -0.7 -0.35 -0.21 -0.1 -0.68 -0.35 -0.22 -0.12 -0.66 -0.36 -0.23 -0.12 -0.65 -0.37 -0.23 -0.13 -0.63 -0.37 -0.24 -0.14 -0.62 -0.38 -0.25 -0.15 -0.6 -0.38 -0.25 -0.16 -0.58 -0.38 -0.26 -0.18 -0.56 -0.38 -0.82 -0.57 -0.27 -0.19 -0.53 -0.39 -0.28 -0.2 -0.51 -0.39 -0.27 -0.21 -0.51 -0.39 -0.28 -0.22 -0.48 -0.39 -0.28 -0.24 -0.47 -0.38 -0.29 -0.25 -0.45 -0.38 -0.29 -0.25 -0.43 -0.39 -0.29 -0.26 -0.42 -0.38 -0.3 -0.28 -0.39 -0.38 -0.3 -0.28 -0.38 -0.38 -0.3 -0.3 -0.37 -0.36 -0.3 -0.31 -0.35 -0.37 -0.29 -0.31 -0.34 -0.36 -0.29 -0.33 -0.32 -0.36 -0.29 -0.33 -0.31 -0.35 -0.29 -0.35 -0.29 -0.34 -0.29 -0.36 -0.27 -0.34 -1.07 -1.39 -0.28 -0.38 -0.22 -0.32 -0.28 -0.39 -0.21 -0.31 -0.05 -0.08 -0.42 -0.63 -0.26 -0.4 -0.18 -0.3 -0.26 -0.41 -0.17 -0.29 -0.24 -0.42 -0.16 -0.28 -0.74 -1.4 -0.22 -0.44 -0.12 -0.26 -0.21 -0.44 -0.1 -0.24 -0.2 -0.46 -0.09 -0.24 -0.19 -0.45 -0.09 -0.23 -0.17 -0.46 -0.06 -0.22 -0.16 -0.46 -0.07 -0.22 -0.32 -61.03 0 -110.26c0,-12.75 -11.18,-23.1 -23.94,-23.1 -12.75,0 -22.27,8.68 -22.27,21.42l0 171.83c0,41.54 -21.18,60.06 -42.37,60.06 -19.06,0 -39.35,-15.51 -42.97,-49.11l-0.24 -18.6 0 -50.57 0 -110.26c0,-1.28 -0.12,-2.55 -0.34,-3.78l-0.08 -0.45c-1.65,-21.75 -35.65,-30.88 -44.61,-4.47 -0.65,1.92 -1.05,3.65 -1.15,5.86l-0.03 1.16 0 15.85 0 155.98c0,41.54 -21.18,60.06 -42.37,60.06 -17.37,0 -35.77,-12.88 -41.64,-40.63 0.2,-1.33 0.37,-2.66 0.52,-4l-0.42 -33.09 -0.01 -50.57 0 -110.26c0,-12.76 -11.18,-23.1 -23.93,-23.1 -12.76,0 -22.27,8.68 -22.27,21.42l0 3.82c-0.28,1.78 -0.42,3.74 -0.42,5.91 0,3.19 0.17,17.13 0.42,36.32l0 125.78c0,41.54 -21.19,60.05 -42.37,60.05 -21.02,0 -43.54,-18.85 -43.54,-60.05l-0.01 -263.43 0 -5.67c0,-1.37 -0.07,-2.71 -0.22,-4.01 -1.22,-10.86 -7.6,-19.18 -20.63,-19.18 -1.45,0 -2.88,0.11 -4.25,0.34 -3.13,0.22 -6.22,1.04 -8.99,2.46 -41.96,21.35 -113.85,46.2 -142.31,34.14 -4.64,-1.65 -8.19,-5.45 -9.49,-10.2 -8.51,-26.02 13.75,-46.96 66.77,-88.48 44.39,-34.69 94.7,-74.27 121.72,-134.49 1.4,-3.15 2.12,-6.29 2.19,-9.63l-0.01 0.01zm-36.12 -112.77l536.83 0c12.75,0.02 23.1,10.36 23.1,23.12 0,12.75 -10.35,23.1 -23.1,23.1l-536.83 -0.01c-12.75,0.01 -23.1,-10.34 -23.1,-23.09 0,-12.76 10.35,-23.1 23.1,-23.1l0 -0.02zm36.12 112.77l0 0 0 0zm389.26 444.92l0 50.57 0.13 9.79 -0.13 -60.36z"/>
  </g>
  <g>
   <path class="fil0" d="M1123.79 916.14c-0.03,-0.02 -0.06,-0.04 -0.09,-0.06 -11.34,-6.71 -25.98,-2.95 -32.68,8.4 -4.83,8.15 -4.37,18.4 1.18,26.09 32.15,43.62 40.7,100.62 48.24,150.8 9.65,63.65 19.75,129.51 82.95,142.25 18.47,3.9 37.7,-0.71 52.61,-12.3 37.42,-29.1 49.35,-103.15 54.23,-145.82 70,39.86 224.77,128.27 232.61,132.66l0 0c36.53,21.14 84.2,0.55 106.12,-38.21 13.87,-22.95 16.21,-44.72 11.3,-63.94 23.99,-4.9 46.73,-21.72 60.03,-45.22 15.76,-26.07 16.62,-50.64 8.89,-71.66 21.93,-6.18 42.26,-22.18 54.53,-43.87l0.98 -1.66 0.38 -0.65 0.56 -1 0.73 -1.31 0.18 -0.33c0.73,-1.38 1.43,-2.74 2.09,-4.11l0.12 -0.26 1 -2.16 0.01 -0.02 0.71 -1.62 0.27 -0.63 0.16 -0.39 0.74 -1.83 0.01 -0.04 0.13 -0.33 0.6 -1.61 0.11 -0.3 0.15 -0.43 0.55 -1.61 0.12 -0.36 0.65 -2.06 0.01 -0.03c0.41,-1.39 0.79,-2.79 1.12,-4.16l0.06 -0.24 0.09 -0.35 0.35 -1.56 0.06 -0.27 0.26 -1.3 0.17 -0.89 0.03 -0.15 0.34 -2.02 0.01 -0.04 0.22 -1.54 0.07 -0.57 0.02 -0.16 0.21 -1.9 0.01 -0.08 0.04 -0.35 0.13 -1.53 0.02 -0.25 0.01 -0.31 0.09 -1.45 0.01 -0.36 0.03 -0.65 0.03 -1.44 0 -0.06 0 -1.99 0 -0.14 -0.05 -1.69 -0.01 -0.29 -0.01 -0.35 -0.08 -1.47 -0.02 -0.23 -0.01 -0.17 -0.14 -1.65 -0.02 -0.22 -0.07 -0.65 -0.15 -1.38 -0.02 -0.07 -0.06 -0.5 -0.21 -1.42 0 -0.02 -0.14 -0.93 -0.18 -1.06 -0.07 -0.36 -0.28 -1.42 -0.04 -0.2 -0.26 -1.2 -0.17 -0.76 -0.16 -0.63 -0.33 -1.31 -0.02 -0.08 -0.38 -1.38 -0.13 -0.47 -0.27 -0.9 -0.31 -1.01 -0.12 -0.35 -0.45 -1.36 -0.06 -0.18 -0.41 -1.16 -0.26 -0.71 -0.24 -0.62 -0.48 -1.24 -0.04 -0.08 -0.54 -1.31 -0.18 -0.43 -0.39 -0.88 -0.42 -0.94 -0.16 -0.35 -0.61 -1.28 -0.08 -0.17 -0.81 -1.61 -0.08 -0.16 -0.31 -0.6 -0.62 -1.16 -0.05 -0.09 -0.69 -1.24 -0.23 -0.4 -0.06 -0.11 -0.9 -1.53 -0.04 -0.07 -0.21 -0.34 -0.75 -1.22 -0.09 -0.13c-0.63,-1 -1.28,-1.98 -1.94,-2.95l-0.25 -0.37 -0.07 -0.1 -0.82 -1.17 0.43 -0.04 0.02 0 0.43 -0.04 0.11 -0.02 1.12 -0.13 0.19 -0.03 0.39 -0.06 0.11 -0.01 0.49 -0.09 0.01 0 0.6 -0.11 0.45 -0.08 0.19 -0.04 0.35 -0.07 0.29 -0.07 0.26 -0.05 0.4 -0.1 0.16 -0.03 0.51 -0.14 0.05 -0.01 0.58 -0.16 0.06 -0.02 0.7 -0.21 0.43 -0.13 0.28 -0.09 0.32 -0.11 0.41 -0.14 0.21 -0.07 0.53 -0.2 0.1 -0.03 0.63 -0.25 0.02 -0.01 1.54 -0.65 0.39 -0.17 0.39 -0.19 0.27 -0.13 0.54 -0.27 0.14 -0.06 0.66 -0.35 0.02 0 0.69 -0.38 0.12 -0.06 0.58 -0.33 0.25 -0.15c0.83,-0.48 1.67,-1.01 2.53,-1.59l0.02 -0.01 0.06 -0.04 0.73 -0.51 0.09 -0.05 0.66 -0.48 0.22 -0.15 0.52 -0.39 0.36 -0.29 0.9 -0.7 0.25 -0.2 0.66 -0.54 0.11 -0.09 0.77 -0.65 0.03 -0.04 0.93 -0.81 0.6 -0.55 0.33 -0.31 0.45 -0.42 0.49 -0.48 0.3 -0.29 0.65 -0.64 0.15 -0.17 0.79 -0.82 0.01 0 0.81 -0.86 0.14 -0.16 0.67 -0.73 0.3 -0.34 0.52 -0.59 0.45 -0.52 0.37 -0.43 0.61 -0.73 0.8 -0.99 0.19 -0.22 0.05 -0.07 0.83 -1.05 0.1 -0.13 0.74 -0.96 0.25 -0.34 0.59 -0.79 0.41 -0.57 0.43 -0.59 0.57 -0.81 0.27 -0.39 0.74 -1.07 0.11 -0.16 0.85 -1.27 0.05 -0.08 0.8 -1.23 0.21 -0.33 1.02 -1.62 0.49 -0.79 0.54 -0.88 0.32 -0.55 0.7 -1.19 0.16 -0.27 0.87 -1.51c21.68,-38.34 11.8,-95.09 -48.89,-129.42l-427.62 -241.86c-11.11,-6.28 -25.21,-2.37 -31.48,8.73 -6.28,11.11 -2.37,25.21 8.72,31.48l427.63 241.87c36.15,20.45 41.84,48.01 31.41,66.45l-0.49 0.84 0 0.01 -0.51 0.82 -0.02 0.02 -0.52 0.79 -0.02 0.03 -0.54 0.78 -0.02 0.03 -0.55 0.75 -0.04 0.05 -0.57 0.73 -0.04 0.06 -0.58 0.7 -0.05 0.06 -0.58 0.69 -0.06 0.07 -0.6 0.67 -0.07 0.07 -0.61 0.65 -0.07 0.08 -0.61 0.63 -0.09 0.09 -0.63 0.61 -0.09 0.09 -0.63 0.58 -0.11 0.1 -0.63 0.57 -0.12 0.1 -0.63 0.55 -0.13 0.11 -0.64 0.53 -0.14 0.12 -0.64 0.51 -0.15 0.11 -0.64 0.5 -0.17 0.11 -0.64 0.48 -0.17 0.12 -0.64 0.46 -0.19 0.12 -0.65 0.44 -0.19 0.13 -0.64 0.42 -0.21 0.14 -0.64 0.4 -0.22 0.13 -0.63 0.39 -0.23 0.14 -0.64 0.36 -0.24 0.14 -0.63 0.35 -0.25 0.14 -0.63 0.34 -0.27 0.14 -0.61 0.32 -0.28 0.13 -0.62 0.31 -0.89 0.43 -0.3 0.14 -0.6 0.27 -0.31 0.14 -0.59 0.26 -0.32 0.13 -0.59 0.25 -0.33 0.13 -0.58 0.23 -0.34 0.13 -0.56 0.22 -0.36 0.13 -0.56 0.2 -0.36 0.13 -0.55 0.19 -0.37 0.12 -0.53 0.18 -0.39 0.12 -0.53 0.16 -0.39 0.12 -0.52 0.14 -0.4 0.12 -0.5 0.13 -0.42 0.12 -0.49 0.12 -0.42 0.1 -0.47 0.11 -0.44 0.1 -0.46 0.1 -0.44 0.09 -0.45 0.09 -0.45 0.09 -0.44 0.08 -0.45 0.08 -0.43 0.07 -1.74 0.24 -0.47 0.06 -0.39 0.04 -0.47 0.04 -0.38 0.03 -0.09 0.01 -0.75 0.05 -0.48 0.03 -0.35 0.01 -0.49 0.02 -0.33 0.01 -0.49 0.01 -0.32 -0.01 -1.58 -0.04 -0.49 -0.02 -0.28 -0.03 -0.49 -0.03 -0.27 -0.03 -0.49 -0.05 -0.25 -0.04 -0.49 -0.06 -0.24 -0.04 -0.49 -0.08 -0.22 -0.05 -0.48 -0.09 -0.22 -0.05 -53.29 -29.76 -95.97 -54.28c-11.1,-6.28 -25.61,-1.65 -31.89,9.46 -6.28,11.1 -3.41,23.66 7.69,29.93l149.56 84.59c36.15,20.45 41.84,48.01 31.41,66.45 -9.38,16.59 -32.87,26.62 -63.9,13.23l-16.3 -8.95 -44.03 -24.9 -95.97 -54.28c-1.11,-0.63 -2.27,-1.15 -3.45,-1.57l-0.44 -0.14c-19.73,-9.28 -44.42,15.82 -25.85,36.62 1.35,1.51 2.66,2.71 4.54,3.89l1 0.59 13.79 7.8 135.77 76.8c36.15,20.44 41.84,48 31.41,66.44 -8.55,15.13 -28.82,24.8 -55.86,16.24 -1.06,-0.82 -2.14,-1.63 -3.23,-2.41l-29.01 -15.93 -44.02 -24.89 -95.97 -54.28c-11.1,-6.28 -25.61,-1.64 -31.89,9.46 -6.28,11.1 -3.41,23.66 7.69,29.93l3.32 1.88c1.41,1.12 3.05,2.21 4.94,3.28 2.77,1.57 14.99,8.28 31.81,17.51l109.49 61.92c36.15,20.45 41.84,48.01 31.41,66.45 -10.35,18.29 -37.85,28.62 -73.71,8.33l-229.29 -129.68 -4.94 -2.79c-1.19,-0.68 -2.39,-1.28 -3.6,-1.78 -10.05,-4.29 -20.44,-2.83 -26.85,8.51 -0.71,1.26 -1.32,2.56 -1.79,3.87 -1.36,2.82 -2.16,5.92 -2.3,9.03 -2.07,47.03 -15.83,121.84 -40.34,140.68 -3.72,3.23 -8.78,4.44 -13.54,3.24 -26.85,-5.41 -34.11,-35.09 -44.15,-101.69 -8.35,-55.71 -18.02,-118.98 -57.14,-172.15 -2.05,-2.76 -4.43,-4.95 -7.31,-6.65l0.01 0.02zm-115.94 -24.08l264.29 -467.27c6.29,-11.09 20.39,-15 31.49,-8.72 11.1,6.28 15.02,20.38 8.74,31.48l-264.3 467.26c-6.27,11.1 -20.37,15.01 -31.47,8.73 -11.1,-6.28 -15.01,-20.38 -8.73,-31.48l-0.02 0zm115.94 24.08l0 0 0 0zm578.9 -119.78l44.02 24.89 8.59 4.71 -52.61 -29.6z"/>
  </g>
  <g>
   <path class="fil0" d="M2984.97 528.78c0.03,-0.02 0.06,-0.03 0.1,-0.04 12.04,-5.35 17.47,-19.45 12.12,-31.49 -3.85,-8.67 -12.46,-14.23 -21.94,-14.18 -54.18,0.88 -105.57,-25.22 -150.82,-48.2 -57.45,-29.06 -116.94,-59.04 -163.99,-14.96 -13.89,12.79 -21.29,31.13 -20.5,50 2,47.36 55.39,100.03 87.32,128.76 -73.08,33.89 -234.88,108.67 -243.01,112.51l0 0c-38.41,17.49 -49.29,68.25 -30.44,108.61 10.65,24.61 27.03,39.14 45.53,46.29 -9.93,22.38 -9.42,50.66 2.01,75.12 12.09,27.97 31.6,42.93 53.2,48.82 -7.68,21.45 -6.45,47.29 4.11,69.87l0.78 1.76 0.31 0.69 0.48 1.03 0.65 1.36 0.17 0.34c0.69,1.39 1.4,2.75 2.13,4.08l0.14 0.25 1.18 2.07 0.01 0.02 0.91 1.51 0.35 0.59 0.23 0.36 1.07 1.66 0.02 0.03 0.2 0.31 0.96 1.42 0.18 0.26 0.26 0.37 0.99 1.38 0.22 0.3 1.31 1.73 0.02 0.03c0.89,1.14 1.81,2.26 2.73,3.33l0.16 0.18 0.24 0.27 1.06 1.2 0.19 0.21 0.9 0.96 0.63 0.65 0.11 0.11 1.44 1.45 0.03 0.04 1.13 1.07 0.42 0.39 0.12 0.11 1.42 1.27 0.06 0.05 0.28 0.24 1.16 0.99 0.19 0.16 0.25 0.19 1.13 0.92 0.28 0.21 0.52 0.4 1.16 0.87 0.04 0.03 1.62 1.15 0.12 0.08 1.4 0.95 0.24 0.15 0.3 0.2 1.24 0.79 0.2 0.12 0.14 0.08 1.43 0.85 0.19 0.11 0.57 0.32 1.21 0.68 0.06 0.02 0.46 0.24 1.27 0.66 0.01 0.01 0.84 0.42 0.98 0.47 0.33 0.15 1.31 0.6 0.19 0.09 1.13 0.48 0.72 0.3 0.6 0.24 1.26 0.49 0.08 0.03 1.34 0.49 0.46 0.16 0.89 0.31 1 0.33 0.36 0.11 1.36 0.42 0.19 0.05 1.18 0.34 0.73 0.2 0.64 0.16 1.29 0.33 0.09 0.02 1.39 0.32 0.45 0.1 0.94 0.2 1.01 0.2 0.38 0.07 1.4 0.25 0.18 0.02 1.78 0.28 0.18 0.03 0.67 0.09 1.29 0.18 0.11 0.01 1.41 0.15 0.46 0.05 0.13 0.01 1.76 0.15 0.09 0.01 0.39 0.03 1.43 0.1 0.16 0c1.18,0.07 2.35,0.11 3.53,0.13l0.45 0.01 0.12 0 1.42 0.01 -0.21 0.38 -0.01 0.01 -0.22 0.38 -0.05 0.09 -0.54 0.99 -0.09 0.18 -0.18 0.35 -0.05 0.1 -0.22 0.45 0 0.01 -0.26 0.55 -0.19 0.41 -0.08 0.17 -0.14 0.34 -0.12 0.27 -0.1 0.24 -0.16 0.38 -0.06 0.15 -0.19 0.5 -0.02 0.05 -0.2 0.56 -0.02 0.06 -0.24 0.69 -0.14 0.43 -0.09 0.28 -0.1 0.33 -0.12 0.41 -0.06 0.21 -0.15 0.55 -0.03 0.1 -0.17 0.65 0 0.03 -0.36 1.63 -0.09 0.42 -0.07 0.43 -0.06 0.29 -0.09 0.59 -0.03 0.15 -0.1 0.75 -0.01 0.01 -0.09 0.79 -0.02 0.13 -0.07 0.66 -0.02 0.29c-0.09,0.96 -0.14,1.95 -0.17,2.99l-0.01 0.02 0 0.07 -0.01 0.89 -0.01 0.1 0.01 0.81 0 0.27 0.01 0.66 0.02 0.46 0.05 1.13 0.02 0.32 0.06 0.86 0.01 0.13 0.09 1.01 0 0.05 0.13 1.23 0.1 0.8 0.06 0.45 0.08 0.62 0.11 0.67 0.06 0.42 0.15 0.89 0.04 0.22 0.21 1.12 0 0.02 0.23 1.15 0.04 0.21 0.21 0.97 0.1 0.44 0.18 0.76 0.17 0.68 0.13 0.54 0.25 0.92 0.34 1.24 0.07 0.27 0.02 0.08 0.38 1.29 0.05 0.16 0.35 1.15 0.13 0.41 0.3 0.93 0.22 0.67 0.24 0.69 0.33 0.94 0.16 0.44 0.44 1.23 0.07 0.18 0.54 1.43 0.03 0.08 0.54 1.37 0.15 0.37 0.73 1.76 0.36 0.86 0.4 0.95 0.26 0.58 0.56 1.26 0.13 0.29 0.73 1.58c18.65,39.9 70.61,64.78 133.78,35.26l445.07 -207.99c11.56,-5.4 16.55,-19.16 11.15,-30.71 -5.4,-11.56 -19.15,-16.55 -30.69,-11.16l-445.1 208c-37.63,17.58 -63.37,6.23 -72.34,-12.96l-0.4 -0.89 -0.01 -0.01 -0.37 -0.89 -0.01 -0.02 -0.34 -0.89 -0.02 -0.03 -0.31 -0.89 -0.02 -0.04 -0.29 -0.89 -0.01 -0.05 -0.27 -0.89 -0.02 -0.06 -0.24 -0.89 -0.02 -0.07 -0.23 -0.88 -0.02 -0.09 -0.2 -0.87 -0.01 -0.1 -0.18 -0.87 -0.02 -0.11 -0.16 -0.86 -0.02 -0.13 -0.13 -0.86 -0.02 -0.13 -0.11 -0.85 -0.02 -0.15 -0.1 -0.84 -0.01 -0.15 -0.08 -0.84 -0.02 -0.17 -0.06 -0.83 -0.01 -0.17 -0.04 -0.83 -0.01 -0.18 -0.03 -0.82 0 -0.2 -0.02 -0.8 0 -0.21 0 -0.78 0.01 -0.23 0.02 -0.78 0 -0.23 0.03 -0.77 0.01 -0.25 0.05 -0.75 0.02 -0.26 0.05 -0.74 0.02 -0.27 0.07 -0.73 0.03 -0.27 0.08 -0.72 0.03 -0.29 0.09 -0.7 0.04 -0.3 0.1 -0.68 0.05 -0.31 0.11 -0.68 0.17 -0.98 0.06 -0.32 0.13 -0.65 0.06 -0.34 0.13 -0.62 0.08 -0.34 0.14 -0.63 0.08 -0.34 0.15 -0.61 0.09 -0.35 0.15 -0.59 0.1 -0.36 0.16 -0.57 0.11 -0.37 0.16 -0.56 0.12 -0.37 0.17 -0.54 0.12 -0.39 0.18 -0.52 0.13 -0.39 0.18 -0.5 0.14 -0.4 0.18 -0.48 0.15 -0.41 0.18 -0.47 0.16 -0.4 0.19 -0.45 0.17 -0.41 0.19 -0.44 0.18 -0.41 0.19 -0.42 0.18 -0.42 0.2 -0.4 0.19 -0.41 0.2 -0.39 0.81 -1.56 0.22 -0.41 0.2 -0.35 0.24 -0.41 0.19 -0.32 0.04 -0.08 0.4 -0.64 0.25 -0.41 0.2 -0.29 0.26 -0.41 0.19 -0.27 0.28 -0.41 0.19 -0.26 0.95 -1.26 0.3 -0.38 0.19 -0.22 0.31 -0.38 0.18 -0.2 0.32 -0.37 0.18 -0.19 0.34 -0.35 0.16 -0.18 0.35 -0.35 0.17 -0.15 0.36 -0.34 0.16 -0.15 55.16 -26.14 99.89 -46.68c11.55,-5.4 16.19,-19.91 10.79,-31.46 -5.4,-11.56 -17.29,-16.5 -28.84,-11.11l-155.66 72.75c-37.63,17.58 -63.38,6.23 -72.35,-12.96 -8.07,-17.27 -2.62,-42.22 26.3,-59.73l16.74 -8.08 45.82 -21.42 99.89 -46.68c1.16,-0.54 2.26,-1.18 3.28,-1.9l0.37 -0.27c19.01,-10.7 12.88,-45.36 -14.83,-42.31 -2.02,0.23 -3.75,0.6 -5.8,1.44l-1.06 0.48 -14.36 6.7 -141.31 66.04c-37.63,17.59 -63.38,6.23 -72.35,-12.96 -7.35,-15.74 -3.47,-37.86 19.18,-54.92 1.29,-0.39 2.57,-0.8 3.84,-1.23l29.8 -14.39 45.82 -21.42 99.88 -46.68c11.56,-5.4 16.2,-19.9 10.8,-31.46 -5.4,-11.55 -17.29,-16.5 -28.84,-11.1l-3.45 1.61c-1.74,0.51 -3.57,1.2 -5.54,2.12 -2.89,1.35 -15.45,7.41 -32.72,15.76l-113.95 53.25c-37.64,17.59 -63.38,6.23 -72.35,-12.96 -8.9,-19.04 -1.36,-47.43 35.97,-64.87l238.65 -111.53 5.14 -2.41c1.24,-0.58 2.43,-1.2 3.54,-1.89 9.33,-5.7 14.16,-15.01 8.64,-26.81 -0.61,-1.32 -1.31,-2.56 -2.11,-3.71 -1.52,-2.74 -3.57,-5.19 -6.03,-7.1 -37.1,-28.97 -90.05,-83.58 -91.18,-114.48 -0.47,-4.9 1.48,-9.73 5.22,-12.91 19.98,-18.73 48.37,-7.43 108.44,23.03 50.22,25.52 107.37,54.35 173.37,53.33 3.44,-0.06 6.6,-0.74 9.65,-2.09l-0.01 0zm86.87 -80.47l227.28 486.35c5.38,11.56 0.39,25.31 -11.17,30.71 -11.55,5.4 -25.31,0.41 -30.71,-11.15l-227.26 -486.35c-5.41,-11.54 -0.42,-25.3 11.14,-30.7 11.55,-5.4 25.31,-0.4 30.71,11.15l0.01 -0.01zm-86.87 80.47l0 0 0 0zm-238.28 541.01l-45.82 21.42 -8.81 4.26 54.63 -25.68z"/>
  </g>
  <g>
   <path class="fil0" d="M1731.76 1992.77c-0.02,0.02 -0.05,0.05 -0.07,0.08 -8.36,10.18 -6.88,25.22 3.3,33.58 7.33,6.01 17.52,7.12 25.97,2.82 48.02,-25.11 105.65,-24.86 156.4,-24.63 64.38,0.18 131,0.27 153.26,-60.24 6.67,-17.67 5.06,-37.37 -4.12,-53.88 -23.05,-41.43 -94.4,-64.53 -135.83,-75.87 50.09,-63.09 161.11,-202.53 166.65,-209.61l0 0c26.48,-32.88 13.41,-83.12 -21.55,-110.72 -20.56,-17.21 -41.72,-22.84 -61.47,-20.93 -1.17,-24.46 -14.32,-49.5 -35.51,-66.23 -23.36,-19.56 -47.51,-24.17 -69.46,-19.74 -2.76,-22.62 -15.46,-45.15 -35.03,-60.6l-1.48 -1.22 -0.59 -0.47 -0.9 -0.71 -1.18 -0.92 -0.3 -0.23c-1.25,-0.93 -2.5,-1.83 -3.75,-2.68l-0.24 -0.17 -1.97 -1.32 -0.02 -0.01 -1.49 -0.95 -0.58 -0.36 -0.37 -0.22 -1.7 -1.01 -0.03 -0.01 -0.31 -0.19 -1.5 -0.83 -0.28 -0.16 -0.4 -0.21 -1.51 -0.79 -0.33 -0.17 -1.94 -0.96 -0.03 -0.01c-1.31,-0.62 -2.63,-1.21 -3.94,-1.75l-0.22 -0.1 -0.34 -0.13 -1.49 -0.6 -0.26 -0.1 -1.24 -0.45 -0.85 -0.3 -0.14 -0.06 -1.95 -0.64 -0.04 -0.01 -1.49 -0.46 -0.55 -0.16 -0.16 -0.04 -1.84 -0.5 -0.08 -0.02 -0.34 -0.09 -1.49 -0.36 -0.24 -0.06 -0.3 -0.06 -1.43 -0.31 -0.35 -0.07 -0.64 -0.12 -1.42 -0.25 -0.06 -0.02 -1.96 -0.29 -0.14 -0.02 -1.68 -0.22 -0.28 -0.03 -0.36 -0.04 -1.47 -0.15 -0.22 -0.02 -0.17 -0.01 -1.65 -0.11 -0.22 -0.02 -0.66 -0.03 -1.38 -0.06 -0.07 0 -0.51 -0.01 -1.44 -0.01 -0.01 0 -0.94 0 -1.08 0.01 -0.37 0.01 -1.44 0.06 -0.21 0.01 -1.22 0.08 -0.78 0.05 -0.65 0.06 -1.34 0.12 -0.08 0.01 -1.43 0.16 -0.48 0.07 -0.93 0.12 -1.04 0.16 -0.37 0.06 -1.41 0.24 -0.19 0.03 -1.21 0.23 -0.74 0.15 -0.65 0.14 -1.29 0.29 -0.1 0.02 -1.38 0.34 -0.45 0.11 -0.92 0.24 -1 0.28 -0.37 0.11 -1.36 0.4 -0.17 0.06 -1.72 0.55 -0.17 0.05 -0.64 0.22 -1.24 0.43 -0.1 0.04 -1.33 0.49 -0.43 0.17 -0.12 0.05 -1.64 0.65 -0.08 0.03 -0.37 0.15 -1.32 0.55 -0.14 0.07c-1.09,0.47 -2.15,0.96 -3.22,1.48l-0.4 0.18 -0.11 0.06 -1.28 0.63 0.03 -0.44 0 -0.01 0.03 -0.44 0 -0.1 0.03 -1.13 0.01 -0.2 0 -0.39 0 -0.11 -0.01 -0.5 0.01 -0.01 -0.02 -0.61 -0.02 -0.45 0 -0.19 -0.02 -0.37 -0.03 -0.29 -0.01 -0.26 -0.03 -0.42 -0.01 -0.16 -0.06 -0.52 0 -0.06 -0.07 -0.6 -0.01 -0.05 -0.1 -0.73 -0.07 -0.44 -0.04 -0.3 -0.06 -0.33 -0.08 -0.42 -0.04 -0.22 -0.11 -0.56 -0.02 -0.1 -0.14 -0.66 -0.01 -0.02 -0.41 -1.63 -0.11 -0.4 -0.13 -0.43 -0.08 -0.28 -0.19 -0.57 -0.04 -0.15 -0.24 -0.71 0 -0.02 -0.27 -0.74 -0.05 -0.12 -0.23 -0.63 -0.1 -0.27c-0.36,-0.89 -0.76,-1.8 -1.19,-2.74l-0.01 -0.02 -0.03 -0.07 -0.39 -0.8 -0.04 -0.09 -0.37 -0.72 -0.12 -0.25 -0.31 -0.57 -0.22 -0.4 -0.56 -1 -0.15 -0.28 -0.44 -0.73 -0.07 -0.12 -0.53 -0.86 -0.03 -0.04 -0.66 -1.04 -0.45 -0.68 -0.26 -0.37 -0.35 -0.51 -0.39 -0.56 -0.25 -0.34 -0.53 -0.74 -0.14 -0.18 -0.69 -0.9 0 -0.02 -0.73 -0.92 -0.13 -0.17 -0.63 -0.77 -0.28 -0.35 -0.5 -0.6 -0.45 -0.53 -0.37 -0.42 -0.63 -0.72 -0.86 -0.95 -0.18 -0.21 -0.06 -0.06 -0.92 -0.99 -0.11 -0.11 -0.84 -0.88 -0.29 -0.31 -0.69 -0.69 -0.5 -0.5 -0.52 -0.51 -0.72 -0.69 -0.34 -0.32 -0.94 -0.9 -0.15 -0.13 -1.12 -1.04 -0.07 -0.06 -1.09 -0.98 -0.3 -0.26 -1.44 -1.25 -0.71 -0.61 -0.79 -0.66 -0.49 -0.4 -1.07 -0.88 -0.24 -0.2 -1.37 -1.08c-34.57,-27.29 -92.17,-26.2 -135.36,28.53l-304.36 385.65c-7.9,10.02 -6.19,24.55 3.82,32.45 10.02,7.9 24.55,6.19 32.44,-3.81l304.37 -385.66c25.73,-32.6 53.84,-34.01 70.47,-20.89l0.75 0.62 0.01 0 0.73 0.63 0.02 0.02 0.71 0.64 0.02 0.02 0.68 0.65 0.04 0.03 0.66 0.66 0.03 0.04 0.64 0.67 0.05 0.05 0.61 0.68 0.05 0.06 0.59 0.68 0.06 0.07 0.57 0.7 0.06 0.07 0.55 0.71 0.07 0.08 0.53 0.7 0.07 0.1 0.51 0.72 0.07 0.1 0.49 0.71 0.08 0.12 0.46 0.72 0.08 0.13 0.45 0.71 0.09 0.14 0.43 0.72 0.09 0.15 0.4 0.71 0.09 0.17 0.39 0.71 0.1 0.18 0.37 0.71 0.09 0.18 0.35 0.71 0.1 0.2 0.33 0.71 0.11 0.21 0.31 0.7 0.1 0.22 0.3 0.69 0.1 0.24 0.28 0.69 0.11 0.25 0.26 0.68 0.1 0.26 0.25 0.68 0.1 0.27 0.24 0.67 0.09 0.29 0.23 0.65 0.09 0.3 0.21 0.65 0.28 0.95 0.1 0.32 0.17 0.63 0.09 0.33 0.17 0.62 0.08 0.34 0.16 0.62 0.08 0.35 0.14 0.61 0.07 0.35 0.13 0.6 0.08 0.37 0.11 0.58 0.07 0.37 0.11 0.58 0.06 0.38 0.09 0.56 0.06 0.4 0.08 0.54 0.06 0.41 0.06 0.53 0.05 0.42 0.06 0.51 0.05 0.43 0.05 0.51 0.03 0.43 0.04 0.49 0.03 0.44 0.03 0.47 0.02 0.45 0.02 0.46 0.02 0.46 0.01 0.44 0.01 0.46 0 0.44 -0.02 1.75 -0.02 0.47 -0.02 0.4 -0.03 0.47 -0.02 0.38 -0.01 0.09 -0.06 0.75 -0.05 0.48 -0.04 0.34 -0.05 0.49 -0.05 0.33 -0.06 0.48 -0.06 0.32 -0.28 1.55 -0.1 0.49 -0.07 0.27 -0.11 0.48 -0.07 0.26 -0.12 0.47 -0.08 0.25 -0.14 0.47 -0.07 0.23 -0.15 0.48 -0.08 0.21 -0.17 0.46 -0.08 0.21 -37.55 48.11 -68.31 86.55c-7.9,10.01 -5.54,25.06 4.48,32.96 10.01,7.91 22.86,6.98 30.75,-3.02l106.45 -134.88c25.73,-32.6 53.84,-34.02 70.47,-20.89 14.96,11.81 21.28,36.55 3.31,65.17l-11.34 14.74 -31.33 39.71 -68.3 86.55c-0.8,1.01 -1.49,2.07 -2.08,3.17l-0.21 0.41c-12.18,18.09 8.85,46.32 32.24,31.14 1.7,-1.1 3.09,-2.21 4.53,-3.88l0.75 -0.9 9.81 -12.44 96.64 -122.44c25.73,-32.61 53.83,-34.02 70.46,-20.9 13.64,10.77 20.1,32.28 7.52,57.69 -0.98,0.93 -1.94,1.86 -2.88,2.82l-20.17 26.24 -31.33 39.7 -68.31 86.55c-7.9,10.01 -5.53,25.06 4.48,32.96 10.01,7.9 22.86,6.98 30.75,-3.02l2.37 -3c1.32,-1.22 2.65,-2.67 3.99,-4.38 1.98,-2.5 10.48,-13.55 22.17,-28.77l77.92 -98.73c25.74,-32.61 53.84,-34.02 70.47,-20.89 16.5,13.02 22.5,41.77 -3.03,74.11l-163.19 206.79 -3.52 4.46c-0.84,1.07 -1.62,2.16 -2.3,3.28 -5.78,9.28 -5.92,19.76 4.31,27.83 1.14,0.9 2.32,1.7 3.55,2.37 2.58,1.77 5.52,3.03 8.57,3.64 46.16,9.24 117.99,34.26 132.87,61.37 2.62,4.17 3.05,9.35 1.12,13.88 -9.44,25.7 -39.88,28.34 -107.23,28.09 -56.33,-0.26 -120.34,-0.37 -178.86,30.17 -3.05,1.6 -5.56,3.62 -7.68,6.2l0.01 0zm-41.51 110.9l-421.41 -332.58c-9.99,-7.91 -11.7,-22.45 -3.8,-32.46 7.9,-10.01 22.43,-11.72 32.45,-3.82l421.39 332.59c10.01,7.88 11.72,22.42 3.82,32.43 -7.9,10.01 -22.43,11.72 -32.45,3.82l0 0.02zm41.51 -110.9l0 0 0 0zm-29.92 -590.41l31.32 -39.7 5.97 -7.77 -37.29 47.47z"/>
  </g>
  <g>
   <path class="fil0" d="M2931.23 1750.19c0.02,0.02 0.03,0.06 0.05,0.09 6.78,11.3 21.44,14.96 32.74,8.18 8.13,-4.87 12.6,-14.1 11.39,-23.5 -7.5,-53.67 12.13,-107.86 29.41,-155.58 21.82,-60.57 44.31,-123.28 -5.19,-164.59 -14.39,-12.22 -33.49,-17.33 -52.12,-14.24 -46.76,7.77 -92.52,67.2 -117.14,102.4 -42.56,-68.4 -136.54,-219.85 -141.34,-227.45l0 0c-22.06,-35.99 -73.77,-40.58 -111.52,-16.94 -23.12,13.58 -35.54,31.61 -40.38,50.84 -23.43,-7.12 -51.44,-3.16 -74.32,11.17 -26.28,15.42 -38.74,36.62 -41.95,58.77 -22.23,-5 -47.73,-0.62 -68.85,12.61l-1.65 0.99 -0.64 0.4 -0.97 0.6 -1.26 0.81 -0.32 0.21c-1.3,0.86 -2.56,1.73 -3.79,2.62l-0.24 0.17 -1.91 1.42 -0.01 0.01 -1.4 1.09 -0.53 0.42 -0.33 0.27 -1.52 1.26 -0.03 0.03 -0.28 0.23 -1.29 1.13 -0.23 0.21 -0.35 0.31 -1.24 1.15 -0.28 0.25 -1.55 1.51 -0.02 0.02c-1.03,1.03 -2.03,2.07 -2.98,3.12l-0.16 0.18 -0.24 0.27 -1.06 1.21 -0.18 0.21 -0.85 1.01 -0.57 0.7 -0.1 0.12 -1.25 1.62 -0.03 0.03 -0.93 1.25 -0.34 0.46 -0.09 0.14 -1.09 1.56 -0.05 0.07 -0.2 0.3 -0.83 1.27 -0.14 0.21 -0.16 0.27 -0.77 1.24 -0.19 0.3 -0.33 0.57 -0.71 1.25 -0.03 0.05 -0.95 1.75 -0.06 0.12 -0.77 1.51 -0.13 0.26 -0.15 0.32 -0.63 1.33 -0.1 0.21 -0.06 0.15 -0.67 1.52 -0.08 0.2 -0.26 0.61 -0.52 1.28 -0.02 0.07 -0.18 0.48 -0.5 1.34 0 0.01 -0.32 0.89 -0.35 1.02 -0.11 0.35 -0.43 1.38 -0.06 0.19 -0.34 1.18 -0.21 0.76 -0.17 0.63 -0.33 1.3 -0.02 0.08 -0.32 1.4 -0.11 0.47 -0.19 0.93 -0.21 1.02 -0.06 0.37 -0.25 1.41 -0.03 0.19 -0.2 1.21 -0.1 0.76 -0.09 0.65 -0.17 1.32 0 0.09 -0.15 1.42 -0.05 0.46 -0.08 0.95 -0.07 1.03 -0.03 0.39 -0.07 1.41 -0.01 0.19 -0.06 1.8 -0.01 0.18 0 0.68 -0.02 1.31 0.01 0.11 0.01 1.41 0.01 0.46 0.01 0.13 0.06 1.77 0 0.09 0.02 0.39 0.08 1.43 0.01 0.16c0.08,1.18 0.19,2.35 0.31,3.52l0.04 0.44 0.02 0.13 0.16 1.41 -0.4 -0.17 -0.01 -0.01 -0.41 -0.17 -0.09 -0.03 -1.05 -0.42 -0.19 -0.07 -0.37 -0.13 -0.1 -0.04 -0.47 -0.16 -0.01 -0.01 -0.58 -0.19 -0.43 -0.14 -0.19 -0.05 -0.34 -0.1 -0.29 -0.08 -0.25 -0.08 -0.4 -0.1 -0.16 -0.05 -0.51 -0.12 -0.06 -0.02 -0.58 -0.13 -0.06 -0.01 -0.71 -0.16 -0.44 -0.08 -0.3 -0.06 -0.33 -0.06 -0.42 -0.07 -0.22 -0.03 -0.56 -0.08 -0.1 -0.02 -0.68 -0.09 -0.02 0.01 -1.67 -0.17 -0.42 -0.03 -0.44 -0.02 -0.29 -0.02 -0.6 -0.02 -0.16 -0.01 -0.75 -0.01 -0.01 0 -0.79 0 -0.13 0 -0.67 0.01 -0.29 0.01c-0.96,0.03 -1.95,0.1 -2.99,0.2l-0.02 0 -0.07 0 -0.89 0.1 -0.09 0.01 -0.81 0.1 -0.27 0.03 -0.65 0.1 -0.45 0.07 -1.12 0.19 -0.32 0.06 -0.84 0.16 -0.13 0.03 -0.99 0.21 -0.05 0.01 -1.2 0.28 -0.79 0.19 -0.44 0.11 -0.6 0.16 -0.65 0.19 -0.41 0.12 -0.87 0.25 -0.22 0.07 -1.08 0.34 -0.01 0 -1.12 0.38 -0.2 0.06 -0.94 0.33 -0.42 0.15 -0.74 0.28 -0.65 0.24 -0.52 0.2 -0.89 0.36 -1.18 0.48 -0.26 0.11 -0.08 0.03 -1.23 0.53 -0.15 0.07 -1.11 0.49 -0.39 0.18 -0.88 0.41 -0.64 0.31 -0.65 0.32 -0.9 0.44 -0.42 0.21 -1.16 0.58 -0.17 0.1 -1.36 0.71 -0.07 0.04 -1.3 0.7 -0.34 0.19 -1.67 0.94 -0.8 0.46 -0.89 0.53 -0.55 0.32 -1.18 0.71 -0.28 0.17 -1.47 0.92c-37.33,23.38 -55.67,77.98 -18.66,137.08l260.82 416.33c6.77,10.81 21.03,14.08 31.84,7.31 10.81,-6.77 14.08,-21.03 7.32,-31.83l-260.82 -416.35c-22.05,-35.2 -13.93,-62.14 4.03,-73.38l0.83 -0.51 0.01 -0.01 0.84 -0.48 0.02 0 0.84 -0.46 0.03 -0.01 0.84 -0.43 0.04 -0.01 0.84 -0.41 0.06 -0.01 0.84 -0.38 0.07 -0.03 0.84 -0.34 0.07 -0.03 0.85 -0.33 0.08 -0.03 0.85 -0.31 0.09 -0.03 0.85 -0.28 0.1 -0.03 0.84 -0.26 0.12 -0.04 0.84 -0.24 0.12 -0.03 0.84 -0.22 0.14 -0.03 0.83 -0.2 0.15 -0.04 0.82 -0.18 0.16 -0.03 0.82 -0.16 0.17 -0.04 0.81 -0.14 0.18 -0.03 0.81 -0.13 0.2 -0.03 0.79 -0.11 0.21 -0.02 0.78 -0.1 0.22 -0.02 0.78 -0.08 0.23 -0.02 0.76 -0.06 0.25 -0.03 0.75 -0.04 0.26 -0.02 0.75 -0.03 0.27 -0.01 0.73 -0.02 0.27 -0.01 0.73 -0.01 0.29 0 0.71 0 0.3 0.01 0.69 0.01 0.31 0.01 0.69 0.03 0.99 0.05 0.33 0.01 0.65 0.05 0.35 0.03 0.63 0.05 0.35 0.03 0.64 0.07 0.35 0.04 0.62 0.07 0.36 0.05 0.6 0.08 0.38 0.05 0.58 0.09 0.38 0.06 0.57 0.09 0.39 0.07 0.55 0.1 0.4 0.08 0.54 0.11 0.4 0.09 0.53 0.11 0.41 0.1 0.5 0.11 0.42 0.1 0.49 0.13 0.42 0.11 0.47 0.13 0.43 0.12 0.46 0.13 0.42 0.13 0.44 0.13 0.44 0.14 0.42 0.14 0.44 0.15 0.41 0.14 1.65 0.61 0.43 0.18 0.36 0.15 0.44 0.19 0.35 0.14 0.08 0.04 0.69 0.32 0.43 0.2 0.31 0.15 0.44 0.22 0.3 0.15 0.43 0.23 0.29 0.15 1.36 0.79 0.42 0.26 0.24 0.16 0.41 0.26 0.22 0.15 0.41 0.28 0.21 0.15 0.39 0.29 0.2 0.15 0.39 0.3 0.17 0.15 0.38 0.31 0.17 0.15 32.68 51.55 58.53 93.43c6.77,10.81 21.74,13.65 32.55,6.87 10.81,-6.77 14.26,-19.18 7.5,-29.97l-91.22 -145.62c-22.05,-35.2 -13.93,-62.14 4.02,-73.39 16.16,-10.11 41.59,-7.75 62.5,18.81l10.06 15.63 26.86 42.86 58.53 93.43c0.68,1.09 1.45,2.1 2.29,3.03l0.31 0.33c12.94,17.56 46.6,7.25 40.18,-19.89 -0.47,-1.97 -1.05,-3.65 -2.14,-5.57l-0.59 -1 -8.42 -13.43 -82.8 -132.19c-22.05,-35.2 -13.93,-62.14 4.02,-73.39 14.73,-9.22 37.16,-8.07 56.85,12.33 0.55,1.23 1.11,2.45 1.7,3.66l17.92 27.82 26.85 42.86 58.53 93.43c6.77,10.81 21.74,13.65 32.55,6.87 10.81,-6.77 14.26,-19.18 7.5,-29.97l-2.03 -3.24c-0.71,-1.66 -1.63,-3.39 -2.78,-5.23 -1.69,-2.71 -9.24,-14.43 -19.64,-30.56l-66.77 -106.59c-22.05,-35.2 -13.93,-62.14 4.02,-73.39 17.82,-11.16 46.91,-7.14 68.79,27.78l139.85 223.24 3.01 4.81c0.73,1.16 1.5,2.25 2.31,3.28 6.8,8.56 16.63,12.21 27.67,5.3 1.23,-0.77 2.38,-1.62 3.42,-2.55 2.54,-1.84 4.72,-4.18 6.32,-6.85 24.22,-40.36 71.95,-99.59 102.47,-104.48 4.81,-1.07 9.84,0.27 13.45,3.6 21.03,17.54 13.28,47.1 -9.61,110.44 -19.19,52.96 -40.82,113.21 -31.75,178.58 0.49,3.41 1.54,6.46 3.26,9.33l0 -0.01zm90.48 76.39l-454.94 284.99c-10.81,6.75 -25.07,3.48 -31.85,-7.33 -6.77,-10.81 -3.49,-25.07 7.32,-31.84l454.94 -284.98c10.8,-6.78 25.06,-3.5 31.83,7.3 6.77,10.81 3.5,25.07 -7.31,31.85l0.01 0.01zm-90.48 -76.39l0 0 0 0zm-566.07 -170.4l-26.85 -42.86 -5.31 -8.23 32.16 51.09z"/>
  </g>
 </g>
</svg>
