<?xml version="1.0" encoding="UTF-8"?>
<!DOCTYPE svg PUBLIC "-//W3C//DTD SVG 1.1//EN" "http://www.w3.org/Graphics/SVG/1.1/DTD/svg11.dtd">
<!-- Creator: CorelDRAW 2018 (64-Bit) -->
<svg xmlns="http://www.w3.org/2000/svg" xml:space="preserve" width="52.6626mm" height="52.6626mm" version="1.1" style="shape-rendering:geometricPrecision; text-rendering:geometricPrecision; image-rendering:optimizeQuality; fill-rule:evenodd; clip-rule:evenodd"
viewBox="0 0 5266.26 5266.26"
 xmlns:xlink="http://www.w3.org/1999/xlink">
 <defs>
  <style type="text/css">
   <![CDATA[
    .str0 {stroke:black;stroke-width:26.46;stroke-miterlimit:22.9256;stroke-opacity:0.000000}
    .str2 {stroke:black;stroke-width:33.86;stroke-miterlimit:22.9256}
    .str3 {stroke:#4FBF20;stroke-width:33.86;stroke-miterlimit:22.9256}
    .str1 {stroke:#F7595B;stroke-width:52.92;stroke-miterlimit:22.9256}
    .fil19 {fill:none}
    .fil11 {fill:#FFED00}
    .fil14 {fill:#F5B2B6}
    .fil9 {fill:#EF7F1A}
    .fil15 {fill:#E5097F}
    .fil8 {fill:#E31E24}
    .fil7 {fill:#AE4A84}
    .fil12 {fill:#7E71B1}
    .fil13 {fill:#00A0E3}
    .fil10 {fill:#393185}
    .fil23 {fill:#00A6FE}
    .fil22 {fill:#05A7FF}
    .fil21 {fill:#22E0CD}
    .fil4 {fill:#2FEB6B}
    .fil3 {fill:#52EB82}
    .fil2 {fill:#71F099}
    .fil1 {fill:#88F0A9}
    .fil0 {fill:#9CF0B7}
    .fil6 {fill:#F1FFEB}
    .fil5 {fill:#F4F4F4}
    .fil20 {fill:#F7595B}
    .fil16 {fill:white}
    .fil17 {fill:black;fill-opacity:0.000000}
    .fil18 {fill:white;fill-opacity:0.000000}
   ]]>
  </style>
 </defs>
 <g id="Слой_x0020_1">
  <metadata id="CorelCorpID_0Corel-Layer"/>
  <circle class="fil0" cx="2633.13" cy="2641.6" r="2159"/>
  <ellipse class="fil1" cx="2633.13" cy="2641.61" rx="1735.66" ry="1735.67"/>
  <ellipse class="fil2" cx="2633.13" cy="2641.6" rx="1312.33" ry="1312.32"/>
  <circle class="fil3" cx="2624.66" cy="2641.6" r="888.99"/>
  <ellipse class="fil4" cx="2633.13" cy="2633.13" rx="465.66" ry="465.65"/>
  <circle class="fil5" cx="2556.71" cy="2443.17" r="32.71"/>
  <circle class="fil5" cx="2712.99" cy="2443.17" r="32.71"/>
  <circle class="fil6" cx="1539.65" cy="962.3" r="524.94"/>
  <circle class="fil5" cx="2593.18" cy="2531.19" r="32.71"/>
  <circle class="fil5" transform="matrix(0.70055 0.852295 -0.852295 0.70055 2534.24 2590.13)" r="29.63"/>
  <circle class="fil5" transform="matrix(0.70055 0.852295 -0.852295 0.70055 2534.25 2673.48)" r="29.63"/>
  <circle class="fil5" transform="matrix(0.70055 0.852295 -0.852295 0.70055 2593.18 2732.42)" r="29.63"/>
  <circle class="fil5" transform="matrix(0.70055 0.852295 -0.852295 0.70055 2676.53 2732.42)" r="29.63"/>
  <circle class="fil5" transform="matrix(0.70055 0.852295 -0.852295 0.70055 2735.47 2673.48)" r="29.63"/>
  <circle class="fil5" transform="matrix(0.70055 0.852295 -0.852295 0.70055 2735.46 2590.13)" r="29.63"/>
  <circle class="fil5" transform="matrix(0.70055 0.852295 -0.852295 0.70055 2676.53 2531.19)" r="29.63"/>
  <circle class="fil5" cx="2446.22" cy="2553.67" r="32.71"/>
  <circle class="fil5" cx="2446.22" cy="2709.95" r="32.71"/>
  <circle class="fil5" cx="2556.72" cy="2820.44" r="32.71"/>
  <circle class="fil5" cx="2713" cy="2820.44" r="32.71"/>
  <circle class="fil5" cx="2823.49" cy="2709.94" r="32.71"/>
  <circle class="fil5" cx="2823.49" cy="2553.66" r="32.71"/>
 </g>
 <g id="Слой_x0020_2">
  <metadata id="CorelCorpID_1Corel-Layer"/>
  <ellipse class="fil7" cx="575.73" cy="1401.23" rx="55.04" ry="55.03"/>
  <ellipse class="fil8" cx="1778" cy="2040.46" rx="55.04" ry="55.03"/>
  <ellipse class="fil9" cx="1744.13" cy="4207.93" rx="55.04" ry="55.03"/>
  <ellipse class="fil10" cx="4436.53" cy="3649.13" rx="55.04" ry="55.03"/>
  <ellipse class="fil11" cx="3530.6" cy="4004.73" rx="55.04" ry="55.03"/>
  <ellipse class="fil12" cx="4224.86" cy="1308.1" rx="55.04" ry="55.03"/>
  <ellipse class="fil13" cx="2698.12" cy="1810.63" rx="55.04" ry="55.03"/>
  <ellipse class="fil14" cx="3117.18" cy="3326.77" rx="55.04" ry="55.03"/>
  <ellipse class="fil15" cx="651.93" cy="4106.33" rx="55.04" ry="55.03"/>
  <ellipse class="fil11" cx="3632.2" cy="1515.53" rx="55.04" ry="55.03"/>
  <ellipse class="fil10" cx="787.4" cy="2302.93" rx="55.04" ry="55.03"/>
  <ellipse class="fil10" cx="2997.2" cy="787.4" rx="55.04" ry="55.03"/>
  <circle class="fil6" cx="3945.46" cy="2641.6" r="524.94"/>
  <circle class="fil6" cx="1473.2" cy="3022.6" r="524.94"/>
  <circle class="fil6" cx="2733.45" cy="4264.29" r="524.94"/>
  <path class="fil16" d="M1753.75 1030.65l6.28 122.52 -113.01 -122.52c-122.52,0 -190.43,0 -204.13,0 -20.93,0 -33.86,-12.56 -39.19,-37.66 -1.14,-86.19 -1.14,-172.56 0,-258.74 0.96,-24.16 14.08,-37.28 39.19,-39.38 36.72,0 331.02,0 367.74,0 25.31,0 39.95,12.56 43.57,37.67 0,26.06 0,234.57 0,260.63 0,22.83 -14.66,35.39 -43.76,37.48 -7.61,0 -26.45,0 -56.69,0z"/>
  <path class="fil17 str0" d="M1753.75 1030.65l6.28 122.52 -113.01 -122.52c-122.52,0 -190.43,0 -204.13,0 -20.93,0 -33.86,-12.56 -39.19,-37.66 -1.14,-86.19 -1.14,-172.56 0,-258.74 0.96,-24.16 14.08,-37.28 39.19,-39.38 36.72,0 331.02,0 367.74,0 25.31,0 39.95,12.56 43.57,37.67 0,26.06 0,234.57 0,260.63 0,22.83 -14.66,35.39 -43.76,37.48 -7.61,0 -26.45,0 -56.69,0z"/>
  <path class="fil18" d="M1753.75 1030.65l6.28 122.52 -113.01 -122.52c-122.52,0 -190.43,0 -204.13,0 -20.93,0 -33.86,-12.56 -39.19,-37.66 -1.14,-86.19 -1.14,-172.56 0,-258.74 0.96,-24.16 14.08,-37.28 39.19,-39.38 36.72,0 331.02,0 367.74,0 25.31,0 39.95,12.56 43.57,37.67 0,26.06 0,234.57 0,260.63 0,22.83 -14.66,35.39 -43.76,37.48 -7.61,0 -26.45,0 -56.69,0z"/>
  <path class="fil17" d="M1753.75 1030.65l6.28 122.52 -113.01 -122.52c-122.52,0 -190.43,0 -204.13,0 -20.93,0 -33.86,-12.56 -39.19,-37.66 -1.14,-86.19 -1.14,-172.56 0,-258.74 0.96,-24.16 14.08,-37.28 39.19,-39.38 36.72,0 331.02,0 367.74,0 25.31,0 39.95,12.56 43.57,37.67 0,26.06 0,234.57 0,260.63 0,22.83 -14.66,35.39 -43.76,37.48 -7.61,0 -26.45,0 -56.69,0z"/>
  <path class="fil19 str1" d="M1753.75 1030.65l6.28 122.52 -113.01 -122.52c-122.52,0 -190.43,0 -204.13,0 -20.93,0 -33.86,-12.56 -39.19,-37.66 -1.14,-86.19 -1.14,-172.56 0,-258.74 0.96,-24.16 14.08,-37.28 39.19,-39.38 36.72,0 331.02,0 367.74,0 25.31,0 39.95,12.56 43.57,37.67 0,26.06 0,234.57 0,260.63 0,47.78 -67.61,37.48 -100.45,37.48z"/>
  <path class="fil16" d="M1275.29 1116.26c-34.06,0 -53.08,0 -56.88,0 0,0 -43.57,-3.05 -43.57,-37.67 0,-26.06 0,-234.56 0,-260.63 0,0 5.71,-37.48 43.75,-37.48 36.72,0 330.65,0 367.36,0 0,0 37.87,3.24 39.38,39.19 1.53,36.15 0,258.92 0,258.92 0,0 -7.99,37.67 -39.38,37.67 -13.5,0 -81.61,0 -203.94,0l-113 122.52 6.28 -122.52z"/>
  <path class="fil17 str0" d="M1275.29 1116.26c-34.06,0 -53.08,0 -56.88,0 0,0 -43.57,-3.05 -43.57,-37.67 0,-26.06 0,-234.56 0,-260.63 0,0 5.71,-37.48 43.75,-37.48 36.72,0 330.65,0 367.36,0 0,0 37.87,3.24 39.38,39.19 1.53,36.15 0,258.92 0,258.92 0,0 -7.99,37.67 -39.38,37.67 -13.5,0 -81.61,0 -203.94,0l-113 122.52 6.28 -122.52z"/>
  <path class="fil18" d="M1275.29 1116.26c-34.06,0 -53.08,0 -56.88,0 0,0 -43.57,-3.05 -43.57,-37.67 0,-26.06 0,-234.56 0,-260.63 0,0 5.71,-37.48 43.75,-37.48 36.72,0 330.65,0 367.36,0 0,0 37.87,3.24 39.38,39.19 1.53,36.15 0,258.92 0,258.92 0,0 -7.99,37.67 -39.38,37.67 -13.5,0 -81.61,0 -203.94,0l-113 122.52 6.28 -122.52z"/>
  <path class="fil17" d="M1275.29 1116.26c-34.06,0 -53.08,0 -56.88,0 0,0 -43.57,-3.05 -43.57,-37.67 0,-26.06 0,-234.56 0,-260.63 0,0 5.71,-37.48 43.75,-37.48 36.72,0 330.65,0 367.36,0 0,0 37.87,3.24 39.38,39.19 1.53,36.15 0,258.92 0,258.92 0,0 -7.99,37.67 -39.38,37.67 -13.5,0 -81.61,0 -203.94,0l-113 122.52 6.28 -122.52z"/>
  <path class="fil19 str1" d="M1275.29 1116.26c-34.06,0 -53.08,0 -56.88,0 0,0 -43.57,-3.05 -43.57,-37.67 0,-26.06 0,-234.56 0,-260.63 0,0 5.71,-37.48 43.75,-37.48 36.72,0 330.65,0 367.36,0 0,0 37.87,3.24 39.38,39.19 1.53,36.15 0,258.92 0,258.92 0,0 -7.99,37.67 -39.38,37.67 -67.98,0 -135.96,0 -203.94,0l-113 122.52 6.28 -122.52z"/>
  <path class="fil20" d="M1284.23 904.14c18.45,0 33.29,14.84 33.29,33.29 0,18.45 -14.84,33.29 -33.29,33.29 -18.27,0 -33.3,-14.84 -33.3,-33.29 0,-18.45 15.03,-33.29 33.3,-33.29z"/>
  <path class="fil17 str0" d="M1284.23 904.14c18.45,0 33.29,14.84 33.29,33.29 0,18.45 -14.84,33.29 -33.29,33.29 -18.27,0 -33.3,-14.84 -33.3,-33.29 0,-18.45 15.03,-33.29 33.3,-33.29z"/>
  <path class="fil20" d="M1398.37 904.14c18.46,0 33.3,14.84 33.3,33.29 0,18.45 -14.84,33.29 -33.3,33.29 -18.26,0 -33.29,-14.84 -33.29,-33.29 0,-18.45 15.03,-33.29 33.29,-33.29z"/>
  <path class="fil17 str0" d="M1398.37 904.14c18.46,0 33.3,14.84 33.3,33.29 0,18.45 -14.84,33.29 -33.3,33.29 -18.26,0 -33.29,-14.84 -33.29,-33.29 0,-18.45 15.03,-33.29 33.29,-33.29z"/>
  <path class="fil20" d="M1512.52 904.14c18.45,0 33.29,14.84 33.29,33.29 0,18.45 -14.84,33.29 -33.29,33.29 -18.27,0 -33.29,-14.84 -33.29,-33.29 0,-18.45 15.02,-33.29 33.29,-33.29z"/>
  <path class="fil17 str0" d="M1512.52 904.14c18.45,0 33.29,14.84 33.29,33.29 0,18.45 -14.84,33.29 -33.29,33.29 -18.27,0 -33.29,-14.84 -33.29,-33.29 0,-18.45 15.02,-33.29 33.29,-33.29z"/>
  <path class="fil21" d="M3706.59 2343.81l2.02 0 2.02 0 2.01 0 2.02 0.19 2.02 0 2.01 0 2.02 0.18 2.02 0 2.02 0 3.85 0.19 2.01 0 2.02 0.18 2.02 0 2.01 0 2.02 0.18 0.92 0 0.92 0 0.91 0.18 0.74 0.19 0.91 0.37 0.74 0.36 0.91 0.37 0.74 0.36 0.73 0.37 0.73 0.55 0.74 0.36 0.73 0.56 0.73 0.73 0.74 0.55 0.55 0.74 0.55 0.54 0.73 0.74 0.55 0.73 0.37 0.74 0.55 0.91 0.55 0.74 0.37 0.73 0.36 0.92 0.55 0.91 0.19 0.74 0.37 0.91 0.36 0.92 0.18 0.92 0.18 0.91 0.19 0.92 0.18 0.92 0.19 0.91 0 0.92 0 0.92 0 1.1 0 0.92 -0.19 0.91 0 0.92 -0.18 0.92 -0.19 1.09 -0.18 0.74 -0.36 0.92 -0.37 0.91 -0.37 0.92 -0.37 0.91 -0.36 0.74 -0.37 0.73 -0.55 0.92 -0.55 0.73 -0.55 0.74 -0.55 0.73 -0.54 0.74 -0.74 0.54 -0.55 0.74 -0.74 0.55 -0.73 0.55 -0.73 0.55 -0.74 0.55 -0.73 0.55 -0.92 0.37 -0.73 0.55 -0.91 0.36 -0.74 0.37 -0.91 0.18 -0.93 0.37 -0.91 0.18 -0.92 0.18 -0.92 0.19 -1.09 0.18 -0.92 0.19 -1.1 0 -1.1 0 -1.1 0 -1.1 0 -1.1 0 -1.29 0.18 -1.09 0 -1.11 0 -1.1 0 -1.1 0 -1.09 0 -1.11 0 -1.1 0 -1.1 0 -1.28 0 -1.11 0 -1.09 0 -1.1 0 -1.1 0 -1.11 -0.18 -1.09 0 -1.1 0 -2.39 0 -1.1 0 -1.09 0 -1.11 0 -1.1 0 -1.1 0 -1.09 0 -1.29 0 -1.1 0 -1.1 0 -1.1 0 -1.1 0 -0.55 0 -0.55 0 -0.37 0 -0.55 0 -0.55 0 -0.55 0 -1.1 0 -0.92 0 -0.55 0 -0.55 0 -0.55 0 -0.37 0 -0.54 0 -0.55 0 -0.56 0 -0.54 0.18 -0.55 0 -0.37 0 -0.55 0 -0.55 0 -0.55 0 -0.37 0 -0.55 0.19 -0.55 0 -0.55 0 -0.55 0 -0.37 0 -0.54 0.18 -0.56 0 -0.55 0 -0.36 0.18 -0.55 0 -0.56 0.18 -1.28 0.18 -1.46 0.19 -1.29 0.37 -1.28 0.37 -1.28 0.36 -1.11 0.55 -1.28 0.37 -1.1 0.55 -1.28 0.55 -1.1 0.73 -1.11 0.55 -0.91 0.74 -1.1 0.72 -0.92 0.74 -1.1 0.92 -0.91 0.73 -0.74 0.92 -0.91 0.92 -0.74 0.91 -0.91 0.92 -0.74 1.1 -0.55 0.92 -0.73 1.09 -0.55 1.11 -0.55 1.1 -0.55 1.28 -0.37 1.1 -0.55 1.28 -0.37 1.11 -0.18 1.28 -0.37 1.28 -0.18 1.28 -0.18 1.47 -0.18 1.28 0 1.47 0 3.12 -0.19 3.12 0 3.11 0 3.31 0 3.11 0 3.12 -0.18 3.3 0 3.12 0 3.12 0 3.29 0 3.12 0 3.12 0 3.3 0 3.12 0 3.3 0 3.12 0 3.12 0 3.3 0 3.11 0 3.3 0 3.12 0 3.3 0 3.12 0 3.3 0.18 3.12 0 3.3 0 3.12 0 3.29 0 3.12 0 3.3 0 3.3 0 3.12 0 3.31 0 3.29 0 3.3 602.56 0 0.37 -8.25 0.18 -97.19 0 -2.2 -0.18 -2.01 0 -2.02 -0.37 -1.84 -0.18 -1.83 -0.37 -1.83 -0.37 -1.83 -0.54 -1.66 -0.56 -1.65 -0.55 -1.46 -0.73 -1.65 -0.55 -1.47 -0.92 -1.28 -0.73 -1.29 -0.92 -1.28 -0.91 -1.28 -1.11 -1.11 -1.09 -1.09 -1.1 -1.1 -1.29 -0.93 -1.28 -0.91 -1.29 -0.91 -1.28 -0.74 -1.47 -0.73 -1.65 -0.74 -1.47 -0.55 -1.65 -0.54 -1.65 -0.56 -1.83 -0.37 -1.83 -0.36 -1.84 -0.18 -1.83 -0.37 -2.01 -0.18 -2.02 0 -2.21 0 -48.22 0.37 -1.28 -0.19 -1.29 0 -1.1 -0.18 -1.28 0 -1.1 -0.37 -1.29 -0.19 -1.09 -0.18 -1.11 -0.36 -1.1 -0.37 -1.1 -0.37 -0.91 -0.54 -0.92 -0.56 -1.1 -0.37 -0.92 -0.54 -0.73 -0.74 -0.92 -0.55 -0.92 -0.73 -0.72 -0.55 -0.74 -0.73 -0.73 -0.74 -0.55 -0.91 -0.74 -0.74 -0.55 -0.92 -0.55 -0.91 -0.55 -0.74 -0.36 -0.91 -0.37 -1.11 -0.37 -0.91 -0.36 -0.91 -0.19 -1.11 -0.36 -1.1 -0.19 -0.91 0 -1.11 -0.18 -1.1 0 -1.09 0 -1.29 0.18 -1.1 0 -1.1 0.19 -0.91 0.18 -1.11 0.37 -1.1 0.36 -0.91 0.37 -0.92 0.37 -1.1 0.36 -0.91 0.55 -0.74 0.55 -0.92 0.55 -0.92 0.55 -0.73 0.74 -0.91 0.73 -0.74 0.74 -0.73 0.72 -0.55 0.92 -0.74 0.74 -0.54 0.91 -0.74 0.92 -0.55 0.91 -0.36 0.93 -0.56 1.09 -0.55 1.1 -0.36 1.1 -0.37 1.11 -0.37 1.09 -0.18 1.1 -0.18 1.29 -0.37 1.1 0 1.28 -0.18 1.29 0 1.28 0 52.26 0 3.67 0 3.67 0 3.48 0.37 3.48 0.54 3.49 0.74 3.48 0.73 3.3 0.92 3.3 1.1 3.3 1.28 3.12 1.28 3.12 1.65 2.93 1.66 2.94 1.65 2.93 2.02 2.75 2.01 2.57 2.02 2.57 2.38 2.38 2.2 2.39 2.57 2.37 2.57 2.03 2.56 2.01 2.75 1.83 2.94 1.84 2.93 1.65 2.93 1.47 3.12 1.46 3.12 1.28 3.3 1.11 3.3 0.91 3.49 0.74 3.29 0.73 3.49 0.37 3.67 0.36 3.48 0.18 3.67 0 0.37 0 0.36 0 0.37 0 0.92 0 0.36 0 0.37 0 0.37 0 0.73 0 0.18 0 455.13 0 4.04 -0.36 4.21 -0.36 3.86 -0.56 4.03 -0.73 3.85 -0.73 3.67 -1.1 3.66 -1.1 3.67 -1.29 3.49 -1.47 3.3 -1.64 3.3 -1.65 3.11 -1.84 3.12 -2.02 2.93 -2.19 2.76 -2.21 2.75 -2.38 2.57 -2.39 2.56 -2.56 2.39 -2.75 2.19 -2.93 2.02 -2.94 2.02 -2.93 1.83 -3.3 1.84 -3.3 1.46 -3.31 1.47 -3.48 1.28 -3.48 1.11 -3.67 1.1 -3.85 0.91 -3.86 0.74 -3.84 0.55 -4.04 0.36 -4.03 0.19 -4.22 0.18 -498.41 0 -0.91 0 -0.92 -0.18 -1.1 0 -0.91 0 -0.93 0 -0.91 0 -1.1 0 -0.92 0 -0.91 0 -0.92 0 -2.94 0 -0.91 0 -0.92 0 -1.1 0 -0.91 0 -0.92 0 -0.92 0 -0.91 0 -1.11 0 -0.91 0 -0.92 0 -0.92 0 -1.1 0 -0.91 0 -0.92 0 -0.92 0 -1.1 0 -0.92 0 -0.91 0 -0.92 0 -0.91 0 -1.1 0 -0.92 0.18 -3.67 -0.18 -3.67 -0.19 -3.66 -0.36 -3.67 -0.55 -3.49 -0.74 -3.48 -0.91 -3.48 -0.92 -3.31 -1.29 -3.3 -1.28 -3.12 -1.47 -3.11 -1.46 -3.12 -1.84 -2.93 -1.83 -2.94 -1.83 -2.75 -2.21 -2.75 -2.19 -2.56 -2.39 -2.39 -2.38 -2.38 -2.57 -2.39 -2.57 -2.01 -2.75 -2.02 -2.75 -2.02 -2.93 -1.65 -3.12 -1.65 -3.11 -1.64 -3.12 -1.29 -3.31 -1.29 -3.3 -1.1 -3.29 -0.91 -3.49 -0.74 -3.67 -0.55 -3.48 -0.54 -3.67 -0.19 -3.67 -0.18 -3.66 0 -1.1 0 -0.55 0 -0.37 0 -0.73 0 -0.18 0 -456.05 0 -3.49 0.37 -3.3 0.18 -3.3 0.55 -3.11 0.55 -3.31 0.55 -3.11 0.73 -3.12 0.92 -2.93 1.1 -2.94 1.1 -2.93 1.1 -2.93 1.28 -2.75 1.47 -2.76 1.47 -2.57 1.65 -2.75 1.65 -2.38 1.83 -2.57 1.84 -2.19 2.02 -2.39 2.01 -2.2 2.2 -2.02 2.38 -2.02 2.21 -2.01 2.56 -1.84 2.39 -1.65 2.56 -1.65 2.75 -1.46 2.75 -1.47 2.75 -1.28 2.94 -1.29 2.93 -0.92 3.12 -1.1 3.11 -0.73 3.12 -0.73 3.3 -0.55 2.02 -0.37 2.02 -0.36 1.83 -0.19 2.02 -0.18 2.02 -0.19 2.01 -0.18 2.02 -0.18 1.84 -0.18 2.01 -0.19 2.02 0 2.02 -0.18 2.01 0 2.02 -0.19 2.02 0 2.01 0 2.02 0 2.02 0 2.01 0 2.02 0zm-55.74 536.37l0.18 2.93 0.19 3.12 0.54 2.75 0.55 2.75 0.74 2.56 1.1 2.58 1.1 2.38 1.28 2.2 1.47 2.01 1.65 1.84 1.83 1.83 1.84 1.66 2.19 1.28 2.21 1.46 2.38 1.1 2.39 0.92 2.75 0.92 2.75 0.55 2.93 0.54 3.12 0.37 0.91 0 1.11 0 0.91 0.19 1.1 0 0.92 0 0.91 0 1.1 0 0.92 0.18 1.1 0 0.92 0 0.92 0 1.1 0 0.91 0 0.92 0 1.1 0 1.83 0 1.1 0 0.93 0 0.91 0 511.61 -0.37 3.85 -0.18 3.66 -0.19 3.31 -0.54 3.3 -0.55 2.93 -0.92 2.94 -1.1 2.56 -1.1 2.39 -1.47 2.19 -1.46 2.02 -1.84 1.84 -2.01 1.65 -2.21 1.46 -2.38 1.29 -2.57 0.91 -2.75 0.92 -2.93 0.55 -3.3 0.55 -3.31 0.37 -3.66 0 -3.67 0 -289.18 0.18 -9.53 -603.29 0 0 301.1z"/>
  <path class="fil17 str0" d="M3706.59 2343.81l2.02 0 2.02 0 2.01 0 2.02 0.19 2.02 0 2.01 0 2.02 0.18 2.02 0 2.02 0 3.85 0.19 2.01 0 2.02 0.18 2.02 0 2.01 0 2.02 0.18 0.92 0 0.92 0 0.91 0.18 0.74 0.19 0.91 0.37 0.74 0.36 0.91 0.37 0.74 0.36 0.73 0.37 0.73 0.55 0.74 0.36 0.73 0.56 0.73 0.73 0.74 0.55 0.55 0.74 0.55 0.54 0.73 0.74 0.55 0.73 0.37 0.74 0.55 0.91 0.55 0.74 0.37 0.73 0.36 0.92 0.55 0.91 0.19 0.74 0.37 0.91 0.36 0.92 0.18 0.92 0.18 0.91 0.19 0.92 0.18 0.92 0.19 0.91 0 0.92 0 0.92 0 1.1 0 0.92 -0.19 0.91 0 0.92 -0.18 0.92 -0.19 1.09 -0.18 0.74 -0.36 0.92 -0.37 0.91 -0.37 0.92 -0.37 0.91 -0.36 0.74 -0.37 0.73 -0.55 0.92 -0.55 0.73 -0.55 0.74 -0.55 0.73 -0.54 0.74 -0.74 0.54 -0.55 0.74 -0.74 0.55 -0.73 0.55 -0.73 0.55 -0.74 0.55 -0.73 0.55 -0.92 0.37 -0.73 0.55 -0.91 0.36 -0.74 0.37 -0.91 0.18 -0.93 0.37 -0.91 0.18 -0.92 0.18 -0.92 0.19 -1.09 0.18 -0.92 0.19 -1.1 0 -1.1 0 -1.1 0 -1.1 0 -1.1 0 -1.29 0.18 -1.09 0 -1.11 0 -1.1 0 -1.1 0 -1.09 0 -1.11 0 -1.1 0 -1.1 0 -1.28 0 -1.11 0 -1.09 0 -1.1 0 -1.1 0 -1.11 -0.18 -1.09 0 -1.1 0 -2.39 0 -1.1 0 -1.09 0 -1.11 0 -1.1 0 -1.1 0 -1.09 0 -1.29 0 -1.1 0 -1.1 0 -1.1 0 -1.1 0 -0.55 0 -0.55 0 -0.37 0 -0.55 0 -0.55 0 -0.55 0 -1.1 0 -0.92 0 -0.55 0 -0.55 0 -0.55 0 -0.37 0 -0.54 0 -0.55 0 -0.56 0 -0.54 0.18 -0.55 0 -0.37 0 -0.55 0 -0.55 0 -0.55 0 -0.37 0 -0.55 0.19 -0.55 0 -0.55 0 -0.55 0 -0.37 0 -0.54 0.18 -0.56 0 -0.55 0 -0.36 0.18 -0.55 0 -0.56 0.18 -1.28 0.18 -1.46 0.19 -1.29 0.37 -1.28 0.37 -1.28 0.36 -1.11 0.55 -1.28 0.37 -1.1 0.55 -1.28 0.55 -1.1 0.73 -1.11 0.55 -0.91 0.74 -1.1 0.72 -0.92 0.74 -1.1 0.92 -0.91 0.73 -0.74 0.92 -0.91 0.92 -0.74 0.91 -0.91 0.92 -0.74 1.1 -0.55 0.92 -0.73 1.09 -0.55 1.11 -0.55 1.1 -0.55 1.28 -0.37 1.1 -0.55 1.28 -0.37 1.11 -0.18 1.28 -0.37 1.28 -0.18 1.28 -0.18 1.47 -0.18 1.28 0 1.47 0 3.12 -0.19 3.12 0 3.11 0 3.31 0 3.11 0 3.12 -0.18 3.3 0 3.12 0 3.12 0 3.29 0 3.12 0 3.12 0 3.3 0 3.12 0 3.3 0 3.12 0 3.12 0 3.3 0 3.11 0 3.3 0 3.12 0 3.3 0 3.12 0 3.3 0.18 3.12 0 3.3 0 3.12 0 3.29 0 3.12 0 3.3 0 3.3 0 3.12 0 3.31 0 3.29 0 3.3 602.56 0 0.37 -8.25 0.18 -97.19 0 -2.2 -0.18 -2.01 0 -2.02 -0.37 -1.84 -0.18 -1.83 -0.37 -1.83 -0.37 -1.83 -0.54 -1.66 -0.56 -1.65 -0.55 -1.46 -0.73 -1.65 -0.55 -1.47 -0.92 -1.28 -0.73 -1.29 -0.92 -1.28 -0.91 -1.28 -1.11 -1.11 -1.09 -1.09 -1.1 -1.1 -1.29 -0.93 -1.28 -0.91 -1.29 -0.91 -1.28 -0.74 -1.47 -0.73 -1.65 -0.74 -1.47 -0.55 -1.65 -0.54 -1.65 -0.56 -1.83 -0.37 -1.83 -0.36 -1.84 -0.18 -1.83 -0.37 -2.01 -0.18 -2.02 0 -2.21 0 -48.22 0.37 -1.28 -0.19 -1.29 0 -1.1 -0.18 -1.28 0 -1.1 -0.37 -1.29 -0.19 -1.09 -0.18 -1.11 -0.36 -1.1 -0.37 -1.1 -0.37 -0.91 -0.54 -0.92 -0.56 -1.1 -0.37 -0.92 -0.54 -0.73 -0.74 -0.92 -0.55 -0.92 -0.73 -0.72 -0.55 -0.74 -0.73 -0.73 -0.74 -0.55 -0.91 -0.74 -0.74 -0.55 -0.92 -0.55 -0.91 -0.55 -0.74 -0.36 -0.91 -0.37 -1.11 -0.37 -0.91 -0.36 -0.91 -0.19 -1.11 -0.36 -1.1 -0.19 -0.91 0 -1.11 -0.18 -1.1 0 -1.09 0 -1.29 0.18 -1.1 0 -1.1 0.19 -0.91 0.18 -1.11 0.37 -1.1 0.36 -0.91 0.37 -0.92 0.37 -1.1 0.36 -0.91 0.55 -0.74 0.55 -0.92 0.55 -0.92 0.55 -0.73 0.74 -0.91 0.73 -0.74 0.74 -0.73 0.72 -0.55 0.92 -0.74 0.74 -0.54 0.91 -0.74 0.92 -0.55 0.91 -0.36 0.93 -0.56 1.09 -0.55 1.1 -0.36 1.1 -0.37 1.11 -0.37 1.09 -0.18 1.1 -0.18 1.29 -0.37 1.1 0 1.28 -0.18 1.29 0 1.28 0 52.26 0 3.67 0 3.67 0 3.48 0.37 3.48 0.54 3.49 0.74 3.48 0.73 3.3 0.92 3.3 1.1 3.3 1.28 3.12 1.28 3.12 1.65 2.93 1.66 2.94 1.65 2.93 2.02 2.75 2.01 2.57 2.02 2.57 2.38 2.38 2.2 2.39 2.57 2.37 2.57 2.03 2.56 2.01 2.75 1.83 2.94 1.84 2.93 1.65 2.93 1.47 3.12 1.46 3.12 1.28 3.3 1.11 3.3 0.91 3.49 0.74 3.29 0.73 3.49 0.37 3.67 0.36 3.48 0.18 3.67 0 0.37 0 0.36 0 0.37 0 0.92 0 0.36 0 0.37 0 0.37 0 0.73 0 0.18 0 455.13 0 4.04 -0.36 4.21 -0.36 3.86 -0.56 4.03 -0.73 3.85 -0.73 3.67 -1.1 3.66 -1.1 3.67 -1.29 3.49 -1.47 3.3 -1.64 3.3 -1.65 3.11 -1.84 3.12 -2.02 2.93 -2.19 2.76 -2.21 2.75 -2.38 2.57 -2.39 2.56 -2.56 2.39 -2.75 2.19 -2.93 2.02 -2.94 2.02 -2.93 1.83 -3.3 1.84 -3.3 1.46 -3.31 1.47 -3.48 1.28 -3.48 1.11 -3.67 1.1 -3.85 0.91 -3.86 0.74 -3.84 0.55 -4.04 0.36 -4.03 0.19 -4.22 0.18 -498.41 0 -0.91 0 -0.92 -0.18 -1.1 0 -0.91 0 -0.93 0 -0.91 0 -1.1 0 -0.92 0 -0.91 0 -0.92 0 -2.94 0 -0.91 0 -0.92 0 -1.1 0 -0.91 0 -0.92 0 -0.92 0 -0.91 0 -1.11 0 -0.91 0 -0.92 0 -0.92 0 -1.1 0 -0.91 0 -0.92 0 -0.92 0 -1.1 0 -0.92 0 -0.91 0 -0.92 0 -0.91 0 -1.1 0 -0.92 0.18 -3.67 -0.18 -3.67 -0.19 -3.66 -0.36 -3.67 -0.55 -3.49 -0.74 -3.48 -0.91 -3.48 -0.92 -3.31 -1.29 -3.3 -1.28 -3.12 -1.47 -3.11 -1.46 -3.12 -1.84 -2.93 -1.83 -2.94 -1.83 -2.75 -2.21 -2.75 -2.19 -2.56 -2.39 -2.39 -2.38 -2.38 -2.57 -2.39 -2.57 -2.01 -2.75 -2.02 -2.75 -2.02 -2.93 -1.65 -3.12 -1.65 -3.11 -1.64 -3.12 -1.29 -3.31 -1.29 -3.3 -1.1 -3.29 -0.91 -3.49 -0.74 -3.67 -0.55 -3.48 -0.54 -3.67 -0.19 -3.67 -0.18 -3.66 0 -1.1 0 -0.55 0 -0.37 0 -0.73 0 -0.18 0 -456.05 0 -3.49 0.37 -3.3 0.18 -3.3 0.55 -3.11 0.55 -3.31 0.55 -3.11 0.73 -3.12 0.92 -2.93 1.1 -2.94 1.1 -2.93 1.1 -2.93 1.28 -2.75 1.47 -2.76 1.47 -2.57 1.65 -2.75 1.65 -2.38 1.83 -2.57 1.84 -2.19 2.02 -2.39 2.01 -2.2 2.2 -2.02 2.38 -2.02 2.21 -2.01 2.56 -1.84 2.39 -1.65 2.56 -1.65 2.75 -1.46 2.75 -1.47 2.75 -1.28 2.94 -1.29 2.93 -0.92 3.12 -1.1 3.11 -0.73 3.12 -0.73 3.3 -0.55 2.02 -0.37 2.02 -0.36 1.83 -0.19 2.02 -0.18 2.02 -0.19 2.01 -0.18 2.02 -0.18 1.84 -0.18 2.01 -0.19 2.02 0 2.02 -0.18 2.01 0 2.02 -0.19 2.02 0 2.01 0 2.02 0 2.02 0 2.01 0 2.02 0zm-55.74 536.37l0.18 2.93 0.19 3.12 0.54 2.75 0.55 2.75 0.74 2.56 1.1 2.58 1.1 2.38 1.28 2.2 1.47 2.01 1.65 1.84 1.83 1.83 1.84 1.66 2.19 1.28 2.21 1.46 2.38 1.1 2.39 0.92 2.75 0.92 2.75 0.55 2.93 0.54 3.12 0.37 0.91 0 1.11 0 0.91 0.19 1.1 0 0.92 0 0.91 0 1.1 0 0.92 0.18 1.1 0 0.92 0 0.92 0 1.1 0 0.91 0 0.92 0 1.1 0 1.83 0 1.1 0 0.93 0 0.91 0 511.61 -0.37 3.85 -0.18 3.66 -0.19 3.31 -0.54 3.3 -0.55 2.93 -0.92 2.94 -1.1 2.56 -1.1 2.39 -1.47 2.19 -1.46 2.02 -1.84 1.84 -2.01 1.65 -2.21 1.46 -2.38 1.29 -2.57 0.91 -2.75 0.92 -2.93 0.55 -3.3 0.55 -3.31 0.37 -3.66 0 -3.67 0 -289.18 0.18 -9.53 -603.29 0 0 301.1z"/>
  <path class="fil21" d="M3826.89 2418.45c8.24,0 12.83,0 13.75,0 13.02,0.91 22.74,11 22.37,23.47 0,12.28 -10.27,22.01 -23.29,22.19 -7.33,0 -65.47,0 -72.8,0 -12.47,0 -22.55,-9.72 -23.1,-21.64 -0.55,-12.29 9.16,-22.92 22,-23.84 4.77,-0.37 9.72,0 15.41,0 0,-0.73 0,-4.4 0,-10.63 0,-50.06 0,-77.94 0,-83.44 0,-15.03 9.17,-25.67 22.37,-25.67 13.57,-0.18 23.29,10.45 23.29,25.85 0,5.5 0,33.2 0,83.26l0 10.45z"/>
  <path class="fil17 str0" d="M3826.89 2418.45c8.24,0 12.83,0 13.75,0 13.02,0.91 22.74,11 22.37,23.47 0,12.28 -10.27,22.01 -23.29,22.19 -7.33,0 -65.47,0 -72.8,0 -12.47,0 -22.55,-9.72 -23.1,-21.64 -0.55,-12.29 9.16,-22.92 22,-23.84 4.77,-0.37 9.72,0 15.41,0 0,-0.73 0,-4.4 0,-10.63 0,-50.06 0,-77.94 0,-83.44 0,-15.03 9.17,-25.67 22.37,-25.67 13.57,-0.18 23.29,10.45 23.29,25.85 0,5.5 0,33.2 0,83.26l0 10.45z"/>
  <path class="fil21" d="M4075.35 2418.63l0 -10.45c0,-50.06 0,-77.75 0,-83.25 0,-14.67 9.35,-24.57 22.56,-24.57 13.39,0 22.92,9.9 23.1,24.38 0,9.35 0,84.36 0,93.89 5.32,0 9.91,-0.37 14.31,0 13.01,1.1 22.55,11.55 22,23.84 -0.73,12.29 -11,21.82 -23.47,21.64 -7.33,0 -65.28,0 -72.61,0 -12.85,0 -23.11,-9.91 -23.3,-22.38 0,-11.92 9.17,-22 22.01,-23.1 4.77,-0.37 9.53,0 15.4,0z"/>
  <path class="fil17 str0" d="M4075.35 2418.63l0 -10.45c0,-50.06 0,-77.75 0,-83.25 0,-14.67 9.35,-24.57 22.56,-24.57 13.39,0 22.92,9.9 23.1,24.38 0,9.35 0,84.36 0,93.89 5.32,0 9.91,-0.37 14.31,0 13.01,1.1 22.55,11.55 22,23.84 -0.73,12.29 -11,21.82 -23.47,21.64 -7.33,0 -65.28,0 -72.61,0 -12.85,0 -23.11,-9.91 -23.3,-22.38 0,-11.92 9.17,-22 22.01,-23.1 4.77,-0.37 9.53,0 15.4,0z"/>
  <path class="fil21" d="M3872.91 2389.29c-11.37,0 -19.81,-7.33 -22.37,-17.97 -2.2,-9.72 2.38,-19.62 11,-24.2 3.85,-1.84 8.8,-3.12 13.2,-3.12 15.59,0 141.02,0 156.61,0 14.67,0 24.56,9.71 24.56,22.74 0,13.01 -10.26,22.55 -24.75,22.55 -5.32,0 -31.72,0 -79.22,0 -47.49,0 -73.71,0 -79.03,0z"/>
  <path class="fil17 str0" d="M3872.91 2389.29c-11.37,0 -19.81,-7.33 -22.37,-17.97 -2.2,-9.72 2.38,-19.62 11,-24.2 3.85,-1.84 8.8,-3.12 13.2,-3.12 15.59,0 141.02,0 156.61,0 14.67,0 24.56,9.71 24.56,22.74 0,13.01 -10.26,22.55 -24.75,22.55 -5.32,0 -31.72,0 -79.22,0 -47.49,0 -73.71,0 -79.03,0z"/>
  <path class="fil21" d="M3739.41 2836.71c-12.28,0.19 -22.55,-9.34 -23.46,-21.45 -0.74,-12.46 8.61,-23.1 20.9,-23.84 17.05,-0.91 34.29,-0.91 51.34,0 12.66,0.74 21.64,11.74 20.9,23.84 -0.72,12.11 -10.99,21.64 -23.28,21.45 -1.65,0 -9.54,0 -23.66,0 -13.57,0 -21.27,0 -22.74,0z"/>
  <path class="fil17 str0" d="M3739.41 2836.71c-12.28,0.19 -22.55,-9.34 -23.46,-21.45 -0.74,-12.46 8.61,-23.1 20.9,-23.84 17.05,-0.91 34.29,-0.91 51.34,0 12.66,0.74 21.64,11.74 20.9,23.84 -0.72,12.11 -10.99,21.64 -23.28,21.45 -1.65,0 -9.54,0 -23.66,0 -13.57,0 -21.27,0 -22.74,0z"/>
  <path class="fil21" d="M3738.87 2702.67c-12.1,-0.18 -22.19,-9.72 -22.92,-21.82 -0.56,-11.55 8.43,-22.74 20.35,-23.28 17.42,-0.93 34.84,-0.93 52.26,0 12.1,0.54 20.9,11.36 20.53,23.1 -0.54,12.1 -10.45,21.82 -22.73,22 -1.65,0 -9.53,0 -23.84,0 -14.12,0 -22,0 -23.65,0z"/>
  <path class="fil17 str0" d="M3738.87 2702.67c-12.1,-0.18 -22.19,-9.72 -22.92,-21.82 -0.56,-11.55 8.43,-22.74 20.35,-23.28 17.42,-0.93 34.84,-0.93 52.26,0 12.1,0.54 20.9,11.36 20.53,23.1 -0.54,12.1 -10.45,21.82 -22.73,22 -1.65,0 -9.53,0 -23.84,0 -14.12,0 -22,0 -23.65,0z"/>
  <path class="fil21" d="M4113.13 2702.67c-12.28,-0.18 -22.38,-9.9 -22.92,-22 -0.37,-12.11 8.62,-22.19 20.53,-23.1 17.43,-0.93 34.84,-0.93 52.08,0 12.65,0.54 21.46,12.1 20.54,24.02 -1.1,11.73 -11,20.9 -22.92,21.08 -1.66,0 -9.54,0 -23.66,0 -14.12,0 -22,0 -23.65,0z"/>
  <path class="fil17 str0" d="M4113.13 2702.67c-12.28,-0.18 -22.38,-9.9 -22.92,-22 -0.37,-12.11 8.62,-22.19 20.53,-23.1 17.43,-0.93 34.84,-0.93 52.08,0 12.65,0.54 21.46,12.1 20.54,24.02 -1.1,11.73 -11,20.9 -22.92,21.08 -1.66,0 -9.54,0 -23.66,0 -14.12,0 -22,0 -23.65,0z"/>
  <g>
   <path class="fil21" d="M3949.38 2702.67c-13.75,0 -21.46,0 -22.92,0 -12.84,-0.18 -22.19,-8.8 -23.11,-20.72 -0.73,-12.47 7.33,-23.84 20.17,-24.38 17.42,-0.93 34.84,-0.93 52.26,0 12.66,0.54 21.09,11.91 20.17,24.2 -0.91,12.1 -10.26,20.72 -22.92,20.9 -1.65,0 -9.54,0 -23.83,0l0.18 0zm0 0l0 0 0 0z"/>
  </g>
  <path class="fil17 str0" d="M3949.38 2702.67c-13.75,0 -21.46,0 -22.92,0 -12.84,-0.18 -22.19,-8.8 -23.11,-20.72 -0.73,-12.47 7.33,-23.84 20.17,-24.38 17.42,-0.93 34.84,-0.93 52.26,0 12.66,0.54 21.09,11.91 20.17,24.2 -0.91,12.1 -10.26,20.72 -22.92,20.9 -1.65,0 -9.54,0 -23.83,0m0.18 0l0 0 0 0z"/>
  <path class="fil21" d="M3949.56 2836.71c-14.12,0 -22.01,0 -23.66,0 -12.46,-0.36 -22,-9.34 -22.55,-21.27 -0.55,-12.28 7.33,-23.1 19.8,-23.83 17.61,-0.92 35.4,-0.92 53.18,0 12.29,0.73 20.36,11.91 19.62,23.83 -0.55,11.93 -10.45,21.27 -22.55,21.27 -1.65,0 -9.54,0 -23.84,0z"/>
  <path class="fil17 str0" d="M3949.56 2836.71c-14.12,0 -22.01,0 -23.66,0 -12.46,-0.36 -22,-9.34 -22.55,-21.27 -0.55,-12.28 7.33,-23.1 19.8,-23.83 17.61,-0.92 35.4,-0.92 53.18,0 12.29,0.73 20.36,11.91 19.62,23.83 -0.55,11.93 -10.45,21.27 -22.55,21.27 -1.65,0 -9.54,0 -23.84,0z"/>
  <path class="fil22" d="M1803.6 3087.83c1.89,-4.73 3.03,-7.39 3.41,-7.96 20.49,-40.96 41.16,-82.11 61.45,-123.26 2.46,-4.93 5.11,-6.64 10.42,-6.44 8.53,0.56 17.07,0 26.55,0 -1.33,3.6 -2.28,6.06 -3.41,8.34 -6.26,12.33 -55.19,110.37 -61.25,122.5 -2.47,4.93 -5.13,7.2 -10.81,6.82 -8.35,-0.37 -16.5,0 -26.36,0z"/>
  <path class="fil17 str0" d="M1803.6 3087.83c1.89,-4.73 3.03,-7.39 3.41,-7.96 20.49,-40.96 41.16,-82.11 61.45,-123.26 2.46,-4.93 5.11,-6.64 10.42,-6.44 8.53,0.56 17.07,0 26.55,0 -1.33,3.6 -2.28,6.06 -3.41,8.34 -6.26,12.33 -55.19,110.37 -61.25,122.5 -2.47,4.93 -5.13,7.2 -10.81,6.82 -8.35,-0.37 -16.5,0 -26.36,0z"/>
  <g>
   <path class="fil22" d="M1802.65 2744.23c-2.08,4.74 -3.22,7.39 -3.41,7.77 -20.48,40.96 -40.96,81.54 -61.06,122.69 -2.66,5.31 -5.69,7.59 -11.76,7.02 -8.15,-0.38 -16.31,0 -25.6,0 1.33,-3.41 2.08,-5.69 3.22,-7.59 6.07,-12.32 55.19,-111.12 61.45,-123.44 2.46,-4.75 4.73,-6.83 10.23,-6.65 8.54,0.58 17.07,0 26.93,0l0 0.2zm0 0l0 0 0 0z"/>
  </g>
  <path class="fil17 str0" d="M1802.65 2744.23c-2.08,4.74 -3.22,7.39 -3.41,7.77 -20.48,40.96 -40.96,81.54 -61.06,122.69 -2.66,5.31 -5.69,7.59 -11.76,7.02 -8.15,-0.38 -16.31,0 -25.6,0 1.33,-3.41 2.08,-5.69 3.22,-7.59 6.07,-12.32 55.19,-111.12 61.45,-123.44 2.46,-4.75 4.73,-6.83 10.23,-6.65 8.54,0.58 17.07,0 26.93,0m0 0.2l0 0 0 0z"/>
  <g>
   <path class="fil22" d="M1700.06 3156.48c-17.63,35.28 -27.3,54.81 -29.2,58.6 -12.14,24.27 -24.66,48.73 -36.6,73.2 -1.9,4.17 -4.55,5.69 -9.1,5.69 -8.92,-0.38 -17.64,0 -27.5,0 0.19,-0.38 1.33,-3.23 3.61,-8.16 36.59,-73.58 57.07,-114.54 61.25,-122.88 2.27,-4.74 4.73,-6.83 10.24,-6.64 8.53,0.57 17.06,0 27.3,0l0 0.19zm0 0l0 0 0 0z"/>
  </g>
  <path class="fil17" d="M1700.06 3156.48c-17.63,35.28 -27.3,54.81 -29.2,58.6 -12.14,24.27 -24.66,48.73 -36.6,73.2 -1.9,4.17 -4.55,5.69 -9.1,5.69 -8.92,-0.38 -17.64,0 -27.5,0 0.19,-0.38 1.33,-3.23 3.61,-8.16 36.59,-73.58 57.07,-114.54 61.25,-122.88 2.27,-4.74 4.73,-6.83 10.24,-6.64 8.53,0.57 17.06,0 27.3,0m0 0.19l0 0 0 0z"/>
  <path class="fil22" d="M1837.35 2985.06c-0.19,18.96 -15.74,34.13 -34.51,33.94 -18.96,-0.19 -34.13,-15.74 -33.94,-34.7 0.18,-18.97 15.74,-34.13 34.7,-33.95 18.77,0.2 33.94,15.74 33.75,34.71z"/>
  <path class="fil17 str0" d="M1837.35 2985.06c-0.19,18.96 -15.74,34.13 -34.51,33.94 -18.96,-0.19 -34.13,-15.74 -33.94,-34.7 0.18,-18.97 15.74,-34.13 34.7,-33.95 18.77,0.2 33.94,15.74 33.75,34.71z"/>
  <path class="fil22" d="M1734.19 2778.55c0.2,18.97 -15.17,34.51 -33.75,34.51 -18.96,0.19 -34.51,-15.16 -34.51,-34.13 -0.19,-18.96 15.17,-34.32 34.13,-34.52 18.59,0 34.13,15.18 34.13,34.14z"/>
  <path class="fil17" d="M1734.19 2778.55c0.2,18.97 -15.17,34.51 -33.75,34.51 -18.96,0.19 -34.51,-15.16 -34.51,-34.13 -0.19,-18.96 15.17,-34.32 34.13,-34.52 18.59,0 34.13,15.18 34.13,34.14z"/>
  <path class="fil22" d="M1666.12 3258.88c0,-18.58 15.74,-34.13 34.32,-33.94 18.96,0.19 34.13,15.74 33.95,34.7 -0.2,18.97 -15.56,34.13 -34.52,33.95 -18.96,0 -33.75,-15.56 -33.75,-34.71z"/>
  <path class="fil17" d="M1666.12 3258.88c0,-18.58 15.74,-34.13 34.32,-33.94 18.96,0.19 34.13,15.74 33.95,34.7 -0.2,18.97 -15.56,34.13 -34.52,33.95 -18.96,0 -33.75,-15.56 -33.75,-34.71z"/>
  <path class="fil22" d="M1837.35 2847.2c0,18.96 -15.17,34.32 -34.13,34.32 -18.96,0 -34.32,-15.17 -34.32,-34.14 0,-18.96 15.36,-34.32 34.32,-34.32 18.96,0 34.13,15.17 34.13,34.14z"/>
  <path class="fil17 str0" d="M1837.35 2847.2c0,18.96 -15.17,34.32 -34.13,34.32 -18.96,0 -34.32,-15.17 -34.32,-34.14 0,-18.96 15.36,-34.32 34.32,-34.32 18.96,0 34.13,15.17 34.13,34.14z"/>
  <path class="fil22" d="M1940.32 3053.32c0,18.97 -15.36,34.33 -34.13,34.33 -18.58,0 -34.14,-15.56 -34.14,-34.14 0,-18.96 15.36,-34.51 34.14,-34.51 18.77,0 34.13,15.55 34.13,34.32z"/>
  <path class="fil17 str0" d="M1940.32 3053.32c0,18.97 -15.36,34.33 -34.13,34.33 -18.58,0 -34.14,-15.56 -34.14,-34.14 0,-18.96 15.36,-34.51 34.14,-34.51 18.77,0 34.13,15.55 34.13,34.32z"/>
  <path class="fil22" d="M1631.42 3190.8c-0.2,18.97 -15.56,34.14 -34.33,34.14 -18.96,0 -34.13,-15.36 -34.13,-34.32 0.19,-18.97 15.55,-34.14 34.51,-34.14 18.77,0 33.95,15.55 33.95,34.32z"/>
  <path class="fil17" d="M1631.42 3190.8c-0.2,18.97 -15.56,34.14 -34.33,34.14 -18.96,0 -34.13,-15.36 -34.13,-34.32 0.19,-18.97 15.55,-34.14 34.51,-34.14 18.77,0 33.95,15.55 33.95,34.32z"/>
  <path class="fil23" d="M1254.46 2776.85l315.11 0c15.16,0 27.52,12.36 27.52,27.52l0 23.83c0,15.16 -12.36,27.53 -27.52,27.53l-315.11 0c-15.16,0 -27.53,-12.37 -27.53,-27.53l0 -23.83c0,-15.16 12.37,-27.52 27.53,-27.52z"/>
  <path class="fil23" d="M1258 2983.16l430.41 0c15.16,0 27.52,12.36 27.52,27.52l0 23.84c0,15.16 -12.36,27.53 -27.52,27.53l-430.41 0c-15.15,0 -27.52,-12.37 -27.52,-27.53l0 -23.84c0,-15.16 12.37,-27.52 27.52,-27.52z"/>
  <path class="fil23" d="M1260.53 3177.34l242.3 0c15.15,0 27.52,12.37 27.52,27.53l0 17.77c0,15.16 -12.37,27.52 -27.52,27.52l-242.3 0c-15.16,0 -27.53,-12.36 -27.53,-27.52l0 -17.77c0,-15.16 12.37,-27.53 27.53,-27.53z"/>
  <path class="fil23" d="M1162.86 2767.74l-7.33 0c-19.71,0 -35.78,12.36 -35.78,27.52l0 430.41c0,15.16 16.07,27.52 35.78,27.52l7.33 0c19.71,0 35.78,-12.36 35.78,-27.52l0 -430.41c0,-15.16 -16.07,-27.52 -35.78,-27.52z"/>
  <g>
   <path class="fil18" d="M2980.38 4513.41c0,-94.56 0,-147.26 0,-157.89 0,0 0,-127.56 -224.99,-189.79 -137.74,0 100.75,-55.36 100.75,-179.37 0,-124.46 -90.78,-168.08 -172.72,-168.08 -82.6,0 -186.68,50.27 -186.68,167.86 0,117.37 90.79,181.36 127.77,179.59 36.76,-1.54 -238.5,45.4 -238.5,189.79 -60.46,201.52 0,157.89 0,157.89 0,0 198.2,0 594.37,0z"/>
   <path id="1" class="fil19 str2" d="M2980.38 4513.41c0,-94.56 0,-147.26 0,-157.89 0,0 0,-127.56 -224.99,-189.79 -137.74,0 100.75,-55.36 100.75,-179.37 0,-124.46 -90.78,-168.08 -172.72,-168.08 -82.6,0 -186.68,50.27 -186.68,167.86 0,117.37 90.79,181.36 127.77,179.59 36.76,-1.54 -238.5,45.4 -238.5,189.79 -60.46,201.52 0,157.89 0,157.89 0,0 198.2,0 594.37,0z"/>
  </g>
  <g>
   <path class="fil17" d="M2980.38 4513.41c0,-94.56 0,-147.26 0,-157.89 0,0 0,-127.56 -224.99,-189.79 -137.74,0 100.75,-55.36 100.75,-179.37 0,-124.46 -90.78,-168.08 -172.72,-168.08 -82.6,0 -186.68,50.27 -186.68,167.86 0,117.37 90.79,181.36 127.77,179.59 36.76,-1.54 -238.5,45.4 -238.5,189.79 -60.46,201.52 0,157.89 0,157.89 0,0 198.2,0 594.37,0z"/>
   <path id="1" class="fil19 str2" d="M2980.38 4513.41c0,-94.56 0,-147.26 0,-157.89 0,0 0,-127.56 -224.99,-189.79 -137.74,0 100.75,-55.36 100.75,-179.37 0,-124.46 -90.78,-168.08 -172.72,-168.08 -82.6,0 -186.68,50.27 -186.68,167.86 0,117.37 90.79,181.36 127.77,179.59 36.76,-1.54 -238.5,45.4 -238.5,189.79 -60.46,201.52 0,157.89 0,157.89 0,0 198.2,0 594.37,0z"/>
  </g>
  <path class="fil19 str3" d="M2980.38 4513.41c0,-94.56 0,-147.26 0,-157.89 0,0 0,-127.56 -224.99,-189.79 -137.74,0 100.75,-55.36 100.75,-179.37 0,-124.46 -90.78,-168.08 -172.72,-168.08 -82.6,0 -186.68,50.27 -186.68,167.86 0,117.37 90.79,181.36 127.77,179.59 36.76,-1.54 -238.5,45.4 -238.5,189.79 -60.46,201.52 0,157.89 0,157.89 0,0 198.2,0 594.37,0z"/>
  <path class="fil6 str3" d="M2690.91 4208.07c-39.64,0 -61.78,0 -66.21,0 0,0 -50.71,3.54 -50.71,43.85 0,30.34 0,273.04 0,303.38 0,0 6.63,43.63 50.93,43.63 42.73,0 384.88,0 427.62,0 0,0 44.06,-3.77 45.84,-45.62 1.77,-42.07 0,-301.39 0,-301.39 0,0 -9.3,-43.85 -45.84,-43.85 -15.72,0 -95.01,0 -237.39,0l-131.55 -142.62 7.31 142.62z"/>
 </g>
</svg>
