<svg xmlns="http://www.w3.org/2000/svg" width="36" height="43" viewBox="0 0 36 43"><path fill="#4fbe20" d="M1.45 41.2c-.8 0-1.45-.64-1.45-1.43V13.43C0 12.64.65 12 1.45 12c.81 0 1.46.64 1.46 1.43v26.34c0 .79-.65 1.43-1.46 1.43M28.58 42.14H5.45c-.8 0-1.45-.64-1.45-1.43 0-.79.65-1.43 1.45-1.43h23.13c1.98 0 2.7-1.28 2.7-2.15 0-.29-.08-.71-.43-1.05-.35-.33-.93-.51-1.66-.51-.8 0-1.45-.64-1.45-1.43 0-.79.65-1.43 1.45-1.43 1.93 0 2.93-1.07 2.93-2.13 0-.29-.07-.7-.45-1.03-.4-.36-1.05-.55-1.87-.55-.8 0-1.45-.64-1.45-1.43 0-.79.65-1.43 1.45-1.43 2.1 0 2.86-1.28 2.86-2.14 0-.29-.07-.7-.44-1.03-.39-.35-1.01-.54-1.81-.54s-1.45-.64-1.45-1.43c0-.79.65-1.43 1.45-1.43.8 0 1.44-.21 1.86-.61.33-.33.52-.77.52-1.24 0-.86-.63-1.86-2.38-1.86H16.72c-.8 0-1.45-.64-1.45-1.43 0-.79.65-1.43 1.45-1.43h13.69c3.47 0 5.28 2.37 5.28 4.72a4.5 4.5 0 0 1-1.38 3.26c.81.8 1.26 1.87 1.26 3.02 0 1.31-.59 2.67-1.73 3.64a4.16 4.16 0 0 1 1.19 2.94 4.8 4.8 0 0 1-1.88 3.74 4.23 4.23 0 0 1 1.03 2.81c0 2.43-1.96 5.01-5.6 5.01"/><path fill="#4fbe20" d="M5.45 15.15a1.43 1.43 0 0 1-.58-2.74c2.99-1.27 5.17-3.95 7.09-6.31 2.44-2.99 4.97-6.08 8.62-4.81a3.82 3.82 0 0 1 2.34 2.24c1.44 3.62-1.95 10.13-2.34 10.86-.38.7-1.25.96-1.96.6a1.42 1.42 0 0 1-.62-1.93c1.33-2.49 2.9-6.77 2.21-8.49a.9.9 0 0 0-.6-.58c-1.55-.54-2.83.77-5.38 3.9-2.13 2.62-4.56 5.59-8.2 7.14-.19.08-.38.12-.58.12"/></svg>