<svg xmlns="http://www.w3.org/2000/svg" width="37" height="45" viewBox="0 0 37 45"><path fill="#17decb" d="M17.35 27.94c-.5 0-.98-.26-1.24-.72-.4-.69-.16-1.56.53-1.95 4.58-2.63 7.02-5.53 7.67-9.14a8.13 8.13 0 0 0-1.76-6.11 5.81 5.81 0 0 0-4.67-2.16 5.55 5.55 0 0 0-4.87 2.49 7.74 7.74 0 0 0-.53 7.09c.31.73-.04 1.57-.77 1.87a1.42 1.42 0 0 1-1.87-.77 10.54 10.54 0 0 1 .79-9.78A8.41 8.41 0 0 1 17.88 5c2.76 0 5.14 1.1 6.87 3.19a10.9 10.9 0 0 1 2.38 8.45c-1.08 5.92-5.69 9.18-9.07 11.11a1.4 1.4 0 0 1-.71.19"/><path fill="#17decb" d="M35.55 45H1.43a1.43 1.43 0 1 1 0-2.87h32.68c-.05-5.01-.39-8.35-.99-9.94-.79-2.06-4.16-3.94-6.32-4.91-1.35 2.85-4.74 9.82-7.14 13.06-.54.73-1.77.73-2.3 0-2.4-3.24-5.79-10.21-7.15-13.06-2.16.97-5.53 2.85-6.32 4.91-.79 2.07-.75 4.09-.71 6.22l.01 1.35a1.43 1.43 0 1 1-2.86 0l-.02-1.3c-.04-2.2-.08-4.7.91-7.29 1.6-4.17 8.44-6.8 9.22-7.08.7-.26 1.48.06 1.79.74.04.09 3.52 7.64 6.28 12.09 2.76-4.45 6.23-12 6.27-12.09.31-.68 1.1-1 1.8-.74.77.28 7.62 2.91 9.21 7.08 1.07 2.78 1.19 8.41 1.19 12.4 0 .79-.64 1.43-1.43 1.43M10.53 23.3a5.65 5.65 0 0 1-2.96-.76 5.53 5.53 0 0 1-2.43-3.19 4.91 4.91 0 0 1-2.82-1.52A5.22 5.22 0 0 1 1 14.27a5.76 5.76 0 0 1 4.52-5.72C6.63 5.12 10.12 0 17.42 0c7.55 0 11.22 4.93 12.41 8.24a5.96 5.96 0 0 1 4.82 5.93c0 1.41-.48 2.7-1.37 3.65a5.4 5.4 0 0 1-4.11 1.63 1.43 1.43 0 1 1 0-2.86c.89 0 1.57-.25 2.02-.73.39-.41.6-1.01.6-1.69 0-1.53-1.07-3.16-3.05-3.16-.67 0-1.25-.46-1.4-1.11a9.71 9.71 0 0 0-9.92-7.04c-7.73 0-9.31 7.01-9.37 7.31a1.44 1.44 0 0 1-1.4 1.14c-2.03 0-2.79 1.82-2.79 2.96 0 .65.2 1.23.57 1.63.42.46 1.05.69 1.88.69.75 0 1.37.58 1.43 1.32 0 .01.15 1.52 1.29 2.17 1.13.65 3.02.4 5.47-.74a1.44 1.44 0 0 1 1.2 2.61c-1.95.9-3.68 1.35-5.17 1.35"/><path fill="#17decb" d="M15.94 22.88a1.94 1.94 0 1 1 0-3.88 1.94 1.94 0 0 1 0 3.88z"/></svg>