<?xml version="1.0" encoding="UTF-8"?>
<!DOCTYPE svg PUBLIC "-//W3C//DTD SVG 1.1//EN" "http://www.w3.org/Graphics/SVG/1.1/DTD/svg11.dtd">
<!-- Creator: CorelDRAW 2018 (64-Bit) -->
<svg xmlns="http://www.w3.org/2000/svg" xml:space="preserve" width="37mm" height="36.5mm" version="1.1" style="shape-rendering:geometricPrecision; text-rendering:geometricPrecision; image-rendering:optimizeQuality; fill-rule:evenodd; clip-rule:evenodd"
viewBox="0 0 3700 3650"
 xmlns:xlink="http://www.w3.org/1999/xlink">
 <defs>
  <style type="text/css">
   <![CDATA[
    .fil0 {fill:#F7595A}
   ]]>
  </style>
 </defs>
 <g id="Слой_x0020_1">
  <metadata id="CorelCorpID_0Corel-Layer"/>
  <g>
   <path class="fil0" d="M2224 3276.97c0,0.05 -0.01,0.11 -0.01,0.17 -0.4,20.89 16.22,38.16 37.11,38.56 15.03,0.29 28.81,-8.34 35.1,-22 35.11,-78.45 107.12,-134.76 170.52,-184.35 80.33,-63.03 163.36,-128.38 131.61,-225.58 -9.05,-28.55 -30.42,-51.5 -58.07,-63.03 -69.39,-28.93 -180.93,12.42 -243.65,39 0.38,-127.76 1.58,-410.45 1.52,-424.71l0 0c0.66,-66.94 -64.98,-116.66 -135.62,-116.66 -42.51,-1.23 -74.39,12.55 -97.09,34.33 -25.49,-29.3 -66.47,-47.56 -109.29,-47.56 -48.3,-1.4 -82.9,16.59 -105.87,43.67 -25.66,-25.45 -63.62,-41.02 -103.15,-41.02l-3.05 -0.06 -1.2 -0.01 -1.81 0 -2.38 0.02 -0.6 0.01c-2.47,0.06 -4.9,0.17 -7.3,0.33l-0.46 0.03 -3.76 0.3 -0.03 0 -2.79 0.29 -1.08 0.12 -0.67 0.09 -3.1 0.41 -0.06 0.01 -0.57 0.08 -2.69 0.43 -0.49 0.08 -0.72 0.13 -2.65 0.5 -0.58 0.11 -3.36 0.72 -0.05 0.01c-2.24,0.52 -4.46,1.08 -6.62,1.69l-0.37 0.1 -0.55 0.16 -2.44 0.73 -0.42 0.13 -1.99 0.65 -1.36 0.46 -0.23 0.08 -3.05 1.11 -0.07 0.02 -2.3 0.9 -0.84 0.34 -0.24 0.1 -2.78 1.19 -0.12 0.05 -0.52 0.23 -2.2 1.01 -0.36 0.17 -0.44 0.22 -2.08 1.02 -0.5 0.25 -0.92 0.48 -2.02 1.08 -0.08 0.04 -2.74 1.56 -0.19 0.11 -2.3 1.38 -0.39 0.24 -0.48 0.3 -1.97 1.26 -0.3 0.2 -0.22 0.15 -2.17 1.48 -0.29 0.2 -0.85 0.6 -1.78 1.29 -0.08 0.07 -0.65 0.49 -1.8 1.39 -0.02 0.01 -1.17 0.93 -1.33 1.08 -0.44 0.37 -1.74 1.49 -0.25 0.21 -1.45 1.3 -0.92 0.84 -0.75 0.7 -1.55 1.48 -0.09 0.09 -1.61 1.6 -0.54 0.55 -1.04 1.08 -1.14 1.21 -0.4 0.44 -1.52 1.68 -0.2 0.23 -1.28 1.47 -0.78 0.92 -0.67 0.81 -1.33 1.63 -0.09 0.12 -1.39 1.77 -0.45 0.59 -0.91 1.21 -0.97 1.32 -0.36 0.5 -1.29 1.84 -0.16 0.24 -1.6 2.37 -0.16 0.24 -0.58 0.9 -1.12 1.75 -0.09 0.15 -1.17 1.92 -0.37 0.62 -0.1 0.18 -1.41 2.43 -0.07 0.12 -0.31 0.55 -1.09 1.98 -0.12 0.23c-0.89,1.65 -1.73,3.31 -2.55,4.99l-0.32 0.63 -0.08 0.18 -0.97 2.04 -0.4 -0.57 -0.01 -0.02 -0.4 -0.57 -0.1 -0.13 -1.06 -1.44 -0.19 -0.25 -0.39 -0.49 -0.1 -0.14 -0.5 -0.61 -0.01 -0.02 -0.62 -0.74 -0.46 -0.55 -0.2 -0.23 -0.38 -0.43 -0.32 -0.35 -0.27 -0.31 -0.45 -0.48 -0.17 -0.19 -0.59 -0.6 -0.06 -0.07 -0.67 -0.67 -0.07 -0.06 -0.83 -0.81 -0.52 -0.49 -0.35 -0.32 -0.4 -0.36 -0.51 -0.45 -0.26 -0.23 -0.69 -0.58 -0.12 -0.11 -0.83 -0.68 -0.04 -0.02 -2.1 -1.62 -0.54 -0.4 -0.57 -0.4 -0.38 -0.27 -0.79 -0.53 -0.2 -0.14 -1 -0.65 -0.02 -0.02 -1.06 -0.66 -0.18 -0.11 -0.9 -0.55 -0.4 -0.23c-1.32,-0.77 -2.71,-1.51 -4.18,-2.25l-0.03 -0.02 -0.1 -0.05 -1.27 -0.62 -0.14 -0.07 -1.17 -0.54 -0.39 -0.18 -0.95 -0.42 -0.67 -0.28 -1.67 -0.69 -0.47 -0.19 -1.27 -0.49 -0.2 -0.08 -1.51 -0.55 -0.07 -0.02 -1.85 -0.64 -1.22 -0.4 -0.69 -0.22 -0.94 -0.29 -1.03 -0.3 -0.65 -0.19 -1.38 -0.39 -0.35 -0.09 -1.75 -0.45 -0.02 -0.01 -1.81 -0.44 -0.33 -0.08 -1.54 -0.35 -0.69 -0.15 -1.22 -0.25 -1.08 -0.22 -0.87 -0.17 -1.49 -0.27 -2 -0.34 -0.44 -0.08 -0.14 -0.02 -2.1 -0.33 -0.26 -0.03 -1.9 -0.27 -0.67 -0.09 -1.54 -0.19 -1.11 -0.13 -1.15 -0.12 -1.57 -0.16 -0.74 -0.07 -2.06 -0.19 -0.31 -0.02 -2.42 -0.18 -0.14 -0.01 -2.33 -0.15 -0.62 -0.03 -3.03 -0.14 -1.47 -0.06 -1.64 -0.05 -1 -0.02 -2.19 -0.04 -0.51 -0.01 -2.76 -0.01c-69.85,0 -140.49,57.95 -140.49,168.54l0.01 779.18c0,20.23 16.41,36.64 36.64,36.64 20.23,0 36.64,-16.41 36.64,-36.62l0 -779.2c0,-65.88 33.6,-95.25 67.2,-95.25l1.55 0.02 0.01 0 1.53 0.06 0.04 0.01 1.51 0.1 0.05 0 1.49 0.14 0.07 0.01 1.47 0.17 0.09 0.02 1.45 0.21 0.11 0.01 1.43 0.25 0.12 0.02 1.41 0.27 0.14 0.03 1.39 0.3 0.15 0.04 1.38 0.33 0.16 0.04 1.35 0.36 0.19 0.05 1.33 0.39 0.2 0.06 1.3 0.41 0.22 0.07 1.28 0.43 0.23 0.08 1.26 0.45 0.24 0.09 1.24 0.47 0.26 0.1 1.21 0.49 0.27 0.12 1.19 0.5 0.29 0.13 1.16 0.52 0.3 0.14 1.13 0.53 0.32 0.16 1.11 0.55 0.33 0.16 1.08 0.56 0.35 0.18 1.05 0.57 0.36 0.2 1.03 0.58 0.37 0.21 1 0.59 0.38 0.22 0.98 0.6 0.39 0.24 0.95 0.6 0.4 0.26 0.92 0.6 0.41 0.28 0.9 0.61 1.29 0.9 0.43 0.3 0.84 0.62 0.44 0.32 0.81 0.61 0.44 0.34 0.8 0.62 0.44 0.35 0.77 0.62 0.45 0.37 0.74 0.61 0.46 0.39 0.71 0.61 0.46 0.4 0.69 0.61 0.46 0.42 0.66 0.6 0.47 0.44 0.63 0.6 0.47 0.45 0.61 0.6 0.47 0.47 0.58 0.58 0.48 0.49 0.55 0.58 0.47 0.5 0.53 0.57 0.47 0.52 0.5 0.57 0.47 0.53 0.48 0.55 0.47 0.55 0.45 0.55 0.46 0.56 0.43 0.54 1.7 2.21 0.44 0.6 0.36 0.51 0.43 0.62 0.34 0.49 0.08 0.12 0.66 1 0.41 0.64 0.29 0.47 0.41 0.66 0.27 0.45 0.39 0.67 0.25 0.45 1.17 2.21 0.35 0.7 0.19 0.41 0.33 0.7 0.17 0.39 0.31 0.72 0.15 0.38 0.29 0.72 0.14 0.36 0.27 0.74 0.11 0.34 0.25 0.74 0.1 0.34 0.52 96.8 0 174.87c0,20.23 17.73,36.64 37.96,36.64 20.23,0 35.32,-13.77 35.32,-33.98l0 -272.52c0,-65.88 33.6,-95.25 67.2,-95.25 30.23,0 62.42,24.59 68.16,77.89l0.37 29.49 0.01 80.21 0 174.87c0,2.04 0.18,4.04 0.53,5.99l0.14 0.72c2.61,34.49 56.53,48.97 70.75,7.09 1.03,-3.04 1.66,-5.79 1.82,-9.29l0.04 -1.85 0 -25.13 0 -247.39c0,-65.88 33.6,-95.25 67.2,-95.25 27.56,0 56.74,20.43 66.04,64.43 -0.31,2.12 -0.58,4.23 -0.81,6.35l0.66 52.48 0.01 80.21 0 174.87c0,20.23 17.73,36.64 37.96,36.64 20.23,0 35.32,-13.77 35.32,-33.98l0 -6.05c0.44,-2.83 0.67,-5.94 0.67,-9.38 0,-5.06 -0.27,-27.17 -0.67,-57.6l0 -199.49c0,-65.88 33.6,-95.25 67.2,-95.25 33.34,0 69.06,29.9 69.06,95.25l0.01 417.8 0 9c0,2.17 0.11,4.29 0.35,6.35 1.93,17.23 12.06,30.42 32.72,30.42 2.3,0 4.56,-0.17 6.74,-0.54 4.96,-0.34 9.86,-1.65 14.26,-3.89 66.54,-33.86 180.56,-73.28 225.71,-54.15 7.36,2.61 12.99,8.65 15.04,16.17 13.5,41.28 -21.8,74.48 -105.9,140.34 -70.39,55.02 -150.19,117.79 -193.04,213.3 -2.22,4.99 -3.37,9.98 -3.47,15.28l0.01 -0.02zm57.29 178.86l-851.43 0c-20.22,-0.03 -36.63,-16.44 -36.63,-36.67 0,-20.23 16.41,-36.64 36.64,-36.64l851.42 0.02c20.22,-0.02 36.63,16.39 36.63,36.62 0,20.23 -16.41,36.64 -36.64,36.64l0.01 0.03zm-57.29 -178.86l0 0 0 0zm-617.37 -705.65l-0.01 -80.21 -0.2 -15.53 0.21 95.74z"/>
  </g>
  <g>
   <path class="fil0" d="M3484.68 2036.1c0.04,0.03 0.09,0.07 0.14,0.1 17.99,10.63 41.2,4.66 51.84,-13.32 7.65,-12.94 6.92,-29.18 -1.87,-41.38 -51,-69.19 -64.56,-159.59 -76.52,-239.19 -15.31,-100.95 -31.32,-205.39 -131.55,-225.61 -29.31,-6.18 -59.8,1.13 -83.45,19.52 -59.35,46.15 -78.27,163.6 -86.01,231.27 -111.02,-63.22 -356.48,-203.44 -368.93,-210.41l0 0c-57.94,-33.53 -133.53,-0.87 -168.31,60.61 -22,36.4 -25.7,70.93 -17.91,101.41 -38.06,7.77 -74.12,34.45 -95.21,71.72 -24.99,41.35 -26.37,80.32 -14.11,113.65 -34.78,9.8 -67.02,35.18 -86.48,69.59l-1.56 2.62 -0.6 1.04 -0.89 1.58 -1.15 2.08 -0.29 0.53c-1.16,2.18 -2.26,4.35 -3.3,6.51l-0.2 0.42 -1.59 3.42 -0.02 0.03 -1.12 2.57 -0.43 1 -0.25 0.62 -1.17 2.9 -0.02 0.06 -0.21 0.54 -0.95 2.55 -0.17 0.46 -0.24 0.7 -0.87 2.55 -0.19 0.56 -1.03 3.28 -0.02 0.04c-0.65,2.21 -1.25,4.42 -1.78,6.6l-0.1 0.37 -0.13 0.56 -0.57 2.48 -0.09 0.43 -0.41 2.05 -0.27 1.41 -0.05 0.24 -0.53 3.2 -0.02 0.07 -0.35 2.45 -0.12 0.9 -0.03 0.26 -0.33 3 -0.01 0.13 -0.06 0.57 -0.2 2.41 -0.03 0.4 -0.03 0.49 -0.14 2.31 -0.02 0.56 -0.04 1.04 -0.05 2.29 -0.01 0.08 0.01 3.16 0 0.22 0.07 2.68 0.02 0.46 0.02 0.56 0.13 2.34 0.03 0.36 0.02 0.26 0.22 2.62 0.03 0.35 0.1 1.03 0.25 2.19 0.02 0.1 0.11 0.81 0.32 2.25 0 0.02 0.23 1.48 0.29 1.69 0.11 0.56 0.44 2.25 0.06 0.32 0.41 1.91 0.28 1.21 0.24 1 0.53 2.08 0.03 0.12 0.6 2.19 0.21 0.74 0.43 1.43 0.49 1.59 0.19 0.57 0.71 2.15 0.11 0.28 0.64 1.84 0.42 1.13 0.38 0.99 0.76 1.96 0.06 0.13 0.86 2.09 0.29 0.68 0.6 1.39 0.68 1.49 0.25 0.56 0.97 2.03 0.13 0.26 1.28 2.55 0.13 0.26 0.49 0.95 0.98 1.84 0.08 0.15 1.1 1.96 0.35 0.63 0.11 0.18 1.42 2.42 0.07 0.12 0.33 0.54 1.19 1.92 0.14 0.22c0.99,1.59 2.03,3.14 3.08,4.68l0.4 0.59 0.11 0.15 1.3 1.85 -0.69 0.07 -0.02 0 -0.7 0.07 -0.16 0.02 -1.78 0.21 -0.31 0.05 -0.61 0.09 -0.18 0.02 -0.77 0.14 -0.03 0 -0.94 0.17 -0.71 0.13 -0.3 0.06 -0.56 0.12 -0.46 0.11 -0.4 0.08 -0.64 0.15 -0.25 0.06 -0.82 0.22 -0.09 0.01 -0.91 0.26 -0.09 0.03 -1.11 0.32 -0.68 0.21 -0.45 0.15 -0.51 0.17 -0.65 0.22 -0.32 0.12 -0.85 0.31 -0.15 0.05 -1 0.39 -0.04 0.03 -2.45 1.03 -0.61 0.27 -0.63 0.3 -0.42 0.2 -0.85 0.42 -0.22 0.11 -1.06 0.55 -0.03 0.01 -1.09 0.59 -0.19 0.11 -0.92 0.51 -0.4 0.23c-1.32,0.77 -2.64,1.62 -4.01,2.53l-0.03 0.02 -0.1 0.06 -1.16 0.8 -0.13 0.09 -1.05 0.75 -0.35 0.25 -0.83 0.62 -0.57 0.45 -1.43 1.11 -0.39 0.32 -1.05 0.86 -0.17 0.14 -1.22 1.04 -0.06 0.05 -1.46 1.3 -0.95 0.86 -0.53 0.5 -0.72 0.67 -0.77 0.75 -0.48 0.47 -1.02 1.01 -0.25 0.26 -1.26 1.3 -0.01 0.02 -1.28 1.35 -0.23 0.25 -1.06 1.17 -0.47 0.53 -0.82 0.94 -0.72 0.83 -0.58 0.67 -0.97 1.17 -1.28 1.57 -0.29 0.34 -0.08 0.11 -1.32 1.67 -0.16 0.21 -1.17 1.52 -0.41 0.54 -0.92 1.25 -0.66 0.9 -0.67 0.94 -0.91 1.29 -0.43 0.61 -1.18 1.7 -0.17 0.26 -1.35 2.02 -0.07 0.11 -1.28 1.96 -0.33 0.52 -1.62 2.57 -0.77 1.25 -0.85 1.4 -0.51 0.86 -1.12 1.89 -0.26 0.44 -1.36 2.4c-34.39,60.8 -18.73,150.81 77.53,205.26l678.22 383.59c17.61,9.96 39.97,3.75 49.93,-13.86 9.96,-17.6 3.76,-39.97 -13.84,-49.92l-678.23 -383.61c-57.34,-32.43 -66.36,-76.13 -49.82,-105.38l0.78 -1.34 0.01 -0.01 0.8 -1.3 0.03 -0.03 0.83 -1.27 0.02 -0.04 0.86 -1.23 0.04 -0.05 0.87 -1.2 0.07 -0.07 0.89 -1.16 0.07 -0.09 0.92 -1.12 0.07 -0.09 0.93 -1.1 0.1 -0.11 0.94 -1.06 0.11 -0.11 0.97 -1.04 0.11 -0.12 0.98 -0.99 0.14 -0.15 0.99 -0.96 0.15 -0.15 1 -0.93 0.17 -0.15 1 -0.9 0.19 -0.17 1.01 -0.87 0.19 -0.17 1.02 -0.84 0.22 -0.18 1.02 -0.81 0.24 -0.18 1.02 -0.79 0.26 -0.19 1.02 -0.75 0.27 -0.19 1.02 -0.72 0.29 -0.2 1.03 -0.7 0.3 -0.21 1.02 -0.66 0.33 -0.22 1.01 -0.63 0.35 -0.22 1.01 -0.61 0.37 -0.22 1.01 -0.58 0.37 -0.22 1.01 -0.56 0.4 -0.22 0.99 -0.53 0.42 -0.22 0.98 -0.5 0.44 -0.22 0.98 -0.49 1.42 -0.68 0.47 -0.22 0.95 -0.43 0.5 -0.22 0.93 -0.41 0.51 -0.22 0.93 -0.39 0.52 -0.21 0.92 -0.36 0.55 -0.21 0.89 -0.35 0.57 -0.2 0.88 -0.32 0.57 -0.2 0.87 -0.3 0.6 -0.2 0.84 -0.28 0.62 -0.19 0.83 -0.25 0.62 -0.19 0.83 -0.24 0.64 -0.17 0.79 -0.22 0.66 -0.18 0.77 -0.19 0.67 -0.17 0.76 -0.18 0.68 -0.15 0.74 -0.15 0.7 -0.15 0.71 -0.15 0.71 -0.14 0.7 -0.12 0.72 -0.12 0.68 -0.11 2.76 -0.39 0.74 -0.09 0.62 -0.06 0.75 -0.07 0.59 -0.06 0.15 -0.01 1.19 -0.08 0.76 -0.04 0.55 -0.02 0.78 -0.03 0.53 -0.02 0.77 -0.01 0.52 0.01 2.49 0.07 0.79 0.04 0.45 0.03 0.77 0.06 0.42 0.04 0.78 0.09 0.41 0.05 0.77 0.11 0.38 0.05 0.77 0.13 0.35 0.07 0.77 0.15 0.35 0.08 84.51 47.2 152.21 86.09c17.61,9.96 40.62,2.61 50.58,-15 9.96,-17.61 5.4,-37.52 -12.19,-47.47l-237.21 -134.17c-57.34,-32.43 -66.36,-76.13 -49.82,-105.38 14.88,-26.31 52.13,-42.23 101.35,-20.98l25.85 14.19 69.83 39.48 152.21 86.09c1.77,1.01 3.6,1.84 5.47,2.49l0.7 0.23c31.3,14.71 70.45,-25.09 41,-58.09 -2.14,-2.39 -4.22,-4.29 -7.19,-6.15l-1.59 -0.95 -21.88 -12.37 -215.33 -121.8c-57.34,-32.43 -66.36,-76.13 -49.82,-105.38 13.57,-23.99 45.71,-39.33 88.59,-25.76 1.69,1.31 3.4,2.58 5.13,3.83l46 25.26 69.82 39.48 152.22 86.09c17.6,9.96 40.62,2.61 50.58,-15 9.95,-17.61 5.4,-37.52 -12.19,-47.47l-5.27 -2.98c-2.25,-1.78 -4.84,-3.51 -7.83,-5.2 -4.41,-2.49 -23.79,-13.14 -50.47,-27.78l-173.64 -98.21c-57.34,-32.43 -66.37,-76.14 -49.82,-105.38 16.41,-29.02 60.02,-45.39 116.9,-13.22l363.67 205.68 7.83 4.43c1.89,1.07 3.79,2.01 5.7,2.82 15.95,6.8 32.42,4.48 42.59,-13.5 1.13,-2.01 2.1,-4.06 2.85,-6.14 2.14,-4.48 3.41,-9.39 3.63,-14.32 3.29,-74.59 25.11,-193.24 63.99,-223.12 5.89,-5.13 13.92,-7.05 21.48,-5.14 42.57,8.58 54.09,55.65 70.02,161.27 13.23,88.36 28.58,188.72 90.62,273.04 3.25,4.39 7.03,7.85 11.59,10.54l-0.01 -0.02zm183.89 38.19l-419.17 741.1c-9.98,17.59 -32.35,23.79 -49.95,13.83 -17.61,-9.96 -23.82,-32.32 -13.86,-49.93l419.18 -741.08c9.94,-17.61 32.3,-23.81 49.91,-13.85 17.61,9.95 23.82,32.32 13.86,49.93l0.03 0zm-183.89 -38.19l0 0 0 0zm-918.15 189.97l-69.82 -39.48 -13.62 -7.47 83.44 46.95z"/>
  </g>
  <g>
   <path class="fil0" d="M532.81 2650.46c-0.04,0.03 -0.1,0.04 -0.15,0.07 -19.1,8.48 -27.71,30.85 -19.23,49.94 6.1,13.74 19.76,22.57 34.79,22.49 85.94,-1.41 167.44,39.99 239.21,76.43 91.11,46.1 185.47,93.65 260.09,23.73 22.03,-20.28 33.77,-49.36 32.51,-79.29 -3.16,-75.11 -87.85,-158.66 -138.48,-204.22 115.9,-53.75 372.52,-172.34 385.41,-178.44l0 0c60.93,-27.74 78.18,-108.25 48.27,-172.25 -16.88,-39.03 -42.86,-62.08 -72.2,-73.43 15.75,-35.49 14.94,-80.35 -3.19,-119.14 -19.18,-44.35 -50.12,-68.08 -84.38,-77.43 12.19,-34.02 10.23,-75 -6.51,-110.82l-1.23 -2.78 -0.5 -1.1 -0.77 -1.64 -1.03 -2.14 -0.26 -0.54c-1.1,-2.22 -2.23,-4.37 -3.39,-6.48l-0.22 -0.4 -1.86 -3.28 -0.02 -0.03 -1.44 -2.4 -0.57 -0.93 -0.36 -0.57 -1.69 -2.63 -0.03 -0.05 -0.31 -0.49 -1.53 -2.25 -0.28 -0.41 -0.42 -0.6 -1.58 -2.19 -0.34 -0.48 -2.08 -2.74 -0.03 -0.04c-1.42,-1.81 -2.87,-3.58 -4.33,-5.28l-0.25 -0.29 -0.38 -0.43 -1.69 -1.9 -0.3 -0.33 -1.43 -1.53 -0.99 -1.03 -0.17 -0.18 -2.3 -2.29 -0.05 -0.06 -1.79 -1.7 -0.66 -0.62 -0.19 -0.17 -2.26 -2.02 -0.09 -0.08 -0.43 -0.38 -1.85 -1.56 -0.3 -0.26 -0.39 -0.3 -1.8 -1.46 -0.44 -0.34 -0.83 -0.63 -1.83 -1.38 -0.07 -0.05 -2.57 -1.82 -0.18 -0.13 -2.23 -1.5 -0.38 -0.25 -0.48 -0.31 -1.97 -1.25 -0.31 -0.19 -0.23 -0.13 -2.26 -1.34 -0.3 -0.18 -0.91 -0.52 -1.92 -1.06 -0.1 -0.04 -0.71 -0.39 -2.03 -1.04 -0.01 -0.01 -1.34 -0.67 -1.54 -0.75 -0.52 -0.24 -2.09 -0.94 -0.3 -0.14 -1.79 -0.76 -1.15 -0.48 -0.95 -0.39 -2 -0.77 -0.12 -0.05 -2.13 -0.78 -0.73 -0.25 -1.41 -0.49 -1.58 -0.52 -0.57 -0.18 -2.17 -0.66 -0.29 -0.09 -1.87 -0.53 -1.17 -0.32 -1.01 -0.26 -2.04 -0.52 -0.15 -0.03 -2.19 -0.51 -0.73 -0.16 -1.48 -0.31 -1.61 -0.32 -0.6 -0.11 -2.21 -0.39 -0.29 -0.05 -2.82 -0.44 -0.29 -0.05 -1.06 -0.14 -2.06 -0.27 -0.17 -0.02 -2.24 -0.25 -0.72 -0.07 -0.2 -0.02 -2.8 -0.25 -0.14 -0.01 -0.63 -0.05 -2.25 -0.14 -0.26 -0.02c-1.87,-0.1 -3.73,-0.16 -5.6,-0.19l-0.71 -0.03 -0.2 0.01 -2.26 -0.02 0.35 -0.6 0.02 -0.02 0.34 -0.6 0.08 -0.15 0.85 -1.57 0.15 -0.28 0.28 -0.56 0.08 -0.15 0.34 -0.71 0.02 -0.02 0.41 -0.87 0.3 -0.65 0.12 -0.28 0.23 -0.53 0.18 -0.43 0.17 -0.38 0.24 -0.61 0.1 -0.24 0.3 -0.78 0.04 -0.09 0.32 -0.89 0.02 -0.09 0.39 -1.09 0.22 -0.68 0.14 -0.45 0.16 -0.52 0.19 -0.65 0.1 -0.33 0.23 -0.87 0.05 -0.16 0.27 -1.04 0 -0.04 0.58 -2.59 0.13 -0.66 0.12 -0.69 0.08 -0.46 0.15 -0.94 0.04 -0.24 0.17 -1.18 0.01 -0.02 0.15 -1.24 0.02 -0.21 0.12 -1.05 0.04 -0.46c0.14,-1.52 0.22,-3.1 0.27,-4.74l0 -0.04 0 -0.11 0.03 -1.41 0 -0.16 0 -1.29 -0.01 -0.43 -0.02 -1.03 -0.03 -0.73 -0.08 -1.8 -0.03 -0.51 -0.09 -1.36 -0.01 -0.21 -0.14 -1.6 -0.02 -0.08 -0.2 -1.94 -0.15 -1.28 -0.1 -0.72 -0.13 -0.97 -0.17 -1.06 -0.1 -0.67 -0.23 -1.42 -0.07 -0.35 -0.33 -1.78 0 -0.02 -0.37 -1.83 -0.06 -0.33 -0.34 -1.54 -0.15 -0.69 -0.29 -1.21 -0.26 -1.07 -0.22 -0.86 -0.38 -1.47 -0.54 -1.95 -0.12 -0.44 -0.04 -0.13 -0.59 -2.04 -0.08 -0.25 -0.56 -1.84 -0.2 -0.64 -0.48 -1.48 -0.35 -1.06 -0.38 -1.09 -0.52 -1.49 -0.25 -0.7 -0.7 -1.95 -0.11 -0.29 -0.87 -2.27 -0.05 -0.13 -0.85 -2.17 -0.23 -0.58 -1.16 -2.8 -0.57 -1.36 -0.65 -1.5 -0.4 -0.92 -0.89 -2 -0.21 -0.47 -1.16 -2.5c-29.57,-63.28 -111.98,-102.74 -212.17,-55.92l-705.9 329.88c-18.32,8.57 -26.24,30.38 -17.68,48.71 8.57,18.33 30.38,26.25 48.69,17.69l705.92 -329.89c59.69,-27.89 100.52,-9.88 114.74,20.56l0.64 1.41 0.01 0.01 0.59 1.41 0.01 0.04 0.55 1.41 0.02 0.05 0.5 1.41 0.02 0.06 0.47 1.41 0.02 0.09 0.42 1.4 0.04 0.1 0.38 1.41 0.03 0.11 0.36 1.4 0.03 0.13 0.31 1.39 0.03 0.15 0.29 1.39 0.03 0.17 0.24 1.37 0.04 0.19 0.21 1.37 0.03 0.21 0.18 1.35 0.03 0.23 0.15 1.34 0.03 0.25 0.12 1.33 0.02 0.25 0.1 1.33 0.02 0.27 0.07 1.31 0 0.29 0.05 1.29 0.01 0.32 0.02 1.27 0 0.33 0 1.25 -0.01 0.36 -0.03 1.24 0 0.36 -0.05 1.22 -0.02 0.39 -0.07 1.19 -0.03 0.41 -0.09 1.18 -0.03 0.43 -0.11 1.15 -0.04 0.44 -0.13 1.14 -0.05 0.46 -0.15 1.11 -0.06 0.47 -0.16 1.09 -0.08 0.49 -0.17 1.08 -0.27 1.55 -0.09 0.51 -0.2 1.03 -0.11 0.53 -0.21 0.99 -0.12 0.54 -0.22 0.99 -0.13 0.55 -0.24 0.96 -0.14 0.56 -0.24 0.93 -0.16 0.58 -0.25 0.9 -0.17 0.59 -0.26 0.88 -0.19 0.6 -0.26 0.85 -0.2 0.61 -0.28 0.83 -0.2 0.61 -0.29 0.81 -0.23 0.63 -0.28 0.77 -0.24 0.64 -0.29 0.74 -0.25 0.64 -0.3 0.72 -0.27 0.65 -0.3 0.69 -0.28 0.65 -0.3 0.67 -0.3 0.66 -0.31 0.64 -0.31 0.65 -0.31 0.62 -1.28 2.48 -0.36 0.65 -0.31 0.54 -0.38 0.65 -0.3 0.52 -0.07 0.12 -0.63 1.02 -0.4 0.65 -0.31 0.46 -0.42 0.65 -0.29 0.43 -0.45 0.64 -0.3 0.42 -1.5 1.99 -0.49 0.62 -0.29 0.34 -0.5 0.6 -0.28 0.32 -0.52 0.58 -0.28 0.3 -0.53 0.57 -0.27 0.28 -0.55 0.55 -0.26 0.25 -0.57 0.54 -0.26 0.23 -87.48 41.45 -158.42 74.04c-18.33,8.56 -25.69,31.57 -17.13,49.9 8.57,18.33 27.43,26.17 45.74,17.61l246.89 -115.37c59.69,-27.89 100.52,-9.89 114.74,20.55 12.8,27.39 4.15,66.96 -41.7,94.73l-26.56 12.82 -72.67 33.97 -158.42 74.03c-1.85,0.86 -3.59,1.87 -5.2,3.02l-0.6 0.43c-30.14,16.96 -20.43,71.94 23.53,67.1 3.19,-0.36 5.95,-0.95 9.19,-2.29l1.69 -0.75 22.77 -10.63 224.12 -104.74c59.69,-27.89 100.52,-9.89 114.75,20.55 11.67,24.97 5.51,60.06 -30.41,87.11 -2.06,0.62 -4.08,1.27 -6.1,1.96l-47.27 22.81 -72.66 33.97 -158.42 74.03c-18.33,8.57 -25.69,31.58 -17.13,49.91 8.57,18.32 27.43,26.16 45.74,17.61l5.48 -2.56c2.75,-0.8 5.67,-1.91 8.78,-3.37 4.59,-2.14 24.5,-11.75 51.9,-24.99l180.73 -84.46c59.69,-27.89 100.52,-9.88 114.75,20.56 14.11,30.2 2.14,75.22 -57.06,102.89l-378.5 176.89 -8.16 3.81c-1.96,0.92 -3.84,1.92 -5.6,3.01 -14.8,9.04 -22.46,23.8 -13.71,42.52 0.97,2.08 2.08,4.06 3.34,5.87 2.41,4.35 5.67,8.24 9.56,11.28 58.85,45.94 142.84,132.55 144.62,181.56 0.75,7.77 -2.34,15.43 -8.28,20.47 -31.68,29.7 -76.71,11.78 -171.98,-36.53 -79.65,-40.48 -170.3,-86.2 -274.97,-84.58 -5.46,0.1 -10.46,1.17 -15.31,3.32l0.02 0zm-137.78 127.63l-360.47 -771.36c-8.53,-18.33 -0.61,-40.15 17.72,-48.71 18.32,-8.57 40.14,-0.65 48.7,17.68l360.45 771.36c8.57,18.31 0.66,40.13 -17.67,48.69 -18.33,8.57 -40.14,0.65 -48.71,-17.68l-0.02 0.02zm137.78 -127.63l0 0 0 0zm377.92 -858.06l72.66 -33.96 13.99 -6.76 -86.65 40.72z"/>
  </g>
  <g>
   <path class="fil0" d="M2520.43 328.55c0.03,-0.04 0.08,-0.08 0.11,-0.13 13.26,-16.15 10.91,-40 -5.24,-53.26 -11.62,-9.54 -27.78,-11.3 -41.18,-4.48 -76.16,39.83 -167.58,39.42 -248.07,39.07 -102.1,-0.29 -207.76,-0.43 -243.06,95.54 -10.58,28.02 -8.02,59.28 6.54,85.46 36.54,65.69 149.72,102.34 215.42,120.33 -79.45,100.05 -255.53,321.21 -264.31,332.45l0 0c-41.99,52.13 -21.27,131.83 34.18,175.59 32.61,27.3 66.17,36.24 97.48,33.2 1.86,38.79 22.72,78.52 56.33,105.04 37.05,31.03 75.35,38.34 110.16,31.31 4.38,35.88 24.53,71.62 55.56,96.11l2.36 1.93 0.93 0.75 1.42 1.13 1.88 1.45 0.48 0.37c1.98,1.48 3.95,2.9 5.93,4.26l0.38 0.26 3.14 2.1 0.03 0.02 2.36 1.5 0.93 0.57 0.58 0.35 2.69 1.59 0.05 0.03 0.5 0.29 2.37 1.33 0.44 0.24 0.64 0.35 2.39 1.25 0.53 0.27 3.08 1.52 0.05 0.02c2.08,0.98 4.17,1.91 6.24,2.77l0.35 0.15 0.53 0.22 2.37 0.94 0.41 0.16 1.97 0.72 1.35 0.48 0.23 0.08 3.08 1.02 0.07 0.03 2.36 0.71 0.87 0.26 0.25 0.07 2.92 0.79 0.13 0.03 0.55 0.14 2.35 0.57 0.39 0.09 0.48 0.1 2.26 0.49 0.55 0.11 1.02 0.2 2.26 0.4 0.08 0.02 3.12 0.47 0.22 0.03 2.66 0.35 0.45 0.05 0.57 0.06 2.32 0.23 0.36 0.03 0.27 0.02 2.62 0.18 0.35 0.02 1.04 0.06 2.19 0.09 0.11 -0.01 0.81 0.02 2.28 0.03 0.02 0 1.5 0 1.71 -0.03 0.57 -0.02 2.29 -0.09 0.33 -0.01 1.94 -0.12 1.24 -0.09 1.03 -0.08 2.13 -0.21 0.13 -0.01 2.25 -0.26 0.77 -0.1 1.48 -0.2 1.65 -0.24 0.58 -0.1 2.24 -0.38 0.3 -0.05 1.91 -0.36 1.18 -0.24 1.03 -0.22 2.06 -0.46 0.14 -0.04 2.19 -0.53 0.72 -0.18 1.46 -0.39 1.58 -0.43 0.59 -0.17 2.16 -0.65 0.27 -0.09 2.72 -0.87 0.28 -0.08 1.01 -0.35 1.96 -0.68 0.17 -0.06 2.11 -0.79 0.67 -0.25 0.19 -0.08 2.61 -1.04 0.13 -0.05 0.59 -0.24 2.08 -0.88 0.24 -0.1c1.72,-0.75 3.4,-1.53 5.09,-2.34l0.64 -0.3 0.17 -0.09 2.03 -1 -0.04 0.7 0 0.02 -0.04 0.69 -0.01 0.17 -0.06 1.79 0 0.31 0 0.63 -0.01 0.17 0.02 0.79 -0.01 0.02 0.03 0.96 0.02 0.72 0.02 0.3 0.03 0.58 0.03 0.47 0.02 0.41 0.06 0.66 0.01 0.25 0.1 0.84 0 0.09 0.11 0.94 0.02 0.09 0.15 1.15 0.1 0.71 0.08 0.47 0.09 0.53 0.12 0.66 0.06 0.35 0.18 0.88 0.03 0.16 0.23 1.05 0.02 0.04 0.65 2.57 0.17 0.65 0.2 0.67 0.13 0.44 0.29 0.91 0.07 0.23 0.39 1.13 0 0.03 0.42 1.18 0.08 0.19 0.36 0.99 0.17 0.43c0.56,1.42 1.19,2.87 1.89,4.36l0.01 0.03 0.05 0.1 0.61 1.28 0.07 0.14 0.58 1.15 0.2 0.38 0.48 0.92 0.35 0.63 0.89 1.58 0.25 0.44 0.69 1.17 0.11 0.19 0.84 1.36 0.05 0.06 1.05 1.65 0.71 1.07 0.41 0.6 0.56 0.81 0.62 0.88 0.39 0.55 0.84 1.16 0.22 0.29 1.1 1.43 0.01 0.02 1.15 1.47 0.2 0.27 1 1.23 0.45 0.54 0.8 0.95 0.71 0.85 0.58 0.67 1 1.13 1.36 1.51 0.29 0.33 0.1 0.11 1.45 1.56 0.18 0.18 1.33 1.39 0.47 0.49 1.09 1.1 0.79 0.79 0.83 0.81 1.13 1.09 0.54 0.52 1.5 1.42 0.23 0.21 1.79 1.64 0.1 0.1 1.74 1.56 0.46 0.4 2.3 1.99 1.11 0.96 1.26 1.05 0.77 0.64 1.7 1.39 0.39 0.32 2.16 1.72c54.83,43.27 146.18,41.55 214.7,-45.26l482.71 -611.65c12.53,-15.88 9.82,-38.93 -6.06,-51.46 -15.88,-12.53 -38.93,-9.82 -51.45,6.05l-482.74 611.65c-40.81,51.72 -85.38,53.95 -111.76,33.14l-1.2 -0.98 -0.01 0 -1.16 -1 -0.03 -0.03 -1.12 -1.02 -0.04 -0.03 -1.08 -1.03 -0.05 -0.05 -1.05 -1.04 -0.06 -0.08 -1.01 -1.06 -0.08 -0.08 -0.96 -1.08 -0.09 -0.09 -0.94 -1.08 -0.09 -0.11 -0.9 -1.1 -0.09 -0.12 -0.88 -1.12 -0.1 -0.13 -0.84 -1.12 -0.12 -0.15 -0.8 -1.13 -0.12 -0.18 -0.77 -1.12 -0.13 -0.19 -0.74 -1.13 -0.13 -0.21 -0.71 -1.13 -0.13 -0.22 -0.68 -1.14 -0.14 -0.24 -0.65 -1.13 -0.14 -0.27 -0.62 -1.13 -0.15 -0.28 -0.59 -1.12 -0.15 -0.3 -0.55 -1.12 -0.16 -0.32 -0.53 -1.12 -0.16 -0.33 -0.5 -1.11 -0.16 -0.36 -0.47 -1.09 -0.16 -0.38 -0.45 -1.1 -0.16 -0.39 -0.42 -1.08 -0.16 -0.41 -0.4 -1.08 -0.16 -0.43 -0.37 -1.06 -0.15 -0.45 -0.35 -1.04 -0.15 -0.48 -0.33 -1.03 -0.46 -1.51 -0.15 -0.5 -0.27 -1.01 -0.15 -0.52 -0.26 -0.98 -0.13 -0.54 -0.25 -0.98 -0.13 -0.55 -0.22 -0.96 -0.12 -0.57 -0.2 -0.94 -0.12 -0.59 -0.18 -0.92 -0.12 -0.6 -0.16 -0.91 -0.1 -0.61 -0.15 -0.88 -0.09 -0.64 -0.13 -0.86 -0.09 -0.64 -0.1 -0.85 -0.08 -0.66 -0.1 -0.82 -0.07 -0.68 -0.07 -0.79 -0.06 -0.69 -0.06 -0.77 -0.05 -0.7 -0.04 -0.76 -0.04 -0.71 -0.04 -0.73 -0.03 -0.72 -0.01 -0.71 -0.01 -0.72 -0.01 -0.7 0.04 -2.78 0.03 -0.75 0.03 -0.62 0.05 -0.75 0.03 -0.6 0.01 -0.14 0.11 -1.2 0.07 -0.75 0.06 -0.55 0.09 -0.77 0.07 -0.52 0.11 -0.77 0.08 -0.51 0.45 -2.46 0.16 -0.77 0.1 -0.43 0.18 -0.76 0.11 -0.41 0.2 -0.76 0.12 -0.39 0.22 -0.74 0.11 -0.37 0.24 -0.75 0.13 -0.34 0.26 -0.73 0.13 -0.33 59.57 -76.31 108.33 -137.27c12.53,-15.88 8.78,-39.74 -7.1,-52.28 -15.88,-12.53 -36.25,-11.07 -48.77,4.8l-168.84 213.92c-40.81,51.71 -85.38,53.95 -111.76,33.14 -23.73,-18.73 -33.76,-57.98 -5.25,-103.37l17.98 -23.38 49.69 -62.97 108.33 -137.27c1.27,-1.6 2.36,-3.28 3.3,-5.03l0.33 -0.65c19.32,-28.69 -14.03,-73.46 -51.14,-49.4 -2.69,1.75 -4.89,3.52 -7.18,6.17l-1.18 1.42 -15.57 19.73 -153.26 194.2c-40.82,51.71 -85.39,53.95 -111.76,33.13 -21.64,-17.07 -31.89,-51.19 -11.93,-91.49 1.56,-1.47 3.08,-2.96 4.57,-4.48l32 -41.6 49.68 -62.97 108.34 -137.27c12.53,-15.88 8.78,-39.75 -7.1,-52.28 -15.88,-12.53 -36.26,-11.07 -48.78,4.79l-3.75 4.75c-2.1,1.95 -4.2,4.25 -6.34,6.95 -3.13,3.97 -16.62,21.49 -35.15,45.63l-123.59 156.59c-40.82,51.72 -85.39,53.96 -111.76,33.14 -26.17,-20.65 -35.69,-66.25 4.8,-117.55l258.83 -327.97 5.57 -7.07c1.35,-1.7 2.57,-3.43 3.66,-5.2 9.16,-14.72 9.38,-31.35 -6.84,-44.15 -1.8,-1.42 -3.68,-2.69 -5.62,-3.75 -4.11,-2.81 -8.77,-4.81 -13.61,-5.78 -73.21,-14.65 -187.13,-54.34 -210.72,-97.33 -4.16,-6.61 -4.84,-14.84 -1.79,-22.01 14.98,-40.77 63.25,-44.96 170.07,-44.56 89.34,0.42 190.87,0.59 283.68,-47.84 4.83,-2.54 8.83,-5.74 12.19,-9.84l-0.02 0.01zm65.84 -175.9l668.35 527.48c15.85,12.55 18.57,35.6 6.04,51.48 -12.54,15.88 -35.59,18.6 -51.47,6.06l-668.33 -527.49c-15.88,-12.51 -18.6,-35.56 -6.07,-51.44 12.54,-15.88 35.58,-18.59 51.46,-6.06l0.02 -0.03zm-65.84 175.9l0 0 0 0zm47.46 936.39l-49.69 62.97 -9.46 12.32 59.15 -75.29z"/>
  </g>
  <g>
   <path class="fil0" d="M618.04 713.28c-0.03,-0.04 -0.05,-0.09 -0.08,-0.14 -10.75,-17.92 -34.01,-23.73 -51.92,-12.98 -12.89,7.73 -19.99,22.36 -18.07,37.28 11.9,85.12 -19.24,171.07 -46.64,246.75 -34.61,96.06 -70.28,195.52 8.22,261.03 22.83,19.39 53.12,27.5 82.68,22.59 74.16,-12.32 146.73,-106.57 185.77,-162.4 67.51,108.48 216.56,348.68 224.18,360.73l0 0c34.98,57.08 117,64.37 176.87,26.87 36.67,-21.53 56.37,-50.13 64.05,-80.64 37.16,11.3 81.58,5.02 117.87,-17.71 41.67,-24.46 61.44,-58.07 66.53,-93.21 35.26,7.94 75.69,0.98 109.19,-20l2.62 -1.57 1.02 -0.63 1.54 -0.96 2 -1.28 0.51 -0.33c2.06,-1.36 4.06,-2.74 6.01,-4.15l0.37 -0.27 3.03 -2.25 0.02 -0.02 2.21 -1.72 0.85 -0.68 0.52 -0.43 2.41 -1.99 0.05 -0.04 0.44 -0.38 2.05 -1.79 0.37 -0.33 0.55 -0.49 1.98 -1.83 0.43 -0.4 2.46 -2.39 0.04 -0.04c1.62,-1.63 3.21,-3.28 4.71,-4.95l0.26 -0.28 0.39 -0.42 1.68 -1.92 0.28 -0.33 1.34 -1.61 0.91 -1.11 0.16 -0.19 1.99 -2.56 0.05 -0.05 1.47 -1.99 0.53 -0.73 0.15 -0.21 1.73 -2.49 0.07 -0.1 0.32 -0.48 1.33 -2.02 0.21 -0.33 0.26 -0.42 1.22 -1.97 0.29 -0.48 0.53 -0.9 1.14 -1.98 0.04 -0.08 1.5 -2.78 0.1 -0.19 1.21 -2.39 0.21 -0.41 0.25 -0.51 1 -2.11 0.14 -0.33 0.11 -0.25 1.05 -2.4 0.14 -0.33 0.41 -0.96 0.82 -2.03 0.03 -0.11 0.29 -0.76 0.79 -2.13 0.01 -0.02 0.5 -1.41 0.55 -1.62 0.18 -0.55 0.68 -2.18 0.1 -0.31 0.54 -1.87 0.33 -1.21 0.27 -0.99 0.53 -2.07 0.02 -0.13 0.52 -2.21 0.16 -0.75 0.31 -1.47 0.33 -1.63 0.1 -0.58 0.4 -2.23 0.05 -0.31 0.3 -1.92 0.17 -1.19 0.14 -1.05 0.26 -2.08 0.01 -0.15 0.24 -2.24 0.07 -0.74 0.13 -1.51 0.12 -1.63 0.04 -0.62 0.12 -2.24 0.01 -0.29 0.09 -2.86 0.01 -0.29 0.02 -1.07 0.02 -2.07 -0.01 -0.18 -0.03 -2.25 -0.01 -0.72 -0.01 -0.21 -0.1 -2.8 0 -0.14 -0.03 -0.63 -0.13 -2.26 -0.02 -0.26c-0.12,-1.87 -0.29,-3.72 -0.49,-5.58l-0.06 -0.7 -0.03 -0.2 -0.26 -2.24 0.64 0.27 0.02 0.01 0.64 0.27 0.16 0.06 1.66 0.65 0.29 0.12 0.59 0.2 0.16 0.07 0.75 0.25 0.02 0.01 0.92 0.3 0.68 0.22 0.29 0.09 0.55 0.16 0.46 0.13 0.39 0.12 0.64 0.17 0.24 0.07 0.82 0.19 0.09 0.03 0.92 0.21 0.09 0.02 1.14 0.24 0.7 0.14 0.47 0.09 0.53 0.09 0.67 0.11 0.34 0.06 0.89 0.12 0.16 0.03 1.07 0.14 0.04 -0.01 2.64 0.26 0.67 0.05 0.7 0.04 0.46 0.03 0.95 0.03 0.25 0.01 1.19 0.02 0.03 0.01 1.24 -0.01 0.22 0 1.05 -0.01 0.46 -0.02c1.53,-0.05 3.1,-0.16 4.74,-0.31l0.03 0 0.12 -0.01 1.4 -0.15 0.16 -0.01 1.27 -0.17 0.43 -0.05 1.03 -0.15 0.72 -0.12 1.78 -0.3 0.5 -0.09 1.33 -0.26 0.21 -0.04 1.58 -0.33 0.07 -0.02 1.9 -0.44 1.25 -0.31 0.7 -0.18 0.95 -0.25 1.03 -0.3 0.66 -0.18 1.37 -0.4 0.35 -0.11 1.72 -0.55 0.02 0 1.77 -0.59 0.32 -0.11 1.49 -0.52 0.67 -0.24 1.16 -0.43 1.03 -0.39 0.83 -0.32 1.41 -0.56 1.87 -0.77 0.42 -0.17 0.13 -0.06 1.95 -0.83 0.24 -0.11 1.75 -0.78 0.62 -0.28 1.4 -0.66 1.01 -0.48 1.04 -0.51 1.42 -0.7 0.66 -0.33 1.85 -0.93 0.27 -0.15 2.15 -1.13 0.12 -0.07 2.06 -1.11 0.54 -0.3 2.64 -1.49 1.28 -0.73 1.41 -0.83 0.86 -0.51 1.88 -1.13 0.44 -0.26 2.34 -1.46c59.19,-37.08 88.29,-123.69 29.59,-217.41l-413.66 -660.31c-10.74,-17.15 -33.36,-22.34 -50.5,-11.6 -17.15,10.74 -22.34,33.35 -11.61,50.48l413.66 660.33c34.97,55.83 22.09,98.56 -6.39,116.4l-1.32 0.81 -0.01 0 -1.33 0.76 -0.04 0.01 -1.33 0.72 -0.04 0.03 -1.34 0.67 -0.06 0.03 -1.34 0.64 -0.09 0.03 -1.34 0.59 -0.1 0.05 -1.34 0.55 -0.11 0.04 -1.34 0.52 -0.14 0.05 -1.33 0.48 -0.15 0.05 -1.35 0.45 -0.15 0.05 -1.34 0.42 -0.19 0.05 -1.33 0.38 -0.2 0.06 -1.32 0.34 -0.22 0.06 -1.32 0.31 -0.23 0.05 -1.31 0.29 -0.25 0.05 -1.3 0.26 -0.28 0.06 -1.28 0.22 -0.29 0.05 -1.28 0.2 -0.31 0.05 -1.26 0.17 -0.33 0.04 -1.24 0.15 -0.36 0.04 -1.23 0.12 -0.36 0.04 -1.22 0.1 -0.39 0.03 -1.19 0.08 -0.41 0.02 -1.18 0.05 -0.43 0.02 -1.16 0.03 -0.44 0.02 -1.15 0.01 -0.45 0 -1.13 0 -0.47 -0.01 -1.1 -0.02 -0.5 -0.02 -1.09 -0.04 -1.57 -0.07 -0.52 -0.03 -1.04 -0.08 -0.54 -0.04 -1.01 -0.08 -0.56 -0.06 -1 -0.1 -0.56 -0.06 -0.98 -0.12 -0.58 -0.07 -0.95 -0.13 -0.6 -0.08 -0.93 -0.14 -0.6 -0.1 -0.91 -0.15 -0.61 -0.11 -0.88 -0.16 -0.63 -0.12 -0.85 -0.18 -0.64 -0.13 -0.83 -0.18 -0.65 -0.15 -0.8 -0.19 -0.67 -0.16 -0.77 -0.2 -0.67 -0.17 -0.75 -0.2 -0.67 -0.19 -0.73 -0.22 -0.68 -0.2 -0.7 -0.21 -0.69 -0.22 -0.67 -0.23 -0.69 -0.23 -0.65 -0.23 -2.61 -0.97 -0.69 -0.27 -0.58 -0.24 -0.69 -0.3 -0.55 -0.23 -0.13 -0.06 -1.09 -0.5 -0.69 -0.32 -0.5 -0.25 -0.69 -0.34 -0.47 -0.24 -0.69 -0.36 -0.45 -0.25 -2.16 -1.25 -0.67 -0.41 -0.38 -0.24 -0.65 -0.42 -0.35 -0.24 -0.65 -0.45 -0.33 -0.24 -0.62 -0.46 -0.31 -0.23 -0.63 -0.48 -0.27 -0.23 -0.6 -0.49 -0.27 -0.24 -51.83 -81.76 -92.83 -148.19c-10.74,-17.14 -34.48,-21.64 -51.62,-10.9 -17.15,10.74 -22.62,30.42 -11.9,47.55l144.68 230.94c34.97,55.83 22.09,98.56 -6.38,116.4 -25.62,16.05 -65.96,12.3 -99.12,-29.82l-15.97 -24.8 -42.59 -67.97 -92.83 -148.19c-1.08,-1.73 -2.3,-3.33 -3.63,-4.8l-0.5 -0.53c-20.52,-27.85 -73.9,-11.49 -63.72,31.55 0.74,3.12 1.67,5.79 3.39,8.84l0.95 1.59 13.34 21.29 131.33 209.65c34.97,55.83 22.09,98.56 -6.38,116.4 -23.36,14.63 -58.93,12.81 -90.17,-19.54 -0.86,-1.97 -1.76,-3.9 -2.69,-5.82l-28.42 -44.12 -42.59 -67.97 -92.83 -148.19c-10.74,-17.15 -34.48,-21.64 -51.62,-10.9 -17.14,10.74 -22.62,30.42 -11.89,47.55l3.21 5.12c1.13,2.64 2.58,5.39 4.41,8.31 2.69,4.29 14.65,22.88 31.15,48.46l105.9 169.05c34.97,55.83 22.09,98.56 -6.38,116.4 -28.26,17.7 -74.4,11.32 -109.09,-44.06l-221.81 -354.06 -4.78 -7.63c-1.15,-1.84 -2.37,-3.57 -3.67,-5.19 -10.78,-13.58 -26.37,-19.38 -43.87,-8.41 -1.95,1.22 -3.78,2.56 -5.43,4.03 -4.02,2.93 -7.48,6.64 -10.02,10.87 -38.41,64.02 -114.11,157.96 -162.53,165.71 -7.62,1.7 -15.6,-0.43 -21.33,-5.71 -33.36,-27.82 -21.07,-74.7 15.24,-175.16 30.45,-83.99 64.75,-179.55 50.36,-283.24 -0.77,-5.4 -2.44,-10.24 -5.17,-14.79l0 0.02zm-143.5 -121.16l721.54 -452c17.15,-10.71 39.77,-5.51 50.51,11.63 10.74,17.15 5.55,39.76 -11.6,50.5l-721.55 451.98c-17.12,10.75 -39.74,5.56 -50.48,-11.58 -10.74,-17.15 -5.54,-39.77 11.6,-50.51l-0.02 -0.02zm143.5 121.16l0 0 0 0zm897.8 270.26l42.59 67.97 8.42 13.06 -51.01 -81.03z"/>
  </g>
 </g>
</svg>
