<?xml version="1.0" encoding="UTF-8"?>
<!DOCTYPE svg PUBLIC "-//W3C//DTD SVG 1.1//EN" "http://www.w3.org/Graphics/SVG/1.1/DTD/svg11.dtd">
<!-- Creator: CorelDRAW 2018 (64-Bit) -->
<svg xmlns="http://www.w3.org/2000/svg" xml:space="preserve" width="43mm" height="29mm" version="1.1" style="shape-rendering:geometricPrecision; text-rendering:geometricPrecision; image-rendering:optimizeQuality; fill-rule:evenodd; clip-rule:evenodd"
viewBox="0 0 4300 2900"
 xmlns:xlink="http://www.w3.org/1999/xlink">
 <defs>
  <style type="text/css">
   <![CDATA[
    .str0 {stroke:#6556E2;stroke-width:20;stroke-miterlimit:22.9256}
    .str1 {stroke:#6556E2;stroke-width:10;stroke-miterlimit:22.9256}
    .str2 {stroke:#FEFEFE;stroke-width:50;stroke-linejoin:bevel;stroke-miterlimit:22.9256}
    .fil1 {fill:none}
    .fil0 {fill:#6556E2}
   ]]>
  </style>
 </defs>
 <g id="Слой_x0020_1">
  <metadata id="CorelCorpID_0Corel-Layer"/>
  <path class="fil0" d="M233.95 2473.21l23.46 0.02 10.5 -0.02 1784.66 0 0 -0.48 106.7 0.48 109.33 0 0 0.49 1784.64 8.03 0 0 33.96 0.16c51.83,0.23 163.93,24.33 165.98,156.85 2.05,132.52 -115.54,155.61 -167.38,155.34l-23.46 -0.12 -10.5 -0.03 -1891.87 -8.52 -1892.06 0 0 0 -33.96 0c-51.83,0 -164.03,-23.59 -166.68,-156.1 -2.65,-132.51 114.84,-156.13 166.68,-156.1z"/>
  <path class="fil0" d="M355.54 2202.9l0.01 -12.34 -0.01 -5.52 0 -938.22 -0.24 0.01 0.24 -56.1 0 -57.47 0.24 -0.01 4.02 -938.2 0 0 0.08 -17.86c0.12,-27.24 16.91,-86.17 83.17,-87.24l8.45 0 1016.34 -0.82c43.07,0 78,34.92 78,77.99 0,43.09 -34.93,78.01 -78,78.01l-952.16 0.92 -4.04 944.31 0 943.49 1573.01 0.01 0 -0.24 91.07 0.24 93.31 0 0 0.25 1534.42 5.29 0 -886.84 -0.24 0 0.24 -56.09 0 -57.48 0.25 0 3.8 -888.64 -1.64 0 0 0 -34.73 -0.04 -936.63 -2.47c-2.47,0.24 -4.98,0.36 -7.52,0.36 -2.7,0 -5.35,-0.14 -7.98,-0.4l-3.13 -0.01 -0.03 -0.39c-37.8,-5.41 -66.86,-37.91 -66.86,-77.2 0,-43.08 34.93,-78 78,-78l1055.09 3.63c1.37,-0.08 2.74,-0.14 4.15,-0.16 66.26,-1.08 77.8,60.74 77.67,88l-0.06 12.33 -0.02 5.52 -4.26 994.58 0 994.69 0 0 0 17.85c0,27.24 -22.09,85.79 -73.09,85.97 -20.53,0.07 -40.01,-0.33 -60.76,-0.35l0 0 -34.73 -0.04 -1614.65 -4.26 -1643.81 0 28.98 0 -28.98 0c-32.34,0 -66.69,2.03 -98.92,0.56 -63.3,-2.88 -78.07,-60.36 -78.05,-87.62zm160.14 -1956.85l25.97 0 -25.97 0z"/>
  <path class="fil1 str0" d="M1274.08 2178.67c11.53,-2.03 44.97,-5.56 65.51,-17.53 20.59,-12 38.23,-29.64 58.52,-42.87 20.28,-13.23 43.21,-22.04 69.67,-27.34 26.46,-5.29 56.44,-7.05 72.32,-20.28 15.87,-13.23 17.64,-37.93 32.63,-50.28 14.99,-12.34 43.22,-12.34 71.44,-8.81 28.22,3.53 56.45,10.58 81.15,6.17 24.69,-4.41 45.85,-20.28 52.03,-45.86 6.17,-25.58 -2.65,-60.85 -11.47,-94.37 -8.82,-33.51 -17.64,-65.26 -11.46,-81.14 6.17,-15.87 27.33,-15.87 52.91,-13.23 25.58,2.65 55.56,7.94 85.55,7.94 29.99,0 59.97,-5.29 76.73,-16.76 16.76,-11.46 20.28,-29.1 17.64,-45.86 -2.65,-16.75 -11.47,-32.63 -31.75,-39.69 -20.29,-7.05 -52.04,-5.28 -86.43,-3.52 -34.4,1.76 -71.42,3.14 -102.82,-7.8 -27.07,-9.44 -46.24,-26.41 -80.75,-61.54 166.15,-113.17 366.89,-179.35 583.1,-179.35 113.22,0 222.15,18.2 324.15,51.73 -12.89,20.51 -21.49,41.35 -30.49,59.38 -18.5,37.03 -29.11,63.5 -32.64,85.55 -3.52,22.05 0,39.69 12.35,54.68 12.35,15 33.51,27.34 54.68,26.46 21.17,-0.88 42.33,-14.99 56.44,-29.1 14.12,-14.11 21.17,-28.22 31.75,-37.04 10.59,-8.82 24.71,-12.35 43.23,-6.18 18.52,6.18 41.45,22.05 52.91,45.86 11.47,23.82 11.47,55.57 7.94,74.97 -3.53,19.41 -10.58,26.46 -29.99,29.99 -19.4,3.53 -51.15,3.53 -67.91,7.94 -16.75,4.41 -18.52,13.22 -33.51,19.39 -14.99,6.18 -43.22,9.71 -61.74,8.83 -18.52,-0.88 -27.34,-6.18 -36.16,-7.95 -8.82,-1.76 -17.64,0.01 -22.05,13.24 -4.41,13.23 -4.41,37.92 -4.41,59.97 0,22.05 0,41.46 -7.06,52.92 -7.05,11.47 -21.16,14.99 -36.15,19.4 -14.99,4.41 -30.87,9.7 -44.98,14.99 -14.11,5.29 -26.46,10.59 -38.81,22.93 -12.35,12.35 -24.69,31.76 -31.75,48.51 -7.05,16.76 -8.82,30.87 -5.29,44.1 3.53,13.23 12.35,25.57 29.1,38.8 16.76,13.23 41.46,27.35 60.86,35.28 19.4,7.94 33.52,9.76 40.57,9.71 35.69,-0.27 8.88,1.12 41.67,-12.8 26.68,-11.33 -2.63,-54.9 30.65,-18.96 33.28,35.94 51.15,-26.46 67.91,-34.4 16.76,-7.93 23.81,-9.7 30.86,-3.53 7.06,6.18 14.12,20.3 29.99,16.77 15.88,-3.53 40.57,-24.69 50.27,-43.22 9.71,-18.52 4.41,-34.39 10.58,-29.99 6.18,4.41 23.82,29.11 28.23,47.63 4.41,18.52 -4.41,30.87 -9.7,44.98 -5.29,14.11 -7.06,29.99 -5.3,38.8 1.77,8.82 7.07,10.59 17.65,9.7 10.58,-0.88 26.46,-4.4 34.39,-18.51 7.94,-14.11 7.94,-38.81 8.82,-62.62 0.88,-23.81 2.65,-46.75 7.94,-56.45 5.29,-9.7 14.11,-6.17 26.46,4.41 12.35,10.59 28.22,28.22 40.57,37.92 12.35,9.71 21.16,11.47 33.51,18.53 12.35,7.06 28.22,19.41 29.98,31.75 3.02,21.16 15.84,39.28 22.57,73.01m-1722.7 -45.24c63.62,-208.15 230.64,-437.64 411.51,-562.79 -177.19,119.56 -347.38,356.51 -411.51,562.79z"/>
  <path class="fil0 str1" d="M1273.99 2178.69c69.26,-229.79 217.51,-430.72 411.48,-562.82 34.53,35.15 53.7,52.13 80.78,61.57 31.4,10.94 68.42,9.56 102.82,7.8 34.39,-1.76 66.14,-3.53 86.43,3.52 20.28,7.06 29.1,22.94 31.75,39.69 2.64,16.76 -0.88,34.4 -17.64,45.86 -16.76,11.47 -46.74,16.76 -76.73,16.76 -29.99,0 -59.97,-5.29 -85.55,-7.94 -25.58,-2.64 -46.74,-2.64 -52.91,13.23 -6.18,15.88 2.64,47.63 11.46,81.14 8.82,33.52 17.64,68.79 11.47,94.37 -6.18,25.58 -27.34,41.45 -52.03,45.86 -24.7,4.41 -52.93,-2.64 -81.15,-6.17 -28.22,-3.53 -56.45,-3.53 -71.44,8.81 -14.99,12.35 -16.76,37.05 -32.63,50.28 -15.88,13.23 -45.86,14.99 -72.32,20.28 -26.46,5.3 -49.39,14.11 -69.67,27.34 -20.29,13.23 -37.93,30.87 -58.52,42.87 -20.59,12 -54.16,15.52 -65.6,17.55zm1991.52 17.61c-90.51,-324.67 -333.93,-597.28 -672.72,-708.08 -12.91,20.53 -21.52,41.39 -30.53,59.44 -18.5,37.03 -29.11,63.5 -32.64,85.55 -3.52,22.05 0,39.69 12.35,54.68 12.35,15 33.51,27.34 54.68,26.46 21.17,-0.88 42.33,-14.99 56.44,-29.1 14.12,-14.11 21.17,-28.22 31.75,-37.04 10.59,-8.82 24.71,-12.35 43.23,-6.18 18.52,6.18 41.45,22.05 52.91,45.86 11.47,23.82 11.47,55.57 7.94,74.97 -3.53,19.41 -10.58,26.46 -29.99,29.99 -19.4,3.53 -51.15,3.53 -67.91,7.94 -16.75,4.41 -18.52,13.22 -33.51,19.39 -14.99,6.18 -43.22,9.71 -61.74,8.83 -18.52,-0.88 -27.34,-6.18 -36.16,-7.95 -8.82,-1.76 -17.64,0.01 -22.05,13.24 -4.41,13.23 -4.41,37.92 -4.41,59.97 0,22.05 0,41.46 -7.06,52.92 -7.05,11.47 -21.16,14.99 -36.15,19.4 -14.99,4.41 -30.87,9.7 -44.98,14.99 -14.11,5.29 -26.46,10.59 -38.81,22.93 -12.35,12.35 -24.69,31.76 -31.75,48.51 -7.05,16.76 -8.82,30.87 -5.29,44.1 3.53,13.23 12.35,25.57 29.1,38.8 16.76,13.23 41.46,27.35 60.86,35.28 19.4,7.94 33.52,9.76 40.57,9.71 35.69,-0.27 8.88,1.12 41.67,-12.8 26.68,-11.33 -2.63,-54.9 30.65,-18.96 33.28,35.94 51.15,-26.46 67.91,-34.4 16.76,-7.93 23.81,-9.7 30.86,-3.53 7.06,6.18 14.12,20.3 29.99,16.77 15.88,-3.53 40.57,-24.69 50.27,-43.22 9.71,-18.52 4.41,-34.39 10.58,-29.99 6.18,4.41 23.82,29.11 28.23,47.63 4.41,18.52 -4.41,30.87 -9.7,44.98 -5.29,14.11 -7.06,29.99 -5.3,38.8 1.77,8.82 7.07,10.59 17.65,9.7 10.58,-0.88 26.46,-4.4 34.39,-18.51 7.94,-14.11 7.94,-38.81 8.82,-62.62 0.88,-23.81 2.65,-46.75 7.94,-56.45 5.29,-9.7 14.11,-6.17 26.46,4.41 12.35,10.59 28.22,28.22 40.57,37.92 12.35,9.71 21.16,11.47 33.51,18.53 12.35,7.06 28.22,19.4 29.98,31.75 1.77,12.35 -10.57,24.69 -19.39,37.92 -8.82,13.23 -24.9,41.95 -11.48,40.57 322.26,-33.11 139.24,-13.41 322.26,-33.11z"/>
  <path class="fil0 str2" d="M1736.95 762.39c-27.65,-59.76 -43.1,-126.52 -43.1,-196.95 0,-255.72 203.75,-463.02 455.08,-463.02 251.33,0 455.08,207.3 455.08,463.02 0,76.17 -18.09,148.04 -50.1,211.41l-383.81 831.05 -433.15 -845.51zm411.29 -317.35c75.98,0 137.58,61.6 137.58,137.58 0,75.98 -61.6,137.58 -137.58,137.58 -75.98,0 -137.58,-61.6 -137.58,-137.58 0,-75.98 61.6,-137.58 137.58,-137.58z"/>
  <path id="Blue_1_" class="fil0" d="M1082.55 903.32l93.4 0c12.47,0 22.58,-10.11 22.58,-22.58l0 -363.9c0,-12.47 -10.11,-22.58 -22.58,-22.58l-363.9 0c-12.47,0 -22.58,10.11 -22.58,22.58l0 363.9c0,12.47 10.1,22.58 22.58,22.58l192.09 0 78.41 0zm0 0l-10.84 0 0 -158.41 53.17 0 7.97 -61.74 -61.14 0 0 -39.41c0,-17.87 4.97,-30.05 30.6,-30.05l32.69 -0.02 0 -55.21c-5.66,-0.76 -25.06,-2.44 -47.64,-2.44 -47.13,0 -79.4,28.77 -79.4,81.61l0 45.52 -53.31 0 0 61.74 53.31 0 0 158.41 -3.82 0 78.41 0z"/>
  <path class="fil0" d="M1468.37 1043.92c-133.92,0 -242.5,108.58 -242.5,242.5 0,133.92 108.58,242.5 242.5,242.5 133.92,0 242.5,-108.58 242.5,-242.5 0,-133.92 -108.58,-242.5 -242.5,-242.5zm122.59 194.91c3.69,81.64 -57.2,172.66 -164.99,172.66 -32.78,0 -63.27,-9.62 -88.95,-26.09 30.79,3.63 61.53,-4.94 85.92,-24.03 -25.38,-0.47 -46.82,-17.26 -54.24,-40.31 9.12,1.74 18.09,1.23 26.23,-1 -27.91,-5.62 -47.18,-30.75 -46.56,-57.65 7.85,4.34 16.78,6.95 26.29,7.25 -25.84,-17.27 -33.16,-51.41 -17.96,-77.5 28.62,35.12 71.4,58.22 119.63,60.65 -8.47,-36.3 19.08,-71.28 56.56,-71.28 16.68,0 31.77,7.05 42.36,18.33 13.22,-2.59 25.67,-7.44 36.86,-14.08 -4.34,13.55 -13.54,24.91 -25.52,32.11 11.74,-1.42 22.93,-4.53 33.32,-9.16 -7.76,11.68 -17.58,21.9 -28.95,30.09l0 0.01z"/>
  <path class="fil0" d="M865.75 1395.6c60.33,0 67.49,0.23 91.32,1.31 61.23,2.79 89.83,31.84 92.62,92.63 1.09,23.82 1.31,30.97 1.31,91.3 0,60.35 -0.23,67.49 -1.31,91.31 -2.8,60.73 -31.33,89.83 -92.62,92.62 -23.84,1.09 -30.96,1.32 -91.32,1.32 -60.33,0 -67.48,-0.23 -91.3,-1.32 -61.38,-2.8 -89.84,-31.99 -92.63,-92.64 -1.09,-23.82 -1.31,-30.96 -1.31,-91.31 0,-60.33 0.24,-67.46 1.31,-91.3 2.81,-60.77 31.34,-89.84 92.63,-92.63 23.84,-1.07 30.97,-1.3 91.3,-1.3l0 0.01zm0 -40.73c-61.36,0 -69.04,0.26 -93.15,1.36 -82.06,3.76 -127.66,49.3 -131.43,131.43 -1.11,24.12 -1.37,31.8 -1.37,93.17 0,61.37 0.26,69.07 1.36,93.17 3.76,82.06 49.3,127.66 131.43,131.43 24.12,1.09 31.8,1.36 93.17,1.36 61.37,0 69.07,-0.27 93.17,-1.36 81.98,-3.77 127.7,-49.3 131.41,-131.43 1.11,-24.1 1.37,-31.8 1.37,-93.17 0,-61.37 -0.26,-69.05 -1.36,-93.15 -3.69,-81.98 -49.27,-127.66 -131.41,-131.43 -24.11,-1.11 -31.81,-1.37 -93.18,-1.37l-0.01 -0.01zm0 109.92c-64.08,0 -116.03,51.95 -116.03,116.03 0,64.08 51.95,116.05 116.03,116.05 64.08,0 116.03,-51.96 116.03,-116.05 0,-64.08 -51.95,-116.03 -116.03,-116.03zm0 191.35c-41.59,0 -75.31,-33.71 -75.31,-75.32 0,-41.59 33.72,-75.31 75.31,-75.31 41.59,0 75.32,33.72 75.32,75.31 0,41.61 -33.73,75.32 -75.32,75.32zm120.62 -223.04c-14.99,0 -27.13,12.15 -27.13,27.12 0,14.96 12.14,27.11 27.13,27.11 14.97,0 27.09,-12.15 27.09,-27.11 0,-14.97 -12.12,-27.12 -27.09,-27.12z"/>
  <path class="fil0" d="M3377.22 467.57c-79.46,-5.43 -256.44,-5.4 -335.79,0 -85.92,5.86 -96.04,57.76 -96.68,194.37 0.64,136.37 10.67,188.49 96.68,194.38 79.37,5.4 256.33,5.43 335.79,0 85.93,-5.86 96.04,-57.76 96.68,-194.38 -0.64,-136.36 -10.67,-188.48 -96.68,-194.37zm-234.04 282.56l0 -176.38 176.39 88.04 -176.39 88.34z"/>
  <path class="fil0" d="M2976.49 1249.33l0 63.5 105.04 0c-4.23,27.23 -31.75,79.9 -105.04,79.9 -63.24,0 -114.83,-52.36 -114.83,-116.95 0,-64.56 51.59,-116.95 114.83,-116.95 35.98,0 60.06,15.35 73.82,28.58l50.27 -48.42c-32.28,-30.16 -74.08,-48.42 -124.09,-48.42 -102.39,0 -185.21,82.81 -185.21,185.21 0,102.4 82.81,185.21 185.21,185.21 106.89,0 177.83,-75.14 177.83,-180.98 0,-12.17 -1.35,-21.43 -2.94,-30.69l-174.89 0.01zm0 0l449.79 52.92 -79.37 0 0 79.38 -52.92 -0.01 0 -79.38 -79.38 0.01 0 -52.92 79.38 0 0 -79.38 52.92 0.01 0 79.38 79.37 -0.01 0 52.92 -449.79 -52.92z"/>
 </g>
</svg>
