<?xml version="1.0" encoding="UTF-8"?>
<!DOCTYPE svg PUBLIC "-//W3C//DTD SVG 1.1//EN" "http://www.w3.org/Graphics/SVG/1.1/DTD/svg11.dtd">
<!-- Creator: CorelDRAW 2018 (64-Bit) -->
<svg xmlns="http://www.w3.org/2000/svg" xml:space="preserve" width="10.16mm" height="10.16mm" version="1.1" style="shape-rendering:geometricPrecision; text-rendering:geometricPrecision; image-rendering:optimizeQuality; fill-rule:evenodd; clip-rule:evenodd"
viewBox="0 0 1016 1016"
 xmlns:xlink="http://www.w3.org/1999/xlink">
 <defs>
  <style type="text/css">
   <![CDATA[
    .str0 {stroke:#F7595A;stroke-width:20;stroke-miterlimit:22.9256}
    .str1 {stroke:#F7595A;stroke-width:25.39;stroke-miterlimit:22.9256}
    .fil1 {fill:none}
    .fil0 {fill:#F7595A}
   ]]>
  </style>
 </defs>
 <g id="Слой_x0020_1">
  <metadata id="CorelCorpID_0Corel-Layer"/>
  <path class="fil0 str0" d="M98.04 467.35l20.82 0c20.33,0 36.9,16.57 36.9,36.89l0 202.77c0,20.32 -16.57,36.89 -36.9,36.89l-20.82 0c-20.32,0 -36.89,-16.57 -36.89,-36.89l0 -202.77c0,-20.32 16.57,-36.89 36.89,-36.89z"/>
  <path class="fil1 str1" d="M211 492.71c15.82,-6 44.18,-13.64 71.46,-19.09 27.27,-5.46 53.45,-8.73 80.73,-9.82 27.27,-1.09 55.63,0 81.82,4.91 26.18,4.91 50.18,13.64 71.45,22.36 21.28,8.73 39.82,17.46 56.73,23.46 16.91,6 32.18,9.27 46.37,10.9 14.18,1.64 27.27,1.64 44.72,3.28 17.46,1.64 39.28,4.91 62.73,10.36 23.46,5.46 48.55,13.09 64.37,19.64 15.82,6.55 22.36,12 27.27,18.54 4.91,6.55 8.18,14.19 8.73,22.37 0.54,8.18 -1.64,16.91 -4.91,24 -3.28,7.09 -7.64,12.55 -13.64,18 -6,5.46 -13.63,10.91 -22.91,13.64 -9.27,2.73 -20.18,2.73 -32.73,1.64 -12.54,-1.09 -26.72,-3.28 -40.36,-4.91 -13.64,-1.64 -26.73,-2.73 -42.54,-3.28 -15.82,-0.54 -34.37,-0.54 -52.92,-0.54 -18.54,0 -37.09,0 -49.09,0 -12,0 -17.45,0 -19.63,0.54 -2.19,0.55 -1.1,1.64 1.63,3.28 2.73,1.63 7.09,3.82 13.64,6.54 6.54,2.73 15.27,6 25.09,10.36 9.82,4.37 20.73,9.82 30,13.09 9.27,3.28 16.91,4.37 28.37,5.46 11.45,1.09 26.72,2.18 45.81,2.73 19.1,0.55 42,0.55 62.19,-1.09 20.18,-1.64 37.63,-4.91 51.82,-9.82 14.18,-4.91 25.09,-11.46 36.54,-20.18 11.46,-8.73 23.46,-19.64 34.91,-28.37 11.46,-8.72 22.37,-15.27 31.64,-19.09 9.27,-3.82 16.91,-4.91 25.63,-5.46 8.73,-0.54 18.55,-0.54 26.73,1.09 8.18,1.64 14.73,4.91 19.64,9.28 4.91,4.36 8.18,9.82 8.73,15.82 0.54,6 -1.64,12.55 -3.27,18 -1.64,5.46 -2.73,9.82 -4.37,12.54 -1.63,2.73 -3.82,3.82 -4.91,4.37 -1.09,0.54 -1.09,0.54 0.55,1.09 1.64,0.54 4.91,1.64 7.09,3.27 2.18,1.64 3.27,3.82 4.36,7.64 1.09,3.82 2.18,9.27 1.64,14.73 -0.55,5.45 -2.73,10.91 -7.64,16.91 -4.91,6 -12.54,12.54 -36.54,29.45 -24,16.91 -64.37,44.18 -88.92,59.46 -24.54,15.27 -33.27,18.54 -54.54,21.81 -21.28,3.28 -55.09,6.55 -84,10.91 -28.91,4.37 -52.91,9.82 -76.91,13.64 -24,3.82 -48,6 -66.55,6.55 -18.55,0.54 -31.64,-0.55 -51.82,-6.55 -20.18,-6 -47.45,-16.91 -78,-30.55 -30.55,-13.63 -64.36,-30 -96.54,-45.27 -32.19,-15.27 -62.74,-29.45 -82.37,-37.64 -19.64,-8.18 -28.37,-10.36 -38.18,-11.99 -9.82,-1.64 -20.74,-2.73 -27.82,-4.37 -7.1,-1.63 -10.37,-3.82 -12,-8.18 -1.64,-4.36 -1.64,-10.91 -1.64,-44.73 0,-33.82 0,-94.91 1.64,-127.64 1.63,-32.73 4.9,-37.09 20.72,-43.09z"/>
  <path class="fil1 str1" d="M542.95 310.49c-12.52,4.61 -26.03,7.12 -40.13,7.12 -64.17,0 -116.18,-52.01 -116.18,-116.17 0,-64.17 52.01,-116.19 116.18,-116.19 64.17,0 116.18,52.02 116.18,116.19 0,13.13 -2.19,25.75 -6.2,37.53m0 0l164.26 170.44m-234.11 -98.91l47.16 44.5m120.69 123.14l67.49 -1.23m0 0l-1.23 -67.5m-66.26 68.73l0 -40.91 -41.53 -0.62 -0.41 -41.32 -39.89 1.02 -0.41 -41.31 -40.91 0m-84.83 -169.93c9.04,0 16.36,7.33 16.36,16.37 0,9.02 -7.32,16.35 -16.36,16.35 -9.03,0 -16.36,-7.33 -16.36,-16.35 0,-9.04 7.33,-16.37 16.36,-16.37z"/>
 </g>
</svg>
